<?xml version='1.0' encoding='iso-8859-1'?>
<!DOCTYPE svg PUBLIC '-//W3C//DTD SVG 1.1//EN' 'http://www.w3.org/Graphics/SVG/1.1/DTD/svg11.dtd'>
<svg version="1.1" xmlns="http://www.w3.org/2000/svg" viewBox="0 0 512 512" xmlns:xlink="http://www.w3.org/1999/xlink" enable-background="new 0 0 512 512">
  <path d="m477.262,226.75c-12.086-12.094-28.16-18.75-45.262-18.75h-32v-31.928c19.44-14.464 32-37.449 32-64.072 0-44.109-35.891-80-80-80-14.164,0-27.883,3.758-39.961,10.797-21.047-26.758-53.398-42.797-88.039-42.797s-66.992,16.039-88.039,42.797c-12.078-7.039-25.797-10.797-39.961-10.797-44.109,0-80,35.891-80,80 0,26.03 12.688,48.973 32,63.591v288.409c0,26.398 21.602,48 48,48h256c26.398,0 48-21.602 48-48v-32h31.992c35.289,0 64.008-28.711 64.008-64v-95.984c0-17.102-6.652-33.172-18.738-45.266zm-381.262-162.75c12.211,0 23.906,4.711 32.93,13.266 3.594,3.414 8.57,4.969 13.453,4.203 4.898-0.758 9.164-3.742 11.563-8.078 14.101-25.532 40.945-41.391 70.054-41.391s55.953,15.859 70.055,41.391c2.398,4.336 6.664,7.32 11.563,8.078 4.883,0.75 9.859-0.789 13.453-4.203 9.023-8.555 20.718-13.266 32.929-13.266 26.469,0 48,21.531 48,48 0,27.367-20.633,48-48,48-12.211,0-23.906-4.711-32.93-13.266-3.594-3.406-8.555-4.922-13.453-4.203-4.898,0.758-9.164,3.742-11.563,8.078-14.101,25.532-40.945,41.391-70.054,41.391s-55.953-15.859-70.055-41.391c-2.398-4.336-6.664-7.32-11.563-8.078-0.813-0.125-1.633-0.188-2.445-0.188-4.063,0-8.016,1.547-11.008,4.391-9.023,8.555-20.718,13.266-32.929,13.266-26.469,0-48-21.531-48-48 0-26.469 21.531-48 48-48zm64,192.047v143.922c0,0.016 0,0.016 0,0.031 0,8.844-7.156,16-16,16-8.828,0-16-7.156-16-16v-144c0.016-8.844 7.172-16 16-16 8.844,0 16,7.172 16,16 0,0.016 0,0.031 0,0.047zm80,0v143.922c0,0.016 0,0.016 0,0.031 0,8.844-7.156,16-16,16-8.828,0-16-7.156-16-16v-144c0.016-8.844 7.172-16 16-16 8.844,0 16,7.172 16,16 0,0.016 0,0.031 0,0.047zm80,0v143.922c0,0.016 0,0.016 0,0.031 0,8.844-7.156,16-16,16-8.828,0-16-7.156-16-16v-144c0.016-8.844 7.172-16 16-16 8.844,0 16,7.172 16,16 0,0.016 0,0.031 0,0.047zm112,111.953h-32v-96h32v96z"/>
</svg>
