<?xml version="1.0" encoding="iso-8859-1"?>
<!-- Generator: Adobe Illustrator 19.0.0, SVG Export Plug-In . SVG Version: 6.00 Build 0)  -->
<svg version="1.1" id="Capa_1" xmlns="http://www.w3.org/2000/svg" xmlns:xlink="http://www.w3.org/1999/xlink" x="0px" y="0px"
	 viewBox="0 0 57.88 57.88" style="enable-background:new 0 0 57.88 57.88;" xml:space="preserve">
<g>
	<g>
		<g>
			<path d="M14.357,12.993c-0.423-0.027-0.959-0.052-1.553-0.052c-3.02,0-5.149,0.63-6.329,1.872
				c-0.744,0.784-1.091,1.772-1.032,2.888v7.652c0,1.014,0.371,1.988,1.037,2.738l9.209,10.565C15.885,38.88,16.161,39,16.445,39
				c0.132,0,0.265-0.026,0.392-0.08c0.399-0.17,0.643-0.577,0.604-1.009L15.29,13.902C15.245,13.411,14.849,13.024,14.357,12.993z"
				/>
			<path d="M34.444,29c-3.856,0-6.994,2.911-6.994,6.49l-0.006,20.39c0,0.457,0.557,0.977,1,1.089c2.537,0.647,4.216,0.911,6,0.911
				c1.771,0,3.175-0.349,6-1c0.454-0.104,1-0.534,1-1V35.605C41.444,31.963,38.304,29,34.444,29z M38.151,52.173
				c0.391,0.391,0.391,1.023,0,1.414c-0.195,0.195-0.451,0.293-0.707,0.293s-0.512-0.098-0.707-0.293l-2.293-2.293l-2.293,2.293
				c-0.195,0.195-0.451,0.293-0.707,0.293s-0.512-0.098-0.707-0.293c-0.391-0.391-0.391-1.023,0-1.414l2.293-2.293l-2.293-2.293
				c-0.391-0.391-0.391-1.023,0-1.414s1.023-0.391,1.414,0l2.293,2.293l2.293-2.293c0.391-0.391,1.023-0.391,1.414,0
				s0.391,1.023,0,1.414l-2.293,2.293L38.151,52.173z M38.151,40.293c0.391,0.391,0.391,1.023,0,1.414
				C37.956,41.902,37.7,42,37.444,42s-0.512-0.098-0.707-0.293l-2.293-2.293l-2.293,2.293C31.956,41.902,31.7,42,31.444,42
				s-0.512-0.098-0.707-0.293c-0.391-0.391-0.391-1.023,0-1.414L33.03,38l-2.293-2.293c-0.391-0.391-0.391-1.023,0-1.414
				s1.023-0.391,1.414,0l2.293,2.293l2.293-2.293c0.391-0.391,1.023-0.391,1.414,0s0.391,1.023,0,1.414L35.858,38L38.151,40.293z"/>
			<path d="M48.966,41.052c-0.296-0.181-0.668-0.195-0.977-0.036c-0.835,0.428-2.368,1.1-4.544,1.674v14.647
				c0,0.122-0.016,0.24-0.03,0.358c3.659-1.039,5.551-2.495,5.647-2.571c0.242-0.189,0.383-0.479,0.383-0.787V41.906
				C49.444,41.557,49.263,41.234,48.966,41.052z"/>
			<path d="M25.449,42.663c-2.137-0.58-3.696-1.252-4.561-1.68c-0.31-0.152-0.677-0.135-0.971,0.047
				c-0.294,0.183-0.473,0.504-0.473,0.85v12.457c0,0.346,0.179,0.667,0.472,0.85c0.109,0.068,2.211,1.355,5.549,2.401
				c-0.007-0.084-0.021-0.166-0.021-0.251L25.449,42.663z"/>
			<path d="M48.517,2.18C46.593,0.754,44.198,0,41.593,0H25.511c-0.485,0-0.956,0.06-1.401,0.177
				c-1.913,0.503-8.155,2.714-8.151,10.109l2.49,27.803c0.028,0.309,0.197,0.587,0.458,0.754c0.115,0.073,2.414,1.515,6.542,2.557
				l0.002-5.91c0-4.681,4.035-8.489,8.994-8.489c4.962,0,9,3.86,9,8.605v5.815c4.263-1.043,6.459-2.522,6.567-2.597
				c0.25-0.172,0.408-0.448,0.43-0.752l2.002-27.874C52.444,6.856,51.086,4.084,48.517,2.18z M46.444,17c-0.552,0-1-0.447-1-1
				c0-4.963-4.038-9-9-9c-0.552,0-1-0.447-1-1s0.448-1,1-1c6.065,0,11,4.935,11,11C47.444,16.553,46.996,17,46.444,17z"/>
		</g>
	</g>
</g>
<g>
</g>
<g>
</g>
<g>
</g>
<g>
</g>
<g>
</g>
<g>
</g>
<g>
</g>
<g>
</g>
<g>
</g>
<g>
</g>
<g>
</g>
<g>
</g>
<g>
</g>
<g>
</g>
<g>
</g>
</svg>
