<?xml version="1.0" encoding="iso-8859-1"?>
<!-- Generator: Adobe Illustrator 18.0.0, SVG Export Plug-In . SVG Version: 6.00 Build 0)  -->
<!DOCTYPE svg PUBLIC "-//W3C//DTD SVG 1.1//EN" "http://www.w3.org/Graphics/SVG/1.1/DTD/svg11.dtd">
<svg version="1.1" id="Capa_1" xmlns="http://www.w3.org/2000/svg" xmlns:xlink="http://www.w3.org/1999/xlink" x="0px" y="0px"
	 viewBox="0 0 497.043 497.043" style="enable-background:new 0 0 497.043 497.043;" xml:space="preserve">
<g>
	<path d="M407.309,134.481c23.795,6.199,48.104-8.057,54.295-31.853c6.205-23.787-8.068-48.105-31.846-54.288
		c-23.797-6.213-48.105,8.066-54.295,31.838C369.256,103.984,383.528,128.293,407.309,134.481z"/>
	<path d="M483.297,380.179h-58.719c-3.912,0-7.072,3.167-7.072,7.071v55.738c0,3.905,3.16,7.072,7.072,7.072h58.719
		c3.912,0,7.072-3.167,7.072-7.072V387.25C490.369,383.346,487.209,380.179,483.297,380.179z"/>
	<path d="M489.824,349.544c5.452-6.166,8.002-14.376,7.008-22.546l-18.986-154.545c-1.939-15.755-16.131-26.939-32.037-25.015
		c-15.746,1.932-26.939,16.268-25.016,32.021l0.623,5.066l-28.267,38.902h-53.123c-13.598,0-24.63,11.024-24.63,24.63
		c0,5.417,1.802,10.381,4.765,14.448H176.538c3.159-4.142,5.108-9.253,5.108-14.865c0-13.606-11.031-24.63-24.629-24.63h-53.124
		L75.627,184.11l0.622-5.066c1.924-15.754-9.269-30.089-25.015-32.021c-15.923-1.94-30.098,9.26-32.038,25.015L0.211,326.582
		c-0.994,8.169,1.555,16.38,7.008,22.545c5.451,6.165,13.293,9.693,21.519,9.693h70.811v62.601
		c0,15.866,12.859,28.734,28.734,28.734s28.734-12.868,28.734-28.734v-91.336c0-3.571-0.732-6.954-1.924-10.11h47.285v123.013
		c0,3.905,3.159,7.072,7.073,7.072h75.14c3.913,0,7.07-3.167,7.07-7.072V319.975h50.418c-1.291,3.267-2.055,6.802-2.055,10.527
		v91.336c0,15.866,12.859,28.734,28.734,28.734s28.734-12.868,28.734-28.734v-62.601h70.811
		C476.531,359.237,484.373,355.709,489.824,349.544z M61.225,301.351l5.595-45.544l4.587,6.314
		c4.635,6.374,12.043,10.15,19.932,10.15h31.371c-4.492,5.071-7.303,11.665-7.303,18.969c0,3.572,0.732,6.954,1.924,10.11H61.225z
		 M376.584,301.768c1.291-3.268,2.054-6.802,2.054-10.527c0-7.11-2.679-13.534-6.958-18.553h34.025
		c7.889,0,15.297-3.776,19.932-10.15l4.586-6.314l5.596,45.544H376.584z"/>
	<path d="M89.734,134.064c23.779-6.189,38.051-30.498,31.845-54.302C115.391,55.992,91.08,41.71,67.285,47.924
		c-23.779,6.183-38.051,30.5-31.844,54.288C41.629,126.008,65.939,140.263,89.734,134.064z"/>
	<path d="M72.464,379.762h-58.72c-3.912,0-7.071,3.167-7.071,7.071v55.738c0,3.905,3.159,7.072,7.071,7.072h58.72
		c3.913,0,7.072-3.167,7.072-7.072v-55.738C79.536,382.929,76.377,379.762,72.464,379.762z"/>
</g>
<g>
</g>
<g>
</g>
<g>
</g>
<g>
</g>
<g>
</g>
<g>
</g>
<g>
</g>
<g>
</g>
<g>
</g>
<g>
</g>
<g>
</g>
<g>
</g>
<g>
</g>
<g>
</g>
<g>
</g>
</svg>
