<?xml version="1.0" encoding="iso-8859-1"?>
<!-- Generator: Adobe Illustrator 18.0.0, SVG Export Plug-In . SVG Version: 6.00 Build 0)  -->
<!DOCTYPE svg PUBLIC "-//W3C//DTD SVG 1.1//EN" "http://www.w3.org/Graphics/SVG/1.1/DTD/svg11.dtd">
<svg version="1.1" id="Capa_1" xmlns="http://www.w3.org/2000/svg" xmlns:xlink="http://www.w3.org/1999/xlink" x="0px" y="0px"
	 viewBox="0 0 458.497 458.497" style="enable-background:new 0 0 458.497 458.497;" xml:space="preserve">
<g>
	<path d="M378.889,317.793v92.768c0,10.954,8.88,19.834,19.834,19.834c10.954,0,19.834-8.88,19.834-19.834V306.413
		C405.759,314.361,391.958,318.147,378.889,317.793z"/>
	<path d="M325.215,265.227c-0.027-0.348-0.081-0.687-0.149-1.022l-24.651,44.845c-1.457,2.651-2.288,5.6-2.431,8.622l-4.327,91.957
		c-0.515,10.942,7.937,20.23,18.879,20.745c0.319,0.015,0.633,0.022,0.949,0.022c10.524-0.001,19.295-8.278,19.796-18.901
		l4.111-87.365l9.506-17.293C333.819,296.918,326.483,281.879,325.215,265.227z"/>
	<circle cx="374.612" cy="62.193" r="34.255"/>
	<path d="M234.861,172.988l47.705,24.254c0.129-0.528,0.26-1.056,0.404-1.585l-31.305-24.526
		C246.679,173.607,240.74,174.422,234.861,172.988z"/>
	<path d="M409.542,248.578l-19.251,24.573c-2.989,3.815-8.506,4.488-12.325,1.497c-3.816-2.99-4.487-8.508-1.496-12.325l3.348-4.274
		c-8.439-1.426-16.076-6.149-21.088-13.247c-3.182-4.504-5.117-9.628-5.727-14.959c-3.445,0.265-6.994-0.692-9.928-2.991
		c-6.229-4.879-7.322-13.885-2.442-20.113c4.887-6.237,14.044-7.428,20.392-2.2c1.62-1.808,3.449-3.451,5.48-4.886l13.341-9.421
		c-11.143-6.765-7.987-14.419-18.187-22.41c-0.001-0.001-0.002-0.001-0.003-0.003c-13.581-10.626-32.931-6.058-46.208,5.247
		c-5.486-4.298-45.555-35.69-51.078-40.017l3.245-4.142c2.99-3.817,2.32-9.335-1.497-12.325c-3.814-2.988-9.329-2.298-12.305,1.474
		c-0.006,0.007-0.013,0.014-0.02,0.022l-3.245,4.142c-0.637-0.499-0.096-0.075-2.764-2.165l3.245-4.142
		c2.99-3.816,2.32-9.335-1.497-12.325c-3.763-2.947-9.31-2.351-12.325,1.497l-3.245,4.141l-1.612-1.263
		c-4.426-3.467-10.742-2.992-14.603,0.96c-4.62,4.728-4.035,12.318,1.068,16.316l1.613,1.263l-3.245,4.142
		c-2.99,3.816-2.32,9.335,1.497,12.325c3.854,3.017,9.372,2.273,12.325-1.497l3.245-4.142l2.764,2.165l-3.245,4.142
		c-3.041,3.881-2.327,9.605,1.831,12.565c3.824,2.721,9.078,1.95,11.971-1.714c0.006-0.008,0.013-0.014,0.02-0.022l3.245-4.142
		l51.078,40.017c-4.624,9.248-6.647,20.234-4.103,30.25c2.959,11.645,11.689,19.635,23.018,21.45
		c11.151,1.788,19.373,11.043,20.206,21.979c0.887,11.646,5.687,22.547,14.99,29.831c0.003,0.003,0.006,0.004,0.009,0.007
		c23.725,18.573,63.634,3.79,80.816-30.276c5.981-11.867,8.82-25.682,6.264-38.713L409.542,248.578z"/>
	<path d="M458.179,146.283c-0.109-21.459-17.655-38.916-39.114-38.916c0,0-74.112,0-88.907,0c-16.681,0-30.492,10.894-36.695,28.318
		l22.612,17.716c2.5-1.388,5.063-2.583,7.664-3.593c0.085-0.388,0.976-2.459,2.108-5.007c0.518-1.167,1.782-1.812,3.031-1.547
		c1.249,0.265,2.144,1.369,2.142,2.645l-0.002,1.614c4.163-1.012,8.378-1.537,12.572-1.537c10.41,0,20.043,3.235,27.856,9.356
		c5.87,4.6,10.358,10.501,13.339,17.542c1.289,3.045,4.256,5.012,7.559,5.012c0.463,0,4.028-0.522,5.995-0.711l20.226-14.283
		v-16.375c0-1.807,1.463-3.274,3.27-3.279c1.807-0.005,3.279,1.453,3.288,3.262c0-0.001,0,0,0,0
		c0.123,15.357,0.106,13.216,0.248,31.011l-49.712,35.104c-7.456,5.266-9.233,15.578-3.967,23.035
		c5.226,7.403,15.534,9.265,23.035,3.968c5.93-4.187,50.517-35.671,56.776-40.091c4.404-3.112,7.035-8.233,6.994-13.634
		C458.22,151.375,458.298,161.119,458.179,146.283z"/>
	<circle cx="102.381" cy="139.691" r="34.959"/>
	<path d="M96.234,284.934l63.17,3.721c8.876,0.491,16.235-6.256,16.743-14.88c0.514-8.732-6.148-16.228-14.88-16.743l-54.693-3.222
		l-25.86-44.372l28.732,28.675l14.104,0.831l3.4-16.816c2.585-12.785-5.683-25.243-18.467-27.828l-41.279-8.347
		c-12.916-2.611-25.268,5.805-27.828,18.467l-19.334,95.615c-2.222,10.989,3.579,21.732,13.371,26.175H10.29
		C4.607,326.21,0,330.817,0,336.5c0,5.682,4.607,10.29,10.29,10.29h7.632c0.455,1.673,1.331,3.256,2.645,4.57l30.736,30.735
		l-30.736,30.735c-4.018,4.019-4.018,10.534,0,14.552c4.021,4.019,10.533,4.018,14.552,0l30.736-30.735l16.983,16.982
		c1.845,15.392,19.373,19.967,26.746,15.031c4.626-2.114,8.403-6.056,10.139-11.262l29.501-88.418
		c3.59-10.757-2.993-22.24-14.059-24.602c-10.461-2.235-1.629-1.379-46.481-4.022c-9.143-0.539-16.567-6.923-18.885-15.282
		l-16.453-59.685l30.137,51.71C86.153,281.681,90.94,284.623,96.234,284.934z M45.102,346.789h41.505l-20.753,20.752L45.102,346.789
		z M80.407,382.094l16.54-16.54l-8.276,24.805L80.407,382.094z"/>
	<path d="M238.694,352.951c-24.647-20.56-18.804-38.521-14.828-45.679c0.828-1.49-0.41-3.296-2.099-3.067
		c-8.133,1.105-25.312,6.793-29.297,34.865c-0.008,0.058-0.008,0.117-0.016,0.175c-5.061-4.446-12.291-5.269-17.929-5.07
		c-2.146,0.075-2.778,3.004-0.849,3.949c22.844,11.189-6.309,33.302-11.648,52.139c-6.919,24.416,9.039,34.948,17.938,38.805
		c1.725,0.748,3.517-1.012,2.75-2.729c-5.804-12.979-0.838-31.025,8.069-40.025c9.006-9.101,10.229-16.435,9.353-26.377
		c-0.157-1.78,1.878-2.95,3.307-1.876c9.08,6.827,12.702,22.488,8.992,34.457c-0.47,1.517,0.874,2.989,2.424,2.645
		c3.298-0.73,8.038-2.697,10.481-7.987c0.45-0.975,1.54-1.518,2.554-1.166c12.214,4.243,18.485,24.622,13.393,41.725
		c-0.485,1.628,1.129,3.119,2.722,2.533C260.388,424.238,272.412,381.079,238.694,352.951z"/>
</g>
<g>
</g>
<g>
</g>
<g>
</g>
<g>
</g>
<g>
</g>
<g>
</g>
<g>
</g>
<g>
</g>
<g>
</g>
<g>
</g>
<g>
</g>
<g>
</g>
<g>
</g>
<g>
</g>
<g>
</g>
</svg>
