<?xml version="1.0" encoding="iso-8859-1"?>
<!-- Generator: Adobe Illustrator 19.0.0, SVG Export Plug-In . SVG Version: 6.00 Build 0)  -->
<svg version="1.1" id="Layer_1" xmlns="http://www.w3.org/2000/svg" xmlns:xlink="http://www.w3.org/1999/xlink" x="0px" y="0px"
	 viewBox="0 0 512 512" style="enable-background:new 0 0 512 512;" xml:space="preserve">
<g>
	<g>
		<path d="M197.632,346.139v140.977c0,9.121-2.949,17.548-7.935,24.397c1.591,0.319,3.235,0.488,4.919,0.488
			c13.744,0,24.886-11.142,24.886-24.886V354.851C211.849,353.661,204.634,353.366,197.632,346.139z"/>
	</g>
</g>
<g>
	<g>
		<path d="M196.188,133.638l34.359,17.343l0.019-14.16c0.023-17.637-13.325-31.951-29.817-31.974l-39.175-0.803
			c-17.059-0.35-30.686,13.375-30.729,30.414c-0.213,83.38,0,344.7,0,352.655c0,13.744,11.536,24.886,25.28,24.886
			s24.886-11.142,24.886-24.886c0-8.067,0-179.177,0-187.23l16.62,0.264l15.314-43.954c-14.225-6.96-17.822-8.719-32.048-15.678
			c-4.603-2.252-7.823-6.282-9.228-10.821l-10.09-33.043c-16.264-9.664-22.195-30.305-13.713-47.109
			C156.819,131.803,178.457,124.688,196.188,133.638z"/>
	</g>
</g>
<g>
	<g>
		<path d="M378.261,455.049l-37.559-66.648v-14.701l-22.55-3.507v72.591l19.733,35.017c6.283,11.151,20.415,15.093,31.564,8.811
			C380.6,480.329,384.543,466.198,378.261,455.049z"/>
	</g>
</g>
<g>
	<g>
		<path d="M255.208,360.403v128.228h-0.001c0,12.797,10.374,23.172,23.172,23.172s23.172-10.375,23.172-23.172v-121.02
			L255.208,360.403z"/>
	</g>
</g>
<g>
	<g>
		<path d="M327.169,24.232c-21.846-3.397-42.3,11.56-45.695,33.395c-3.397,21.84,11.554,42.299,33.395,45.695
			c21.844,3.397,42.3-11.558,45.695-33.395C363.961,48.087,349.009,27.629,327.169,24.232z"/>
	</g>
</g>
<g>
	<g>
		<circle cx="206.535" cy="43.905" r="43.905"/>
	</g>
</g>
<g>
	<g>
		<path d="M296.423,232.083l-25.179-12.318l-8.11,8.481c-7.755,8.11-19.674,9.839-29.201,5.042
			c-8.511-4.306-0.104-0.059-54.991-27.765l8.857,13.873c1.18,1.847,2.791,3.637,4.675,5.062c2.518,1.911-3.866-1.476,86.722,42.841
			c9.721,4.756,21.464,0.732,26.222-8.995C310.174,248.581,306.148,236.841,296.423,232.083z"/>
	</g>
</g>
<g>
	<g>
		<path d="M357.48,149.742l-0.012-0.465c-0.326-12.209-8.666-21.951-19.479-23.633c-15.728-2.446-25.696-3.996-39.867-6.2
			c-10.559-1.642-21.644,4.852-25.737,16.601l-5.987,17.184l29.313-10.048l-53.019,33.91l-54.542-27.531
			c-8.944-4.513-19.849-0.924-24.362,8.018c-4.513,8.941-0.924,19.849,8.018,24.362l63.773,32.19
			c5.667,2.86,12.48,2.581,17.943-0.912l61.73-39.481l-30.131,31.511l19.711,9.643c19.219,9.403,27.176,32.604,17.774,51.823
			c-9.402,19.219-32.604,27.176-51.822,17.774l-42.82-20.949l-20.772,59.617c-2.227,6.391,1.487,13.207,7.642,14.165
			c29.762,4.629,106.554,16.572,136.336,21.204c6.151,0.958,11.763-4.431,11.583-11.175L357.48,149.742z"/>
	</g>
</g>
<g>
</g>
<g>
</g>
<g>
</g>
<g>
</g>
<g>
</g>
<g>
</g>
<g>
</g>
<g>
</g>
<g>
</g>
<g>
</g>
<g>
</g>
<g>
</g>
<g>
</g>
<g>
</g>
<g>
</g>
</svg>
