<?xml version="1.0" encoding="iso-8859-1"?>
<!-- Generator: Adobe Illustrator 16.0.0, SVG Export Plug-In . SVG Version: 6.00 Build 0)  -->
<!DOCTYPE svg PUBLIC "-//W3C//DTD SVG 1.1//EN" "http://www.w3.org/Graphics/SVG/1.1/DTD/svg11.dtd">
<svg version="1.1" id="Capa_1" xmlns="http://www.w3.org/2000/svg" xmlns:xlink="http://www.w3.org/1999/xlink" x="0px" y="0px"
	 width="248.914px" height="248.914px" viewBox="0 0 248.914 248.914" style="enable-background:new 0 0 248.914 248.914;"
	 xml:space="preserve">
<g>
	<g>
		<path d="M201.711,49.583c-5.46,0-9.895,3.771-9.895,8.419c0,4.653,4.435,8.419,9.895,8.419c5.316,0,9.643-3.566,9.876-8.032
			c5.105-13.6,4.106-24.078,3.043-29.137c-0.747-3.533-4.2-6.295-7.851-6.295l-23.27-0.01c-1.857,0-3.594,0.724-4.9,2.03
			c-1.382,1.391-2.138,3.276-2.129,5.32c0.038,5.699-1.223,13.306-2.305,18.776c-0.906-0.233-1.877-0.364-2.885-0.364
			c-5.461,0-9.895,3.771-9.895,8.424c0,4.648,4.438,8.419,9.895,8.419c5.055,0,9.213-3.22,9.819-7.378l0.075,0.019
			c0.163-0.653,3.826-15.523,4.079-26.453l20.898,0.009c0.668,3.617,1.111,9.983-1.124,18.323
			C203.988,49.765,202.878,49.583,201.711,49.583z"/>
		<path d="M35.864,137.832c2.021,4.191,7.649,5.661,12.568,3.295c4.793-2.301,7.141-7.393,5.414-11.519
			c-1.3-14.472-6.744-23.475-9.896-27.577c-2.208-2.852-6.515-3.851-9.808-2.264l-20.969,10.085
			c-1.673,0.803-2.926,2.208-3.533,3.958c-0.644,1.849-0.501,3.883,0.392,5.717c2.504,5.12,4.669,12.522,6.06,17.921
			c-0.921,0.183-1.851,0.485-2.753,0.925c-4.917,2.366-7.273,7.687-5.255,11.877c2.021,4.191,7.645,5.666,12.569,3.295
			c4.548-2.188,6.9-6.902,5.642-10.906l0.077-0.015c-0.133-0.662-3.288-15.644-7.799-25.608l18.83-9.054
			c2.17,2.973,5.334,8.513,6.935,16.998c-1.076,0.168-2.156,0.49-3.208,0.994C36.202,128.32,33.846,133.642,35.864,137.832z"/>
		<circle cx="110.565" cy="38.136" r="21.004"/>
		<path d="M14.337,232.868h220.239c7.921,0,14.338-6.272,14.338-14.021c0-7.747-6.417-14.024-14.338-14.024h-67.262
			c0.393-0.145,0.794-0.28,1.176-0.504c3.291-1.993,4.351-6.277,2.357-9.572l-39.278-65.017v-32.11
			c17.88,16.139,26.523,41.985,26.677,42.457c0.957,2.949,3.692,4.825,6.637,4.825c0.705,0,1.434-0.106,2.138-0.336
			c3.673-1.181,5.68-5.115,4.494-8.773c-0.588-1.807-12.661-38.261-39.969-55.697c-0.111-9.525-7.852-17.217-17.406-17.217h-7.159
			c-4.587,0-8.732,1.811-11.843,4.709c-21.464-15.322-31.79-46.194-31.962-46.717c-1.19-3.654-5.108-5.67-8.774-4.485
			c-3.671,1.185-5.678,5.115-4.492,8.774c0.581,1.801,12.564,37.98,39.642,55.501v55.791L76.045,160.15
			c-1.104,1.937-1.218,4.279-0.296,6.319l15.681,34.751c0.793,1.76,2.245,2.978,3.918,3.603H14.337
			C6.419,204.823,0,211.105,0,218.848C0,226.591,6.419,232.868,14.337,232.868z M89.914,163.968l13.301-23.335h18.647l37.047,61.325
			c0.845,1.396,2.114,2.338,3.528,2.87h-62.156c0.119-0.047,0.248-0.065,0.367-0.117c3.507-1.582,5.075-5.712,3.489-9.222
			L89.914,163.968z"/>
	</g>
</g>
<g>
</g>
<g>
</g>
<g>
</g>
<g>
</g>
<g>
</g>
<g>
</g>
<g>
</g>
<g>
</g>
<g>
</g>
<g>
</g>
<g>
</g>
<g>
</g>
<g>
</g>
<g>
</g>
<g>
</g>
</svg>
