<?xml version="1.0" encoding="iso-8859-1"?>
<!-- Generator: Adobe Illustrator 19.0.0, SVG Export Plug-In . SVG Version: 6.00 Build 0)  -->
<svg version="1.1" id="Capa_1" xmlns="http://www.w3.org/2000/svg" xmlns:xlink="http://www.w3.org/1999/xlink" x="0px" y="0px"
	 viewBox="0 0 60.02 60.02" style="enable-background:new 0 0 60.02 60.02;" xml:space="preserve">
<g>
	<path d="M59.713,2.215c-0.522-1.57-1.855-2.367-3.708-2.191c-0.067,0.005-1.549,0.144-3.668,0.809l-0.54-0.54
		c-0.188-0.188-0.442-0.293-0.707-0.293h-2c-0.265,0-0.52,0.105-0.707,0.293l-1,1c-0.188,0.188-0.293,0.441-0.293,0.707v1.242
		c-0.272,0.169-0.544,0.344-0.814,0.529l-0.479-0.479c-0.188-0.188-0.442-0.293-0.707-0.293h-2c-0.265,0-0.52,0.105-0.707,0.293
		l-1,1c-0.188,0.188-0.293,0.441-0.293,0.707v2c0,0.266,0.105,0.52,0.293,0.707l0.369,0.369c-0.302,0.556-0.499,1.155-0.57,1.775
		l-6.18,7.223l5.629,5.629l6.253-7.244c0.243-0.042,0.486-0.099,0.726-0.178c0.602-0.197,1.173-0.487,1.699-0.859
		c0.807-0.572,1.427-1.44,1.745-2.445c0.042-0.132,0.082-0.273,0.124-0.423c0.205-0.728,0.417-1.48,1.222-2.229
		c0.394-0.366,1.435-0.786,2.195-1.093l0.378-0.152c0.125-0.052,0.359-0.093,0.607-0.138c0.82-0.146,2.06-0.367,3.141-1.536
		C59.804,5.237,60.183,3.631,59.713,2.215z M49.504,2.001h1.16l0.426,0.419v1.167l-0.414,0.414h-1.172L49.09,3.586V2.415
		L49.504,2.001z M43.504,5.001h1.172l0.414,0.414v1.172l-0.414,0.414h-1.172L43.09,6.586V5.415L43.504,5.001z"/>
	<polygon points="31.09,21.647 36.7,27.257 39.321,24.221 33.698,18.598 	"/>
	<polygon points="27.177,26.22 32.769,31.812 35.39,28.775 29.786,23.171 	"/>
	<path d="M31.919,36.134c-0.753,0-1.623,0.139-2.68,0.432c-0.002,0.001-0.239,0.068-0.623,0.056l2.842-3.293l-5.586-5.586
		l-0.778,0.909c0.11-0.541,0.256-1.116,0.446-1.72c0.372-1.184,0.187-2.463-0.507-3.51c-0.67-1.012-1.731-1.656-2.91-1.77
		c-1.626-0.159-3.266,0.694-4.699,2.525l-0.115,0.146l-0.054,0.179c-0.732,2.406-3.405,8.859-6.93,9.803
		c-2.819,0.755-4.88,1.786-6.486,3.244c-4.148,3.765-4.864,8.636-2.014,13.718c1.18,2.104,2.815,3.976,4.859,5.562
		c0.632,0.49,1.276,0.943,1.916,1.349c1.907,1.204,4.086,1.841,6.302,1.841c5.997,0,10.936-4.44,11.488-10.333l0.021-0.26
		c0.261-3.463,2.375-6.408,5.384-7.502c0.326-0.119,0.669-0.229,1.028-0.328c0.8-0.22,1.485-0.759,1.881-1.479
		c0.365-0.664,0.448-1.417,0.234-2.119C34.728,37.303,34.053,36.134,31.919,36.134z M24.929,39.838l-8.374,8.374l1.414,1.414
		c0.38,0.38,0.392,0.991,0.027,1.386l-2.83,3.06c-0.185,0.2-0.443,0.315-0.715,0.321c-0.006,0-0.013,0-0.02,0
		c-0.265,0-0.52-0.105-0.707-0.293L5.24,45.615c-0.38-0.38-0.392-0.992-0.027-1.386l2.83-3.06c0.185-0.2,0.442-0.315,0.714-0.321
		c0.273-0.006,0.534,0.102,0.727,0.293l1.414,1.415l9.374-9.374c0.391-0.391,1.023-0.391,1.414,0s0.391,1.023,0,1.414l-9.374,9.374
		l0.707,0.707l8.374-8.374c0.391-0.391,1.023-0.391,1.414,0s0.391,1.023,0,1.414l-8.374,8.374l0.707,0.707l8.374-8.374
		c0.391-0.391,1.023-0.391,1.414,0S25.319,39.448,24.929,39.838z"/>
</g>
<g>
</g>
<g>
</g>
<g>
</g>
<g>
</g>
<g>
</g>
<g>
</g>
<g>
</g>
<g>
</g>
<g>
</g>
<g>
</g>
<g>
</g>
<g>
</g>
<g>
</g>
<g>
</g>
<g>
</g>
</svg>
