<?xml version="1.0" encoding="iso-8859-1"?>
<!-- Generator: Adobe Illustrator 16.0.0, SVG Export Plug-In . SVG Version: 6.00 Build 0)  -->
<!DOCTYPE svg PUBLIC "-//W3C//DTD SVG 1.1//EN" "http://www.w3.org/Graphics/SVG/1.1/DTD/svg11.dtd">
<svg version="1.1" id="Capa_1" xmlns="http://www.w3.org/2000/svg" xmlns:xlink="http://www.w3.org/1999/xlink" x="0px" y="0px"
	 width="456.985px" height="456.985px" viewBox="0 0 456.985 456.985" style="enable-background:new 0 0 456.985 456.985;"
	 xml:space="preserve">
<g>
	<g>
		<path d="M449.134,70.604H7.85c-4.34,0-7.85,3.518-7.85,7.85V378.53c0,4.349,3.51,7.851,7.85,7.851h441.284
			c4.332,0,7.851-3.502,7.851-7.851V78.454C456.985,74.122,453.466,70.604,449.134,70.604z M441.284,362.829
			c0,4.349-3.503,7.851-7.851,7.851H23.551c-4.34,0-7.851-3.502-7.851-7.851V94.155c0-4.332,3.511-7.851,7.851-7.851h409.882
			c4.348,0,7.851,3.519,7.851,7.851V362.829z"/>
		<path d="M34.057,262.399h19.718c4.342,0,7.851-3.511,7.851-7.847v-52.095c0-4.34-3.508-7.851-7.851-7.851H34.057
			c-4.342,0-7.851,3.511-7.851,7.851v52.095C26.207,258.881,29.715,262.399,34.057,262.399z M43.813,212.194L43.813,212.194
			c0.022-0.008,0.058,0,0.088,0c0.022,0,0.046-0.008,0.068-0.008v0.016c1.673,0.08,3.001,1.445,3.001,3.14
			c0,1.689-1.329,3.062-3.001,3.138v0.008c-0.022,0-0.052,0-0.076,0c-0.034,0-0.064,0-0.088,0v-0.008
			c-1.671-0.084-2.998-1.449-2.998-3.138C40.815,213.647,42.142,212.282,43.813,212.194z M40.224,219.927
			c0.042-0.108,0.097-0.196,0.159-0.281c0-0.008,0.008-0.008,0.008-0.008c0.022-0.042,0.05-0.072,0.08-0.102l0,0
			c0.134-0.143,0.291-0.255,0.487-0.301l-0.008-0.03h0.068h0.15h0.068h5.356h0.072h0.138h0.074l-0.008,0.03
			c0.194,0.046,0.353,0.15,0.487,0.301h0.006c0.032,0.03,0.054,0.06,0.078,0.102c0,0,0.006,0,0.006,0.008
			c0.066,0.084,0.12,0.172,0.15,0.281l4.098,11.188c0.23,0.644-0.106,1.341-0.744,1.575c-0.643,0.23-1.349-0.101-1.579-0.744
			l-2.577-6.628l0.473,7.146l2.342,13.501c0.178,0.829,0.006,1.611-1.07,1.747c-1.086,0.145-2.104-0.412-2.292-1.234l-2.338-11.706
			l-2.342,11.706c-0.181,0.822-1.2,1.387-2.28,1.234c-1.086-0.136-1.25-0.914-1.07-1.747l2.338-13.501l0.471-7.146l-2.575,6.628
			c-0.218,0.643-0.932,0.974-1.569,0.744c-0.644-0.227-0.974-0.932-0.748-1.575L40.224,219.927z"/>
		<path d="M425.682,194.607h-19.724c-4.341,0-7.851,3.511-7.851,7.851v52.095c0,4.336,3.51,7.847,7.851,7.847h19.724
			c4.341,0,7.852-3.511,7.852-7.847v-52.095C433.534,198.118,430.023,194.607,425.682,194.607z"/>
		<path d="M215.988,97.452H67.709c-4.34,0-7.754,3.564-8.752,7.78c-2.919,12.343-12.629,22.061-24.972,24.99
			c-4.216,1.004-7.778,4.418-7.778,8.75v26.755c0,4.332,3.508,7.851,7.851,7.851h40.97c4.342,0,7.851,3.519,7.851,7.851v7.444
			c0,4.34,0.525,7.851,1.184,7.851h1.188c16.421,1.473,29.396,15.038,29.396,31.777c0,14.022-9.11,25.812-21.73,29.992
			c-4.114,1.37-7.927,1.623-8.271,1.639c-0.314,0.017-0.629,0.017-0.629,0.017c-0.188,0.016-0.383,0.048-0.563,0.067
			c-0.315,0.049-0.583,3.575-0.583,7.907c0,2.404,0,5.041,0,7.434c0,4.332-3.509,7.858-7.851,7.858H34.057
			c-4.342,0-7.851,3.503-7.851,7.851v26.766c0,4.328,3.555,7.742,7.771,8.752c12.343,2.914,22.053,12.62,24.98,24.963
			c0.998,4.216,4.412,7.79,8.752,7.79h148.287c4.342,0,7.851-3.507,7.851-7.851v-84.669c0-4.34-3.468-8.64-7.295-10.695
			c-9.896-5.374-16.631-15.77-16.631-27.82s6.734-22.47,16.631-27.822c3.819-2.074,7.295-6.374,7.295-10.71v-84.667
			C223.838,100.97,220.328,97.452,215.988,97.452z M189.125,128.91v-0.008c0.024,0,0.054,0.008,0.086,0.008
			c0.022,0,0.056-0.008,0.08-0.008v0.016c1.671,0.076,2.998,1.453,2.998,3.14c0,1.688-1.327,3.062-2.998,3.14v0.006
			c-0.024,0-0.058,0-0.08,0c-0.032,0-0.062,0-0.086,0v-0.006c-1.675-0.084-3-1.46-3-3.14
			C186.125,130.362,187.449,128.988,189.125,128.91z M145.147,181.391L145.147,181.391c0.024-0.008,0.054,0,0.084,0
			c0.024,0,0.058-0.008,0.08-0.008v0.016c1.671,0.076,2.998,1.452,2.998,3.138c0,1.687-1.327,3.063-2.998,3.14v0.008
			c-0.022,0-0.056,0-0.08,0c-0.03,0-0.06,0-0.084,0v-0.008c-1.671-0.084-3.002-1.461-3.002-3.14
			C142.145,182.852,143.476,181.476,145.147,181.391z M117.073,128.91v-0.008c0.022,0,0.054,0.008,0.088,0.008
			c0.022,0,0.054-0.008,0.076-0.008v0.016c1.671,0.076,2.998,1.453,2.998,3.14c0,1.688-1.327,3.062-2.998,3.14v0.006
			c-0.022,0-0.054,0-0.076,0c-0.034,0-0.066,0-0.088,0v-0.006c-1.671-0.084-2.998-1.46-2.998-3.14
			C114.075,130.362,115.402,128.988,117.073,128.91z M117.073,287.369L117.073,287.369c0.022-0.008,0.054,0,0.088,0
			c0.022,0,0.054-0.008,0.076-0.008v0.017c1.671,0.076,2.998,1.458,2.998,3.146c0,1.683-1.327,3.058-2.998,3.134v0.008
			c-0.022,0-0.054,0-0.076,0c-0.034,0-0.066,0-0.088,0v-0.008c-1.671-0.084-2.998-1.463-2.998-3.134
			C114.075,288.836,115.402,287.454,117.073,287.369z M124.21,307.863c-0.643,0.229-1.349-0.1-1.579-0.745l-2.577-6.624l0.479,7.146
			l2.342,13.5c0.18,0.83,0.008,1.611-1.068,1.748c-1.086,0.156-2.112-0.413-2.292-1.242l-2.338-11.698l-2.351,11.698
			c-0.181,0.837-1.2,1.398-2.284,1.242c-1.082-0.137-1.247-0.918-1.066-1.748l2.338-13.5l0.471-7.146l-2.575,6.624
			c-0.218,0.646-0.932,0.974-1.569,0.745c-0.644-0.224-0.974-0.938-0.748-1.579l4.098-11.176c0.038-0.117,0.096-0.201,0.15-0.293
			h0.008c0.022-0.048,0.05-0.076,0.08-0.108h0.008c0.134-0.145,0.291-0.244,0.487-0.292l-0.008-0.036h0.068h0.142h0.07h5.37h0.072
			h0.15h0.068l-0.008,0.036c0.188,0.048,0.353,0.147,0.487,0.292h0.008c0.03,0.032,0.054,0.061,0.076,0.108h0.012
			c0.062,0.092,0.114,0.176,0.152,0.293l4.092,11.176C125.184,306.926,124.847,307.631,124.21,307.863z M124.21,149.406
			c-0.643,0.23-1.349-0.098-1.579-0.743l-2.577-6.626l0.479,7.144l2.342,13.501c0.18,0.832,0.008,1.611-1.068,1.753
			c-1.086,0.141-2.112-0.415-2.292-1.242l-2.338-11.704l-2.351,11.704c-0.181,0.828-1.2,1.391-2.284,1.242
			c-1.082-0.142-1.247-0.921-1.066-1.753l2.338-13.501l0.471-7.144l-2.575,6.626c-0.218,0.645-0.932,0.974-1.569,0.743
			c-0.644-0.226-0.974-0.934-0.748-1.579l4.098-11.185c0.038-0.112,0.096-0.196,0.15-0.285c0-0.008,0.008-0.008,0.008-0.008
			c0.022-0.038,0.05-0.068,0.08-0.098h0.008c0.134-0.142,0.291-0.254,0.487-0.298l-0.008-0.032h0.068h0.142h0.07h5.37h0.072h0.15
			h0.068l-0.008,0.032c0.188,0.044,0.353,0.14,0.487,0.298h0.008c0.03,0.03,0.054,0.06,0.076,0.098c0,0,0.012,0,0.012,0.008
			c0.062,0.088,0.114,0.185,0.152,0.285l4.092,11.185C125.184,148.472,124.847,149.173,124.21,149.406z M152.28,262.079
			c-0.643,0.224-1.348-0.108-1.575-0.75l-2.577-6.624l0.473,7.146l2.338,13.501c0.18,0.817,0.008,1.606-1.066,1.755
			c-1.084,0.145-2.104-0.425-2.292-1.242l-2.343-11.706l-2.346,11.706c-0.186,0.825-1.2,1.387-2.284,1.242
			c-1.084-0.141-1.249-0.922-1.066-1.755l2.338-13.501l0.473-7.146l-2.577,6.624c-0.218,0.642-0.936,0.974-1.571,0.75
			c-0.646-0.229-0.974-0.935-0.746-1.579l4.092-11.193c0.038-0.107,0.092-0.192,0.156-0.276c0-0.016,0.008-0.016,0.008-0.016
			c0.024-0.028,0.046-0.061,0.076-0.092h0.008c0.135-0.152,0.293-0.261,0.487-0.305l-0.008-0.032h0.074h0.14h0.07h5.37h0.068h0.142
			h0.072l-0.006,0.032c0.187,0.044,0.353,0.152,0.487,0.305h0.008c0.03,0.031,0.052,0.063,0.076,0.092c0,0,0.008,0,0.008,0.016
			c0.06,0.084,0.118,0.169,0.148,0.276l4.098,11.193C153.254,261.145,152.917,261.843,152.28,262.079z M148.303,244.738
			c0,1.688-1.327,3.058-2.998,3.134v0.008c-0.024,0-0.058,0-0.082,0c-0.03,0-0.061,0-0.084,0v-0.008
			c-1.671-0.084-3.001-1.446-3.001-3.134c0-1.703,1.331-3.073,3.001-3.149v-0.008c0.024,0,0.054,0.008,0.084,0.008
			c0.024,0,0.058-0.008,0.082-0.008v0.012C146.982,241.665,148.303,243.035,148.303,244.738z M152.28,201.887
			c-0.643,0.226-1.348-0.104-1.575-0.748l-2.577-6.624l0.473,7.145l2.338,13.501c0.18,0.832,0.008,1.609-1.066,1.751
			c-1.084,0.15-2.104-0.419-2.292-1.242l-2.343-11.702l-2.346,11.702c-0.186,0.831-1.2,1.393-2.284,1.242
			c-1.084-0.143-1.249-0.92-1.066-1.751l2.338-13.501l0.473-7.145l-2.577,6.624c-0.218,0.644-0.936,0.974-1.571,0.748
			c-0.646-0.227-0.974-0.936-0.746-1.579l4.092-11.187c0.038-0.11,0.092-0.194,0.156-0.283c0-0.008,0.008-0.008,0.008-0.008
			c0.024-0.038,0.046-0.068,0.076-0.101h0.008c0.135-0.148,0.293-0.252,0.487-0.298l-0.008-0.03h0.074h0.14h0.07h5.37h0.068h0.142
			h0.072l-0.006,0.03c0.187,0.046,0.353,0.15,0.487,0.298h0.008c0.03,0.032,0.052,0.062,0.076,0.101c0,0,0.008,0,0.008,0.008
			c0.06,0.088,0.118,0.172,0.148,0.283l4.098,11.187C153.254,200.951,152.917,201.653,152.28,201.887z M181.44,147.827l4.09-11.185
			c0.038-0.112,0.092-0.196,0.156-0.285c0-0.008,0.008-0.008,0.008-0.008c0.024-0.038,0.046-0.068,0.078-0.098h0.006
			c0.135-0.142,0.293-0.254,0.487-0.298l-0.006-0.032h0.072h0.148h0.07h5.37h0.07h0.148h0.072l-0.006,0.032
			c0.186,0.044,0.353,0.14,0.483,0.298h0.012c0.03,0.03,0.052,0.06,0.076,0.098c0,0,0.008,0,0.008,0.008
			c0.06,0.088,0.118,0.185,0.156,0.285l4.089,11.185c0.227,0.645-0.11,1.346-0.747,1.579c-0.64,0.23-1.349-0.098-1.575-0.743
			l-2.577-6.626l0.481,7.144l2.336,13.501c0.181,0.832,0.008,1.611-1.063,1.753c-1.086,0.141-2.114-0.415-2.292-1.242l-2.342-11.704
			l-2.346,11.704c-0.181,0.828-1.201,1.391-2.285,1.242c-1.082-0.142-1.246-0.921-1.065-1.753l2.338-13.501l0.471-7.144
			l-2.575,6.626c-0.219,0.645-0.936,0.974-1.573,0.743C181.541,149.18,181.209,148.472,181.44,147.827z M186.416,292.515
			c0-1.703,1.326-3.073,2.997-3.149v-0.008c0.026,0,0.059,0.008,0.088,0.008c0.024,0,0.054-0.008,0.076-0.008v0.016
			c1.675,0.076,3.001,1.455,3.001,3.142c0,1.688-1.326,3.059-3.001,3.135v0.008c-0.022,0-0.052,0-0.076,0c-0.03,0-0.062,0-0.088,0
			v-0.008C187.742,295.573,186.416,294.202,186.416,292.515z M196.55,309.855c-0.644,0.232-1.349-0.093-1.579-0.733l-2.573-6.633
			l0.479,7.146l2.338,13.501c0.181,0.826,0.008,1.607-1.068,1.747c-1.082,0.152-2.102-0.417-2.292-1.234l-2.338-11.705
			l-2.347,11.705c-0.18,0.834-1.204,1.387-2.284,1.234c-1.086-0.14-1.25-0.913-1.07-1.747l2.342-13.501l0.467-7.146l-2.57,6.633
			c-0.223,0.641-0.936,0.966-1.573,0.733c-0.643-0.221-0.974-0.926-0.743-1.571l4.089-11.185c0.038-0.116,0.092-0.2,0.154-0.284
			c0-0.009,0.012-0.009,0.012-0.009c0.022-0.044,0.044-0.075,0.076-0.107h0.008c0.134-0.145,0.291-0.245,0.479-0.289l-0.008-0.032
			h0.068h0.15h0.072h5.37h0.07h0.15h0.068l-0.008,0.032c0.188,0.044,0.353,0.145,0.487,0.289h0.008
			c0.034,0.032,0.058,0.063,0.08,0.107c0,0,0.008,0,0.008,0.009c0.062,0.084,0.118,0.168,0.156,0.284l4.092,11.185
			C197.524,308.93,197.187,309.627,196.55,309.855z"/>
		<path d="M424.625,283.414h-39.926c-4.34,0-7.851-3.511-7.851-7.851v-7.498c0-4.344-0.124-7.818-0.261-7.826
			c-0.092-0.008-0.176-0.024-0.276-0.024h-0.396c-17.104-0.549-30.837-14.494-30.837-31.714c0-17.226,13.733-31.182,30.837-31.685
			c0.188-0.016,0.337-0.03,0.465-0.046c0.252-0.03,0.484-3.572,0.484-7.909c0-2.398,0-5.035,0-7.423c0-4.34,3.503-7.859,7.851-7.859
			h39.927c4.34,0,7.851-3.519,7.851-7.851v-26.755c0-4.332-3.575-7.747-7.791-8.75c-12.343-2.921-22.064-12.639-24.982-24.99
			c-0.997-4.216-4.408-7.78-8.748-7.78H247.392c-4.344,0-7.853,3.519-7.853,7.851v84.667c0,4.336,3.469,8.645,7.288,10.71
			c9.897,5.352,16.635,15.771,16.635,27.822s-6.737,22.461-16.635,27.82c-3.812,2.071-7.288,6.371-7.288,10.695v84.669
			c0,4.344,3.509,7.851,7.853,7.851h143.562c4.34,0,7.75-3.559,8.748-7.774c2.921-12.343,12.627-22.064,24.982-24.979
			c4.231-1.01,7.79-4.424,7.79-8.752v-26.766C432.475,286.933,428.964,283.414,424.625,283.414z M296.123,215.705L296.123,215.705
			c0.012-0.008,0.044,0,0.076,0c0.028,0,0.06-0.008,0.084-0.008v0.016c1.671,0.076,2.998,1.449,2.998,3.14
			c0,1.687-1.327,3.063-2.998,3.14V222c-0.024,0-0.056,0-0.084,0c-0.032,0-0.064,0-0.076,0l0,0c-1.671-0.084-3.006-1.455-3.006-3.14
			C293.117,217.162,294.452,215.789,296.123,215.705z M303.251,236.215c-0.645,0.221-1.351-0.108-1.579-0.753l-2.576-6.625
			l0.48,7.146l2.341,13.501c0.185,0.821,0.008,1.611-1.066,1.755c-1.082,0.145-2.107-0.421-2.292-1.242l-2.336-11.705l-2.356,11.705
			c-0.177,0.83-1.194,1.387-2.284,1.242c-1.074-0.144-1.242-0.917-1.059-1.755l2.333-13.501l0.473-7.146l-2.573,6.625
			c-0.216,0.645-0.938,0.974-1.574,0.753c-0.634-0.232-0.975-0.942-0.742-1.585l4.092-11.185c0.032-0.112,0.093-0.196,0.156-0.285
			l0.008-0.008c0.021-0.038,0.045-0.068,0.076-0.102h0.009c0.136-0.146,0.288-0.25,0.473-0.296v-0.034h0.068h0.147h0.076h5.366
			h0.068h0.148h0.076l-0.009,0.034c0.193,0.046,0.354,0.15,0.481,0.296h0.016c0.032,0.034,0.049,0.064,0.076,0.102v0.008
			c0.068,0.088,0.124,0.172,0.161,0.285l4.087,11.185C304.225,235.267,303.889,235.966,303.251,236.215z"/>
	</g>
</g>
<g>
</g>
<g>
</g>
<g>
</g>
<g>
</g>
<g>
</g>
<g>
</g>
<g>
</g>
<g>
</g>
<g>
</g>
<g>
</g>
<g>
</g>
<g>
</g>
<g>
</g>
<g>
</g>
<g>
</g>
</svg>
