<?xml version="1.0" encoding="utf-8"?>
<!-- Uploaded to SVGRepo https://www.svgrepo.com -->
<svg version="1.1" id="Layer_1" xmlns="http://www.w3.org/2000/svg" xmlns:xlink="http://www.w3.org/1999/xlink" x="0px" y="0px"
	 width="256px" height="240px" viewBox="0 0 256 240" enable-background="new 0 0 256 240" xml:space="preserve">
<path d="M108.327,28.998c11.331,0,20.516,9.185,20.516,20.516s-9.185,20.516-20.516,20.516S87.81,60.845,87.81,49.514
	S96.996,28.998,108.327,28.998z M33.069,153.324l-0.189-0.189l0,0c-0.851-0.567-1.607-1.04-2.269-1.796l2.269,26L4.327,217.804
	c-4.065,5.862-2.647,13.804,3.025,17.869c5.862,4.065,13.804,2.647,17.869-3.025l30.822-44.436c1.607-2.269,2.647-5.295,2.269-8.32
	l-1.04-12.574L33.069,153.324z M117.876,237.942h122.341l-22.88-71.381c0,0-12.953,3.215-38.574,30.443
	c-0.567,0.567-1.229,1.229-1.796,1.796l-61.832-35.738c1.04-1.985,1.229-4.255,0.851-6.713L94.05,75.041
	c-1.796-7.942-8.887-13.993-17.207-13.993H35.905c-3.025,0-6.051,1.607-7.753,4.255L7.731,100.757
	c-2.647,4.255-1.04,9.738,3.215,12.196l22.88,13.142l-3.025,5.105c-3.687,6.051-1.607,13.804,4.633,17.207L86.77,178v46.894
	c0,7.091,5.673,12.764,12.764,12.764s12.764-5.673,12.764-12.764v-53.512l56.821,32.902c-11.724,6.713-25.149,7.942-34.698,13.614
	C122.697,224.895,117.876,237.942,117.876,237.942z M38.174,118.626l-15.033-8.698l0,0l17.869-30.822h20.044L38.174,118.626z
	 M71.171,137.724l14.182-24.771l10.589,38.952L71.171,137.724z M234.208,71.325C250.103,55.532,254,2,254,2
	s-10.973,6.974-28.202,8.409c-16.203,1.436-31.278,3.692-40.098,12.511c-13.639,13.639-17.024,32.919-9.23,46.661
	c10.768-18.254,46.148-34.355,46.148-34.355c-25.125,17.844-41.636,34.868-58.865,59.48l9.537,1.128c0,0,6.256-11.383,11.793-16.818
	C198.827,88.656,219.748,85.785,234.208,71.325z"/>
</svg>
