<?xml version="1.0" encoding="iso-8859-1"?>
<!-- Generator: Adobe Illustrator 18.0.0, SVG Export Plug-In . SVG Version: 6.00 Build 0)  -->
<!DOCTYPE svg PUBLIC "-//W3C//DTD SVG 1.1//EN" "http://www.w3.org/Graphics/SVG/1.1/DTD/svg11.dtd">
<svg version="1.1" id="Capa_1" xmlns="http://www.w3.org/2000/svg" xmlns:xlink="http://www.w3.org/1999/xlink" x="0px" y="0px"
	 viewBox="0 0 296.456 296.456" style="enable-background:new 0 0 296.456 296.456;" xml:space="preserve">
<g>
	<path d="M261.904,20.065c-3.797-0.871-7.582,1.5-8.455,5.296c-0.055,0.237-0.124,0.469-0.181,0.705
		c18.542,11.525,31.151,30.923,34.036,52.712c3.643,0.6,7.174-1.724,8.013-5.375C300.819,49.448,285.86,25.567,261.904,20.065z"/>
	<path d="M248.068,40.591c-5.847,12.077-14.989,22.394-26.543,29.63L78.764,159.649c-2.252,1.41-3.852,3.658-4.446,6.248
		c-0.06,0.26-0.101,0.52-0.14,0.782l-13.775-2.193c-4.093-0.658-7.936,2.137-8.586,6.227c-0.651,4.091,2.137,7.936,6.226,8.586
		l8.063,1.284l-7.739,4.848l0.001,0.001L7.036,217.586c-7.018,4.396-9.144,13.649-4.747,20.667l19.598,31.284
		c2.737,4.37,7.528,7.027,12.685,7.034c5.157,0.008,9.955-2.636,12.705-6.998l44.39-70.42l10.83-6.784l4.641,7.408
		c2.663,4.251,7.25,6.789,12.27,6.789c2.714,0,5.368-0.763,7.674-2.208l9.503-5.952c6.761-4.235,8.816-13.182,4.581-19.943
		l-4.641-7.409l59.212-37.091c4.689-2.938,6.109-9.121,3.172-13.812l-5.048-8.059l38.704-24.245
		c11.84-7.415,25.481-11.148,39.236-10.949C268.84,62.203,260.284,49.163,248.068,40.591z M70.504,208.449l-39.942,26.822
		c-1.284,0.861-2.737,1.274-4.175,1.274c-2.415,0-4.786-1.164-6.233-3.319c-2.309-3.439-1.394-8.099,2.045-10.408l39.942-26.822
		c3.441-2.309,8.1-1.394,10.408,2.045C74.858,201.48,73.943,206.139,70.504,208.449z M119.569,191.365l-4.359-6.959l8.604-5.39
		l4.358,6.959L119.569,191.365z"/>
</g>
<g>
</g>
<g>
</g>
<g>
</g>
<g>
</g>
<g>
</g>
<g>
</g>
<g>
</g>
<g>
</g>
<g>
</g>
<g>
</g>
<g>
</g>
<g>
</g>
<g>
</g>
<g>
</g>
<g>
</g>
</svg>
