<?xml version="1.0" encoding="iso-8859-1"?>
<!-- Generator: Adobe Illustrator 19.0.0, SVG Export Plug-In . SVG Version: 6.00 Build 0)  -->
<svg version="1.1" id="Layer_1" xmlns="http://www.w3.org/2000/svg" xmlns:xlink="http://www.w3.org/1999/xlink" x="0px" y="0px"
	 viewBox="0 0 512.002 512.002" style="enable-background:new 0 0 512.002 512.002;" xml:space="preserve">
<g>
	<g>
		<path d="M421.072,382.35c-0.191-0.997-0.506-1.993-0.902-2.958c-0.395-0.949-0.886-1.867-1.455-2.721
			c-0.569-0.87-1.234-1.677-1.962-2.405c-0.728-0.744-1.534-1.392-2.404-1.977c-0.854-0.57-1.772-1.06-2.721-1.455
			c-0.965-0.396-1.962-0.696-2.974-0.902c-5.125-1.028-10.599,0.649-14.269,4.335c-0.728,0.728-1.392,1.534-1.962,2.405
			c-0.57,0.854-1.06,1.772-1.455,2.721c-0.396,0.965-0.712,1.962-0.902,2.958c-0.206,1.028-0.316,2.072-0.316,3.101
			c0,1.028,0.111,2.072,0.316,3.085c0.19,1.012,0.506,2.009,0.902,2.958c0.396,0.965,0.886,1.883,1.455,2.737
			c0.569,0.87,1.234,1.677,1.962,2.405c2.942,2.942,7.024,4.635,11.184,4.635c1.028,0,2.072-0.111,3.085-0.316
			c1.012-0.206,2.009-0.506,2.974-0.902c0.949-0.396,1.867-0.886,2.721-1.455c0.87-0.57,1.677-1.234,2.404-1.962
			c0.728-0.728,1.392-1.534,1.962-2.405c0.569-0.854,1.06-1.772,1.455-2.737c0.396-0.949,0.712-1.946,0.902-2.958
			c0.206-1.012,0.316-2.057,0.316-3.085C421.388,384.422,421.278,383.378,421.072,382.35z"/>
	</g>
</g>
<g>
	<g>
		<path d="M426.784,0.024c-15.554-0.445-30.256,5.306-41.394,16.144c-11.142,10.841-17.278,25.371-17.278,40.915v65.275
			c-4.455-2.262-9.235-3.971-14.263-5.002c-3.713-0.761-7.555-1.161-11.49-1.161s-7.777,0.4-11.49,1.161
			c-11.664,2.393-22.03,8.365-29.927,16.7c-10.411-10.988-25.121-17.863-41.415-17.863c-9.262,0-18.009,2.232-25.751,6.163V57.94
			c0-31.096-24.892-57.078-55.486-57.916C162.712-0.4,148.034,5.33,136.895,16.169c-11.142,10.841-17.278,25.371-17.278,40.914
			v148.986c-22.716,4.828-42.956,18.214-56.246,37.878l-18.045,26.706c-17.015,25.138-20.326,56.937-8.854,85.065L80.814,464.4
			c11.803,28.916,39.615,47.602,70.852,47.602h87.876H368.33c62.826,0,113.94-51.114,113.94-113.939V57.94
			C482.272,26.844,457.38,0.862,426.784,0.024z M316.916,173.274c0-1.753,0.179-3.466,0.517-5.121
			c2.376-11.583,12.649-20.321,24.925-20.321s22.549,8.739,24.925,20.321c0.34,1.655,0.517,3.368,0.517,5.121v65.07
			c-7.664-3.831-16.307-5.989-25.442-5.989s-17.776,2.156-25.442,5.989V173.274z M367.802,289.434v2.648
			c0,12.276-8.739,22.547-20.322,24.925c-1.655,0.34-3.368,0.517-5.121,0.517c-1.753,0-3.466-0.179-5.121-0.517
			c-11.585-2.376-20.322-12.649-20.322-24.925v-2.648c0-14.029,11.412-25.442,25.442-25.442
			C356.388,263.991,367.802,275.403,367.802,289.434z M235.23,165.717c3.226-10.349,12.897-17.884,24.297-17.884
			c12.274,0,22.547,8.737,24.923,20.32c0.34,1.655,0.517,3.368,0.517,5.121v65.07c-1.822-0.911-3.697-1.726-5.624-2.441
			c0.278-1.55,0.503-3.11,0.701-4.675c0.038-0.305,0.066-0.614,0.103-0.919c0.158-1.372,0.285-2.746,0.38-4.127
			c0.03-0.429,0.062-0.857,0.085-1.286c0.092-1.67,0.155-3.346,0.155-5.029c0-8.737-7.082-15.819-15.819-15.819h-30.863v-30.773h0
			C234.084,170.643,234.486,168.104,235.23,165.717z M284.971,289.434v2.65h-0.002c0,1.753-0.179,3.466-0.517,5.121
			c-2.376,11.583-12.649,20.32-24.923,20.32c-0.815,0-1.617-0.047-2.411-0.122c-0.255-0.024-0.506-0.066-0.759-0.098
			c-0.538-0.066-1.073-0.144-1.601-0.245c-0.286-0.055-0.57-0.119-0.853-0.183c-0.49-0.112-0.976-0.236-1.455-0.375
			c-0.278-0.081-0.555-0.163-0.831-0.253c-0.494-0.161-0.978-0.343-1.457-0.535c-0.237-0.095-0.478-0.182-0.712-0.282
			c-0.628-0.272-1.242-0.569-1.843-0.889c-0.071-0.038-0.147-0.07-0.217-0.108c-0.669-0.364-1.316-0.763-1.946-1.183
			c-0.191-0.128-0.373-0.269-0.562-0.402c-0.432-0.305-0.859-0.62-1.272-0.951c-0.217-0.174-0.427-0.358-0.638-0.538
			c-0.369-0.318-0.731-0.644-1.08-0.982c-0.206-0.198-0.408-0.397-0.607-0.601c-0.348-0.357-0.68-0.729-1.006-1.107
			c-0.171-0.198-0.348-0.392-0.513-0.596c-0.388-0.478-0.753-0.973-1.106-1.478c-0.081-0.117-0.172-0.226-0.252-0.345
			c-0.422-0.626-0.813-1.275-1.18-1.939c-0.106-0.193-0.198-0.395-0.299-0.59c-0.25-0.482-0.49-0.968-0.709-1.468
			c-0.114-0.259-0.215-0.524-0.321-0.788c-0.182-0.456-0.353-0.917-0.508-1.387c-0.093-0.282-0.183-0.565-0.267-0.849
			c-0.054-0.184-0.095-0.373-0.144-0.56c0.06-0.035,0.119-0.073,0.179-0.108c0.587-0.339,1.167-0.688,1.748-1.039
			c0.009-0.005,0.019-0.01,0.029-0.014l0.785-0.481c0.229-0.141,0.46-0.277,0.688-0.421c0.974-0.617,1.939-1.253,2.895-1.908
			c0.063-0.044,0.13-0.084,0.195-0.128c0.002,0,0.003-0.002,0.003-0.003c0.009-0.006,0.019-0.013,0.029-0.019
			c0.864-0.596,1.739-1.228,2.689-1.941c0.372-0.28,0.753-0.57,1.145-0.872c0.025-0.019,0.046-0.041,0.071-0.06
			c0.38-0.293,0.755-0.588,1.128-0.887c0.003-0.002,0.005-0.005,0.008-0.006c0.017-0.014,0.035-0.029,0.052-0.041
			c0.388-0.31,0.774-0.625,1.156-0.941c0.452-0.375,0.902-0.755,1.348-1.137l0.002-0.002c0.003-0.002,0.005-0.005,0.008-0.006
			c0.036-0.032,0.068-0.066,0.104-0.1c0.478-0.413,0.962-0.819,1.432-1.24c0.35-0.313,0.698-0.626,1.041-0.946
			c0.633-0.585,1.258-1.18,1.873-1.784c0.044-0.043,0.081-0.09,0.123-0.135c0.487-0.481,0.96-0.973,1.436-1.463
			c0.005-0.006,0.011-0.01,0.017-0.016c0.386-0.396,0.769-0.796,1.148-1.199c0.141-0.15,0.283-0.302,0.422-0.454
			c0.054-0.059,0.098-0.122,0.15-0.182c0.557-0.607,1.115-1.213,1.655-1.835c0.335-0.386,0.666-0.78,1.077-1.275
			c0.057-0.07,0.104-0.144,0.161-0.214c1.376-1.656,2.696-3.354,3.948-5.099c0.098-0.138,0.21-0.258,0.304-0.399l0.005-0.006
			c0.013-0.019,0.021-0.041,0.035-0.062c1.525-2.155,2.949-4.371,4.278-6.644C278.037,269.199,284.971,278.51,284.971,289.434z
			 M151.253,57.083c0-6.927,2.735-13.405,7.702-18.238c4.963-4.83,11.528-7.373,18.466-7.195
			c13.628,0.373,24.716,12.168,24.716,26.29v146.106h-50.884V57.083z M232.931,454.861c-0.009,0.869-0.032,1.732-0.07,2.585
			c-0.005,0.108-0.013,0.214-0.019,0.32c-0.038,0.753-0.085,1.498-0.144,2.237c-0.019,0.239-0.04,0.476-0.06,0.713
			c-0.059,0.666-0.123,1.326-0.196,1.979c-0.019,0.172-0.036,0.348-0.057,0.519c-0.095,0.813-0.201,1.615-0.316,2.403
			c-0.022,0.153-0.047,0.305-0.071,0.457c-0.098,0.645-0.201,1.283-0.31,1.909c-0.036,0.209-0.073,0.416-0.111,0.623
			c-0.119,0.658-0.242,1.305-0.372,1.941c-0.019,0.096-0.038,0.196-0.059,0.293c-0.152,0.732-0.308,1.449-0.471,2.15
			c-0.036,0.161-0.076,0.316-0.112,0.476c-0.131,0.554-0.264,1.096-0.399,1.628c-0.043,0.166-0.084,0.332-0.127,0.495
			c-0.343,1.319-0.698,2.567-1.05,3.73c-0.04,0.131-0.079,0.259-0.12,0.389c-0.07,0.223-0.138,0.433-0.206,0.652h-76.996
			c-18.323,0.002-34.636-10.956-41.559-27.916l-44.34-108.677c-7.468-18.314-5.315-39.017,5.768-55.393l18.048-26.716
			c10.415-15.411,27.385-24.923,45.846-25.879c0.002,0,0.002,0,0.003,0c0.215,0,0.43-0.005,0.645-0.013l0.581-0.025
			c0.614-0.027,1.228-0.057,1.846-0.057h79.453h0.308h28.703c-0.024,0.087-0.054,0.171-0.078,0.258
			c-0.258,0.906-0.538,1.805-0.84,2.7c-0.09,0.267-0.185,0.533-0.28,0.799c-0.274,0.775-0.563,1.547-0.87,2.314
			c-2.28,5.701-5.439,11.028-9.376,15.78c-0.057,0.066-0.12,0.123-0.176,0.19l-0.709,0.842c-0.032,0.036-0.059,0.076-0.089,0.112
			c-0.301,0.345-0.603,0.69-0.913,1.027c-0.057,0.059-0.119,0.109-0.174,0.169c-0.002,0.003-0.005,0.006-0.008,0.009
			c-0.002,0.002-0.003,0.003-0.003,0.005c-0.134,0.146-0.271,0.289-0.407,0.433c-0.201,0.21-0.403,0.421-0.606,0.628
			c-0.057,0.059-0.103,0.122-0.158,0.182c-0.252,0.258-0.497,0.522-0.755,0.777c-0.036,0.035-0.076,0.065-0.112,0.1
			c-0.361,0.354-0.728,0.701-1.098,1.046c-0.068,0.063-0.134,0.13-0.204,0.193c-0.252,0.231-0.505,0.46-0.758,0.688
			c-0.003,0.003-0.008,0.006-0.011,0.01c-0.013,0.011-0.022,0.022-0.033,0.033c-0.231,0.206-0.468,0.405-0.702,0.607
			c-0.035,0.028-0.071,0.052-0.104,0.081c-0.256,0.22-0.514,0.438-0.774,0.655c-0.297,0.247-0.595,0.49-0.897,0.731
			c-0.021,0.016-0.038,0.035-0.059,0.051c-0.223,0.177-0.445,0.356-0.671,0.53c-0.017,0.014-0.036,0.024-0.054,0.038
			c-0.791,0.609-1.595,1.207-2.416,1.778c-0.036,0.024-0.07,0.051-0.104,0.076c-1.09,0.753-2.208,1.451-3.338,2.125
			c-0.354,0.21-0.715,0.414-1.074,0.619c-0.827,0.47-1.667,0.916-2.515,1.345c-0.37,0.187-0.736,0.383-1.109,0.56
			c-1.122,0.538-2.259,1.039-3.411,1.503c-0.326,0.131-0.658,0.248-0.986,0.375c-0.948,0.362-1.901,0.699-2.866,1.011
			c-0.31,0.1-0.619,0.207-0.929,0.302c-1.205,0.367-2.422,0.696-3.651,0.986c-0.271,0.065-0.544,0.12-0.816,0.18
			c-1.166,0.256-2.341,0.484-3.525,0.671c-0.149,0.024-0.296,0.054-0.445,0.076c-1.297,0.195-2.607,0.335-3.922,0.443
			c-0.288,0.024-0.576,0.043-0.865,0.062c-1.334,0.09-2.672,0.15-4.018,0.15h-44.389c-5.918,0-11.341,3.303-14.057,8.561
			s-2.268,11.592,1.16,16.417c0.166,0.234,0.628,0.883,1.353,1.898c0.289,0.407,0.622,0.872,0.995,1.391
			c0.932,1.302,2.115,2.949,3.518,4.896c0.399,0.552,0.821,1.137,1.255,1.739c0.965,1.335,2.014,2.784,3.14,4.336
			c1.123,1.547,2.321,3.192,3.588,4.931c1.462,2.004,3.015,4.126,4.648,6.348c0.949,1.294,1.927,2.621,2.928,3.979
			c0.497,0.672,0.998,1.353,1.506,2.041c1.315,1.778,2.666,3.602,4.051,5.466c3.102,4.173,6.372,8.542,9.754,13.024
			c0.696,0.922,1.398,1.851,2.104,2.783c0.585,0.774,1.174,1.549,1.765,2.327c1.171,1.539,2.351,3.088,3.54,4.643
			c0.69,0.902,1.381,1.805,2.076,2.71c0.505,0.656,1.011,1.315,1.517,1.973c0.221,0.286,0.441,0.573,0.661,0.859
			c1.471,1.908,2.95,3.817,4.436,5.723c1.234,1.584,2.469,3.165,3.708,4.741c10.338,13.163,20.755,25.926,29.959,36.282
			c0.737,0.829,1.427,1.672,2.093,2.52c0.188,0.239,0.369,0.481,0.552,0.721c0.497,0.655,0.973,1.315,1.43,1.979
			c0.155,0.225,0.315,0.448,0.464,0.674c0.574,0.864,1.123,1.732,1.634,2.61c0.074,0.128,0.141,0.258,0.214,0.386
			c0.435,0.759,0.845,1.525,1.234,2.294c0.133,0.263,0.263,0.525,0.389,0.789c0.343,0.709,0.669,1.417,0.976,2.131
			c0.087,0.201,0.18,0.4,0.264,0.603c0.373,0.897,0.721,1.799,1.041,2.702c0.071,0.201,0.135,0.403,0.204,0.606
			c0.247,0.721,0.478,1.444,0.691,2.169c0.079,0.269,0.158,0.539,0.234,0.808c0.217,0.775,0.416,1.549,0.598,2.324
			c0.033,0.141,0.071,0.28,0.103,0.421c0.206,0.908,0.386,1.816,0.547,2.724c0.043,0.24,0.079,0.479,0.119,0.718
			c0.115,0.698,0.22,1.395,0.31,2.091c0.033,0.256,0.068,0.513,0.098,0.769c0.104,0.889,0.198,1.776,0.266,2.658
			c0.002,0.011,0.002,0.022,0.003,0.033c0.07,0.9,0.114,1.794,0.146,2.683c0.01,0.248,0.014,0.495,0.021,0.742
			c0.017,0.683,0.027,1.362,0.025,2.038C232.933,454.413,232.934,454.638,232.931,454.861z M450.638,398.062h-0.005
			c0,45.381-36.921,82.3-82.302,82.3h-106.97c0.019-0.082,0.036-0.169,0.055-0.252c0.114-0.497,0.226-1,0.335-1.509
			c0.033-0.155,0.068-0.307,0.101-0.462c0.141-0.66,0.277-1.327,0.411-2.006c0.025-0.133,0.051-0.267,0.076-0.4
			c0.104-0.544,0.207-1.093,0.307-1.65c0.041-0.231,0.082-0.465,0.122-0.698c0.082-0.478,0.163-0.959,0.242-1.444
			c0.04-0.247,0.079-0.494,0.119-0.742c0.085-0.552,0.168-1.109,0.247-1.671c0.024-0.169,0.049-0.337,0.073-0.508
			c0.098-0.72,0.191-1.446,0.278-2.18c0.027-0.221,0.049-0.448,0.074-0.671c0.059-0.527,0.115-1.055,0.169-1.59
			c0.028-0.283,0.054-0.57,0.081-0.854c0.046-0.497,0.087-0.997,0.127-1.5c0.022-0.283,0.046-0.566,0.065-0.851
			c0.043-0.609,0.081-1.224,0.114-1.841c0.009-0.171,0.021-0.34,0.03-0.511c0.038-0.766,0.066-1.539,0.089-2.316
			c0.008-0.277,0.011-0.557,0.017-0.835c0.011-0.528,0.019-1.057,0.022-1.59c0.002-0.316,0.002-0.633,0.002-0.951
			c-0.002-0.524-0.008-1.049-0.017-1.577c-0.005-0.302-0.01-0.603-0.017-0.905c-0.019-0.72-0.046-1.443-0.081-2.169
			c-0.01-0.19-0.019-0.38-0.029-0.57c-0.038-0.72-0.085-1.443-0.141-2.169c-0.024-0.307-0.052-0.614-0.078-0.922
			c-0.046-0.539-0.096-1.081-0.152-1.623c-0.033-0.332-0.07-0.664-0.108-0.998c-0.063-0.554-0.131-1.107-0.204-1.664
			c-0.04-0.302-0.076-0.604-0.119-0.906c-0.117-0.827-0.242-1.655-0.383-2.487c-0.035-0.204-0.076-0.41-0.111-0.612
			c-0.115-0.653-0.236-1.308-0.365-1.965c-0.065-0.323-0.133-0.645-0.201-0.968c-0.115-0.552-0.237-1.104-0.365-1.658
			c-0.078-0.334-0.155-0.669-0.236-1.005c-0.142-0.59-0.296-1.18-0.452-1.77c-0.074-0.28-0.144-0.562-0.221-0.842
			c-0.233-0.845-0.479-1.69-0.74-2.534c-0.074-0.239-0.155-0.478-0.231-0.715c-0.202-0.633-0.41-1.264-0.628-1.897
			c-0.111-0.321-0.228-0.644-0.343-0.965c-0.204-0.566-0.414-1.133-0.631-1.699c-0.123-0.321-0.247-0.642-0.373-0.962
			c-0.255-0.641-0.522-1.28-0.796-1.92c-0.098-0.229-0.19-0.459-0.291-0.688c-0.373-0.849-0.762-1.697-1.169-2.545
			c-0.122-0.253-0.252-0.506-0.377-0.759c-0.304-0.615-0.612-1.229-0.933-1.843c-0.163-0.312-0.331-0.622-0.498-0.932
			c-0.312-0.577-0.633-1.152-0.96-1.726c-0.169-0.296-0.337-0.593-0.511-0.889c-0.422-0.717-0.859-1.432-1.308-2.145
			c-0.085-0.136-0.166-0.274-0.253-0.41c-0.538-0.843-1.099-1.683-1.677-2.522c-0.171-0.248-0.351-0.494-0.525-0.742
			c-0.323-0.457-0.642-0.913-0.978-1.368h110.101c8.737,0,15.819-7.082,15.819-15.819s-7.082-15.819-15.819-15.819H221.709
			c-15.968-19.924-32.773-42.372-45.028-59.053h13.383c1.213,0,2.424-0.027,3.629-0.074c0.432-0.017,0.861-0.049,1.291-0.073
			c0.772-0.041,1.544-0.082,2.314-0.144c0.508-0.04,1.012-0.095,1.519-0.142c0.695-0.066,1.387-0.133,2.079-0.215
			c0.514-0.062,1.025-0.133,1.538-0.204c0.694-0.095,1.387-0.193,2.077-0.304c0.201-0.032,0.403-0.054,0.604-0.089
			c0.242,0.761,0.502,1.516,0.775,2.264c0.066,0.18,0.139,0.356,0.206,0.535c0.234,0.622,0.476,1.239,0.731,1.849
			c0.114,0.274,0.233,0.543,0.351,0.813c0.226,0.52,0.46,1.038,0.702,1.55c0.131,0.277,0.261,0.554,0.397,0.827
			c0.263,0.533,0.535,1.061,0.813,1.585c0.12,0.228,0.237,0.457,0.361,0.682c0.403,0.736,0.819,1.463,1.255,2.178
			c0.066,0.111,0.139,0.217,0.206,0.326c0.375,0.609,0.759,1.21,1.156,1.802c0.158,0.237,0.323,0.47,0.484,0.704
			c0.321,0.465,0.649,0.927,0.984,1.383c0.182,0.247,0.365,0.494,0.55,0.737c0.345,0.454,0.699,0.902,1.058,1.345
			c0.174,0.215,0.345,0.433,0.522,0.645c0.498,0.598,1.008,1.188,1.53,1.765c0.04,0.044,0.078,0.09,0.117,0.133
			c0.56,0.617,1.137,1.218,1.724,1.808c0.19,0.191,0.386,0.378,0.577,0.566c0.41,0.402,0.824,0.799,1.247,1.188
			c0.226,0.209,0.454,0.414,0.683,0.619c0.416,0.372,0.838,0.737,1.266,1.098c0.223,0.188,0.445,0.378,0.671,0.562
			c0.524,0.427,1.057,0.845,1.595,1.255c0.13,0.1,0.256,0.202,0.388,0.299c0.669,0.498,1.349,0.982,2.041,1.452
			c0.203,0.138,0.41,0.267,0.612,0.403c0.501,0.332,1.006,0.658,1.519,0.974c0.256,0.158,0.516,0.313,0.777,0.468
			c0.482,0.288,0.97,0.568,1.462,0.842c0.261,0.146,0.52,0.291,0.785,0.432c0.555,0.297,1.118,0.585,1.686,0.865
			c0.195,0.096,0.386,0.198,0.582,0.291c0.759,0.364,1.53,0.714,2.308,1.044c0.188,0.081,0.381,0.153,0.571,0.231
			c0.6,0.247,1.202,0.487,1.811,0.715c0.278,0.104,0.56,0.202,0.84,0.302c0.539,0.191,1.082,0.377,1.629,0.552
			c0.291,0.093,0.584,0.187,0.876,0.277c0.587,0.179,1.18,0.345,1.775,0.505c0.242,0.065,0.482,0.136,0.726,0.198
			c0.835,0.214,1.677,0.41,2.528,0.585c0.133,0.027,0.267,0.049,0.4,0.074c0.721,0.144,1.446,0.274,2.177,0.389
			c0.288,0.046,0.577,0.084,0.865,0.125c0.592,0.084,1.186,0.161,1.784,0.228c0.312,0.035,0.625,0.066,0.94,0.096
			c0.614,0.057,1.229,0.103,1.848,0.141c0.28,0.017,0.557,0.038,0.837,0.052c0.894,0.041,1.791,0.068,2.694,0.068
			c1.001,0,1.996-0.027,2.985-0.079c0.324-0.017,0.644-0.052,0.968-0.074c0.661-0.046,1.324-0.089,1.979-0.157
			c0.381-0.04,0.756-0.098,1.136-0.146c0.592-0.073,1.183-0.142,1.769-0.233c0.4-0.063,0.796-0.142,1.193-0.214
			c0.555-0.1,1.112-0.193,1.663-0.308c0.408-0.085,0.812-0.187,1.217-0.282c0.531-0.123,1.063-0.244,1.588-0.381
			c0.41-0.108,0.813-0.231,1.218-0.346c0.513-0.147,1.025-0.291,1.531-0.451c0.407-0.13,0.807-0.272,1.21-0.411
			c0.497-0.171,0.993-0.339,1.484-0.522c0.399-0.149,0.793-0.312,1.188-0.47c0.482-0.193,0.965-0.384,1.441-0.592
			c0.392-0.169,0.778-0.35,1.166-0.528c0.468-0.215,0.937-0.43,1.398-0.658c0.384-0.19,0.762-0.388,1.141-0.585
			c0.452-0.236,0.905-0.473,1.351-0.721c0.377-0.209,0.747-0.426,1.117-0.642c0.437-0.256,0.872-0.513,1.302-0.78
			c0.367-0.228,0.728-0.462,1.088-0.698c0.421-0.275,0.84-0.552,1.253-0.838c0.356-0.247,0.707-0.498,1.058-0.753
			c0.403-0.293,0.805-0.59,1.201-0.892c0.346-0.264,0.687-0.535,1.027-0.807c0.386-0.31,0.769-0.623,1.145-0.943
			c0.335-0.283,0.666-0.57,0.993-0.861c0.367-0.326,0.729-0.655,1.088-0.99c0.323-0.301,0.642-0.606,0.959-0.914
			c0.348-0.34,0.69-0.685,1.03-1.033c0.174-0.179,0.356-0.348,0.527-0.528c0.169,0.179,0.35,0.346,0.52,0.522
			c0.343,0.353,0.688,0.701,1.039,1.044c0.313,0.307,0.631,0.609,0.952,0.908c0.359,0.335,0.723,0.666,1.091,0.993
			c0.329,0.291,0.66,0.577,0.995,0.862c0.377,0.318,0.758,0.631,1.142,0.941c0.34,0.274,0.683,0.544,1.03,0.81
			c0.394,0.302,0.793,0.596,1.194,0.888c0.353,0.256,0.707,0.511,1.066,0.758c0.41,0.283,0.824,0.558,1.242,0.831
			c0.365,0.239,0.729,0.476,1.099,0.706c0.426,0.264,0.856,0.519,1.288,0.772c0.375,0.22,0.75,0.44,1.131,0.65
			c0.44,0.245,0.887,0.479,1.335,0.712c0.384,0.201,0.769,0.402,1.158,0.593c0.456,0.225,0.919,0.437,1.381,0.65
			c0.392,0.18,0.785,0.364,1.182,0.535c0.471,0.204,0.951,0.394,1.429,0.585c0.4,0.16,0.797,0.324,1.201,0.475
			c0.486,0.182,0.978,0.348,1.47,0.517c0.408,0.139,0.813,0.285,1.224,0.414c0.5,0.16,1.008,0.301,1.512,0.446
			c0.411,0.119,0.821,0.244,1.237,0.353c0.52,0.136,1.047,0.255,1.574,0.377c0.41,0.095,0.816,0.198,1.231,0.285
			c0.547,0.115,1.103,0.209,1.656,0.307c0.4,0.071,0.797,0.152,1.199,0.215c0.584,0.092,1.175,0.16,1.764,0.233
			c0.38,0.047,0.758,0.106,1.139,0.146c0.655,0.068,1.316,0.111,1.977,0.157c0.323,0.022,0.644,0.057,0.968,0.074
			c0.989,0.051,1.984,0.079,2.985,0.079c3.934,0,7.777-0.4,11.49-1.161c25.986-5.331,45.591-28.378,45.591-55.918v-2.648v-22.77
			c0.203-1.012,0.31-2.058,0.31-3.131V57.083c0-6.927,2.735-13.405,7.702-18.238c4.964-4.83,11.539-7.365,18.464-7.195
			c13.628,0.373,24.718,12.168,24.718,26.29V398.062z"/>
	</g>
</g>
<g>
</g>
<g>
</g>
<g>
</g>
<g>
</g>
<g>
</g>
<g>
</g>
<g>
</g>
<g>
</g>
<g>
</g>
<g>
</g>
<g>
</g>
<g>
</g>
<g>
</g>
<g>
</g>
<g>
</g>
</svg>
