<?xml version="1.0" encoding="iso-8859-1"?>
<!-- Generator: Adobe Illustrator 19.0.0, SVG Export Plug-In . SVG Version: 6.00 Build 0)  -->
<svg version="1.1" id="Layer_1" xmlns="http://www.w3.org/2000/svg" xmlns:xlink="http://www.w3.org/1999/xlink" x="0px" y="0px"
	 viewBox="0 0 330 330" style="enable-background:new 0 0 330 330;" xml:space="preserve">
<g id="XMLID_501_">
	<path id="XMLID_502_" d="M140.727,204.986H75.494c-0.169,0.006-0.336,0.028-0.505,0.028c-0.237,0-0.476-0.017-0.714-0.028H60v105
		c0,8.284,6.716,15,15,15h180c8.284,0,15-6.716,15-15v-105h-80.733l19.156,38.305c3.705,7.408,0.703,16.42-6.707,20.125
		c-2.153,1.076-4.442,1.588-6.697,1.588c-5.502,0-10.799-3.039-13.428-8.295l-16.595-33.181l-16.594,33.181
		c-2.629,5.256-7.926,8.295-13.428,8.295c-2.255,0-4.544-0.511-6.697-1.588c-7.41-3.705-10.412-12.717-6.707-20.125L140.727,204.986
		z"/>
	<path id="XMLID_503_" d="M15,144.986h45v30h7.608l101.217-132.36L135.609,9.41c-0.351-0.351-0.72-0.683-1.104-0.997
		c-0.172-0.142-0.353-0.264-0.529-0.396c-0.214-0.161-0.424-0.328-0.647-0.477c-0.216-0.144-0.439-0.269-0.659-0.401
		c-0.199-0.118-0.395-0.243-0.599-0.353c-0.227-0.121-0.46-0.224-0.69-0.333c-0.213-0.1-0.422-0.206-0.639-0.296
		c-0.227-0.094-0.457-0.169-0.688-0.251c-0.232-0.084-0.461-0.173-0.697-0.245c-0.232-0.069-0.467-0.121-0.701-0.18
		c-0.24-0.061-0.479-0.128-0.723-0.177c-0.273-0.055-0.549-0.087-0.823-0.125c-0.21-0.03-0.415-0.07-0.628-0.091
		c-0.494-0.05-0.991-0.075-1.487-0.075H15c-8.284,0-15,6.716-15,15v109.973C0,138.27,6.716,144.986,15,144.986z"/>
	<path id="XMLID_504_" d="M235.354,5.014L105.375,174.986H270v-30h45c8.284,0,15-6.716,15-15V20.014c0-8.284-6.716-15-15-15H235.354
		z"/>
</g>
<g>
</g>
<g>
</g>
<g>
</g>
<g>
</g>
<g>
</g>
<g>
</g>
<g>
</g>
<g>
</g>
<g>
</g>
<g>
</g>
<g>
</g>
<g>
</g>
<g>
</g>
<g>
</g>
<g>
</g>
</svg>
