<?xml version="1.0" encoding="iso-8859-1"?>
<!-- Generator: Adobe Illustrator 18.1.1, SVG Export Plug-In . SVG Version: 6.00 Build 0)  -->
<svg version="1.1" id="Capa_1" xmlns="http://www.w3.org/2000/svg" xmlns:xlink="http://www.w3.org/1999/xlink" x="0px" y="0px"
	 viewBox="0 0 85.348 85.348" style="enable-background:new 0 0 85.348 85.348;" xml:space="preserve">
<g>
	<g>
		<path style="fill:#010002;" d="M77.45,68.852v-3.16V46.72V27.752c0-1.736-1.421-3.16-3.16-3.16H11.066
			c-1.739,0-3.167,1.417-3.167,3.16V46.72v18.971v3.16L0,78.336c0,2.613,2.122,4.738,4.738,4.738H80.61
			c2.613,0,4.738-2.126,4.738-4.738L77.45,68.852z M49.002,81.499H36.358c-0.437,0-0.791-0.354-0.791-0.795
			c0-0.437,0.354-0.787,0.791-0.787h12.644c0.437,0,0.791,0.351,0.791,0.787C49.785,81.149,49.438,81.499,49.002,81.499z
			 M29.644,78.339l2.412-2.895h21.233l2.416,2.895C55.705,78.339,29.644,78.339,29.644,78.339z M73.001,63.262
			c0,1.525-1.242,2.759-2.759,2.759H15.106c-1.514,0-2.756-1.245-2.756-2.759V30.193c0-1.525,1.242-2.759,2.756-2.759h55.136
			c1.517,0,2.759,1.242,2.759,2.759C73.001,30.193,73.001,63.262,73.001,63.262z"/>
		<path style="fill:#010002;" d="M36.88,56.956c0.057,0.032,0.115,0.064,0.172,0.097c-0.043-0.054-0.075-0.097-0.1-0.154
			C36.916,56.909,36.894,56.92,36.88,56.956z"/>
		<path style="fill:#010002;" d="M35.617,37.973c-0.036,0.032-0.072,0.064-0.104,0.086c0.079-0.047,0.143-0.075,0.258-0.079
			C35.731,37.959,35.667,37.973,35.617,37.973z"/>
		<path style="fill:#010002;" d="M35.903,37.734c-0.021,0.021-0.047,0.032-0.068,0.05c0.007,0,0.011,0,0.014,0
			c-0.086,0.05-0.229,0.175-0.268,0.197c0.007,0,0.021,0,0.032,0c0.097-0.075,0.186-0.161,0.286-0.233
			C35.899,37.737,35.903,37.737,35.903,37.734z"/>
		<path style="fill:#010002;" d="M35.423,38.106c-0.025,0.029-0.05,0.05-0.075,0.064c0.018-0.004,0.036-0.007,0.057-0.007
			c0.011-0.011,0.021-0.018,0.032-0.029C35.434,38.12,35.441,38.106,35.423,38.106z"/>
		<path style="fill:#010002;" d="M35.449,38.084c0.014,0,0.021,0.007,0.036,0c0.007-0.007,0.018-0.014,0.025-0.021
			C35.495,38.077,35.47,38.066,35.449,38.084z"/>
		<path style="fill:#010002;" d="M31.376,44.888c0.308-1.632,0.973-3.207,1.943-4.549C32.371,41.678,31.694,43.213,31.376,44.888z"
			/>
		<path style="fill:#010002;" d="M31.354,44.956c0.004,0,0.007,0.021,0.011,0.021c0.004-0.029,0.004-0.061,0.007-0.082
			C31.372,44.909,31.358,44.931,31.354,44.956z"/>
		<path style="fill:#010002;" d="M35.001,38.464c-0.025,0.025-0.043,0.054-0.072,0.075c0.115-0.097,0.236-0.193,0.354-0.286
			C35.187,38.31,35.087,38.392,35.001,38.464z"/>
		<path style="fill:#010002;" d="M33.337,40.321c-0.004,0.007-0.007,0.014-0.011,0.021c0.025-0.029,0.054-0.061,0.075-0.089
			C33.376,40.275,33.355,40.292,33.337,40.321z"/>
		<path style="fill:#010002;" d="M33.401,40.246c0.455-0.619,0.97-1.188,1.535-1.711C34.364,39.058,33.856,39.627,33.401,40.246z"/>
		<path style="fill:#010002;" d="M53.046,42.905c0.111,0.222,0.376,0.344,0.462,0.565c0.029-0.007,0.036-0.029,0.036-0.05
			c-0.064-0.193-0.132-0.387-0.208-0.58C53.153,42.669,52.86,42.522,53.046,42.905z"/>
		<path style="fill:#010002;" d="M53.235,42.558c-0.193-0.455-0.419-0.888-0.669-1.313C52.838,41.656,53.039,42.103,53.235,42.558z"
			/>
		<path style="fill:#010002;" d="M53.933,44.752c-0.047-0.229-0.093-0.455-0.154-0.676C53.837,44.294,53.88,44.523,53.933,44.752z"
			/>
		<path style="fill:#010002;" d="M52.269,40.768c-0.458-0.698-0.973-1.328-1.564-1.908C51.292,39.434,51.811,40.074,52.269,40.768z"
			/>
		<polygon style="fill:#010002;" points="38.226,37.365 38.258,37.365 38.265,37.358 		"/>
		<path style="fill:#010002;" d="M52.885,45.367c-0.161-0.315-0.24-0.53-0.462-0.823c-0.161-0.218-0.387-0.387-0.451-0.673
			c-0.104-0.462-0.866-0.737-0.884-1.249c-0.007-0.075-0.2-0.429-0.179-0.447c0.047-0.032,0.029-0.225,0.036-0.283
			c0.011-0.197,0.057-0.336,0.004-0.53c-0.412,0.111-0.755-0.054-1.174-0.089c0.014-0.007,0.032-0.014,0.039-0.029
			c-0.125-0.104-0.208-0.197-0.354-0.265c0.157-0.161,0-0.097-0.025-0.204c-0.036-0.14,0.347-0.075,0.419-0.104
			c-0.014-0.014-0.061-0.043-0.057-0.057c-0.147-0.025-0.125,0.129-0.293,0.007c-0.132-0.086-0.147-0.032-0.272-0.007
			c0.021,0.036,0.029,0.057,0.021,0.089c0,0-0.204-0.143-0.183-0.043c0.122,0.125,0.19,0.236,0.329,0.365
			c-0.079,0.043-0.154-0.007-0.225-0.075c0.004,0.036,0.047,0.222,0.075,0.233c-0.168-0.021-0.265-0.1-0.2-0.24
			c-0.129-0.014-0.401-0.286-0.429-0.419c-0.043-0.233-0.369-0.265-0.39-0.422c-0.057,0-0.727-0.465-0.709-0.333
			c0.029,0.218,0.379,0.515,0.598,0.53c0.032,0.175,0.372,0.129,0.372,0.322c-0.315-0.075-0.197-0.104-0.154,0.118
			c-0.007-0.025-0.186,0.247-0.211,0.107c0.329,0.032-0.734-0.802-0.684-0.705c-0.236-0.24-0.279-0.333-0.587-0.172
			c-0.154,0.075-0.659-0.197-0.523,0.143c-0.007,0.025-0.698,0.326-0.397,0.455c-0.089,0.132-0.236,0.233-0.369,0.286
			c-0.15-0.061-0.437,0.161-0.526,0.018c-0.111-0.175-0.186-0.111-0.372-0.122c-0.19-0.014-0.029-0.641-0.029-0.723
			c0-0.118-0.097-0.279,0.147-0.258c0.215,0.021,0.412,0.075,0.626,0.082c0.233-0.029,0.322,0.057,0.308-0.265
			c-0.007,0.007-0.007,0.007-0.007,0.007c0.136-0.233-0.501-0.308-0.501-0.426c0-0.082,0.372-0.007,0.419-0.014
			c0-0.054-0.029-0.075-0.029-0.125c0.297,0.025,0.336-0.082,0.598-0.14c0.215-0.05,0.179-0.276,0.437-0.251
			c0.075,0.004,0.351,0.018,0.283-0.089c-0.15-0.265-0.147-0.265,0.129-0.372c0.011,0.075,0.054,0.104,0.072,0.14
			c-0.011,0-0.025,0.05-0.039,0.097c0.054,0.007,0.086,0.032,0.075,0.093c-0.007-0.047-0.057-0.025-0.086-0.039
			c-0.011,0.064-0.018,0.104-0.007,0.075c0.143,0.014,0.304,0,0.447,0.021c-0.025,0.168,0.508-0.021,0.633,0.029
			c-0.007,0.014-0.011,0.029-0.011,0.029c0.054,0.011,0.107,0.011,0.157,0.011c-0.043-0.283,0.476-0.394,0.476-0.322
			c0-0.075-0.229-0.154-0.165-0.186c0.2-0.104,0.429,0.054,0.641-0.029c-0.075-0.086-1.084-0.064-0.934-0.247
			c-0.086-0.025-0.075-0.079-0.115-0.132c0.036,0.004,0.447-0.15,0.447-0.165c-0.079-0.204-0.412-0.029-0.447,0.029
			c0.029,0.089-0.426,0.057-0.412,0.197c0.032,0.147,0.211,0.1,0.243,0.233c0.007,0.032-0.447,0.222-0.161,0.261
			c0.007,0.111-0.34,0.2-0.419,0.197c-0.068-0.007-0.204-0.276-0.233-0.326c-0.086-0.132-0.125-0.222-0.272-0.136
			c-0.054,0.036-0.48,0.143-0.494-0.011c0-0.047,0.072,0,0.068-0.075c-0.061-0.007-0.061-0.007-0.107,0
			c0.014-0.025,0.036-0.039,0.064-0.057c-0.301-0.211,0.272-0.319,0.404-0.304c-0.05-0.007-0.068-0.011-0.1-0.025
			c0.079,0,0.752-0.268,0.773-0.344c-0.089,0.007-0.125,0.021-0.218,0.014c0.014-0.007,0.054-0.014,0.072-0.014
			c-0.021,0-0.064-0.007-0.064-0.007c0.014-0.047,0.308-0.014,0.315-0.018c-0.029-0.004-0.029-0.004-0.064-0.004
			c0.057-0.021,0.104-0.025,0.154-0.018c-0.021-0.007-0.014-0.007-0.036-0.014c0.14-0.047,0.308,0,0.455-0.021
			c-0.104-0.018,0.258-0.079,0.222,0.021c0.147,0.014,0.301,0.075,0.462,0.14c-1.786-1.127-3.901-1.789-6.166-1.789
			c-2.541,0-4.867,0.848-6.775,2.244c0,0.014,0,0.025-0.004,0.032c0.021-0.004,0.036,0.007,0.025,0.05
			c0.143-0.043,0.376,0.05,0.351,0.05c0.136-0.007,0.276-0.222,0.462-0.154c-0.011-0.004-0.165,0.089-0.179,0.118
			c-0.068,0.14,0.011,0.061,0.111,0.132c-0.05,0.014-0.147,0-0.19,0.036c0.011-0.004,0.029,0.036,0.029,0.036
			c-0.132,0.064-0.916,0.075-0.956,0.057c-0.004-0.007-0.039-0.007-0.068-0.007c-0.018,0.014-0.036,0.036-0.054,0.05
			c0,0.007,0.014,0,0.011,0.021c-0.011,0.004-0.029,0.004-0.047,0.007c-0.039,0.032-0.075,0.061-0.115,0.089
			c0.143-0.082,0.293-0.14,0.476-0.075c0.054,0.014,0.215,0,0.297-0.075h-0.007c-0.05,0-0.208,0.036-0.183,0.014
			c0.021-0.014,0.089-0.021,0.183-0.014c0.007-0.007,0.014-0.007,0.014-0.007l-0.004,0.007c0.243,0.007,0.63,0.057,0.769,0.014
			c-0.021,0.021-0.032,0.029,0.029,0.021c0.1-0.079,0.258-0.057,0.301-0.122c-0.032,0.011-0.054,0.018-0.086,0.021
			c0.032-0.014,0.057-0.029,0.086-0.047c0.029-0.029-0.14-0.036-0.111-0.064c0.107-0.075,0.49-0.079,0.401-0.021
			c-0.039,0.014-0.079,0.036-0.122,0.043c0.007,0.021,0.093,0.007,0.122,0.014c-0.125,0.039,0.029,0.007-0.057,0.075
			c-0.014,0,0.319-0.075,0.254-0.029c-0.079-0.004-0.115,0.029-0.1,0.082c0.093,0.086,0.372-0.154,0.444-0.179
			c0,0-0.569-0.007-0.501-0.064c0.079,0.032,0.15,0.029,0.208-0.018c-0.021-0.014-0.197-0.014-0.197-0.014
			c-0.036-0.075,0.211-0.104,0.254-0.132c-0.068,0.029-0.19,0.018-0.261,0.054c0.011,0,0.025,0,0.039,0
			c-0.061,0.032-0.122,0.054-0.19,0.047c0.204-0.14,0.304-0.132,0.583-0.154c-0.043,0.029-0.086,0.036-0.136,0.05
			c0.132-0.021,0.251-0.021,0.379-0.014c-0.047,0.007-0.272,0.064-0.204,0.064c-0.147,0.072,0.476-0.143,0.515-0.043
			c0.004,0.018-0.025,0.068-0.039,0.068c0.265,0.004,0.483,0.079,0.734,0.093c0,0.007-0.004,0.007-0.007,0.014
			c0.029-0.007,0.057,0,0.079,0.025c-0.029,0.007-0.057,0.004-0.075,0.018c0.029-0.004,0.061-0.004,0.086,0.014
			c-0.036,0.007-0.05,0.007-0.079,0.036c0.021,0.007,0.329,0.104,0.322,0.111c-0.018,0.14-0.243,0.079-0.358,0.072
			c-0.014,0.021-0.032,0-0.047,0.043c0.061-0.004,0.082,0.075,0.168,0.064c-0.064,0.211-0.057,0.089-0.297,0.129
			c0-0.004,0.265,0.122,0.125,0.157c-0.179,0.043-0.39-0.089-0.497-0.14c-0.047-0.032-0.515,0.029-0.497,0
			c0.1-0.132,0.372-0.089,0.519-0.154c-0.111-0.043,0.297-0.118,0.161-0.222c-0.004,0.086-0.222,0.036-0.222,0.032
			c0.057-0.043,0.118-0.057,0.186-0.05c-0.039-0.021-0.197-0.029-0.204-0.021c0.029-0.007,0.057-0.014,0.082-0.021
			c-0.018-0.014-0.039-0.029-0.064-0.029c0.004,0,0.007-0.007,0.007-0.007c-0.068-0.036-0.326,0.036-0.276-0.007
			c-0.039,0-0.107,0-0.186,0c0.057,0.007,0.122,0.036,0.175,0.036c-0.107,0.089-0.319,0.197-0.54,0.251
			c0.047-0.011,0.029,0.007,0.032,0.029c-0.043,0-0.054-0.014-0.036-0.029c-0.039,0.007-0.075,0.029-0.115,0.036
			c0,0.007,0.004,0.014,0,0.029c0.036-0.014,0.193,0.007,0.208,0.043c0,0.018-0.018,0.032-0.011,0.036
			c0.029,0.025,0.104,0.011,0.115,0.036c-0.157,0.043-0.426,0.072-0.583,0.075c-0.039,0.004-0.011-0.018,0.018-0.039
			c-0.047,0-0.115,0.007-0.143,0.007c0.054-0.043,0.197-0.125,0.304-0.168c-0.122,0.014-0.236,0.014-0.329-0.014
			c-0.014,0.05,0.107,0.036,0.2,0.05c-0.132,0.111-0.476,0.147-0.676,0.132c0.018,0.007,0.036,0.014,0.05,0.029
			c-0.175,0.161-0.598,0.286-0.823,0.44c0.172-0.029,0.154,0.036,0.043,0.15c0.404-0.018,0.365,0.222,0.694,0.211
			c0.111,0.079-0.05,0.186-0.064,0.24c0.039-0.014,0.097-0.004,0.075,0.032c0.029,0.014,0.043,0.029,0.136,0.025
			c0.157-0.175-0.025-0.243,0.286-0.372c0.387-0.161,0.104-0.161,0.097-0.365c0.422-0.089,0.251-0.465,0.812-0.2
			c0.161,0.079,0.644,0.222,0.762,0c-0.043,0.075,0.004,0.075,0.021,0.093c0.15-0.075,0.376,0.247,0.154,0.322
			c0.039,0.025,0.075,0.061,0.172,0.061l-0.004,0.004c-0.079,0.14,0.329,0.1,0.293,0.14c-0.057,0.057-0.322,0.075-0.433,0.111
			c0.007,0.064,0.48-0.064,0.523-0.075c0.143,0.483-1.303,0.433-1.603,0.673c0.036-0.004,0.766-0.172,0.705-0.068
			c-0.05,0.079-0.186,0.068-0.261,0.111c0.043,0,0.089,0.007,0.115,0.007c-0.261,0.322,0.322,0.283,0.293,0.336
			c-0.047,0.097-0.544,0.175-0.659,0.233c-0.183,0.093,0.011-0.215,0.254-0.222c-0.064,0.007-0.075-0.014-0.039-0.068
			c-0.186,0.007-0.494,0.222-0.644,0.186c-0.154-0.029-0.626,0.369-0.369,0.358c-0.161,0.064-0.397,0.05-0.576,0.125
			c0.036,0,0.136-0.021,0.161,0c-0.1,0.032-0.533,0.19-0.508,0.247c-0.079,0.054-0.107,0.304-0.261,0.297
			c0.007,0.004,0.061-0.222,0.068-0.229c-0.032,0.032-0.165,0.258-0.154,0.293c0.011,0,0.025,0,0.032,0
			c-0.018,0.057-0.061,0.089-0.122,0.111c0,0.029,0.018,0.036,0.039,0.05c-0.047,0.061-0.168,0.032-0.086,0.125
			c-0.104,0.075-0.24,0.089-0.347,0.168l0.004,0.007c-0.444,0.197-0.837,0.376-0.895,0.913c-0.014,0.136-0.172,0.716-0.372,0.694
			c-0.175-0.021,0.157-0.873,0.14-0.948c-0.004-0.011-0.497-0.086-0.472-0.136c-0.075,0.021-0.15,0-0.236,0.029
			c0.029,0.021,0.021,0.014,0.054,0.007c-0.054,0.075-0.118,0.125-0.093,0.175c-0.147,0.064-0.279-0.225-0.476-0.125
			c-0.29,0.161-0.505,0.297-0.673,0.587c0,0-0.004,0-0.007,0c-0.047,0.097-0.905,1.539-0.508,1.614
			c0.544,0.125,0.565-0.644,1.156-0.53c-0.075,0.147-0.208,0.258-0.279,0.415c-0.047,0.1-0.089,0.147-0.143,0.208
			c-0.064,0.115-0.662,0.605-0.143,0.637c0.63,0.036,0.161,0.63,0.036,0.963c-0.111,0.283-0.344,1.228,0.197,0.995
			c0.261-0.118,0.265,0.279,0.304,0.419c-0.018,0.021-0.211,0.204-0.211,0.197c-0.011-0.079,0.086-0.383-0.036-0.426
			c-0.24-0.086-0.261,0.483-0.372,0.433c-0.233-0.093-0.118-0.981-0.293-1.038c-0.018,0.025-0.036,0.064-0.032,0.086
			c-0.014-0.011-0.029-0.014-0.043-0.021c-0.047-0.179,0.111-0.365,0.097-0.551c-0.011-0.168-0.039-0.308,0.007-0.476
			c-0.154-0.05-0.301-0.154-0.379-0.358c-0.032-0.075,0.007-0.44-0.072-0.465c-0.057-0.215-0.154,0.064-0.251,0.039
			c-0.107-0.029-0.143-0.344-0.222-0.372c-0.118,0.666-0.208,1.335-0.208,2.033c0,4.194,2.244,7.856,5.594,9.87
			c-0.068-0.097-0.014-0.208-0.068-0.319c-0.075-0.161-0.197-0.183-0.2-0.401c0-0.419-0.029-0.684-0.2-1.113
			c-0.186-0.243-0.157-0.777-0.204-1.081c-0.104-0.286-0.147-0.583-0.265-0.866c-0.132-0.308-0.505-0.515-0.834-0.555
			c-0.422-0.075-0.49-0.44-0.748-0.719c-0.218-0.233-0.44-0.505-0.612-0.762c-0.089-0.118-0.261-0.125-0.308-0.329
			c-0.047-0.19,0.132-0.258,0.129-0.426c-0.251-0.14-0.175-0.175-0.168-0.447c0.004-0.236,0.326-0.497,0.322-0.734
			C33.498,49.086,33.48,49.05,33.505,49c-0.05-0.225-0.344-0.608-0.05-0.727c-0.057-0.322,0.329-0.533,0.562-0.637
			c0.054-0.021,0.111-0.193,0.179-0.093c0.036,0.043,0.029,0.075-0.018,0.107c0,0.075-0.047,0.447,0.125,0.44
			c0.072-0.007-0.211-0.397,0.175-0.419c-0.036-0.075-0.111-0.043-0.125-0.115c0.136-0.004,0.304,0.122,0.383,0.222
			c0.061,0.064,0.308,0.029,0.394,0.061c0.1,0.039,0.283-0.061,0.433-0.089c0.061,0.261,0.623,0.326,0.78,0.562
			c0.129,0.186,0.669,0.229,0.87,0.222c0.236-0.014,0.641,0.565,0.53,0.712c-0.168,0.222,0.068,0.505,0.286,0.469
			c0.211-0.014,0.014-0.39,0.433-0.222c0.154,0.072,0.215,0.064,0.254,0.236c0.193-0.021,0.44-0.089,0.666-0.029
			c0.222,0.068,0.361,0.204,0.598,0.251c0.512,0.107,0.021,1.049-0.097,1.27c-0.089,0.179,0.172,0.755,0.14,1.013
			c-0.115,0.44-0.179,0.594-0.562,0.834c-0.104,0.068-0.301,0.276-0.276,0.415c0.036,0.125,0.075,0.251,0.118,0.372
			c-0.072,0.082-0.107,0.186-0.104,0.29v-0.007c-0.039,0.279-0.143,0.53-0.197,0.82c-0.039,0.193-0.626,0.279-0.651,0.222
			c0.115,0.293,0.53,0.168,0.333,0.612c-0.068,0.154-0.308,0.19-0.451,0.222c-0.168,0.039,0.007,0.225,0.004,0.322
			c0.079,0.186-0.193,0.089-0.301,0.125c-0.208,0.057,0.311,0.293,0.279,0.222c0.05,0.115-0.125,0.061-0.157,0.068
			c0.05,0.104,0.208,0.372,0.007,0.476c-0.308,0.183,0.233,0.29,0.286,0.444c1.331,0.533,2.781,0.834,4.305,0.834
			c4.355,0,8.142-2.426,10.096-5.991c0.021-0.111,0.068-0.19,0.122-0.236c0.823-1.575,1.292-3.371,1.292-5.286
			c0-0.565-0.111-1.106-0.19-1.646C53.543,45.525,53.171,45.933,52.885,45.367z M48.544,38.156c0,0.039-0.025,0.086-0.079,0.086
			c-0.039-0.007-0.05-0.039-0.054-0.054c0.032,0,0.054-0.011,0.086-0.011C48.404,38.106,48.511,38.145,48.544,38.156z
			 M48.078,38.224c-0.021,0.029-0.05,0.064-0.072,0.089C47.949,38.267,48.05,38.224,48.078,38.224z M47.216,38.514
			c0.029,0,0.061-0.021,0.054-0.036c-0.193-0.039,0-0.222,0.097-0.047c-0.082,0.007-0.05,0.172-0.183,0.079
			C47.198,38.492,47.209,38.492,47.216,38.514z M46.421,37c-0.007,0-0.021,0.007-0.029,0.007c0.029,0.007,0.054,0.007,0.072,0.014
			c-0.057-0.011,0.118,0.014,0.14,0.021c-0.111-0.097,0.118-0.036,0.125-0.036c0,0.007-0.007,0.011-0.007,0.018
			c0.05-0.007,0.118,0,0.19,0.018c-0.011-0.007-0.021-0.018-0.029-0.025c0.047,0.004,0.082,0,0.132-0.004
			c-0.014,0-0.132-0.007-0.132-0.007c-0.029,0-0.125,0.007-0.147-0.032c0.036,0,0.068,0.004,0.097,0.004v-0.004
			c0.007,0,0.029,0,0.043,0.004c-0.007-0.007-0.014-0.007-0.014-0.011c0.193,0.004,0.49-0.039,0.666,0.054
			c-0.064,0.007-0.365,0.057-0.523,0.043c0.021,0.007,0.054,0.014,0.072,0.029c-0.011,0.007-0.018,0-0.029,0
			c0.082,0.014,0.2,0.025,0.286,0.072c-0.082,0.004-0.115,0.021-0.19,0.029c-0.007-0.007-0.014-0.018,0-0.025
			c-0.043,0-0.104-0.004-0.14-0.007c0-0.021,0.036-0.014,0.036-0.032c-0.021,0-0.043-0.014-0.057-0.021
			c-0.125,0.021-0.501,0.154-0.512,0.021c0.064,0,0.111,0.004,0.179,0c-0.021-0.004-0.215,0-0.215-0.025
			c0,0,0.104-0.025,0.165-0.032c-0.075,0.007-0.215,0.029-0.243-0.007c0.004,0,0.007,0,0.018,0
			c-0.043-0.007-0.075-0.014-0.072-0.036c-0.029-0.004-0.057-0.011-0.075-0.021C46.289,36.982,46.357,36.978,46.421,37z
			 M37.08,38.585c0.011-0.007,0.018-0.014,0.029-0.021c0.068-0.036,0.136-0.075,0.211-0.057
			C37.259,38.546,37.138,38.578,37.08,38.585z M35.062,44.584c-0.011,0.075-0.054,0.104-0.136,0.104
			C34.844,44.669,35.041,44.609,35.062,44.584z M34.808,43.327c0.036,0,0.036,0.043,0.036,0.061
			c-0.054,0.004-0.097-0.007-0.125-0.011C34.743,43.342,34.786,43.327,34.808,43.327z M34.633,43.707
			c0.014-0.032,0.036,0.079,0.025,0.104C34.607,43.929,34.622,43.721,34.633,43.707z M33.573,44.516
			c0.011-0.043,0.036-0.072,0.075-0.075c0.021-0.047,0.018-0.079,0.047-0.054C33.605,44.63,33.591,44.462,33.573,44.516z
			 M34.01,45.468c0.057,0.014,0.111,0.079,0.132,0.1c0-0.007,0-0.014,0-0.021c0.021,0.021,0.021,0.054,0.014,0.082
			C33.82,45.65,33.967,45.46,34.01,45.468z M34.16,45.002c0.097-0.233,0.025-0.601-0.326-0.651c-0.093-0.308-0.122,0.075-0.401,0.05
			c0.286-0.369,0.501-0.422,0.812-0.118c0.1,0.097,0.329,0.429,0.319,0.519c0.154,0.05,0.039,0.14,0.111,0.236
			C34.504,45.256,34.332,45.038,34.16,45.002z M35.105,45.664c-0.014-0.107-0.183,0.15-0.222,0.14c-0.004,0-0.251-0.451-0.361-0.154
			c-0.272-0.168,0.265-0.215,0.297-0.193c0.004-0.057,0.011-0.569,0.143-0.372c0.057,0.093,0.15,0.014,0.236,0.036
			c0.172,0.029,0.15,0.208,0.218,0.322c0.021,0.075,0.068,0.229,0.068,0.222C35.466,45.672,35.105,45.672,35.105,45.664z
			 M35.667,45.818c0.039-0.115,0.233,0.047,0.24,0.104C35.842,46.011,35.624,45.947,35.667,45.818z M50.895,41.545
			c0.007,0.068-0.222,0.208-0.258,0.061C50.698,41.581,50.813,41.545,50.895,41.545z M48.096,40.879
			c-0.007,0.05-0.011,0.211-0.018,0.211c-0.064-0.007-0.365-0.168-0.372-0.225C47.756,40.836,48.035,40.858,48.096,40.879z
			 M47.176,40.085c0.007,0.018,0.014,0.039,0.029,0.047c-0.011,0.05-0.011,0.14-0.029,0.168c-0.05-0.011-0.075-0.14-0.104-0.175
			C47.112,40.124,47.141,40.11,47.176,40.085z M47.126,40.475c0-0.036-0.054-0.064-0.064-0.097
			C47.441,40.321,47.176,40.876,47.126,40.475z M46.378,40.511c0,0.054-0.104-0.036-0.111-0.036
			C46.328,40.432,46.36,40.443,46.378,40.511z M45.373,37.966c-0.036,0.029-0.075,0.047-0.111,0.072
			c0.047,0.075,0.14,0.097,0.272,0.036c0.018,0.075-0.14,0.132-0.154,0.175c0.179,0.05,0.447,0.225,0.462,0.408
			c0.029-0.007,0.032-0.018,0.054-0.025c0.1-0.05,0.1,0.072-0.004,0.197c0.029,0,0.064,0.007,0.089,0.021
			c0.007,0.036-0.784,0.104-0.873,0.097c0.054-0.089,0.311-0.136,0.311-0.19c-0.039,0.036-0.283-0.007-0.283-0.029
			c0-0.064,0.089-0.075,0.089-0.19c0.075,0.014,0.211,0.014,0.208-0.079c-0.075,0-0.129-0.014-0.075-0.079
			c-0.029,0-0.222,0.021-0.218-0.029c0-0.097,0.122-0.054-0.029-0.125c-0.021,0.021-0.011,0.029,0,0.043
			c-0.011-0.007-0.021-0.007-0.036-0.007c0-0.097-0.021-0.075-0.014-0.168c-0.068-0.007-0.1-0.021-0.097-0.057
			c0.011,0.004,0.118,0.029,0.118,0.018C44.993,38.02,45.38,37.819,45.373,37.966z M45.176,38.457c0-0.018,0-0.039,0.029-0.047
			c0,0,0.014,0.007,0.021,0.007c0,0.007-0.007,0.021-0.007,0.039C45.212,38.457,45.197,38.457,45.176,38.457z M45.004,37.959
			c-0.004,0.029-0.039,0.054-0.086,0.054C44.832,37.998,44.993,37.959,45.004,37.959z M44.539,38.421
			c0.004-0.054,0.15-0.036,0.186-0.054c-0.082-0.093,0.147-0.086,0.19-0.079c0.265,0.018,0.068,0.132,0.068,0.172
			c-0.004,0.211-0.15,0.283-0.387,0.261c-0.243-0.014,0.014-0.168,0.029-0.229C44.596,38.467,44.564,38.442,44.539,38.421z
			 M37.918,37.286c-0.011,0.007-0.021,0.018-0.032,0.018c0.043,0-0.1,0.007-0.061-0.014C37.861,37.286,37.904,37.286,37.918,37.286z
			 M37.814,37.39c-0.072-0.057,0.218-0.075,0.15,0C37.896,37.39,37.678,37.415,37.814,37.39z M38.065,37.408
			c-0.025,0.018-0.05,0.025-0.079,0.021c-0.014,0.004-0.154,0-0.154,0C37.904,37.408,37.986,37.415,38.065,37.408z M37.27,37.372
			c0.011,0,0.021,0,0.036-0.007c-0.039,0-0.039,0-0.021-0.014c0.079-0.007,0.308-0.032,0.365,0.021
			c-0.011,0.007-0.029,0.007-0.036,0.014c0.025,0.025-0.064,0.039-0.161,0.043c-0.021,0.004-0.05,0.007-0.086,0.011
			c0.018-0.004,0.039-0.007,0.061-0.011c-0.086,0-0.165-0.007-0.186-0.036c0.043,0.014,0.086,0,0.122-0.021
			C37.302,37.372,37.281,37.379,37.27,37.372z M37.166,37.469c-0.018,0.007-0.043,0.014-0.061,0.014
			c-0.029,0-0.043-0.021-0.021-0.039C37.156,37.444,37.127,37.465,37.166,37.469z M37.08,37.526c0-0.036,0.125,0.014,0.161,0.021
			c-0.054,0.011-0.118,0.018-0.154,0.018c0.004-0.004,0.004-0.007,0.011-0.014c-0.032,0.007-0.039-0.004-0.05-0.004L37.08,37.526z
			 M36.701,37.437c-0.036-0.007-0.075-0.007-0.111,0.004c0.043-0.021,0.179-0.014,0.258-0.014c-0.014,0-0.029,0.004-0.039,0.004
			c0.007,0.004,0.011,0.007,0.011,0.014c-0.154,0.018-0.172,0.021-0.057,0.018c-0.036,0.021-0.136,0.029-0.193,0.036
			C36.504,37.497,36.608,37.454,36.701,37.437z M36.422,37.526c-0.025,0.014-0.054,0.021-0.079,0.021
			c-0.011,0-0.025-0.007-0.004-0.014C36.365,37.53,36.397,37.53,36.422,37.526z M36.3,37.497c0.039,0.014,0.021,0.021-0.043,0.029
			c-0.025,0.043-0.064,0.054-0.118,0.05C36.186,37.519,36.243,37.49,36.3,37.497z M36.214,37.644L36.214,37.644
			c-0.018-0.007-0.039,0.007-0.054,0.014c-0.054,0.007-0.107,0.014-0.161,0.007c0.025-0.036,0.057-0.054,0.097-0.05
			c-0.007-0.004-0.014-0.004-0.018-0.004c0.025-0.025,0.047-0.025,0.082-0.021c-0.007-0.004-0.014-0.004-0.018-0.007
			c0.025-0.007,0.05-0.014,0.079-0.014c-0.011,0-0.011,0-0.004-0.007c0.132-0.018,0.268,0.075,0.408,0.021c-0.029,0-0.036,0-0.047,0
			c0.021,0,0.043-0.007,0.057-0.021c-0.115,0,0.129-0.047,0.154-0.047c-0.132,0.061,0.136,0.047,0.115,0.057
			C36.723,37.684,36.422,37.59,36.214,37.644z M37.002,37.583c-0.011,0.029-0.036,0.047-0.075,0.036c-0.025,0-0.025,0-0.054,0
			C36.916,37.594,36.952,37.59,37.002,37.583z M36.773,38.013c-0.072,0.021,0.293-0.115,0.229,0.021
			C36.948,38.045,36.579,38.045,36.773,38.013z M37.177,37.737c0.039-0.004,0.143-0.036,0.068,0.018
			c0.011,0.004,0.043,0.004,0.057,0.004c-0.107,0.068-0.372,0.157-0.472,0.018c0.075-0.05,0.147,0.007,0.229-0.05
			c-0.218-0.004,0.261-0.025,0.279-0.043C37.288,37.712,37.231,37.726,37.177,37.737z M37.227,37.594
			c0.039-0.025,0.115-0.032,0.15-0.039c-0.036-0.018-0.086-0.011-0.136-0.011c-0.007-0.007-0.014-0.007-0.018-0.014
			c0.057-0.036,0.107,0.018,0.168-0.014c-0.047,0-0.082,0-0.068-0.021c0.021,0,0.254,0,0.254,0
			C37.585,37.658,37.288,37.562,37.227,37.594z M37.542,37.587c0.014-0.011,0.057-0.018,0.064-0.018
			c0.057-0.032,0.122-0.039,0.183-0.014C37.879,37.601,37.546,37.587,37.542,37.587z M38.165,37.576
			c-0.05,0.004-0.401,0-0.215-0.039c-0.011-0.057-0.047-0.072-0.1-0.029c-0.05,0-0.093-0.021-0.143-0.039
			c0.043-0.025,0.483-0.021,0.501,0.025c-0.039,0-0.075,0-0.115,0.007c-0.029,0.029,0.068,0.014,0.089,0.021
			c-0.061,0.014,0.798-0.064,0.805-0.007c-0.018,0-0.039,0.007-0.054,0.014c0.018,0,0.036,0,0.036,0
			C38.752,37.666,38.351,37.472,38.165,37.576z M38.813,37.684c-0.007,0-0.118-0.029-0.089-0.05c0.089-0.072,0.297-0.007,0.39,0.014
			C39.038,37.684,38.884,37.68,38.813,37.684z M39.299,37.372c-0.183,0.186-0.612,0.021-0.884,0.057
			c0.054-0.011,0.107-0.025,0.165-0.036c-0.15-0.064,0.193-0.021,0.236-0.029c-0.072-0.057-0.2-0.047-0.276-0.029
			c0,0.007,0.011,0.014,0.004,0.021c-0.061,0-0.222-0.014-0.293,0c-0.011,0.007-0.021,0.007-0.039,0.007l0.011-0.007
			c-0.018,0-0.036,0-0.047-0.021c0.079-0.014,0.157-0.025,0.24-0.025c-0.032-0.004-0.15-0.011-0.229-0.011
			c0.007,0,0.014,0,0.021-0.011c-0.089,0.011-0.143,0.011-0.104-0.021c0.047,0,0.097,0,0.143,0c-0.029,0-0.061,0-0.086-0.018
			c0.032-0.014,0.075-0.014,0.118-0.014c-0.007,0-0.014,0-0.021-0.007c0.054-0.007,0.107-0.021,0.161-0.021
			c-0.021,0-0.068,0-0.047-0.007c0.089-0.007,0.272,0.075,0.34,0.043c0.05,0,0.054,0.011,0.007,0.032
			c0.089-0.054,0.115,0.068,0.265-0.039c0.007-0.007-0.068-0.036-0.097-0.036c0.072,0,0.086-0.007,0.047-0.021
			c-0.075,0-0.132-0.011-0.147-0.029c0.029-0.007,0.057-0.007,0.082-0.014c-0.039,0.004-0.079,0.004-0.118,0.007
			c0.064-0.021,0.125-0.021,0.2-0.032c-0.072-0.004-0.14,0.025-0.208,0.014c0.039-0.011,0.061-0.014,0.093-0.018
			c-0.064,0.004-0.122,0.007-0.183,0.014c0.329-0.125,1.274-0.218,1.607-0.089c-0.172,0.043,0.286-0.029,0.265,0.014
			c-0.011,0.036-0.286,0.029-0.308,0.043c0.014,0,0.089,0,0.136,0c-0.24,0.064-0.505,0.057-0.744,0.111c0.025,0,0.043,0,0.064,0
			c-0.014,0.021-0.039,0.021-0.082,0.021c0.025,0.007,0.047,0.007,0.05,0.014c-0.111,0.021-0.168,0.054-0.279,0.064
			c-0.021,0.05-0.122,0.036-0.165,0.072C39.231,37.372,39.31,37.365,39.299,37.372z M38.945,39.834
			c-0.089,0.068-0.218-0.029-0.286-0.079C38.813,39.734,38.87,39.795,38.945,39.834z M38.455,40.156
			c0.004-0.014,0.018-0.021,0.032-0.025c0.054,0.075,0.125,0.089,0.218,0.064C38.652,40.314,38.437,40.196,38.455,40.156z
			 M38.798,40.267c0.05-0.061,0.107-0.093,0.175-0.129c0,0.018,0.021,0.029,0.014,0.043c-0.018,0.043-0.1,0.057,0.014,0.057
			C38.967,40.314,38.773,40.321,38.798,40.267z M39.414,40.11c0.004,0-0.233,0.118-0.222,0.097c0.025-0.029,0.05-0.054,0.082-0.068
			c-0.057,0-0.587-0.036-0.58-0.047c0.025-0.05,0.104-0.036,0.129-0.082c-0.011,0-0.029-0.011-0.029-0.021
			c0.211-0.064,0.372-0.376,0.591-0.376c0.068,0-0.204,0.222-0.208,0.229c0.05-0.032,0.1-0.036,0.157-0.007
			c-0.025,0.004-0.043,0.021-0.047,0.05c0.032,0,0.061,0,0.089,0c0,0.007-0.007,0.014-0.007,0.014c0.021,0,0.047-0.007,0.068-0.007
			c0.05,0.007,0.118,0.007,0.15,0c-0.011,0.036-0.032,0.064-0.054,0.118c0.011-0.011,0.043-0.014,0.061-0.014
			c-0.043,0.075-0.032,0.036-0.061,0.115c0.054,0,0.039-0.004,0.075-0.021C39.507,40.364,39.521,40.21,39.414,40.11z M42.356,37.712
			c-0.047,0.14-0.218-0.082-0.243,0c0.043,0.021,0.276,0.061,0.247,0.154c-0.018,0.064-0.297-0.05-0.336-0.057
			c-0.011,0.043,0.032,0.043-0.05,0.05c-0.014,0.047,0.247,0.043,0.304,0.057c-0.243,0.079-0.519,0.129-0.777,0.125
			c-0.168,0.05-0.268,0.154-0.462,0.147c0.004-0.007,0.007-0.014,0.007-0.025c-0.179,0.032-0.39,0.394-0.487,0.387
			c-0.061-0.007-0.501-0.211-0.34-0.293c-0.032-0.039-0.161-0.061-0.082-0.161c-0.014,0-0.029,0-0.039,0
			c0.025-0.089,0.179-0.104,0.236-0.179c-0.054-0.018-0.186-0.018-0.183-0.057c0.054-0.007,0.129,0.057,0.161,0
			c-0.018,0-0.143-0.075-0.19-0.075c0.054-0.029,0.061-0.047,0.004-0.064c0.079-0.197-0.34-0.197-0.451-0.165
			c0.004,0,0.007,0.004,0.011,0.007c-0.036,0.007-0.075,0-0.107-0.014c0.014-0.007,0.025-0.007,0.036-0.018
			c-0.032-0.014-0.068-0.021-0.104-0.014c0.043-0.068,0.186,0,0.236-0.061c-0.021,0-0.279,0.018-0.261-0.014
			c0.05-0.107,0.311-0.007,0.376-0.122c-0.036,0.007-0.072,0.007-0.107-0.011c0.061-0.115,0.644-0.143,0.727-0.15
			c0.021-0.039,0.086-0.032,0.132-0.018c-0.004-0.004-0.007-0.007-0.004-0.014c0.025-0.047,0.258,0,0.308,0
			c-0.036,0-0.068-0.007-0.097-0.029c0.029-0.011,0.057-0.018,0.086-0.014c-0.011-0.004-0.025-0.004-0.032-0.011
			c0.576-0.136,1.213-0.097,1.804-0.086c-0.039,0.039-0.107,0.061-0.19,0.068c0.068-0.007,0.115-0.007,0.111,0
			s-0.236,0.079-0.251,0.089c0.064-0.007,1.181-0.143,1.17-0.125c-0.036,0.057-0.272,0.075-0.394,0.075
			c-0.032,0.064-0.487,0.157-0.565,0.208c0.072-0.011,0.14-0.011,0.211,0.011c-0.018,0.007-0.043,0.007-0.061,0.014
			c0.043,0,0.079,0.014,0.118,0.036c-0.032,0.075-0.268-0.029-0.301,0.05c-0.007,0.014,0.143,0.004,0.115,0.072
			c-0.021,0.064-0.097,0-0.118,0.05c0.036,0.021,0.075,0.029,0.118,0.029c-0.025,0.018-0.093,0.032-0.154,0.039
			c0,0.011,0.011,0.018,0.025,0.018c-0.079,0.089-0.222,0.021-0.311,0.021C42.255,37.666,42.306,37.684,42.356,37.712z
			 M42.499,37.959c0.047,0.007,0.132,0.007,0.172,0c0.004,0.007-0.136-0.064-0.129-0.075c0.043-0.007,0.118-0.025,0.165-0.021
			c-0.047,0.097,0.057,0.064,0.093,0.047c0.036,0.054,0.093,0.004,0.143,0.039c0.007-0.047,0.358-0.007,0.401,0
			c-0.093,0.021,0.043,0.089,0.018,0.125c-0.336,0.154-0.512,0.021-0.827-0.014c0.011-0.004,0.025-0.007,0.032-0.007
			c0.018-0.036,0.036-0.043,0.057-0.064C42.581,37.966,42.517,37.984,42.499,37.959z M51.951,49.415
			c-0.036,0.175-0.197,0.272-0.197,0.469c-0.007,0.197,0.043,0.379,0.036,0.565c0,0.211,0.279,0.419,0.197,0.608
			c-0.236,0.505,0.218,1.006-0.372,1.371c-0.208,0.125-0.469,0.236-0.515,0.512c-0.372,0.072-0.029,0.523-0.036,0.698
			c-0.018,0.426-0.097,0.34-0.361,0.551c-0.279,0.233-0.014,0.44-0.251,0.723c-0.222,0.254-0.336,0.569-0.533,0.845
			c-0.086,0.107-0.508,0.254-0.523,0.354c-0.222,0.021-0.412-0.036-0.63,0.082c-0.211,0.104-0.447-0.043-0.523,0.007
			c0.011-0.744-0.58-1.299-0.666-2.072c-0.043-0.354-0.057-0.494-0.218-0.82c-0.172-0.336-0.319-0.719-0.243-1.106
			c0.05-0.276,0.272-0.472,0.329-0.737c0.068-0.268-0.061-0.68-0.125-0.941c-0.075-0.276-0.097-0.623-0.279-0.848
			c-0.183-0.225-0.505-0.533-0.376-0.855c0.183-0.512,0.265-1.027-0.462-1.013c-0.222,0-0.204-0.447-0.462-0.433
			c-0.358,0.007-0.651,0.419-0.945,0.426c-0.122,0-0.222-0.104-0.347-0.104c-0.154,0.007-0.268,0.089-0.404,0.14
			c-0.304,0.097-0.526-0.197-0.719-0.387c-0.254-0.254-0.301-0.605-0.537-0.862c-0.132-0.147-0.261-0.301-0.365-0.469
			c0.004,0,0.011,0,0.014,0c0.004-0.211-0.125-0.404-0.025-0.558c0.104-0.161,0.179-0.379,0.183-0.58
			c0.011-0.268-0.183-0.673-0.039-0.923c0.107-0.197,0.183-0.383,0.276-0.58c0.115-0.251,0.222-0.565,0.497-0.666
			c0.15-0.057,0.329-0.211,0.379-0.365c0.054-0.175,0.018-0.372,0.125-0.523c0.157-0.222,0.344-0.408,0.508-0.619
			c-0.004,0-0.011,0-0.014,0c0.186-0.243,0.469,0.025,0.791-0.165c0.258-0.143,0.58-0.308,0.884-0.315
			c0.204-0.011,0.387-0.004,0.594-0.011c0.093-0.007,0.225-0.19,0.311-0.05c0.05,0.068,0.104,0.072,0.161,0.014
			c-0.014,0.175-0.082,0.329-0.089,0.526c0,0.347,0.336,0.233,0.537,0.293c0.19,0.068,0.92,0.866,0.909,0.247
			c-0.011-0.526,0.769-0.075,0.966-0.007c0.279,0.104,0.49,0.132,0.762,0.036c0.2-0.075,0.383,0.061,0.594,0
			c0.125,0.315,0.118,0.397,0.043,0.719c-0.118-0.021-0.229-0.322-0.336-0.429c0.018,0.329,0.336,0.73,0.49,1.016
			c0.104,0.208,0.129,0.404,0.236,0.594c0.132,0.222,0.075,0.533,0.233,0.719c0.172,0.19,0.233,0.279,0.293,0.54
			c0.075,0.347,0.633,0.573,0.709,0.898c0.104,0.472,0.258,0.358,0.648,0.283c0.222-0.047,0.426-0.154,0.633-0.225
			c0.225,0.544-0.372,1.593-0.673,2.036C52.67,48.563,52.097,48.742,51.951,49.415z"/>
		<path style="fill:#010002;" d="M36.719,39.519C36.719,39.516,36.712,39.519,36.719,39.519c-0.021-0.007-0.075-0.007-0.075-0.014
			C36.665,39.512,36.698,39.519,36.719,39.519z"/>
		<path style="fill:#010002;" d="M53.235,42.558c0.043,0.089,0.064,0.197,0.104,0.286c0.036,0.036,0.072,0.064,0.089,0.089
			C53.375,42.801,53.293,42.687,53.235,42.558z"/>
		<path style="fill:#010002;" d="M38.852,38.775c-0.029-0.007-0.004-0.057-0.018-0.072c-0.018,0.007-0.036,0-0.05,0.014
			C38.798,38.75,38.82,38.761,38.852,38.775z"/>
		<path style="fill:#010002;" d="M53.579,43.381c-0.021,0-0.029,0.025-0.036,0.047c0.075,0.222,0.168,0.422,0.229,0.648
			c-0.036-0.118-0.05-0.247-0.082-0.372C53.565,43.628,53.636,43.496,53.579,43.381z"/>
		<path style="fill:#010002;" d="M52.538,41.098c-0.075-0.125-0.197-0.218-0.272-0.336c0.104,0.161,0.208,0.322,0.301,0.483
			c-0.029-0.043-0.043-0.089-0.072-0.132C52.509,41.105,52.523,41.098,52.538,41.098z"/>
		<path style="fill:#010002;" d="M49.921,38.066c0.29,0.233,0.519,0.526,0.784,0.795c-0.089-0.086-0.147-0.204-0.229-0.286
			C50.315,38.431,50.125,38.253,49.921,38.066z"/>
		<path style="fill:#010002;" d="M53.933,44.752c0.039,0.204,0.039,0.408,0.075,0.616c0.021-0.011,0.043-0.021,0.064-0.029
			C54.033,45.138,53.969,44.949,53.933,44.752z"/>
		<path style="fill:#010002;" d="M42.674,5.853c6.442,0,12.615,2.749,16.939,7.53l2.656-2.398c-5-5.536-12.147-8.711-19.598-8.711
			c-7.455,0-14.595,3.174-19.594,8.711l2.656,2.398C30.062,8.595,36.236,5.853,42.674,5.853z"/>
		<path style="fill:#010002;" d="M57.283,15.484c-3.726-4.126-9.051-6.492-14.609-6.492c-5.554,0-10.883,2.366-14.612,6.492
			l2.656,2.398c3.053-3.375,7.412-5.311,11.957-5.311c4.549,0,8.904,1.936,11.95,5.311L57.283,15.484z"/>
		<path style="fill:#010002;" d="M33.376,20.28l2.656,2.398c3.386-3.754,9.899-3.754,13.281,0l2.656-2.398
			c-2.373-2.627-5.758-4.13-9.298-4.13C39.131,16.15,35.749,17.653,33.376,20.28z"/>
	</g>
</g>
<g>
</g>
<g>
</g>
<g>
</g>
<g>
</g>
<g>
</g>
<g>
</g>
<g>
</g>
<g>
</g>
<g>
</g>
<g>
</g>
<g>
</g>
<g>
</g>
<g>
</g>
<g>
</g>
<g>
</g>
</svg>
