<?xml version="1.0" encoding="iso-8859-1"?>
<!-- Generator: Adobe Illustrator 17.1.0, SVG Export Plug-In . SVG Version: 6.00 Build 0)  -->
<!DOCTYPE svg PUBLIC "-//W3C//DTD SVG 1.1//EN" "http://www.w3.org/Graphics/SVG/1.1/DTD/svg11.dtd">
<svg version="1.1" id="Capa_1" xmlns="http://www.w3.org/2000/svg" xmlns:xlink="http://www.w3.org/1999/xlink" x="0px" y="0px"
	 viewBox="0 0 452.847 452.847" style="enable-background:new 0 0 452.847 452.847;" xml:space="preserve">
<g>
	<path d="M238.032,128.436c26.892,0,48.77-21.879,48.77-48.771c0-26.892-21.878-48.77-48.77-48.77
		c-26.886,0-48.759,21.878-48.759,48.77C189.273,106.558,211.147,128.436,238.032,128.436z"/>
	<path d="M406.481,411.556c-9.562-6.417-22.706-13.587-37.012-20.189c-1.088-0.502-2.248-1.028-3.445-1.566
		c-0.167-0.373-30.252-58.773-30.252-58.773c-2.078-4.029-4.957-11.705-6.041-16.103L301.944,203.83l1.359,1.009
		c3.281,2.436,8.88,8.066,11.303,11.369l16.75,22.839c3.873,5.281,10.1,8.433,16.656,8.433c4.409,0,8.625-1.382,12.191-3.997
		c9.176-6.73,11.166-19.671,4.435-28.848l-16.75-22.839c-4.833-6.59-13.425-15.231-19.981-20.098l-44.066-32.843
		c-3.594-2.699-8.874-4.126-13.442-4.126c-0.077,0-57.023,0.48-57.119,0.48c-6.631,0-12.713,2.316-17.834,11.931l-18.229,39.858
		l-2.987-0.134V6.815c0-5.633-2.211-6.815-4.066-6.815c-2.564,0-4.158,2.69-5.135,4.713L33.626,277.174
		c-2.779,5.764-0.673,13.284,4.695,16.765l95.886,62.186c-15.007,2.067-27.793,4.636-37.784,6.992
		c-10.956,2.584-21.236,5.578-28.948,8.431c-11.83,4.375-12.06,6.157-12.228,7.459c-0.964,7.504,29.938,24.699,50.944,34.427
		c27.442,12.708,71.502,29.315,125.56,36.262c16.268,2.091,33.161,3.151,50.209,3.151c41.303,0,75.625-6.064,97.145-11.149
		c10.932-2.584,21.244-5.578,29.038-8.433c11.872-4.347,12.093-6.07,12.255-7.328C420.576,424.548,420.993,421.297,406.481,411.556z
		 M213.635,206.616l0.307-0.669l9.67,38.553l-27.099,23.538c-10.944,9.505-16.034,26.532-12.102,40.486l12.277,43.571
		c-1.145-0.01-2.288-0.026-3.435-0.026c-6.528,0-12.875,0.15-19.022,0.423V228.184l3.841,0.171c0.493,0.022,0.982,0.032,1.476,0.032
		C193.758,228.387,207.775,219.435,213.635,206.616z M226.998,299.203l27.549-23.929c0.01-0.009,0.02-0.02,0.029-0.028h20.556
		l12.343,50.092c1.88,7.628,6.012,18.648,9.611,25.631l8.801,17.074c-18.41-5.215-39.336-9.883-61.996-12.795
		c-0.378-0.049-0.76-0.09-1.139-0.137L226.998,299.203z"/>
</g>
<g>
</g>
<g>
</g>
<g>
</g>
<g>
</g>
<g>
</g>
<g>
</g>
<g>
</g>
<g>
</g>
<g>
</g>
<g>
</g>
<g>
</g>
<g>
</g>
<g>
</g>
<g>
</g>
<g>
</g>
</svg>
