<?xml version="1.0" encoding="iso-8859-1"?>
<!-- Generator: Adobe Illustrator 16.0.0, SVG Export Plug-In . SVG Version: 6.00 Build 0)  -->
<!DOCTYPE svg PUBLIC "-//W3C//DTD SVG 1.1//EN" "http://www.w3.org/Graphics/SVG/1.1/DTD/svg11.dtd">
<svg version="1.1" id="Capa_1" xmlns="http://www.w3.org/2000/svg" xmlns:xlink="http://www.w3.org/1999/xlink" x="0px" y="0px"
	 width="122.669px" height="122.669px" viewBox="0 0 122.669 122.669" style="enable-background:new 0 0 122.669 122.669;"
	 xml:space="preserve">
<g>
	<g>
		<circle cx="62.216" cy="18.908" r="18.908"/>
		<path d="M108.929,84.604c-7.869-2.955-12.972-12.27-17.907-21.276c-4.648-8.484-9.04-16.499-16.229-20.908
			c-0.315-0.194-0.647-0.331-0.978-0.472c-2.106-1.407-4.474-2.442-6.887-3.034l-4.711,4.741l-4.567-4.793
			c-0.015,0.003-0.031,0.005-0.046,0.009c-2.238,0.535-4.435,1.458-6.426,2.702c-0.731,0.176-1.453,0.433-2.128,0.848
			c-7.08,4.34-11.523,12.555-16.228,21.251c-5.192,9.599-10.561,19.522-18.57,21.875c-3.89,1.142-6.118,5.222-4.976,9.111
			c0.938,3.2,3.866,5.274,7.04,5.274c0.684,0,1.38-0.096,2.07-0.299c0.645-0.189,1.261-0.418,1.878-0.646
			c-1.201,1.295-1.953,2.938-2.21,5.064c-0.421,3.479,0.663,6.891,3.055,9.608c6.744,7.666,25.191,8.935,35.587,9.01
			c0.021,0,0.042,0,0.063,0c2.205,0,4.213-0.831,5.745-2.188c1.532,1.357,3.541,2.188,5.745,2.188c0.021,0,0.042,0,0.062,0
			c10.396-0.075,28.843-1.344,35.587-9.01c2.393-2.718,3.477-6.13,3.056-9.607c-0.295-2.437-1.234-4.224-2.729-5.579
			c0.705,0.215,1.417,0.346,2.123,0.346c2.971,0,5.769-1.817,6.874-4.764C114.646,90.26,112.725,86.027,108.929,84.604z
			 M42.864,75.885v17.629c-6.544,0.516-11.94,0.967-16.017,2.039C33.812,90.749,38.677,83.331,42.864,75.885z M81.569,93.802V76.509
			c4.246,7.319,9.298,14.535,16.708,19.115C94.067,94.557,88.442,94.209,81.569,93.802z"/>
	</g>
</g>
<g>
</g>
<g>
</g>
<g>
</g>
<g>
</g>
<g>
</g>
<g>
</g>
<g>
</g>
<g>
</g>
<g>
</g>
<g>
</g>
<g>
</g>
<g>
</g>
<g>
</g>
<g>
</g>
<g>
</g>
</svg>
