<?xml version="1.0" encoding="iso-8859-1"?>
<!-- Generator: Adobe Illustrator 18.1.1, SVG Export Plug-In . SVG Version: 6.00 Build 0)  -->
<svg version="1.1" id="Capa_1" xmlns="http://www.w3.org/2000/svg" xmlns:xlink="http://www.w3.org/1999/xlink" x="0px" y="0px"
	 viewBox="0 0 62.332 62.332" style="enable-background:new 0 0 62.332 62.332;" xml:space="preserve">
<g>
	<g>
		<circle style="fill:#010002;" cx="55.801" cy="22.977" r="6.531"/>
		<path style="fill:#010002;" d="M49.847,28.748c-0.02-0.039-0.046-0.07-0.064-0.107l-8.92-17.716
			c-0.818-1.628-2.805-2.282-4.432-1.464c-1.627,0.82-2.283,2.804-1.465,4.432l4.605,9.149c-4.838,0-9.675,0-14.514,0
			c-0.758,0-1.445,0.111-2.063,0.312c-5.11-6.781-10.745-13.132-16.732-19.159C2.925,0.836-2.259,6.023,1.075,9.38
			c6.302,6.345,12.278,13.024,17.516,20.281c0.14,0.193,0.291,0.362,0.447,0.518c0.04,0.336,0.103,0.668,0.191,0.993
			c-0.023,0.177-0.04,0.357-0.04,0.55c0,7.983,0,15.972,0,23.955c0,4.729,7.333,4.729,7.333,0c0-6.722,0-13.443,0-20.164
			c5.543,0,11.086,0,16.629,0c0.882,0,1.66-0.156,2.35-0.424l1.861,4.032l-1.75-0.534c-1.744-0.531-3.588,0.448-4.119,2.19
			c-0.533,1.744,0.447,3.588,2.191,4.121l8.799,2.689c0.317,0.096,0.643,0.143,0.965,0.143c0.938,0,1.85-0.4,2.486-1.129
			c0.854-0.98,1.056-2.373,0.51-3.553L49.847,28.748z"/>
	</g>
</g>
<g>
</g>
<g>
</g>
<g>
</g>
<g>
</g>
<g>
</g>
<g>
</g>
<g>
</g>
<g>
</g>
<g>
</g>
<g>
</g>
<g>
</g>
<g>
</g>
<g>
</g>
<g>
</g>
<g>
</g>
</svg>
