<?xml version="1.0" encoding="iso-8859-1"?>
<!-- Generator: Adobe Illustrator 19.0.0, SVG Export Plug-In . SVG Version: 6.00 Build 0)  -->
<svg version="1.1" id="Layer_1" xmlns="http://www.w3.org/2000/svg" xmlns:xlink="http://www.w3.org/1999/xlink" x="0px" y="0px"
	 viewBox="0 0 511.999 511.999" style="enable-background:new 0 0 511.999 511.999;" xml:space="preserve">
<g>
	<g>
		<path d="M193.833,412.266c-14.348-3.395-25.841-15.27-28.009-30.749c-0.674-4.814-0.376-9.538,0.728-13.982
			c-7.126,2.166-13.031,1.761-16.417,1.165l5.806,47.199c1.284,10.442,10.79,17.867,21.235,16.583
			C187.277,431.24,194.53,422.299,193.833,412.266z"/>
	</g>
</g>
<g>
	<g>
		<path d="M184.496,179.927l-6.617-19.629l4.019-21.246c2.429-12.846-6.014-25.228-18.86-27.658l-41.478-7.844
			c-9.883-1.869-19.488,2.703-24.5,10.759l32.372,0.76l-65.25,13.713c-5.237,1.102-9.524,4.748-11.482,9.657l-23.49,58.918
			c-3.226,8.088,0.667,17.359,8.867,20.627c8.046,3.204,17.351-0.651,20.627-8.867l20.338-51.012h0.001l59.089-12.418
			l-47.087,23.465l-11.384,28.551l-7.26,44.244c0.004,0.248-0.011,0.493,0.003,0.744l3.319,60.77l-59.313,8.306
			c-10.42,1.46-17.683,11.089-16.224,21.509c1.456,10.397,11.062,17.686,21.51,16.225l76.647-10.736
			c9.801-1.373,16.92-10.023,16.38-19.907l-3.804-69.627l9.91,1.874l18.48,55.158c6.408-6.553,16.827-15.537,32.115-24.085
			l-10.609-31.664l6.724-35.551c4.379,2.282,9.183,2.302,13.255,0.654l26.484-10.717c17.671-44.325,15.701-39.425,16.301-40.791
			L184.496,179.927z"/>
	</g>
</g>
<g>
	<g>
		<circle cx="157.128" cy="61.736" r="35.041"/>
	</g>
</g>
<g>
	<g>
		<path d="M304.45,363.835l-2.083-38.128c-15.333-1.348-28.871-1.31-40.758-0.32l1.202,22.008l-63.326,8.869
			c-11.125,1.558-18.88,11.841-17.322,22.965c1.559,11.129,11.844,18.879,22.965,17.322l81.834-11.463
			C297.427,383.622,305.026,374.387,304.45,363.835z"/>
	</g>
</g>
<g>
	<g>
		<path d="M388.833,462.477l-12.702-103.255c-0.166-1.353-0.469-2.685-0.902-3.979l-8.626-25.745
			c-13.984,1.251-28.455,0.832-43.326-1.265l12.728,37.989l12.451,101.222c1.372,11.148,11.518,19.078,22.672,17.704
			C382.278,483.777,390.205,473.627,388.833,462.477z"/>
	</g>
</g>
<g>
	<g>
		<circle cx="349.721" cy="89.322" r="37.413"/>
	</g>
</g>
<g>
	<g>
		<path d="M455.504,202.776c-3.4-8.402-13.151-12.935-22.032-9.337l-54.53,22.067l-7.064-20.957l4.29-22.684
			c2.593-13.715-6.421-26.936-20.136-29.53l-44.284-8.375c-10.552-1.996-20.805,2.885-26.158,11.487l34.563,0.811l-69.665,14.641
			h-0.001c-5.453,1.147-10.132,4.976-12.258,10.311l-25.079,62.906c-3.439,8.612,0.703,18.528,9.467,22.02
			c8.596,3.427,18.531-0.714,22.022-9.468c4.166-10.449,17.555-44.031,21.714-54.463l63.088-13.258L279.169,204l-19.027,53.237
			c21.457-1.249,46.977-0.023,71.343,3.634c9.622,1.444,18.822,1.822,27.632,1.151l1.72-9.098c4.525,2.351,9.652,2.508,14.155,0.685
			c7.956-3.219,63.265-25.602,71.175-28.803C454.829,221.302,459.009,211.438,455.504,202.776z"/>
	</g>
</g>
<g>
	<g>
		<path d="M500.426,166.296c-8.865-2.956-18.448,1.835-21.404,10.7c-0.099,0.295-10.11,29.805-34.128,57.294
			c-31.165,35.668-70.172,50.272-115.936,43.403c-133.73-20.085-181.587,44.719-183.562,47.491
			c-4.852,6.829-5.204,16.914,2.398,24.501c11.635,11.609,25.165-4.87,25.165-4.87l0.007,0.004
			c1.204-1.506,10.985-13.165,32.494-22.914c21.572-9.778,59.638-19.582,118.475-10.749c57.101,8.573,107.743-10.309,146.442-54.602
			c28.44-32.55,40.259-67.389,40.747-68.857C514.082,178.834,509.291,169.252,500.426,166.296z"/>
	</g>
</g>
<g>
</g>
<g>
</g>
<g>
</g>
<g>
</g>
<g>
</g>
<g>
</g>
<g>
</g>
<g>
</g>
<g>
</g>
<g>
</g>
<g>
</g>
<g>
</g>
<g>
</g>
<g>
</g>
<g>
</g>
</svg>
