<?xml version="1.0" encoding="iso-8859-1"?>
<!-- Generator: Adobe Illustrator 19.0.0, SVG Export Plug-In . SVG Version: 6.00 Build 0)  -->
<svg version="1.1" id="Layer_1" xmlns="http://www.w3.org/2000/svg" xmlns:xlink="http://www.w3.org/1999/xlink" x="0px" y="0px"
	 viewBox="0 0 512 512" style="enable-background:new 0 0 512 512;" xml:space="preserve">
<g>
	<g>
		<path d="M411.826,233.739c-16.158,0-31.432,3.85-44.96,10.674l-6.064-9.318c15.575-8.052,33.043-12.486,51.024-12.486
			c16.194,0,31.81,3.404,46.413,10.114c1.458,0.67,3.043,1.016,4.648,1.016h15.722c4.501,0,8.56-2.712,10.283-6.871
			c1.723-4.159,0.77-8.947-2.412-12.13l-44.522-44.522c-2.088-2.087-4.919-3.26-7.871-3.26h-11.961
			c-4.09-23.048-22.857-41.078-46.259-44.075l-21.02-39.107c-1.939-3.61-5.705-5.861-9.804-5.861h-44.522
			c-6.147,0-11.13,4.984-11.13,11.13c0,6.146,4.983,11.13,11.13,11.13h37.868l12.429,23.125
			c-9.072,1.759-17.417,6.166-24.097,12.846l-22.261,22.262c-5.512,5.514-12.843,8.55-20.641,8.55h-33.378
			c-7.798,0-15.128-3.038-20.641-8.552c-8.842-8.841-20.597-13.709-33.101-13.709h-52.004c-6.147,0-11.13,4.984-11.13,11.13
			s4.983,11.13,11.13,11.13H196.7c6.558,0,12.723,2.553,17.359,7.189c9.718,9.719,22.639,15.072,36.383,15.072h33.378
			c13.745,0,26.666-5.353,36.383-15.071l22.261-22.261c4.637-4.637,10.801-7.19,17.359-7.19h9.128c0.011,0,0.021,0.002,0.032,0.002
			c0.008,0,0.014-0.001,0.022-0.001c17.478,0.018,31.691,14.24,31.691,31.721v1.67c0,6.146,4.983,11.13,11.13,11.13h17.651
			l15.19,15.19c-10.653-2.699-21.632-4.059-32.84-4.059c-23.599,0-46.797,6.241-67.086,18.049c-1.884,1.096-3.731,2.253-5.556,3.439
			c-0.069,0.043-0.141,0.078-0.21,0.122c-0.063,0.041-0.12,0.09-0.182,0.132c-17.062,11.171-31.462,26.169-41.891,43.739
			c-4.551,7.669-12.893,12.432-21.772,12.432h-38.253c-8.879,0-17.221-4.763-21.772-12.432
			c-10.429-17.57-24.829-32.569-41.891-43.739c-0.062-0.042-0.119-0.091-0.183-0.132c-0.069-0.044-0.14-0.079-0.209-0.121
			c-1.825-1.186-3.672-2.342-5.556-3.439c-20.292-11.808-43.491-18.05-67.09-18.05c-6.318,0-12.66,0.449-18.916,1.337
			l-40.211-34.728h36.866c6.147,0,11.13-4.984,11.13-11.13s-4.983-11.13-11.13-11.13H11.131c-4.65,0-8.811,2.892-10.431,7.249
			c-1.622,4.359-0.363,9.265,3.157,12.306l66.783,57.677c2.552,2.203,5.966,3.138,9.286,2.523c6.654-1.222,13.467-1.842,20.25-1.842
			c17.981,0,35.45,4.433,51.024,12.487l-6.064,9.318c-13.528-6.824-28.802-10.675-44.96-10.675C44.938,233.739,0,278.677,0,333.913
			s44.938,100.174,100.174,100.174s100.174-44.938,100.174-100.174c0-31.106-14.253-58.947-36.57-77.334l6.092-9.361
			c10.296,8.248,19.19,18.35,26.09,29.974c8.542,14.391,24.219,23.329,40.914,23.329h38.253c16.696,0,32.373-8.939,40.915-23.329
			c6.9-11.625,15.793-21.727,26.089-29.974l6.092,9.361c-22.316,18.387-36.57,46.228-36.57,77.334
			c0,55.236,44.938,100.174,100.174,100.174S512,389.149,512,333.913S467.062,233.739,411.826,233.739z M94.105,343.243
			c1.874,1.22,3.979,1.802,6.061,1.802c3.64,0,7.207-1.783,9.34-5.061l17.159-26.368c4.323,5.63,6.902,12.667,6.902,20.297
			c0,18.412-14.979,33.391-33.391,33.391c-18.412,0-33.391-14.979-33.391-33.391c0-18.412,14.979-33.391,33.391-33.391
			c2.7,0,5.323,0.331,7.839,0.938l-17.168,26.382C87.493,332.995,88.952,339.889,94.105,343.243z M178.087,333.913
			c0,42.961-34.952,77.913-77.913,77.913s-77.913-34.952-77.913-77.913S57.213,256,100.174,256c11.681,0,22.762,2.601,32.718,7.228
			l-12.315,18.924c-6.322-2.501-13.202-3.891-20.403-3.891c-30.687,0-55.652,24.966-55.652,55.652
			c0,30.687,24.966,55.652,55.652,55.652c30.687,0,55.652-24.966,55.652-55.652c0-15.484-6.361-29.505-16.601-39.603l12.307-18.913
			C167.795,289.687,178.087,310.615,178.087,333.913z M421.156,327.843l-17.168-26.382c2.516-0.608,5.139-0.938,7.839-0.938
			c18.412,0,33.391,14.979,33.391,33.391c0,18.412-14.979,33.391-33.391,33.391c-18.412,0-33.391-14.979-33.391-33.391
			c-0.001-7.631,2.578-14.668,6.902-20.297l17.159,26.368c2.134,3.278,5.7,5.061,9.34,5.061c2.081,0,4.186-0.582,6.061-1.802
			C423.049,339.889,424.508,332.995,421.156,327.843z M411.826,411.826c-42.961,0-77.913-34.952-77.913-77.913
			c0-23.298,10.293-44.226,26.555-58.516l12.307,18.913c-10.239,10.099-16.601,24.12-16.601,39.603
			c0,30.687,24.966,55.652,55.652,55.652c30.687,0,55.652-24.966,55.652-55.652c0-30.687-24.966-55.652-55.652-55.652
			c-7.201,0-14.08,1.39-20.403,3.891l-12.315-18.924c9.956-4.627,21.037-7.228,32.718-7.228c42.961,0,77.913,34.952,77.913,77.913
			S454.788,411.826,411.826,411.826z"/>
	</g>
</g>
<g>
	<g>
		<path d="M122.224,153.657c-0.145-0.712-0.367-1.414-0.646-2.081c-0.278-0.679-0.623-1.323-1.024-1.924
			c-0.401-0.613-0.868-1.181-1.38-1.693c-0.512-0.512-1.08-0.979-1.692-1.38c-0.601-0.412-1.247-0.746-1.914-1.024
			c-0.679-0.278-1.38-0.501-2.093-0.633c-1.436-0.291-2.905-0.291-4.341,0c-0.712,0.132-1.414,0.355-2.081,0.633
			c-0.679,0.278-1.325,0.612-1.926,1.024c-0.612,0.401-1.18,0.868-1.692,1.38s-0.979,1.08-1.38,1.693
			c-0.401,0.601-0.746,1.245-1.024,1.924c-0.278,0.669-0.501,1.369-0.634,2.081c-0.145,0.712-0.223,1.447-0.223,2.17
			c0,0.722,0.078,1.458,0.223,2.17c0.134,0.711,0.356,1.412,0.634,2.08c0.278,0.679,0.623,1.325,1.024,1.926
			c0.401,0.612,0.868,1.18,1.38,1.692c0.512,0.513,1.08,0.981,1.692,1.38c0.601,0.401,1.247,0.746,1.926,1.024
			c0.668,0.278,1.369,0.501,2.081,0.634c0.712,0.145,1.447,0.223,2.17,0.223c0.724,0,1.458-0.078,2.17-0.223
			c0.712-0.134,1.414-0.356,2.093-0.634c0.668-0.278,1.313-0.623,1.914-1.024c0.612-0.4,1.18-0.867,1.692-1.38
			c0.512-0.512,0.979-1.08,1.38-1.692c0.401-0.601,0.746-1.247,1.024-1.926c0.278-0.668,0.501-1.368,0.646-2.08
			c0.145-0.713,0.211-1.448,0.211-2.17C122.435,155.104,122.368,154.368,122.224,153.657z"/>
	</g>
</g>
<g>
</g>
<g>
</g>
<g>
</g>
<g>
</g>
<g>
</g>
<g>
</g>
<g>
</g>
<g>
</g>
<g>
</g>
<g>
</g>
<g>
</g>
<g>
</g>
<g>
</g>
<g>
</g>
<g>
</g>
</svg>
