<?xml version="1.0" encoding="iso-8859-1"?>
<!-- Generator: Adobe Illustrator 16.0.0, SVG Export Plug-In . SVG Version: 6.00 Build 0)  -->
<!DOCTYPE svg PUBLIC "-//W3C//DTD SVG 1.1//EN" "http://www.w3.org/Graphics/SVG/1.1/DTD/svg11.dtd">
<svg version="1.1" id="Capa_1" xmlns="http://www.w3.org/2000/svg" xmlns:xlink="http://www.w3.org/1999/xlink" x="0px" y="0px"
	 width="478.498px" height="478.498px" viewBox="0 0 478.498 478.498" style="enable-background:new 0 0 478.498 478.498;"
	 xml:space="preserve">
<g>
	<g id="_x33_1_44_">
		<g>
			<path d="M449.463,322.897c-16.036,0-29.037,13.002-29.037,29.037c0,1.846,0.181,3.647,0.51,5.396
				c-12.499,0.892-28.604-2.908-35.747-6.971c-15.536-8.838-21.641-30.447-27.026-49.513l-0.809-2.854
				c-3.275-11.521-6.709-23.327-10.03-34.745c-3.688-12.675-7.498-25.779-11.095-38.502c-4.186-14.804-6.495-30.616-8.729-45.908
				c-1.628-11.148-3.312-22.677-5.722-33.919c-1.75-8.167-4.128-16.365-7.093-24.494c-1.642-12.37-4.753-24.572-10.315-36.578
				c-10.564-22.8-29.37-45.17-55.895-66.486c-25.095-20.172-67.101-17.775-96.202-3.838c-20.366,8.194-36.391,28.21-46.771,42.729
				c-0.3,0.42-0.607,0.821-0.913,1.223H34.354C15.38,57.475,0,72.853,0,91.829v298.879c0,18.974,15.38,34.354,34.354,34.354h167.679
				c18.973,0,34.354-15.38,34.354-34.354V91.827c0-18.976-15.381-34.354-34.354-34.354H131.73
				c7.108-9.1,15.772-18.729,24.608-23.743c1.262-0.717,2.567-1.403,3.912-2.06c0.177-0.067,0.354-0.134,0.531-0.198
				c15.125-5.521,36.675-8.811,50.729-3.711c27.772,10.074,52.433,42.342,61.747,55.748c9.212,13.258,16.675,27.391,22.098,41.744
				c1.562,13.374,1.286,27.338,0.702,42.126c-1.032,26.146-8.614,51.314-16.643,77.96c-8.557,28.398-17.402,57.764-17.699,88.629
				c-0.261,27.104-0.873,90.57,28.027,116.909c8.684,7.914,19.135,11.905,31.137,11.905c1.07,0,2.156-0.039,3.251-0.104
				c5.185,7.931,14.135,13.174,24.316,13.174c16.036,0,29.037-13.001,29.037-29.036c0-16.037-13.001-29.038-29.037-29.038
				c-14.72,0-26.874,10.956-28.771,25.156c-6.482-0.258-11.945-2.466-16.59-6.698c-22.351-20.369-21.778-79.73-21.563-102.077
				c0.271-28.045,8.328-54.79,16.858-83.106c4.694-15.582,9.482-31.475,12.876-47.714c1.551,8.95,3.406,17.937,5.91,26.795
				c3.617,12.794,7.439,25.938,11.136,38.646c3.313,11.39,6.738,23.166,9.997,34.63l0.799,2.823
				c6.104,21.604,13.699,48.49,36.295,61.345c11.503,6.543,37.974,12.87,57.088,7.903c4.775,3.449,10.639,5.489,16.98,5.489
				c16.036,0,29.037-13.001,29.037-29.036C478.498,335.897,465.499,322.897,449.463,322.897z M120.01,395.329
				c-27.991,0-50.765-22.764-50.765-50.756c0-27.99,22.774-50.768,50.765-50.768c27.993,0,50.769,22.776,50.769,50.768
				C170.779,372.565,148.002,395.329,120.01,395.329z M199.316,97.756c2.259,0,4.09,1.831,4.09,4.09v155.868
				c0,2.26-1.831,4.09-4.09,4.09H37.036c-2.258,0-4.09-1.83-4.09-4.09V101.846c0-2.259,1.832-4.09,4.09-4.09H199.316z"/>
			<path d="M120.01,302.345c-23.274,0-42.227,18.939-42.227,42.229c0,23.277,18.952,42.215,42.227,42.215
				c23.278,0,42.23-18.938,42.23-42.215C162.24,321.284,143.288,302.345,120.01,302.345z M139.285,346.213l-25.082,18.226
				c-0.65,0.375-1.453,0.375-2.104,0c-0.65-0.377-1.053-1.072-1.053-1.824v-36.447c0-0.751,0.401-1.447,1.053-1.822
				c0.324-0.188,0.688-0.283,1.051-0.283c0.364,0,0.727,0.097,1.053,0.283l25.082,18.225c0.651,0.377,1.052,1.07,1.052,1.824
				C140.337,345.144,139.938,345.837,139.285,346.213z"/>
		</g>
	</g>
</g>
<g>
</g>
<g>
</g>
<g>
</g>
<g>
</g>
<g>
</g>
<g>
</g>
<g>
</g>
<g>
</g>
<g>
</g>
<g>
</g>
<g>
</g>
<g>
</g>
<g>
</g>
<g>
</g>
<g>
</g>
</svg>
