<?xml version="1.0" encoding="iso-8859-1"?>
<!-- Generator: Adobe Illustrator 16.0.0, SVG Export Plug-In . SVG Version: 6.00 Build 0)  -->
<!DOCTYPE svg PUBLIC "-//W3C//DTD SVG 1.1//EN" "http://www.w3.org/Graphics/SVG/1.1/DTD/svg11.dtd">
<svg version="1.1" id="Capa_1" xmlns="http://www.w3.org/2000/svg" xmlns:xlink="http://www.w3.org/1999/xlink" x="0px" y="0px"
	 width="273.207px" height="273.208px" viewBox="0 0 273.207 273.208" style="enable-background:new 0 0 273.207 273.208;"
	 xml:space="preserve">
<g>
	<g>
		<path d="M0.167,265.411c0.196,1.097,0.64,3.812,0.964,3.812c87.323,0,174.642,0,261.968,0c0.522-4.779,2.87-7.136-0.7-9.311
			c-2.544-1.555-5.903-2.067-8.839-2.861c-0.085-9.161-0.808-10.347-8.984-13.403c-16.316-6.109-32.749-12.009-48.902-18.528
			c-8.689-3.51-16.428-2.633-24.292,1.848c-9.562,5.451-19.392,10.432-28.838,16.073c-7.516,4.485-14.321,4.304-21.919-0.079
			c-13.042-7.519-26.128-14.958-39.217-22.388c-2.676-1.498-5.393-3.024-8.039-4.509l-4.861-2.716
			c-0.679-0.383-1.3-0.784-1.911-1.195c-12.704-7.187-25.41-14.374-38.109-21.571c-1.792-1.017-3.57-2.109-5.477-2.865
			c-3.836-1.517-8.148-0.028-10.188,3.313c-2.079,3.397-1.559,8,1.433,10.706c1.339,1.214,2.997,2.101,4.583,3.011
			c7.369,4.214,14.778,8.35,22.138,12.578c1.428,0.821,2.686,1.941,3.215,2.333c-3.055,3.743-6.051,6.805-8.331,10.338
			c-4.856,7.514-9.486,15.178-13.906,22.957c-1.923,3.375-4.182,5.115-8.184,4.779c-2.952-0.257-5.997-0.229-8.926,0.191
			C0.946,258.48-0.531,261.485,0.167,265.411z M157.343,253.187c6.188-3.505,12.404-6.385,18.658-9.772
			c6.819-3.683,13.666-4.145,21.077-0.868c9.222,4.079,18.72,7.653,28.101,11.378c1.61,0.645,3.192,0.271,4.793,0.938
			c-0.112,0.368-0.22,0.023-0.327,0.023c-24.833,0-49.657,0-75.466,0C155.597,254.886,156.349,253.743,157.343,253.187z
			 M53.472,223.266c18.386,10.422,36.856,20.303,55.328,30.771c-0.086,0.476-0.177,0.85-0.264,0.85c-24.603,0-49.201,0-73.822,0
			C35.604,254.886,47.435,230.86,53.472,223.266z"/>
		<path d="M34.16,179.512c-0.464,8.061,5.439,14.823,13.353,15.285c7.848,0.462,14.573-5.671,15.016-13.698
			c0.434-7.859-5.769-14.599-13.754-14.925C41.2,165.862,34.601,171.886,34.16,179.512z"/>
		<path d="M266.044,144.168c1.013,0,2.029-0.214,2.986-0.657c2.544-1.167,4.177-3.711,4.177-6.511
			c0-73.351-59.673-133.017-133.016-133.017C66.838,3.984,7.167,63.65,7.167,137c0,2.795,1.629,5.325,4.168,6.492
			c2.537,1.194,5.533,0.765,7.656-1.046c0.128-0.107,13.185-11.047,28.602-11.047c8.718,0,16.727,3.589,23.8,10.664
			c1.358,1.349,3.216,2.319,5.117,2.096c1.918-0.015,3.753-0.794,5.092-2.17c0.119-0.122,12.683-12.186,28.105-12.186
			c8.224,0,14.547,3.493,24.105,10.3v68.671c0,0.243,1.568,0.411,2.532,0.411c2.105,0,4.546-0.579,7.061-1.773
			c1.503-0.71,4.747-1.316,4.747-1.988v-65.312c4.779-6.807,15.088-10.3,23.312-10.3c15.5,0,27.4,12.083,27.503,12.186
			c1.34,1.377,3.066,2.156,4.989,2.17c1.825,0.117,3.716-0.742,5.068-2.095c7.075-7.076,15.062-10.665,23.779-10.665
			c15.345,0,28.339,10.841,28.586,11.046C262.711,143.581,264.368,144.168,266.044,144.168z M22.271,123.284
			C27.708,75.521,61.625,36.401,106.567,23.1c9.976-9.285,21.392-14.482,33.625-14.482c3.085,0,6.113,0.341,9.087,0.99
			c-2.913-0.616-5.881-0.94-8.892-0.94c-12.213,0-23.314,5.229-33.278,14.491c-0.049,0.014-0.096,0.023-0.145,0.037
			c-20.468,19.049-35.02,55.223-37.769,98.611c-0.086-0.047-0.168-0.101-0.25-0.147c-6.627-3.566-13.763-4.999-21.352-4.999
			C37.776,116.67,28.942,119.958,22.271,123.284z M83.241,123.302c0.067-0.037,0.128-0.075,0.196-0.114
			c-0.287,4.163-0.602,7.796-0.602,12.221C82.835,131.022,82.989,127.418,83.241,123.302z M109.708,115.476
			c-10.237,0-19.261,2.787-25.87,6.567c3.456-50.344,21.482-91.445,49.975-98.062v15.847v82.416
			C124.255,117.751,117.985,115.476,109.708,115.476z M171.465,115.079c-8.279,0-18.532,2.672-23.312,7.168v-82.42V23.98
			c23.802,6.639,45.83,47.924,49.256,98.44c-0.126-0.072-0.224-0.145-0.35-0.217C190.428,118.332,181.854,115.079,171.465,115.079z
			 M211.462,122.5L211.462,122.5c0.257,4.417,0.411,8.422,0.411,12.909C211.873,130.921,211.719,126.917,211.462,122.5z
			 M232.781,117.062c-7.579,0-14.701,1.036-21.319,4.588c-2.754-43.18-16.685-79.187-37.02-98.258
			c44.617,13.48,78.248,52.546,83.662,100.078C251.431,120.145,242.596,117.062,232.781,117.062z"/>
		<path d="M144.858,212.004c-3.09,1.466-6.007,2.101-8.91,2.101c-3.258,0-6.495-1.036-9.92-3.071
			c-13.602-8.088-27.589-16.307-41.483-23.895c-2.768-1.518-5.825-3.939-7.446-3.939c-0.091,0-0.18,0-0.271,0
			c-8.541,0-13.889,6.156-13.88,13.301c0.01,5.723,3.137,9.647,7.893,12.303c16.223,9.068,32.469,18.295,48.554,27.597
			c3.465,2.002,6.812,3.108,10.155,3.108c3.279,0,6.553-0.925,9.945-2.871c10.744-6.179,21.665-12.008,32.512-18.005
			c3.804-2.101,7.607-3.16,11.499-3.16c3.127,0,6.306,0.695,9.587,2.087c13.091,5.554,26.354,10.691,39.581,15.914
			c2.101,0.821,4.368,1.545,6.595,1.662c0.14,0.004,0.28,0.009,0.41,0.009c3.338,0,5.862-2.133,6.865-5.218
			c1.125-3.453,0.104-7.313-2.702-9.26c-1.292-0.896-2.852-1.451-4.345-2.025c-15.85-6.058-31.834-11.789-47.524-18.238
			c-3.659-1.508-7.159-2.222-10.604-2.222c-4.209,0-7.934,1.063-12.171,3.062c-7.048,3.332-16.265,6.17-21.044,9.399v1.232h-2.399
			C145.46,211.875,145.152,211.86,144.858,212.004z"/>
		<path d="M145.754,211.342h1.601v-0.7C146.823,210.88,146.281,211.094,145.754,211.342z"/>
	</g>
</g>
<g>
</g>
<g>
</g>
<g>
</g>
<g>
</g>
<g>
</g>
<g>
</g>
<g>
</g>
<g>
</g>
<g>
</g>
<g>
</g>
<g>
</g>
<g>
</g>
<g>
</g>
<g>
</g>
<g>
</g>
</svg>
