<?xml version="1.0" encoding="iso-8859-1"?>
<!-- Generator: Adobe Illustrator 16.0.0, SVG Export Plug-In . SVG Version: 6.00 Build 0)  -->
<!DOCTYPE svg PUBLIC "-//W3C//DTD SVG 1.1//EN" "http://www.w3.org/Graphics/SVG/1.1/DTD/svg11.dtd">
<svg version="1.1" id="Capa_1" xmlns="http://www.w3.org/2000/svg" xmlns:xlink="http://www.w3.org/1999/xlink" x="0px" y="0px"
	 width="532.55px" height="532.549px" viewBox="0 0 532.55 532.549" style="enable-background:new 0 0 532.55 532.549;"
	 xml:space="preserve">
<g>
	<g>
		<path d="M471.557,366.277c-7.229-14.172-25.37-25.273-41.281-25.273h-12.308c-11.886,0-28.726-7.373-36.806-16.104
			L279.904,215.323c2.286-1.73,3.854-4.36,3.854-7.497l-0.058-124.274l38.364-38.375c3.29-3.461,3.108-8.95-0.344-12.23
			c-3.452-3.347-8.903-3.175-12.192,0.277l-36.194,36.414h-24.718l-35.094-34.951c-3.28-3.452-8.769-3.625-12.221-0.277
			c-3.461,3.28-3.634,8.769-0.344,12.23l36.979,36.911v124.274c0,2.783,1.214,5.23,3.088,6.961
			c-0.603,0.918-1.291,1.711-1.817,2.725l-96.485,187.99c-3.223,6.263-9.629,10.155-16.715,10.155c-2.897,0-5.699-0.65-8.31-1.961
			l-33.918-16.954c-4.322-2.151-9.161-3.299-14.038-3.299c-11.695,0-22.415,6.292-27.971,16.409L2.105,482.107
			c-2.62,4.791-2.812,9.792-0.478,13.723c2.324,3.92,6.799,6.187,12.259,6.187H518.47c5.422,0,9.916-2.237,12.316-6.158
			c2.391-3.901,2.353-8.932-0.124-13.751L471.557,366.277z M430.275,353.31c11.303,0,25.178,8.511,30.322,18.561l26.89,52.689
			l-8.042-2.534c-6.483-2.046-11.733,1.081-11.733,6.962c0,5.899-3.223,6.206-7.2,0.688l-0.994-1.377
			c-3.959-5.499-9.257-9.983-11.801-9.983c-2.553,0-6.35-4.523-8.463-10.089c-2.122-5.574-6.254-8.032-9.228-5.479
			c-2.974,2.554-5.384-0.889-5.384-7.697v-4.609c0-6.799-4.819-12.307-10.758-12.307c-5.948,0-9.601-5.374-8.156-12.021
			c0,0,0.984-4.446,2.17-9.906c0.307-1.387,0.354-2.754,0.211-4.035c3.404,0.679,6.751,1.128,9.878,1.128h12.288V353.31z
			 M264.672,161.276l0.057,43.337c-1.75-0.459-3.519-0.755-5.298-0.755c-0.851,0-1.645,0.268-2.467,0.373v-42.964h7.708V161.276z
			 M250.156,223.155c4.102-7.985,11.896-9.008,17.948-2.458l104.021,112.56c5.336,5.767,13.254,10.873,21.765,14.506
			c-1.262,1.444-2.41,3.137-3.165,5.298l-26.594,75.018c-2.266,6.417-7.87,7.584-12.517,2.611l-3.175-3.386
			c-4.647-4.963-11.16-13.751-14.545-19.65l-4.657-8.09c-3.395-5.891-8.893-8.253-12.287-5.278
			c-3.404,2.974-7.88,0.152-10.003-6.302l-7.679-23.352c-2.123-6.475-7.324-7.411-11.608-2.152l-13.713,16.878
			c-4.284,5.27-7.755,4.035-7.755-2.754v-26.153c0-6.799-4.093-8.625-9.151-4.073l-12.469,11.226
			c-5.068,4.552-8.31,2.783-7.258-3.93l6.99-44.896c1.042-6.722-2.295-8.577-7.459-4.149l-2.84,2.448
			c-5.164,4.408-8.367,2.572-7.144-4.112l9.677-53.254L250.156,223.155z M78.28,407.768l33.918,16.954
			c4.332,2.161,8.989,3.262,13.817,3.262c2.438,0,4.801-0.345,7.096-0.871c-0.469,1.301-0.774,2.63-0.774,3.959v10.155
			c0,6.79-5.47,12.948-12.211,13.742l-1.712,0.2c-6.742,0.804-15.319,4.896-19.144,9.133c-3.815,4.255-11.781,5.097-17.777,1.893
			l-1.358-0.707c-6.005-3.203-16.371-5.805-23.17-5.805c-6.789,0-10.92-5.326-9.199-11.905l8.912-34.138
			c0.306-1.167,0.44-2.209,0.507-3.185c3.471-2.897,7.832-4.676,12.565-4.676C72.753,405.76,75.622,406.429,78.28,407.768z"/>
		<path d="M260.713,65.871c9.371,0,16.963-7.602,16.963-16.964c0-9.314-7.593-16.916-16.963-16.916
			c-9.314,0-16.878,7.593-16.878,16.916C243.826,58.269,251.399,65.871,260.713,65.871z"/>
	</g>
</g>
<g>
</g>
<g>
</g>
<g>
</g>
<g>
</g>
<g>
</g>
<g>
</g>
<g>
</g>
<g>
</g>
<g>
</g>
<g>
</g>
<g>
</g>
<g>
</g>
<g>
</g>
<g>
</g>
<g>
</g>
</svg>
