<?xml version="1.0" encoding="iso-8859-1"?>
<!-- Generator: Adobe Illustrator 18.1.1, SVG Export Plug-In . SVG Version: 6.00 Build 0)  -->
<svg version="1.1" id="Capa_1" xmlns="http://www.w3.org/2000/svg" xmlns:xlink="http://www.w3.org/1999/xlink" x="0px" y="0px"
	 viewBox="0 0 17.738 17.738" style="enable-background:new 0 0 17.738 17.738;" xml:space="preserve">
<g>
	<g>
		<path style="fill:#030104;" d="M17.015,15.658l-2.747-2.395l-1.518-2.277l0.172-2.91l0.811,1.992
			c0.165,0.406,0.631,0.604,1.038,0.438s0.604-0.631,0.438-1.039l-1.818-4.465c-1.089-1.475-2.866-0.863-2.919-0.93L7.468,0.301
			C7.195-0.043,6.959-0.101,6.615,0.174C6.27,0.448,6.214,0.949,6.488,1.293L9.49,5.064c0.163,0.205,0.459,2.942,0.459,2.942
			L9.302,10.64c0,0-0.243,1.922-0.193,2.518c0.051,0.596,2.131,3.25,2.131,3.25c1.117,1.795,1.565,1.254,1.565,1.254
			s0.646-0.205,0.151-1l-2.124-3.039l0.201-2.527l1.855,2.701l2.354,1.904c0.655,0.584,0.967,0.904,1.411,0.777
			C17.439,16.178,17.015,15.658,17.015,15.658z"/>
		<circle style="fill:#030104;" cx="12.025" cy="1.982" r="1.822"/>
		<ellipse style="fill:#030104;" cx="2.8" cy="1.079" rx="2.19" ry="0.753"/>
	</g>
</g>
<g>
</g>
<g>
</g>
<g>
</g>
<g>
</g>
<g>
</g>
<g>
</g>
<g>
</g>
<g>
</g>
<g>
</g>
<g>
</g>
<g>
</g>
<g>
</g>
<g>
</g>
<g>
</g>
<g>
</g>
</svg>
