<?xml version="1.0" encoding="utf-8"?>
<!-- Uploaded to SVGRepo https://www.svgrepo.com -->
<svg version="1.1" id="Layer_1" xmlns="http://www.w3.org/2000/svg" xmlns:xlink="http://www.w3.org/1999/xlink" x="0px" y="0px"
	 viewBox="0 0 128 128" style="enable-background:new 0 0 128 128;" xml:space="preserve">
<path d="M54.8,22.3l-1.4,3c-0.9,1.9-2.8,3.1-5,3.1h-3.3c1.9,2.7,5,4.4,8.5,4.4c5.7,0,10.4-4.6,10.4-10.3V22h-8.7
	C55.1,22,54.8,22.1,54.8,22.3"/>
<path d="M48.4,25.8c1.1,0,2.1-0.7,2.6-1.6l1.4-3c0.5-1.1,1.6-1.9,2.9-1.9H66c-1.4-5.5-6.4-9.5-12.3-9.5c-7,0-12.7,5.7-12.7,12.7
	c0,1.1,0.1,2.3,0.4,3.3H48.4z"/>
<path d="M83.6,81.6c9.5-0.3,34.4-2.6,41.3-9.2c-3.1-9.5-15.3-10.1-26.4-5.3c-1.9,0.8-4.5,1.5-7.4,2.1l-2.3-8.8c1.8-0.9,3-2.9,2.9-5
	c-0.1-3-2.6-5.3-5.6-5.2l-1.7-6.5c1.7-1.2,2.5-3.3,2-5.5c-0.7-2.9-3.6-4.7-6.4-4.1c0,0-23.6,0.2-31,2.2c-7.4,2-9.9,14.4-9.9,14.4
	l-6.5,21H1.9v9.9H83.6z M62.4,45.4l18.3-0.8l1.5,5.6c-5,0.2-13.8,0.7-21.6,1.2L62.4,45.4z M57.3,62.2L84.9,61l2.3,8.8
	c-11.3,1.6-25.9,1.9-32.8,1.9L57.3,62.2z"/>
<path d="M108.9,94c0,0,16.7-0.2,16.7-16.6c0-0.7-0.1-1.3-0.1-1.9c-10.4,7.6-38.3,8.8-41.9,8.9H2v12.9c2,0,4-0.5,5.8-1.2
	c2.9-1.4,6.2-2.1,9.5-2.1c3.2,0,6.5,0.7,9.4,2.1c1.9,0.8,3.9,1.3,5.9,1.3c2,0,4-0.4,5.8-1.2c3-1.4,6.2-2.1,9.5-2.1
	c3.3,0,6.4,0.7,9.4,2.1c1.9,0.8,3.9,1.3,5.9,1.3c2,0,4-0.4,5.8-1.2c2.9-1.4,6.2-2.1,9.4-2.1c3.3,0,6.4,0.7,9.4,2.1
	c1.9,0.8,3.9,1.3,5.9,1.3c0.2,0,0.5,0,0.7,0l2.4,9.4c-1.1,0.2-2.1,0.3-3.2,0.3c-2.7,0-5.3-0.6-7.6-1.6c-2.3-1.1-5-1.7-7.8-1.7
	c-2.8,0-5.4,0.6-7.8,1.7c-2.3,1-4.8,1.6-7.5,1.6c-2.7,0-5.3-0.6-7.6-1.6c-2.3-1.1-5-1.7-7.8-1.7c-2.8,0-5.4,0.6-7.8,1.7
	c-2.3,1-4.8,1.6-7.5,1.6c-2.6,0-5.2-0.6-7.5-1.6c-2.3-1.1-5-1.7-7.8-1.7c-2.7,0-5.4,0.6-7.7,1.7c-2.3,1-4.9,1.6-7.5,1.6v11.3
	c2.7,0,5.2-0.6,7.5-1.6c2.4-1.1,5-1.7,7.7-1.7c2.8,0,5.4,0.6,7.8,1.7c2.3,1,4.9,1.6,7.5,1.6c2.7,0,5.2-0.6,7.5-1.6
	c2.4-1.1,5-1.7,7.8-1.7c2.8,0,5.4,0.6,7.8,1.7c2.3,1,4.9,1.6,7.6,1.6c2.7,0,5.2-0.6,7.5-1.6c2.4-1.1,5-1.7,7.8-1.7
	c2.8,0,5.4,0.6,7.8,1.7c2.3,1,4.9,1.6,7.6,1.6c2.6,0,5.2-0.6,7.5-1.6c2.3-1.1,5-1.7,7.8-1.7s5.4,0.6,7.8,1.7c2.3,1,4.9,1.6,7.6,1.6
	V107c-2.7,0-5.3-0.6-7.6-1.6c-2.3-1.1-5-1.7-7.8-1.7s-5.4,0.6-7.8,1.7c-0.2,0.1-0.4,0.1-0.5,0.2l-2.3-9c0.4-0.2,0.8-0.3,1.2-0.5
	C102.4,94.8,105.7,94,108.9,94"/>
</svg>
