<?xml version="1.0" encoding="iso-8859-1"?>
<!-- Generator: Adobe Illustrator 18.0.0, SVG Export Plug-In . SVG Version: 6.00 Build 0)  -->
<!DOCTYPE svg PUBLIC "-//W3C//DTD SVG 1.1//EN" "http://www.w3.org/Graphics/SVG/1.1/DTD/svg11.dtd">
<svg version="1.1" id="Capa_1" xmlns="http://www.w3.org/2000/svg" xmlns:xlink="http://www.w3.org/1999/xlink" x="0px" y="0px"
	 viewBox="0 0 488.297 488.297" style="enable-background:new 0 0 488.297 488.297;" xml:space="preserve">
<g>
	<path d="M395.728,63.273c54.478,9.933,85.381,32.556,85.771,32.848c0.759,0.567,1.654,0.848,2.546,0.848
		c1.049,0,2.094-0.387,2.906-1.148c1.506-1.41,1.781-3.697,0.654-5.425c-28.371-43.471-81.87-65.406-121.755-76.153
		C322.945,2.681,287.225,1.265,285.725,1.211c-0.051-0.002-0.103-0.003-0.154-0.003H4.25c-2.191,0-4.023,1.666-4.23,3.847
		s1.276,4.163,3.428,4.577c89.334,17.19,103.312,52.244,103.429,52.557c0.595,1.707,2.205,2.851,4.013,2.851h55.659v188.434
		c-7.461,2.42-12.942,10.184-12.942,19.38c0,5.102-1.104,7.395-2.501,10.299c-1.566,3.255-3.342,6.944-3.342,13.985
		c0,7.041,1.775,10.73,3.342,13.985c1.398,2.904,2.501,5.198,2.501,10.3c0,5.105-1.104,7.399-2.502,10.304
		c-1.565,3.256-3.341,6.945-3.341,13.986c0,7.043,1.775,10.733,3.342,13.989c1.398,2.904,2.501,5.198,2.501,10.301
		c0,5.103-1.104,7.396-2.501,10.301c-1.566,3.256-3.342,6.946-3.342,13.988c0,7.041,1.775,10.73,3.342,13.986
		c1.398,2.904,2.501,5.199,2.501,10.303c0,5.105-1.104,7.399-2.501,10.304c-1.566,3.256-3.342,6.946-3.342,13.988
		c0,7.043,1.775,10.733,3.342,13.99c1.398,2.904,2.501,5.199,2.501,10.303c0,0.064,0.001,0.127,0.004,0.191
		c0.209,10.922,8.138,19.734,17.854,19.734h33.62c9.848,0,17.859-9.051,17.859-20.175V272.852c0-9.372-5.695-17.25-13.376-19.506
		V65.039h70.826c0.274,0,0.548-0.026,0.817-0.079c21.254-4.165,42.455-6.276,63.016-6.276
		C361.581,58.683,381.376,60.868,395.728,63.273z M214.442,272.852v194.063c0,6.438-4.198,11.675-9.359,11.675h-33.62
		c-5.16,0-9.357-5.237-9.357-11.675c0-0.04-0.001-0.08-0.002-0.119c-0.061-6.803-1.801-10.42-3.339-13.618
		c-1.398-2.906-2.502-5.201-2.502-10.306c0-5.104,1.104-7.398,2.501-10.303c1.566-3.257,3.342-6.947,3.342-13.989
		c0-7.042-1.775-10.732-3.342-13.988c-1.397-2.904-2.501-5.198-2.501-10.301c0-5.103,1.104-7.398,2.501-10.303
		c1.566-3.256,3.342-6.945,3.342-13.986c0-7.041-1.775-10.73-3.341-13.986c-1.398-2.904-2.502-5.199-2.502-10.304
		c0-5.103,1.104-7.396,2.501-10.301c1.566-3.256,3.342-6.946,3.342-13.989c0-7.041-1.775-10.73-3.342-13.985
		c-1.397-2.904-2.501-5.198-2.501-10.3c0-5.103,1.104-7.396,2.501-10.3c1.566-3.255,3.342-6.944,3.342-13.984
		c0-6.438,4.197-11.675,9.357-11.675h20.974v151.943c0,2.348,1.902,4.25,4.25,4.25c2.348,0,4.25-1.902,4.25-4.25V261.177h4.146
		C210.244,261.177,214.442,266.415,214.442,272.852z M201.066,252.677h-26.018V65.039h26.018V252.677z M426.563,61.752v-9.917
		c0-2.348-1.902-4.25-4.25-4.25c-2.348,0-4.25,1.902-4.25,4.25v7.552c-6.081-1.583-12.547-3.036-19.38-4.3V43.369
		c0-2.348-1.902-4.25-4.25-4.25c-2.348,0-4.25,1.902-4.25,4.25v10.28c-6.187-0.953-12.647-1.742-19.38-2.324V40.033
		c0-2.348-1.902-4.25-4.25-4.25c-2.348,0-4.25,1.902-4.25,4.25v10.683c-5.843-0.34-11.862-0.532-18.078-0.532
		c-0.433,0-0.87,0.015-1.303,0.017V34.9c0-2.348-1.902-4.25-4.25-4.25c-2.348,0-4.25,1.902-4.25,4.25v15.455
		c-6.416,0.2-12.882,0.601-19.381,1.191V28.232c0-2.348-1.902-4.25-4.25-4.25c-2.348,0-4.25,1.902-4.25,4.25v23.603
		c0,0.2,0.032,0.391,0.059,0.584c-8.839,1.026-17.725,2.388-26.619,4.12H113.577C109.28,48.589,92.856,25.985,39.5,9.708h245.985
		c1.807,0.074,37.063,1.67,78.154,12.742c32.525,8.763,74.372,25.141,102.783,54.925C456.56,72.408,443.189,66.673,426.563,61.752z"
		/>
	<path d="M188.92,14.254c-9.957,0-18.058,8.101-18.058,18.057c0,9.958,8.101,18.059,18.058,18.059c9.957,0,18.058-8.1,18.058-18.059
		C206.977,22.354,198.877,14.254,188.92,14.254z M188.92,41.869c-5.27,0-9.558-4.288-9.558-9.559c0-5.269,4.287-9.557,9.558-9.557
		c5.271,0,9.558,4.287,9.558,9.557C198.477,37.581,194.19,41.869,188.92,41.869z"/>
	<path d="M405.03,146.154H290.403c-11.873,0-21.533,9.66-21.533,21.534v141.708c0,0.227,0.012,0.448,0.027,0.672l0.001,0.029
		l-0.008,0.267c-0.011,0.321-0.02,0.644-0.02,0.968c0,34.329,27.929,62.258,62.257,62.258c31.404,0,59.304-23.44,63.585-53.393
		l31.762-151.638c0.06-0.286,0.09-0.578,0.09-0.871C426.563,155.814,416.903,146.154,405.03,146.154z M306.718,299.05
		l-0.005-111.922c0-5.374,2.811-9.39,5.325-9.39h63.493c2.469,0,5.225,3.875,5.321,9.107l-16.996,119.45
		c-0.008,0.061-0.016,0.121-0.021,0.182c-1.885,19.133-14.455,33.561-29.239,33.561c-15.635,0-27.883-17.376-27.883-39.559
		c0-0.194,0.005-0.387,0.009-0.579l0.008-0.365c0.001-0.057,0.001-0.113,0-0.17L306.718,299.05z M386.439,207.924h23.104
		l-18.253,87.139h-17.25L386.439,207.924z M411.324,199.424h-23.675l1.664-11.697c0.027-0.198,0.042-0.398,0.042-0.599
		c0-10.031-6.072-17.89-13.824-17.89h-63.493c-7.752,0-13.825,7.858-13.825,17.89v111.824c0,0.168,0.006,0.332,0.014,0.497
		l0.002,0.046l-0.004,0.209c-0.006,0.259-0.012,0.516-0.012,0.775c0,13.017,3.642,25.065,10.255,33.927
		c6.801,9.113,16.079,14.132,26.128,14.132c19.15,0,35.339-17.678,37.69-41.134l0.547-3.842h16.68l-3.148,15.028
		c-0.019,0.093-0.035,0.186-0.049,0.28c-3.637,25.917-27.878,46.219-55.188,46.219c-29.642,0-53.757-24.115-53.757-53.758
		c0-0.229,0.009-0.456,0.016-0.684l0.016-0.51c0.002-0.083,0.001-0.166-0.002-0.25c-0.005-0.133-0.013-0.265-0.022-0.396
		l-0.008-0.097V167.688c0-7.188,5.847-13.034,13.033-13.034H405.03c7.049,0,12.81,5.626,13.027,12.624L411.324,199.424z"/>
	<path d="M402.539,214.329c0.413-2.311-1.125-4.519-3.436-4.932c-2.314-0.404-4.518,1.126-4.932,3.436l-13.273,74.231
		c-0.413,2.311,1.125,4.518,3.436,4.932c0.253,0.045,0.505,0.067,0.753,0.067c2.02,0,3.811-1.445,4.179-3.503L402.539,214.329z"/>
</g>
<g>
</g>
<g>
</g>
<g>
</g>
<g>
</g>
<g>
</g>
<g>
</g>
<g>
</g>
<g>
</g>
<g>
</g>
<g>
</g>
<g>
</g>
<g>
</g>
<g>
</g>
<g>
</g>
<g>
</g>
</svg>
