<?xml version="1.0" encoding="iso-8859-1"?>
<!-- Generator: Adobe Illustrator 19.0.0, SVG Export Plug-In . SVG Version: 6.00 Build 0)  -->
<svg version="1.1" id="Layer_1" xmlns="http://www.w3.org/2000/svg" xmlns:xlink="http://www.w3.org/1999/xlink" x="0px" y="0px"
	 viewBox="0 0 512 512" style="enable-background:new 0 0 512 512;" xml:space="preserve">
<g>
	<g>
		<circle cx="93.997" cy="451.883" r="57.629"/>
	</g>
</g>
<g>
	<g>
		<circle cx="418.003" cy="451.883" r="57.629"/>
	</g>
</g>
<g>
	<g>
		<path d="M391.421,178.322c-17.305,0-33.105-1.779-47.535-4.974l-8.973,44.166l-33.222-6.751l9.714-47.81
			c-6.505-2.787-12.654-5.889-18.464-9.257l-22.304,38.185l-29.272-17.1l23.956-41.012c-6.072-5.359-11.631-11.006-16.719-16.824
			l-30.94,31.41l-24.151-23.79l34.78-35.309c-4.414-7.178-8.262-14.345-11.604-21.311l-39.49,18.881L162.574,56.24l41.505-19.844
			c-6.508-19.997-8.369-33.908-8.369-33.908h-73.978v32.638c0,55.888-45.468,101.356-101.356,101.356h-2.753
			C9.583,182.959,0,217.804,0,280.885l0.014,23.011H512v-23.011C512,214.29,458.015,178.322,391.421,178.322z"/>
	</g>
</g>
<g>
	<g>
		<path d="M28.434,2.488c0,41.653-2.353,73.375-5.702,100.033c36.106-1.248,65.1-30.99,65.1-67.395V2.488H28.434z"/>
	</g>
</g>
<g>
	<g>
		<path d="M13.503,337.796l21.252,44.397C50.735,368.587,71.418,360.351,94,360.351c26.198,0,49.842,11.08,66.542,28.781
			l14.49-12.409h161.934l14.49,12.409c16.7-17.701,40.344-28.781,66.542-28.781c22.581,0,43.265,8.238,59.244,21.842l21.252-44.397
			H13.503z"/>
	</g>
</g>
<g>
</g>
<g>
</g>
<g>
</g>
<g>
</g>
<g>
</g>
<g>
</g>
<g>
</g>
<g>
</g>
<g>
</g>
<g>
</g>
<g>
</g>
<g>
</g>
<g>
</g>
<g>
</g>
<g>
</g>
</svg>
