<?xml version="1.0" encoding="iso-8859-1"?>
<!-- Generator: Adobe Illustrator 19.0.0, SVG Export Plug-In . SVG Version: 6.00 Build 0)  -->
<svg version="1.1" id="Layer_1" xmlns="http://www.w3.org/2000/svg" xmlns:xlink="http://www.w3.org/1999/xlink" x="0px" y="0px"
	 viewBox="0 0 512 512" style="enable-background:new 0 0 512 512;" xml:space="preserve">
<g>
	<g>
		<path d="M445.217,166.957V116.87C445.217,52.424,392.793,0,328.348,0H183.652c-64.445,0-116.87,52.424-116.87,116.87v50.087
			C29.956,166.957,0,196.913,0,233.739c0,24.076,13.01,46.032,33.337,57.815c0.032,27.826,0.022,75.652,0,103.586
			c0,21.749,14.025,40.117,33.446,47.016v53.148c0,9.217,7.479,16.696,16.696,16.696h66.783c9.217,0,16.696-7.479,16.696-16.696
			v-50.087h178.087v50.087c0,9.217,7.479,16.696,16.696,16.696h66.783c9.217,0,16.696-7.479,16.696-16.696v-53.147
			c19.42-6.9,33.446-25.271,33.446-47.027c-0.022-27.935-0.032-75.75,0-103.576C498.99,279.771,512,257.815,512,233.739
			C512,196.913,482.044,166.957,445.217,166.957z M100.174,411.826H83.478h-0.055c-9.206,0-16.696-7.49-16.696-16.673
			c0.022-31.935,0.032-89.859-0.011-114.228c-0.011-7.054-4.457-13.336-11.108-15.696c-13.283-4.728-22.217-17.38-22.217-31.489
			c0-18.413,14.978-33.391,33.391-33.391c18.413,0,33.391,14.978,33.391,33.391C100.174,247.564,100.174,387.055,100.174,411.826z
			 M378.435,411.826c-106.114,0-148.619,0-244.87,0v-61.217c0-9.206,7.49-16.696,16.696-16.696h211.478
			c9.206,0,16.696,7.49,16.696,16.696V411.826z M456.391,265.228c-6.653,2.359-11.098,8.642-11.108,15.696
			c-0.043,24.37-0.032,82.294-0.011,114.217c0,9.196-7.49,16.685-16.696,16.685h-0.055h-16.696c0-25.048,0-162.636,0-178.087
			c0-18.413,14.978-33.391,33.391-33.391s33.391,14.978,33.391,33.391C478.609,247.848,469.674,260.5,456.391,265.228z"/>
	</g>
</g>
<g>
</g>
<g>
</g>
<g>
</g>
<g>
</g>
<g>
</g>
<g>
</g>
<g>
</g>
<g>
</g>
<g>
</g>
<g>
</g>
<g>
</g>
<g>
</g>
<g>
</g>
<g>
</g>
<g>
</g>
</svg>
