<?xml version="1.0" encoding="iso-8859-1"?>
<!-- Generator: Adobe Illustrator 18.0.0, SVG Export Plug-In . SVG Version: 6.00 Build 0)  -->
<!DOCTYPE svg PUBLIC "-//W3C//DTD SVG 1.1//EN" "http://www.w3.org/Graphics/SVG/1.1/DTD/svg11.dtd">
<svg version="1.1" id="Capa_1" xmlns="http://www.w3.org/2000/svg" xmlns:xlink="http://www.w3.org/1999/xlink" x="0px" y="0px"
	 viewBox="0 0 458.516 458.516" style="enable-background:new 0 0 458.516 458.516;" xml:space="preserve">
<g id="XMLID_249_">
	<circle id="XMLID_255_" cx="220.049" cy="53.342" r="34.979"/>
	<path id="XMLID_250_" d="M363.072,382.937h-34.965c0.302-3.312-0.203-6.742-1.649-9.997l-37.632-84.671
		c-0.044-0.1-0.09-0.199-0.136-0.299l-23.943-51.594V130.129l48.758-1.921c2.578-0.101,5.087-0.861,7.289-2.207l54.615-33.383
		c7.123-4.354,9.368-13.658,5.013-20.781c-4.354-7.123-13.658-9.369-20.781-5.014l-51.257,31.331l-71.053,3.416h-60.692
		l-40.552-23.459l18.889-58.334c2.572-7.942-1.782-16.465-9.724-19.037c-7.945-2.572-16.466,1.782-19.037,9.724l-22.653,69.958
		c-2.196,6.78,0.643,14.173,6.811,17.741l64.978,37.589v98.681l-18.434,66.009c-0.492,1.765-0.742,3.589-0.742,5.421l0.092,77.075
		h-28.785l-25.805-25.804c-5.903-5.904-15.474-5.904-21.377,0c-5.903,5.903-5.903,15.474,0,21.377l30.231,30.232
		c2.835,2.835,6.68,4.427,10.688,4.427h24.222c-2.581,4.45-4.067,9.611-4.067,15.116c0,16.67,13.562,30.232,30.232,30.232
		c16.67,0,30.232-13.562,30.232-30.232c0-5.504-1.486-10.665-4.067-15.116h88.752c-2.581,4.45-4.067,9.611-4.067,15.116
		c0,16.67,13.562,30.232,30.232,30.232c16.67,0,30.232-13.562,30.232-30.232c0-5.504-1.486-10.665-4.067-15.116h24.221
		c8.348,0,15.116-6.768,15.116-15.116C378.188,389.704,371.42,382.937,363.072,382.937z M171.606,438.361
		c-5.557,0-10.077-4.521-10.077-10.077s4.52-10.077,10.077-10.077s10.077,4.521,10.077,10.077S177.162,438.361,171.606,438.361z
		 M312.686,438.361c-5.557,0-10.077-4.521-10.077-10.077s4.52-10.077,10.077-10.077c5.557,0,10.077,4.521,10.077,10.077
		S318.243,438.361,312.686,438.361z M196.484,308.623l13.24-47.411h22.112l20.223,43.578l34.732,78.147h-90.398L196.484,308.623z"/>
</g>
<g>
</g>
<g>
</g>
<g>
</g>
<g>
</g>
<g>
</g>
<g>
</g>
<g>
</g>
<g>
</g>
<g>
</g>
<g>
</g>
<g>
</g>
<g>
</g>
<g>
</g>
<g>
</g>
<g>
</g>
</svg>
