<?xml version="1.0" encoding="iso-8859-1"?>
<!-- Generator: Adobe Illustrator 19.0.0, SVG Export Plug-In . SVG Version: 6.00 Build 0)  -->
<svg version="1.1" id="Layer_1" xmlns="http://www.w3.org/2000/svg" xmlns:xlink="http://www.w3.org/1999/xlink" x="0px" y="0px"
	 viewBox="0 0 512.001 512.001" style="enable-background:new 0 0 512.001 512.001;" xml:space="preserve">
<g>
	<g>
		<g>
			<path d="M95.044,145.375c2.185,0,4.369-0.836,6.033-2.5c6.434-6.434,15.915-8.986,24.721-6.63
				c4.574,1.22,9.233-1.485,10.445-6.05c1.22-4.557-1.493-9.224-6.042-10.436c-14.694-3.908-30.464,0.316-41.19,11.051
				c-3.337,3.336-3.337,8.738,0,12.066C90.675,144.538,92.859,145.375,95.044,145.375z"/>
			<path d="M148.935,75.408c1.442,0.939,3.055,1.391,4.659,1.391c2.782,0,5.513-1.365,7.151-3.866
				c1.442-2.202,5.589-4.557,10.453-4.599c2.884-0.034,6.818,0.794,9.472,4.71c2.637,3.9,7.945,4.924,11.836,2.295
				c3.908-2.645,4.941-7.945,2.295-11.853c-5.299-7.842-13.662-12.51-23.731-12.22c-10.112,0.085-19.772,4.924-24.61,12.331
				C143.875,67.549,144.984,72.831,148.935,75.408z"/>
			<path d="M509.826,62.575l-46.805-52.352c-7.945-8.73-19.942-12.194-31.292-9.037c-11.366,3.14-19.866,12.288-22.152,23.671
				l-15.352,69.009h-28.262c-2.79-13.594-12.023-25.088-24.917-30.583c-2.287-19.55-17.835-35.106-37.393-37.393
				C297.039,10.368,281.764,0,264.535,0c-11.324,0-21.999,4.557-29.867,12.382C226.801,4.557,216.126,0,204.802,0
				c-10.069,0-19.695,3.575-27.273,9.899c-0.205-0.205-0.461-0.35-0.666-0.546c-1.033-0.964-2.133-1.826-3.277-2.662
				c-0.589-0.435-1.152-0.887-1.766-1.28c-1.195-0.759-2.458-1.391-3.746-2.005c-0.631-0.299-1.237-0.657-1.894-0.913
				c-1.417-0.572-2.893-0.981-4.395-1.357c-0.58-0.145-1.135-0.367-1.724-0.486C157.954,0.239,155.803,0,153.602,0
				c-15.881,0-29.269,10.906-33.058,25.617C99.151,24.678,81.265,40.303,77.519,60.45c-17.263,3.209-30.925,16.862-34.133,34.133
				c-19.806,3.686-34.85,21.094-34.85,41.95c0,10.197,3.746,19.447,9.737,26.795c-10.53,3.174-18.27,12.851-18.27,24.405
				c0,11.255,7.347,20.727,17.459,24.149l15.309,267.93C33.802,497.86,48.77,512,66.852,512h0.333l-7.526-298.667h17.075L84.269,512
				h24.969L99.33,213.333h17.075L126.304,512h100.011h2.338l-0.017-0.469c3.558-1.024,6.212-4.173,6.212-8.064
				c0-4.13-2.978-7.407-6.878-8.201l-14.293-350.2h17.084L245.736,512h35.866V323.567c-20.369-11.827-34.133-33.835-34.133-59.034
				c0-25.199,13.764-47.206,34.133-59.034v-60.433h17.067v53.385c0.307-0.077,0.623-0.102,0.93-0.179
				c2.005-0.486,4.036-0.879,6.101-1.186c0.691-0.102,1.365-0.23,2.057-0.316c2.62-0.307,5.274-0.503,7.979-0.503
				s5.359,0.196,7.979,0.503c0.691,0.085,1.365,0.213,2.057,0.316c2.065,0.307,4.096,0.7,6.101,1.186
				c0.307,0.077,0.623,0.102,0.93,0.179v-53.385h17.067V205.5c20.369,11.827,34.133,33.835,34.133,59.034
				c0,25.199-13.764,47.206-34.133,59.034V512h34.133v-8.533l16.657-358.4h17.092L401.06,503.859V512h4.096
				c21.41,0,38.989-16.759,40.004-38.161l15.258-328.772h8.917c4.719,0,8.533-3.823,8.533-8.533V102.4
				c0-4.71-3.814-8.533-8.533-8.533H411.71l14.566-65.476c1.058-5.299,4.804-9.318,10.01-10.76
				c5.188-1.451,10.47,0.085,14.054,4.028l46.771,52.301c3.132,3.524,8.533,3.806,12.049,0.674
				C512.668,71.484,512.966,66.091,509.826,62.575z M51.202,110.933c4.719,0,8.533-3.823,8.533-8.533
				c0-14.114,11.486-25.6,25.6-25.6c9.105,0,17.604,4.907,22.178,12.8c1.579,2.731,4.437,4.258,7.39,4.258
				c1.451,0,2.918-0.375,4.267-1.152c4.07-2.364,5.47-7.578,3.106-11.656c-5.948-10.274-15.906-17.442-27.213-20.113
				c3.174-10.53,12.851-18.27,24.405-18.27c1.929,0,3.985,0.307,6.485,0.964c2.654,0.717,5.47,0.094,7.578-1.655
				c2.116-1.732,3.277-4.369,3.115-7.1c-0.017-0.384-0.06-0.751-0.102-0.751l-0.009,0.009c0-9.412,7.654-17.067,17.067-17.067
				c1.485,0,2.927,0.256,4.326,0.631c0.265,0.068,0.521,0.137,0.777,0.222c1.391,0.444,2.731,1.033,3.959,1.818
				c0.034,0.017,0.068,0.051,0.102,0.077c2.645,1.715,4.838,4.147,6.229,7.117c0,0.009,0.017,0.026,0.017,0.034
				c0.683,1.459,1.229,2.995,1.476,4.642c0.623,4.241,4.267,7.287,8.431,7.287c0.41,0,0.828-0.026,1.254-0.094
				c4.659-0.683,7.885-5.026,7.194-9.685c-0.205-1.365-0.606-2.654-0.964-3.959c4.804-5.043,11.366-8.09,18.398-8.09
				c9.276,0,17.852,5.163,22.374,13.474c2.987,5.495,11.998,5.495,14.984,0c4.523-8.311,13.099-13.474,22.374-13.474
				c8.431,0,16.043,4.198,20.719,10.803c-9.762,3.26-18.253,9.916-23.535,19.063c-2.364,4.079-0.964,9.293,3.106,11.656
				c1.348,0.777,2.816,1.143,4.267,1.143c2.953,0,5.82-1.527,7.39-4.267c4.437-7.654,12.587-12.416,21.393-12.698
				c0.461-0.017,0.887-0.06,0.794-0.102c14.114,0,25.6,11.486,25.626,25.045c-0.043,0.282-0.128,1.092-0.137,1.365
				c-0.162,4.028,2.509,7.629,6.417,8.627c8.457,2.159,15.019,8.337,17.818,16.162H162.135c-4.719,0-8.533,3.823-8.533,8.533v34.133
				c0,4.71,3.814,8.533,8.533,8.533h8.917l0.794,17.067H51.202c-14.114,0-25.6-11.486-25.6-25.6S37.088,110.933,51.202,110.933z
				 M107.582,196.267H67.987H25.602c-4.71,0-8.533-3.831-8.533-8.533c0-4.702,3.823-8.533,8.533-8.533h25.6h121.429l0.794,17.067
				H107.582z M136.535,315.733c0-26.641,15.727-50.56,39.578-61.67l0.87,18.748c-14.336,9.301-23.381,25.37-23.381,42.923
				c0,19.378,10.853,36.665,27.474,45.327l0.883,18.929C154.916,370.415,136.535,344.866,136.535,315.733z M460.802,110.933V128
				h-8.533H341.335h-51.2H179.202h-8.533v-17.067h187.733H460.802z"/>
			<path d="M366.935,264.533c0-20.429-12.058-38.05-29.397-46.259c-1.673-0.785-3.371-1.485-5.094-2.082
				c-0.043-0.017-0.085-0.034-0.136-0.051c-10.761-3.712-22.383-3.712-33.143,0c-0.051,0.017-0.085,0.034-0.128,0.043
				c-1.724,0.606-3.43,1.297-5.103,2.091c-17.34,8.209-29.397,25.83-29.397,46.259c0,20.429,12.058,38.05,29.397,46.259
				c1.673,0.794,3.379,1.485,5.103,2.091c0.043,0.008,0.077,0.026,0.128,0.043c10.761,3.712,22.383,3.712,33.143,0
				c0.051-0.017,0.094-0.034,0.136-0.051c1.724-0.597,3.422-1.297,5.094-2.082C354.878,302.583,366.935,284.962,366.935,264.533z
				 M315.735,298.667c-18.825,0-34.133-15.309-34.133-34.133c0-4.71,3.814-8.533,8.533-8.533s8.533,3.823,8.533,8.533
				c0,9.412,7.654,17.067,17.067,17.067c4.719,0,8.533,3.823,8.533,8.533S320.454,298.667,315.735,298.667z M341.335,273.067
				c-4.719,0-8.533-3.823-8.533-8.533c0-9.412-7.654-17.067-17.067-17.067c-4.719,0-8.533-3.823-8.533-8.533
				s3.814-8.533,8.533-8.533c18.825,0,34.133,15.309,34.133,34.133C349.869,269.244,346.054,273.067,341.335,273.067z"/>
			<path d="M325.636,331.999c-0.623,0.094-1.246,0.213-1.877,0.29c-2.637,0.307-5.308,0.512-8.021,0.512
				c-2.722,0-5.393-0.205-8.03-0.512c-0.623-0.077-1.246-0.196-1.869-0.29c-2.116-0.307-4.198-0.708-6.246-1.212
				c-0.307-0.068-0.623-0.094-0.922-0.171v181.385h34.133V330.616c-0.307,0.077-0.623,0.102-0.922,0.171
				C329.834,331.29,327.752,331.692,325.636,331.999z"/>
		</g>
	</g>
</g>
<g>
</g>
<g>
</g>
<g>
</g>
<g>
</g>
<g>
</g>
<g>
</g>
<g>
</g>
<g>
</g>
<g>
</g>
<g>
</g>
<g>
</g>
<g>
</g>
<g>
</g>
<g>
</g>
<g>
</g>
</svg>
