<?xml version="1.0" encoding="iso-8859-1"?>
<!-- Generator: Adobe Illustrator 16.0.0, SVG Export Plug-In . SVG Version: 6.00 Build 0)  -->
<!DOCTYPE svg PUBLIC "-//W3C//DTD SVG 1.1//EN" "http://www.w3.org/Graphics/SVG/1.1/DTD/svg11.dtd">
<svg version="1.1" id="Capa_1" xmlns="http://www.w3.org/2000/svg" xmlns:xlink="http://www.w3.org/1999/xlink" x="0px" y="0px"
	 width="415.259px" height="415.259px" viewBox="0 0 415.259 415.259" style="enable-background:new 0 0 415.259 415.259;"
	 xml:space="preserve">
<g>
	<g>
		<g id="Layer_5_47_">
			<g>
				<path d="M327.073,323.196L174.091,90.426c-3.1-4.718-7.795-7.423-12.877-7.423c-5.209,0-9.955,2.811-13.023,7.712L2.671,323.26
					c-3.166,5.062-3.535,10.572-1.013,15.127c2.522,4.556,7.392,7.166,13.36,7.166h299.995c6.015,0,10.881-2.633,13.358-7.225
					C330.848,333.736,330.375,328.223,327.073,323.196z M161.304,101.234c1.529,0,2.417,1.472,2.417,1.472l92.72,138.025
					c5.974,10.752,1.974,14.086-9.36,3.086c0,0-33.562-38.944-46.108-50.578c-3.15-2.921-9.553-3.67-13.12-1.275
					c-9.288,6.233-25.457,21.991-34.852,28.063c-3.607,2.332-8.505,0.328-9.525-3.847c-3.373-13.792-6.196-42.208-9.754-55.955
					c-1.076-4.159-5.102-4.926-8.567-2.387c-0.858,0.629-2.687,1.727-3.603,2.268c-1.06,0.625-0.469-0.259-0.469-0.259
					l37.937-57.292C159.018,102.558,159.708,101.234,161.304,101.234z"/>
				<path d="M412.619,290.749L271.834,76.537c-2.854-4.341-7.173-6.831-11.852-6.831c-4.793,0-9.161,2.587-11.983,7.098
					l-29.411,46.999c0,0-1.099,1.681-0.247,3.573c0.951,2.113,3.63,5.949,5.093,7.748c1.142,1.401,2.588-0.974,2.588-0.974
					l32.199-48.845c0,0,0.873-1.301,1.847-1.301c1.109,0,1.947,1.386,1.947,1.386l91.624,135.562
					c2.603,3.782-4.281,3.799-10.285-1.016c-9.071-7.274-27.021-22.074-36.116-29.319c-3.094-2.464-8.74-3.301-12.073-1.174
					c-4.911,3.135-16.602,12.289-21.366,16.683c-2.557,2.357-0.692,4.572-0.692,4.572l64.075,97.496c0,0,1.812,3.129,4.688,3.129
					c14.914,0,59.656,0,59.656,0c5.532,0,10.015-2.424,12.293-6.648C416.095,300.45,415.658,295.374,412.619,290.749z"/>
			</g>
		</g>
	</g>
</g>
<g>
</g>
<g>
</g>
<g>
</g>
<g>
</g>
<g>
</g>
<g>
</g>
<g>
</g>
<g>
</g>
<g>
</g>
<g>
</g>
<g>
</g>
<g>
</g>
<g>
</g>
<g>
</g>
<g>
</g>
</svg>
