<?xml version="1.0" encoding="iso-8859-1"?>
<!-- Generator: Adobe Illustrator 17.1.0, SVG Export Plug-In . SVG Version: 6.00 Build 0)  -->
<!DOCTYPE svg PUBLIC "-//W3C//DTD SVG 1.1//EN" "http://www.w3.org/Graphics/SVG/1.1/DTD/svg11.dtd">
<svg version="1.1" id="Capa_1" xmlns="http://www.w3.org/2000/svg" xmlns:xlink="http://www.w3.org/1999/xlink" x="0px" y="0px"
	 viewBox="0 0 454.916 454.916" style="enable-background:new 0 0 454.916 454.916;" xml:space="preserve">
<g>
	<path style="fill:none;" d="M182.634,340.712l1.918-47.798c-4.659,0.837-9.786,1.271-15.436,1.271
		c-6.729,0-12.718-0.612-18.053-1.794l-7.787,47.063c4.911-1.225,10.616-1.998,17.51-1.998
		C169.812,337.455,176.813,338.773,182.634,340.712z"/>
	<path style="fill:none;" d="M204.891,284.871l-2.64,65.784c6.726,3.917,13.073,6.8,25.199,6.8c13.897,0,20.204-3.784,28.189-8.575
		c0.612-0.367,1.232-0.738,1.858-1.11c0.431-2.007,0.894-3.777,1.396-5.229c7.661-22.175,23.47-40.897,30.068-48.075v-80.326
		c-12.271,5.73-26.087,8.691-40.685,8.691c-6.091,0-12.313-0.513-18.619-1.552c-0.526-0.087-1.05-0.186-1.574-0.28
		C227.042,250.946,221.506,273.173,204.891,284.871z"/>
	<path style="fill:none;" d="M232.908,201.544c21.109,3.48,40.86-0.169,56.053-10.264v-34.641
		c-5.686,4.018-12.181,7.168-19.414,9.337c-7.401,2.22-15.229,3.307-23.052,3.307c-6.746,0-13.486-0.816-19.953-2.401
		c1.278,9.57,1.628,20.712,1.709,33.778C229.795,200.99,231.347,201.287,232.908,201.544z"/>
	<path style="fill:none;" d="M201.37,372.609l-1.703,42.449c19.262-0.007,36.843-0.13,52.911-0.393
		c0.164-12.085,0.689-28.123,1.814-42.424c-6.755,2.964-15.119,5.215-26.942,5.215C216.124,377.455,207.975,375.389,201.37,372.609z
		"/>
	<path style="fill:none;" d="M181.781,361.962c-5.413-2.698-11.392-4.507-20.996-4.507c-9.76,0-15.774,1.871-21.257,4.642
		l-8.764,52.961h48.886L181.781,361.962z"/>
	<path style="fill:#6ECCAE;" d="M181.781,361.962l0.853-21.25c-5.821-1.939-12.822-3.257-21.849-3.257
		c-6.894,0-12.598,0.773-17.51,1.998l-3.747,22.644c5.483-2.771,11.497-4.642,21.257-4.642
		C170.39,357.455,176.368,359.264,181.781,361.962z"/>
	<path style="fill:#6ECCAE;" d="M94.123,357.455c-13.896,0-20.203-3.784-28.188-8.575c-8.925-5.355-19.041-11.425-38.477-11.425
		c-5.523,0-10,4.477-10,10c0,5.522,4.477,10,10,10c13.896,0,20.203,3.784,28.187,8.575c8.925,5.354,19.042,11.425,38.478,11.425
		c9.733,0,17.128-1.523,23.207-3.715l4.018-24.285C113.804,353.969,107.455,357.455,94.123,357.455z"/>
	<path style="fill:#6ECCAE;" d="M227.45,357.455c-12.126,0-18.473-2.882-25.199-6.8l-0.881,21.954
		c6.605,2.78,14.754,4.846,26.08,4.846c11.822,0,20.186-2.251,26.942-5.215c0.747-9.488,1.758-18.196,3.105-24.471
		c-0.626,0.372-1.246,0.743-1.858,1.11C247.654,353.671,241.347,357.455,227.45,357.455z"/>
	<path style="fill:#6ECCAE;" d="M360.788,377.455c19.437,0,29.554-6.069,38.48-11.425c7.985-4.791,14.292-8.575,28.19-8.575
		c5.523,0,10-4.478,10-10c0-5.523-4.477-10-10-10c-19.437,0-29.554,6.069-38.48,11.425c-7.985,4.791-14.292,8.575-28.19,8.575
		c-8.602,0-14.295-1.452-19.279-3.693c0.96,6.246,1.704,13.831,2.272,21.817C348.58,376.731,354.127,377.455,360.788,377.455z"/>
	<path style="fill:#F19C7D;" d="M129.956,209.121c0,36.497,4.902,53.051,15.953,60.159c1.363,0.388,2.587,1.053,3.628,1.918
		c5.324,2.272,11.817,2.986,19.579,2.986c7.82,0,14.349-0.727,19.695-3.037c1.008-0.82,2.176-1.446,3.452-1.827
		c10.408-6.648,15.38-21.629,15.956-53.645c-22.988-8.287-43.198-23.275-56.339-42.341c-3.134-4.547-1.988-10.775,2.559-13.908
		c4.546-3.134,10.774-1.989,13.909,2.559c9.501,13.785,23.58,24.994,39.824,32.165c-0.764-44.84-6.387-54.157-39.055-54.157
		C133.093,139.993,129.956,151.321,129.956,209.121z"/>
	<path style="fill:#F19C7D;" d="M131.045,58.057c0,20.995,17.079,38.076,38.071,38.076c20.99,0,38.066-17.081,38.066-38.076
		c0-20.984-17.077-38.057-38.066-38.057C148.124,20,131.045,37.072,131.045,58.057z"/>
	<path d="M436.256,387.975c-3.359-4.383-9.638-5.212-14.02-1.853c-15.757,12.08-37.61,19.536-76.969,23.849
		c-0.206-10.364-0.661-22.79-1.486-34.392c-0.568-7.985-1.312-15.571-2.272-21.817c-0.705-4.588-1.526-8.46-2.48-11.222
		c-7.661-22.175-23.47-40.897-30.068-48.075V108.967c5.173-0.383,9.254-4.692,9.254-9.962c0-5.522-4.477-10-10-10h-18.509
		c-5.523,0-10,4.478-10,10c0,5.271,4.081,9.58,9.254,9.962v18.529c-6.552,11.636-17.185,16.932-25.16,19.324
		c-14.291,4.285-31.242,2.846-44.142-3.582c-11-20.557-32.722-23.245-50.544-23.245c-18.189,0-40.447,2.787-51.216,24.524
		c-7.392,14.92-7.944,35.266-7.944,64.604c0,35.203,4.449,61.432,22.22,74.9l-10.827,65.434l-4.018,24.285l-6.837,41.318H26.595
		c-5.523,0-10,4.478-10,10c0,5.522,4.477,10,10,10h92.345c0.015,0,0.031,0.002,0.046,0.002c0.014,0,0.028-0.002,0.042-0.002h78.988
		c20.622,0,39.365-0.133,56.469-0.425c1.351,3.807,3.403,7.076,6.18,9.858c9.165,9.186,24.502,10.424,38.296,10.424
		c13.794,0,29.131-1.238,38.296-10.423c3.81-3.818,6.257-8.552,7.397-14.337c45.715-4.727,70.483-13.391,89.75-28.161
		C438.787,398.635,439.616,392.357,436.256,387.975z M325.405,421.853c0.013,6.19-1.731,7.938-2.304,8.512
		c-4.541,4.551-19.292,4.551-24.14,4.551c-4.847,0-19.599,0-24.139-4.551c-0.573-0.574-2.317-2.321-2.304-8.512
		c0.067-31.903,2.436-64.553,5.278-72.782c2.755-7.975,6.898-15.549,11.165-22.082v44.7c0,5.523,4.477,10,10,10
		c5.523,0,10-4.477,10-10V326.96c4.259,6.525,8.398,14.104,11.165,22.111C322.968,357.3,325.337,389.95,325.405,421.853z
		 M246.495,169.283c7.823,0,15.651-1.087,23.052-3.307c7.232-2.169,13.728-5.319,19.414-9.337v34.641
		c-15.192,10.094-34.944,13.744-56.053,10.264c-1.561-0.257-3.113-0.554-4.657-0.883c-0.081-13.066-0.431-24.208-1.709-33.778
		C233.01,168.467,239.75,169.283,246.495,169.283z M228.084,220.999c0.525,0.094,1.048,0.193,1.574,0.28
		c6.305,1.039,12.527,1.552,18.619,1.552c14.597,0,28.414-2.961,40.685-8.691v80.326c-6.598,7.178-22.406,25.9-30.068,48.075
		c-0.502,1.453-0.965,3.223-1.396,5.229c-1.347,6.275-2.359,14.983-3.105,24.471c-1.126,14.301-1.65,30.339-1.814,42.424
		c-16.068,0.263-33.648,0.387-52.911,0.393l1.703-42.449l0.881-21.954l2.64-65.784C221.506,273.173,227.042,250.946,228.084,220.999
		z M208.171,194.15c-16.243-7.171-30.323-18.381-39.824-32.165c-3.134-4.548-9.362-5.692-13.909-2.559
		c-4.547,3.134-5.693,9.361-2.559,13.908c13.141,19.066,33.351,34.054,56.339,42.341c-0.576,32.015-5.548,46.997-15.956,53.645
		c-1.276,0.381-2.444,1.007-3.452,1.827c-5.345,2.311-11.875,3.037-19.695,3.037c-7.763,0-14.256-0.715-19.579-2.986
		c-1.041-0.865-2.265-1.53-3.628-1.918c-11.051-7.108-15.953-23.662-15.953-60.159c0-57.8,3.137-69.128,39.16-69.128
		C201.784,139.993,207.407,149.31,208.171,194.15z M139.528,362.097l3.747-22.644l7.787-47.063
		c5.335,1.182,11.325,1.794,18.053,1.794c5.65,0,10.777-0.433,15.436-1.271l-1.918,47.798l-0.853,21.25l-2.131,53.096h-48.886
		L139.528,362.097z"/>
	<path style="fill:#F7CF40;" d="M320.126,349.071c-2.767-8.008-6.906-15.586-11.165-22.111v44.729c0,5.523-4.477,10-10,10
		c-5.523,0-10-4.477-10-10v-44.7c-4.267,6.533-8.409,14.107-11.165,22.082c-2.843,8.23-5.211,40.879-5.278,72.782
		c-0.013,6.19,1.73,7.938,2.304,8.512c4.54,4.551,19.292,4.551,24.139,4.551c4.847,0,19.599,0,24.14-4.551
		c0.573-0.574,2.317-2.321,2.304-8.512C325.337,389.95,322.968,357.3,320.126,349.071z"/>
	<path d="M169.116,116.133c32.018,0,58.066-26.053,58.066-58.076C227.182,26.044,201.134,0,169.116,0
		c-32.021,0-58.071,26.044-58.071,58.057C111.045,90.08,137.095,116.133,169.116,116.133z M207.182,58.057
		c0,20.995-17.077,38.076-38.066,38.076c-20.992,0-38.071-17.081-38.071-38.076c0-20.984,17.079-38.057,38.071-38.057
		C190.106,20,207.182,37.072,207.182,58.057z"/>
</g>
<g>
</g>
<g>
</g>
<g>
</g>
<g>
</g>
<g>
</g>
<g>
</g>
<g>
</g>
<g>
</g>
<g>
</g>
<g>
</g>
<g>
</g>
<g>
</g>
<g>
</g>
<g>
</g>
<g>
</g>
</svg>
