<?xml version="1.0" encoding="iso-8859-1"?>
<!-- Generator: Adobe Illustrator 18.0.0, SVG Export Plug-In . SVG Version: 6.00 Build 0)  -->
<!DOCTYPE svg PUBLIC "-//W3C//DTD SVG 1.1//EN" "http://www.w3.org/Graphics/SVG/1.1/DTD/svg11.dtd">
<svg version="1.1" id="Capa_1" xmlns="http://www.w3.org/2000/svg" xmlns:xlink="http://www.w3.org/1999/xlink" x="0px" y="0px"
	 viewBox="0 0 496.117 496.117" style="enable-background:new 0 0 496.117 496.117;" xml:space="preserve">
<path d="M469,351.559H255.698c59.648-15.429,108.415-57.898,132.439-113.555h35.257c40.1,0,72.723-32.623,72.723-72.722
	c0-40.1-32.623-72.723-72.723-72.723H145.333v57.558h14.388c2.75,0,6.271,1.857,7.823,4.126l12.546,18.336
	c1.553,2.27,2.824,6.377,2.824,9.127v80.963c0,2.75-2.25,5-5,5H92.752c-2.75,0-5-2.25-5-5v-80.963c0-2.75,1.271-6.857,2.824-9.127
	l12.546-18.336c1.553-2.27,5.073-4.126,7.823-4.126h14.388V92.559H18.996c-7.479,20.897-11.564,43.409-11.564,66.877
	c0,92.377,63.123,170.009,148.588,192.123H26c-14.359,0-26,11.641-26,26c0,14.359,11.641,26,26,26h443c14.359,0,26-11.641,26-26
	C495,363.199,483.359,351.559,469,351.559z M403.749,144.559h19.645c11.426,0,20.723,9.296,20.723,20.723
	c0,11.426-9.296,20.722-20.723,20.722h-20.858c1.163-8.691,1.775-17.558,1.775-26.567
	C404.311,154.43,404.114,149.471,403.749,144.559z"/>
<g>
</g>
<g>
</g>
<g>
</g>
<g>
</g>
<g>
</g>
<g>
</g>
<g>
</g>
<g>
</g>
<g>
</g>
<g>
</g>
<g>
</g>
<g>
</g>
<g>
</g>
<g>
</g>
<g>
</g>
</svg>
