<?xml version="1.0" encoding="iso-8859-1"?>
<!-- Generator: Adobe Illustrator 16.0.0, SVG Export Plug-In . SVG Version: 6.00 Build 0)  -->
<!DOCTYPE svg PUBLIC "-//W3C//DTD SVG 1.1//EN" "http://www.w3.org/Graphics/SVG/1.1/DTD/svg11.dtd">
<svg version="1.1" id="Capa_1" xmlns="http://www.w3.org/2000/svg" xmlns:xlink="http://www.w3.org/1999/xlink" x="0px" y="0px"
	 width="415.985px" height="415.985px" viewBox="0 0 415.985 415.985" style="enable-background:new 0 0 415.985 415.985;"
	 xml:space="preserve">
<g>
	<g>
		<path d="M212.188,58.081c37.966,0,68.739,30.777,68.739,68.74c0,37.96-30.773,68.737-68.739,68.737
			c-37.958,0-68.735-30.777-68.735-68.737C143.452,88.858,174.229,58.081,212.188,58.081z"/>
		<path d="M356.808,154.578c-5.174-10.864-18.17-15.471-29.034-10.293l-9.618,4.576c3.563-6.097,5.703-13.964,5.703-22.542
			c0-19.454-10.988-35.211-24.542-35.211c-2.352,0-4.62,0.501-6.776,1.399c-13.477-32.226-45.308-54.938-82.368-54.938
			c-37.782,0-70.078,23.644-83.072,56.869c-1.663,0.054-3.586,0.281-4.699,0.307c-13.551,0.353-24.141,16.376-23.656,35.811
			c0.487,19.446,11.88,34.927,25.419,34.59c3.393-0.092,6.597-1.154,9.484-3.013c0,0-0.713-0.77-1.733-2.381
			c-4.396-10.433-6.636-21.516-6.636-32.937c0-46.814,38.084-84.899,84.885-84.899c46.812,0,84.894,38.094,84.894,84.899
			c0,11.454-2.24,22.57-6.672,33.042l4.011,1.695c1.615,0.433,5.234-0.024,6.913-0.024c3.888,0,7.554-1.334,10.82-3.641
			l36.03,75.598l-47.984-25.491l3.803-15.786c1.014-4.216-1.535-8.662-5.683-9.916l-9.265-2.801
			c-4.148-1.258-9.293,0.773-11.998,4.158c-14.347,17.955-37.153,24.728-62.849,24.728c-27.194,0-51.167-8.203-65.285-28.128
			c-2.503-3.537-7.566-6.025-11.83-5.211l-14.994,2.867L9.007,258.354c-6.188,4.469-9.568,11.858-8.931,19.465
			c0.644,7.613,5.22,14.322,12.062,17.692l120.099,59.286l0.617,19.104l148.08,4.516l8.14-125.929l94.911,50.421
			c3.227,1.711,6.732,2.545,10.211,2.545c5.49,0,10.925-2.076,15.072-6.047c6.785-6.5,8.64-16.619,4.601-25.115L356.808,154.578z
			 M63.811,272.452l63.011-45.633l1.679,12.215l2.142,66.407L63.811,272.452z"/>
	</g>
</g>
<g>
</g>
<g>
</g>
<g>
</g>
<g>
</g>
<g>
</g>
<g>
</g>
<g>
</g>
<g>
</g>
<g>
</g>
<g>
</g>
<g>
</g>
<g>
</g>
<g>
</g>
<g>
</g>
<g>
</g>
</svg>
