<?xml version="1.0" encoding="iso-8859-1"?>
<!-- Generator: Adobe Illustrator 19.0.0, SVG Export Plug-In . SVG Version: 6.00 Build 0)  -->
<svg version="1.1" id="Layer_1" xmlns="http://www.w3.org/2000/svg" xmlns:xlink="http://www.w3.org/1999/xlink" x="0px" y="0px"
	 viewBox="0 0 512.001 512.001" style="enable-background:new 0 0 512.001 512.001;" xml:space="preserve">
<g>
	<g>
		<path d="M102.444,276.478c-8.436-8.509-20.924-13.388-34.259-13.388c-13.338,0-25.825,4.88-34.263,13.389
			c-3.141,3.167-3.119,8.282,0.05,11.423c1.575,1.562,3.632,2.341,5.687,2.341c2.079,0,4.157-0.798,5.736-2.39
			c5.344-5.39,13.864-8.608,22.79-8.608c8.925,0,17.444,3.217,22.788,8.607c3.142,3.167,8.256,3.189,11.423,0.048
			C105.563,284.759,105.585,279.645,102.444,276.478z"/>
	</g>
</g>
<g>
	<g>
		<path d="M88.431,305.501c-5.032-5.074-12.411-7.985-20.248-7.985s-15.216,2.911-20.249,7.986
			c-3.142,3.167-3.119,8.281,0.048,11.423c1.575,1.562,3.632,2.341,5.688,2.341c2.079,0,4.156-0.797,5.736-2.39
			c1.99-2.008,5.272-3.206,8.778-3.206s6.785,1.199,8.775,3.206c3.142,3.167,8.256,3.189,11.423,0.047
			C91.55,313.782,91.572,308.669,88.431,305.501z"/>
	</g>
</g>
<g>
	<g>
		<path d="M227.911,276.48c-8.436-8.508-20.925-13.389-34.263-13.389c-13.203,0-25.574,4.782-34.007,13.134
			c-19.853,16.986-23.748,36.174-23.51,49.305c0.225,12.406,4.151,21.821,5.295,24.31c2.505,7.775-0.766,11.117-3.468,12.959
			c-7.708,5.256-23.596,4.982-33.326-3.249c-3.407-2.881-8.503-2.457-11.384,0.949c-2.881,3.405-2.457,8.503,0.949,11.384
			c8.278,7.004,19.523,10.642,30.369,10.642c8.214,0,16.2-2.087,22.493-6.378c10.367-7.069,13.929-19.003,9.526-31.919
			c-0.121-0.355-0.267-0.702-0.436-1.037c-0.037-0.072-3.675-7.553-3.864-17.955c-0.256-14.1,5.822-26.52,18.067-36.912
			c0.177-0.15,0.346-0.306,0.508-0.471c5.345-5.39,13.864-8.607,22.789-8.607c8.926,0,17.445,3.218,22.79,8.608
			c3.141,3.167,8.255,3.19,11.423,0.049C231.03,284.762,231.052,279.647,227.911,276.48z"/>
	</g>
</g>
<g>
	<g>
		<path d="M213.9,305.502c-5.032-5.075-12.412-7.986-20.249-7.986s-15.216,2.911-20.248,7.985
			c-3.142,3.167-3.119,8.282,0.048,11.423c3.167,3.141,8.282,3.12,11.423-0.047c1.99-2.008,5.271-3.205,8.776-3.205
			s6.786,1.199,8.776,3.206c1.579,1.592,3.657,2.389,5.736,2.389c2.056,0,4.112-0.78,5.688-2.341
			C217.019,313.785,217.04,308.67,213.9,305.502z"/>
	</g>
</g>
<g>
	<g>
		<path d="M333.402,120.302c-5.31-10.741-15.61-19.322-28.259-23.544c-12.653-4.223-26.043-3.547-36.74,1.854
			c-3.982,2.011-5.581,6.868-3.569,10.851c2.011,3.983,6.868,5.58,10.851,3.57c6.776-3.422,15.876-3.777,24.343-0.951
			c8.466,2.826,15.528,8.575,18.892,15.38c1.409,2.849,4.271,4.5,7.247,4.5c1.202,0,2.423-0.269,3.573-0.838
			C333.739,129.146,335.379,124.302,333.402,120.302z"/>
	</g>
</g>
<g>
	<g>
		<path d="M310.921,143.397c-3.166-6.407-9.246-11.503-16.678-13.984c-7.432-2.481-15.355-2.057-21.736,1.165
			c-3.982,2.011-5.581,6.868-3.569,10.851c2.011,3.983,6.869,5.58,10.851,3.57c2.522-1.274,6.014-1.372,9.34-0.262
			c3.325,1.109,6.058,3.285,7.311,5.818c1.409,2.849,4.271,4.5,7.248,4.5c1.202,0,2.423-0.269,3.572-0.838
			C311.258,152.24,312.898,147.396,310.921,143.397z"/>
	</g>
</g>
<g>
	<g>
		<path d="M452.414,160.025c-5.309-10.743-15.609-19.326-28.262-23.548c-12.522-4.18-25.773-3.561-36.417,1.692
			c-36.83,14.952-42.666,48.076-40.585,64.13c-0.107,8.113-4.252,10.237-7.391,11.128c-8.972,2.546-23.96-2.743-30.582-13.632
			c-2.318-3.812-7.287-5.022-11.098-2.704c-3.812,2.318-5.023,7.287-2.704,11.098c8.133,13.374,24.353,22.053,39.312,22.05
			c3.251,0,6.446-0.41,9.481-1.271c12.072-3.425,19.229-13.615,19.142-27.262c-0.002-0.376-0.031-0.75-0.086-1.122
			c-0.012-0.08-1.094-8.327,2.019-18.254c4.221-13.457,13.918-23.313,28.823-29.294c0.214-0.086,0.425-0.181,0.631-0.285
			c6.776-3.421,15.877-3.775,24.341-0.95c8.467,2.826,15.529,8.576,18.893,15.381c1.976,3.999,6.82,5.639,10.821,3.663
			C452.75,168.868,454.39,164.024,452.414,160.025z"/>
	</g>
</g>
<g>
	<g>
		<path d="M429.934,183.12c-3.165-6.408-9.245-11.506-16.677-13.986c-7.433-2.48-15.356-2.056-21.735,1.164
			c-3.983,2.01-5.581,6.868-3.57,10.851c2.01,3.983,6.869,5.581,10.851,3.571c2.522-1.274,6.014-1.371,9.34-0.262
			c3.325,1.109,6.058,3.285,7.311,5.819c1.409,2.849,4.271,4.501,7.247,4.501c1.202,0,2.422-0.269,3.572-0.838
			C430.271,191.964,431.911,187.12,429.934,183.12z"/>
	</g>
</g>
<g>
	<g>
		<path d="M509.518,81.505c-2.251-2.161-5.543-2.834-8.461-1.726c-29.853,11.33-76.616,8.951-122.04-6.21
			c-13.041-4.352-25.602-9.599-37.34-15.596c-3.915-2-8.87-0.708-11,3.138c-2.222,4.012-0.67,9.034,3.379,11.109
			c12.533,6.422,25.94,12.031,39.847,16.673c42.429,14.16,84.966,17.834,117.46,10.564L446.57,233.66
			c-1.412,4.232,0.873,8.807,5.105,10.22c4.232,1.412,8.807-0.873,10.22-5.105l49.691-148.887
			C512.573,86.929,511.769,83.665,509.518,81.505z"/>
	</g>
</g>
<g>
	<g>
		<path d="M442.967,270.524c-4.061-1.837-8.85-0.032-10.687,4.033c-11.628,25.723-32.327,46.187-58.283,57.623
			c-26.133,11.513-55.456,12.871-82.569,3.822c-10.6-3.538-20.537-8.538-29.594-14.887v-41.361
			c13.736,0.304,29.591,3.276,45.502,8.587c21.941,7.323,41.033,18.094,52.379,29.551c1.91,1.929,4.661,2.769,7.327,2.236
			c2.663-0.534,4.879-2.369,5.899-4.887c0.338-0.836,8.181-20.714-1.568-41.865c-7.584-16.455-23.338-28.774-46.823-36.613
			c-15.583-5.201-41.698-10.374-62.717,3.004c0,0,0-48.477,0-48.548c0-6.613-8.065-10.568-13.202-6.243
			c-7.185,6.047-15.579,10.673-24.095,14.558c-1.107,0.505-8.864,2.94-9.044,3.781c0.9-4.219,2.039-8.395,3.409-12.5l54.75-164.044
			c8.201,9.581,18.627,18.936,30.775,27.567c3.638,2.584,8.681,1.73,11.263-1.907c2.584-3.637,1.73-8.68-1.907-11.263
			c-15.864-11.27-28.339-23.694-36.074-35.929c-1.667-2.638-4.706-4.078-7.801-3.703c-3.097,0.376-5.701,2.502-6.688,5.461
			l-59.642,178.702c-2.536,7.599-4.363,15.417-5.477,23.31c-20.268,5.598-43.382,8.7-67.183,8.7c-12.618,0-25.145-0.85-37.23-2.524
			c-4.422-0.613-8.498,2.474-9.11,6.892c-0.612,4.419,2.473,8.497,6.892,9.11c12.818,1.776,26.09,2.677,39.448,2.677
			c44.731,0,86.242-9.982,114.762-27.165v51.682v13.43v53.418v54.383c0,63.279-51.482,114.762-114.762,114.762
			S16.155,442.889,16.155,379.609V206.675c11.806,7.09,26.024,13.068,41.909,17.575c4.291,1.217,8.757-1.275,9.975-5.567
			c1.217-4.292-1.275-8.757-5.567-9.975c-20.256-5.745-37.299-13.957-49.285-23.747c-2.417-1.974-5.753-2.378-8.572-1.041
			C1.796,185.256,0,188.097,0,191.217v188.392c0,72.188,58.73,130.917,130.918,130.917c72.187,0,130.917-58.729,130.917-130.917
			v-39.341c7.725,4.493,15.913,8.198,24.481,11.059c13.517,4.512,27.514,6.755,41.482,6.755c17.99,0,35.93-3.724,52.714-11.119
			c29.605-13.044,53.218-36.395,66.489-65.752C448.838,277.146,447.032,272.361,442.967,270.524z M261.835,261.171
			c12.07-14.504,31.916-17.66,57.601-9.086c18.979,6.334,31.485,15.705,37.173,27.85c2.836,6.056,3.575,12.059,3.459,17.037
			c-12.692-9.428-29.346-17.859-47.616-23.957c-17.527-5.85-35.161-9.101-50.617-9.408V261.171z"/>
	</g>
</g>
<g>
	<g>
		<path d="M201.666,388.75c-0.158-2.778-1.735-5.278-4.173-6.619c-2.438-1.34-5.394-1.331-7.824,0.023
			c-14.318,7.982-35.732,12.56-58.751,12.56c-23.02,0-44.433-4.578-58.751-12.56c-2.43-1.355-5.386-1.363-7.824-0.023
			c-2.438,1.34-4.015,3.841-4.173,6.619c-0.059,1.043-1.252,25.736,16.39,44.412c12.446,13.174,30.735,19.854,54.359,19.854
			c23.625,0,41.914-6.681,54.358-19.854C202.917,414.486,201.725,389.792,201.666,388.75z M173.531,422.069
			c-9.272,9.816-23.61,14.793-42.615,14.793c-18.922,0-33.219-4.935-42.494-14.667c-5.965-6.258-9.007-13.663-10.553-19.824
			c15.102,5.47,33.676,8.499,53.048,8.499c19.396,0,37.992-3.035,53.105-8.518C182.496,408.445,179.48,415.773,173.531,422.069z"/>
	</g>
</g>
<g>
</g>
<g>
</g>
<g>
</g>
<g>
</g>
<g>
</g>
<g>
</g>
<g>
</g>
<g>
</g>
<g>
</g>
<g>
</g>
<g>
</g>
<g>
</g>
<g>
</g>
<g>
</g>
<g>
</g>
</svg>
