<?xml version="1.0" encoding="iso-8859-1"?>
<!-- Generator: Adobe Illustrator 16.0.0, SVG Export Plug-In . SVG Version: 6.00 Build 0)  -->
<!DOCTYPE svg PUBLIC "-//W3C//DTD SVG 1.1//EN" "http://www.w3.org/Graphics/SVG/1.1/DTD/svg11.dtd">
<svg version="1.1" id="Capa_1" xmlns="http://www.w3.org/2000/svg" xmlns:xlink="http://www.w3.org/1999/xlink" x="0px" y="0px"
	 width="565.794px" height="565.794px" viewBox="0 0 565.794 565.794" style="enable-background:new 0 0 565.794 565.794;"
	 xml:space="preserve">
<g>
	<g>
		<path d="M90.031,192.866C40.392,192.866,0,233.258,0,282.897c0,49.639,40.392,90.03,90.031,90.03
			c49.639,0,90.031-40.392,90.031-90.03C180.062,233.258,139.669,192.866,90.031,192.866z M129.734,325.221l-16.639-12.527
			c-1.377-1.042-4.303-1.166-5.776-0.229L85.9,325.977c-5.202,3.289-13.024,3.251-18.198-0.115l-20.607-13.358
			c-1.559-1.014-4.686-0.995-6.216,0.019l-11.217,7.392c-1.922-3.117-3.653-6.358-5.078-9.763l10.251-6.771
			c5.183-3.414,13.015-3.442,18.217-0.076l20.607,13.378c1.578,1.014,4.791,1.032,6.388,0.038l21.42-13.531
			c5.336-3.366,13.168-3.041,18.217,0.756l16.639,12.536c1.368,1.033,4.227,1.138,5.68,0.191l14.535-9.429
			c-2.63,7.172-6.35,13.799-11.026,19.67C140.416,328.998,134.095,328.51,129.734,325.221z M19.125,282.897L19.125,282.897
			c16.17-5.795,36.404-12.384,52.115-17.337c-0.105-1.157-0.095-2.304,0.153-3.49l9.696-45.613c0.325-1.53,1.014-2.869,1.865-4.103
			c2.333-0.229,4.686-0.354,7.076-0.354c16.715,0,32.073,5.853,44.208,15.559l-32.159,2.324l-5.948,28.018
			c0.21,0.191,2.715,2.429,4.102,3.538c1.081,0.879,2.171,1.769,3.194,2.696c-6.062,6.464-9.802,15.109-9.802,24.652
			c0,3.041,0.402,5.986,1.119,8.808L78.689,307.73c-0.201,0.096-2.247,0.096-2.486-0.028l-20.578-13.35
			c-6.206-4.035-16.046-3.997-22.214,0.096L21.84,302.07C20.11,295.959,19.125,289.553,19.125,282.897z M159.445,295.635
			l-18.647,12.096c0,0-0.239,0.048-0.641,0.048c-0.468,0-0.832-0.104-0.927-0.152l-16.572-12.489
			c-6.092-4.59-15.893-5.001-22.357-0.918l-0.641,0.393c-0.363-1.894-0.574-3.835-0.574-5.833c0-16.878,13.693-30.562,30.571-30.562
			c16.887,0,30.581,13.694,30.581,30.562C160.239,291.149,159.942,293.426,159.445,295.635z"/>
		<path d="M282.313,192.866c-49.639,0-90.031,40.392-90.031,90.031c0,49.639,40.392,90.03,90.031,90.03
			c49.639,0,90.031-40.392,90.031-90.03C372.345,233.258,331.952,192.866,282.313,192.866z M300.233,251.972l-10.127-15.874
			l-20.903,20.693l19.374,10.203c7.966,3.825,6.779,10.805,6.779,10.805v43.902c0,4.963-4.025,9.017-8.998,9.017
			s-8.989-4.063-8.989-9.017v-35.133l-33.593-18.666c-4.007-2.219-6.732-6.531-6.732-11.408c0-3.366,1.243-6.426,3.366-8.73
			l32.981-33.048c0.966-1.1,2.018-1.845,3.07-2.419c1.932-0.162,3.873-0.296,5.842-0.296c2.171,0,4.312,0.134,6.436,0.325
			c3.252,1.779,4.973,4.542,4.973,4.542l17.117,26.861l26.029-0.057c9.342,0,9.342,12.183,0,12.183h-30.132
			C304.46,255.902,302.013,254.774,300.233,251.972z M294.841,213.167c5.201,0.937,10.231,2.372,14.975,4.379
			c-1.205,0.296-2.458,0.469-3.758,0.469C301.63,218.016,297.671,216.141,294.841,213.167z M211.408,282.897
			c0-2.716,0.191-5.384,0.487-8.023c4.236-1.425,8.74-2.267,13.455-2.267c23.505,0,42.543,19.011,42.543,42.516
			c0,12.938-5.804,24.461-14.917,32.244C228.496,336.188,211.408,311.527,211.408,282.897z M316.949,344.709
			c-7.44-7.641-12.049-18.054-12.049-29.586c0-23.505,19.058-42.516,42.534-42.516c1.711,0,3.356,0.269,5.011,0.469
			c0.449,3.213,0.765,6.474,0.765,9.821C353.22,309.414,338.569,332.546,316.949,344.709z"/>
		<path d="M475.763,192.866c-49.639,0-90.031,40.392-90.031,90.031c0,49.639,40.393,90.03,90.031,90.03s90.031-40.392,90.031-90.03
			C565.794,233.258,525.411,192.866,475.763,192.866z M530.604,269.061c-6.444,6.436-11.638,0.975-11.638,0.975l-13.053-13.11
			l-20.387,23.582l18.694,18.675c0,0,3.921,3.653,1.674,10.921l-9.085,40.517c-5.967,1.854-12.287,2.868-18.809,3.079
			c0.047-0.307,0.038-0.642,0.124-0.938l8.597-38.298l-21.21-20.617l-18.265,20.359c0,0-2.964,3.643-10.796,3.365l-22.452,0.029
			c-3.089-5.47-5.432-11.408-6.981-17.652l24.309,0.066l47.104-54.592l-12.316-0.076l-21.382,24.709
			c-1.262,1.559-3.193,2.515-5.336,2.515c-3.834,0-6.923-3.089-6.923-6.895c0-2.094,0.898-3.93,2.323-5.202l23.046-26.545
			c1.291-1.521,3.203-2.496,5.346-2.496l33.383-0.01c2.438,0,4.628,0.985,6.244,2.544l21.296,21.295l11.025-10.997
			c2.725,4.179,4.991,8.664,6.799,13.387L530.604,269.061z M526.272,233.21c-2.238,1.157-4.725,1.903-7.421,1.903
			c-9.18,0-16.629-7.449-16.629-16.61c0-0.439,0.19-0.822,0.22-1.262C511.45,220.922,519.55,226.383,526.272,233.21z"/>
	</g>
</g>
<g>
</g>
<g>
</g>
<g>
</g>
<g>
</g>
<g>
</g>
<g>
</g>
<g>
</g>
<g>
</g>
<g>
</g>
<g>
</g>
<g>
</g>
<g>
</g>
<g>
</g>
<g>
</g>
<g>
</g>
</svg>
