<?xml version="1.0" encoding="iso-8859-1"?>
<!-- Generator: Adobe Illustrator 18.0.0, SVG Export Plug-In . SVG Version: 6.00 Build 0)  -->
<!DOCTYPE svg PUBLIC "-//W3C//DTD SVG 1.1//EN" "http://www.w3.org/Graphics/SVG/1.1/DTD/svg11.dtd">
<svg version="1.1" id="Capa_1" xmlns="http://www.w3.org/2000/svg" xmlns:xlink="http://www.w3.org/1999/xlink" x="0px" y="0px"
	 viewBox="0 0 476.472 476.472" style="enable-background:new 0 0 476.472 476.472;" xml:space="preserve">
<g>
	<path d="M456.643,58.572H254.566l0.194,76.721c5.039-1.151,10.202-1.726,15.483-1.726c38.679,0,70.143,31.479,70.143,70.158
		c0.008,18.742-7.288,36.362-20.538,49.62c-13.25,13.258-30.872,20.56-49.62,20.56c-5.265,0-10.436-0.583-15.475-1.734
		l-0.186,59.536v0.591h54.038c2.045,0,3.942,1.043,5.031,2.77c1.096,1.726,1.236,3.887,0.365,5.738
		c-3.273,6.937-5.125,14.666-5.125,22.847c0,29.961,24.301,54.247,54.249,54.247c29.969,0,54.247-24.286,54.247-54.247
		c0-8.181-1.851-15.91-5.123-22.847c-0.871-1.851-0.739-4.02,0.357-5.738c1.097-1.726,2.994-2.77,5.039-2.77h38.999
		c10.957,0,19.829-8.872,19.829-19.829V78.402C476.472,67.445,467.6,58.572,456.643,58.572z"/>
	<path d="M270.244,257.98c29.953,0,54.225-24.3,54.217-54.247c0-29.963-24.263-54.241-54.217-54.241h-0.016
		c-0.016,0-0.032,0-0.054,0c-8.165,0-15.88,1.851-22.793,5.117c-0.817,0.389-1.686,0.575-2.558,0.575
		c-1.112,0-2.217-0.311-3.188-0.925c-1.726-1.104-2.762-3.001-2.762-5.047l-0.233-90.64H19.829C8.88,58.572,0,67.445,0,78.402
		v72.064c0,2.27,1.174,4.37,3.096,5.56c1.05,0.653,2.247,0.979,3.445,0.979c0.995,0,1.997-0.226,2.916-0.685
		c7.192-3.593,15.249-5.66,23.849-5.66c30.133,0,54.567,24.432,54.567,54.565c0,30.133-24.434,54.567-54.567,54.567
		c-8.6,0-16.657-2.069-23.849-5.662c-0.925-0.459-1.921-0.691-2.924-0.691c-1.198,0-2.387,0.334-3.437,0.979
		C1.167,255.617,0,257.716,0,259.987v51.837c0,10.957,8.88,19.829,19.829,19.829h218.811l0.233-73.409
		c0-2.037,1.043-3.934,2.769-5.023c0.971-0.623,2.091-0.933,3.211-0.933c0.855,0,1.726,0.186,2.527,0.561
		c6.937,3.281,14.658,5.131,22.847,5.131H270.244z"/>
</g>
<g>
</g>
<g>
</g>
<g>
</g>
<g>
</g>
<g>
</g>
<g>
</g>
<g>
</g>
<g>
</g>
<g>
</g>
<g>
</g>
<g>
</g>
<g>
</g>
<g>
</g>
<g>
</g>
<g>
</g>
</svg>
