<?xml version="1.0" encoding="iso-8859-1"?>
<!-- Generator: Adobe Illustrator 19.0.0, SVG Export Plug-In . SVG Version: 6.00 Build 0)  -->
<svg version="1.1" id="Layer_1" xmlns="http://www.w3.org/2000/svg" xmlns:xlink="http://www.w3.org/1999/xlink" x="0px" y="0px"
	 viewBox="0 0 302.212 302.212" style="enable-background:new 0 0 302.212 302.212;" xml:space="preserve">
<g id="XMLID_1338_">
	<g>
		<g>
			<path d="M179.223,187.587c4.555,14.96,4.27,13.987,4.457,14.728c4.628,1.69,8.896,4.13,12.669,7.162l-19.168,19.168
				c-0.044-0.024-0.086-0.051-0.13-0.075l-4.044,8.991c2.181,1.488,3.616,3.992,3.616,6.825c0,4.554-3.705,8.259-8.259,8.259
				c-0.7,0-1.376-0.097-2.026-0.261l-4.048,8.998c0.387,0.139,0.78,0.262,1.178,0.374c0,9.688,0,17.498,0,27.129
				c-7.484-0.818-14.418-3.485-20.337-7.539c-5.493,1.065-10.902,0.003-15.47-2.762c-9.307-5.634-13.178-17.486-8.604-27.653
				c1.808-4.019,3.281-7.292,5.147-11.44h-0.339c0.948-8.68,4.39-16.618,9.589-23.09l0.785,0.785
				c1.052-2.339,3.976-8.839,4.95-11.003l-2.992-9.826c-15.464,10.39-25.659,28.041-25.659,48.03
				c0,31.885,25.941,57.826,57.826,57.826c31.885,0,57.825-25.941,57.825-57.826C226.189,216.212,205.935,192.684,179.223,187.587z
				 M173.259,288.884c0-9.636,0-17.435,0-27.129c1.381-0.39,2.695-0.939,3.922-1.628c7.53,7.53,12.799,12.799,19.168,19.168
				C189.878,284.494,181.94,287.936,173.259,288.884z M203.273,272.371c-7.471-7.471-12.011-12.011-19.168-19.168
				c0.69-1.226,1.239-2.541,1.629-3.922c9.688,0,17.498,0,27.128,0C211.913,257.962,208.472,265.899,203.273,272.371z
				 M185.733,239.491c-0.39-1.381-0.939-2.695-1.629-3.922c7.531-7.531,12.799-12.799,19.168-19.168
				c5.199,6.472,8.639,14.41,9.589,23.09C203.225,239.491,195.427,239.491,185.733,239.491z"/>
			<circle cx="155.486" cy="24.703" r="24.703"/>
			<path d="M239.58,107.712c-0.849-6.123-6.502-10.398-12.624-9.549l-38.348,5.318l-24.047-27.18l16.361,10.902l0.044-15.251
				c0.008-2.706-1.06-5.304-2.968-7.222c-1.908-1.919-4.5-3-7.206-3.008c-1.065-0.003-4.539-0.013-34.887-0.091
				c-2.767-0.007-6.815,0.431-10.732,1.889L99.09,73.815c-1.855,0.581-3.527,1.635-4.85,3.059L65.519,107.77
				c-4.208,4.528-3.95,11.609,0.578,15.818c4.529,4.211,11.611,3.947,15.818-0.578l26.701-28.724l16.885-7.433l0.005,45.324
				l-0.04,13.886c-1.34-0.139-2.663-0.036-3.92,0.288c-3.773,0.973-6.931,3.883-8.021,7.914c-1.613,5.967,1.917,12.112,7.884,13.725
				c7.194,1.945,4.116,1.113,17.857,4.827l10.362,34.028l-21.64,48.101c-2.734,6.077-0.024,13.22,6.053,15.954
				c6.079,2.734,13.221,0.022,15.953-6.054l23.499-52.232c1.199-2.664,1.39-5.671,0.539-8.465l-12.224-40.145
				c10.753,0.028,27.911-0.112,27.911-0.112l-4.185,15.087c8.068,2.119,15.55,5.695,22.15,10.429l9.51-34.282
				c1.005-3.623,0.264-7.508-2.005-10.506c-2.268-2.998-5.805-4.767-9.565-4.785l-24.851-0.116c0,0-9.742-0.319-13.333-9.497
				l-19.641-39.09l28.023,31.674c2.14,2.419,5.2,3.776,8.381,3.776c1.115,0-2.026,0.388,45.83-6.248
				C236.154,119.486,240.429,113.834,239.58,107.712z"/>
		</g>
	</g>
</g>
<g>
</g>
<g>
</g>
<g>
</g>
<g>
</g>
<g>
</g>
<g>
</g>
<g>
</g>
<g>
</g>
<g>
</g>
<g>
</g>
<g>
</g>
<g>
</g>
<g>
</g>
<g>
</g>
<g>
</g>
</svg>
