<?xml version="1.0" encoding="iso-8859-1"?>
<!-- Generator: Adobe Illustrator 16.0.0, SVG Export Plug-In . SVG Version: 6.00 Build 0)  -->
<!DOCTYPE svg PUBLIC "-//W3C//DTD SVG 1.1//EN" "http://www.w3.org/Graphics/SVG/1.1/DTD/svg11.dtd">
<svg version="1.1" id="Capa_1" xmlns="http://www.w3.org/2000/svg" xmlns:xlink="http://www.w3.org/1999/xlink" x="0px" y="0px"
	 width="380.722px" height="380.721px" viewBox="0 0 380.722 380.721" style="enable-background:new 0 0 380.722 380.721;"
	 xml:space="preserve">
<g>
	<path d="M206.836,94.524c0-17.132,0-94.524,0-94.524h-12.723h-7.534h-12.717c0,0,0,77.392,0,94.524s-32.207,37.929-32.207,62.346
		c0,24.411,0,201.009,0,207.236c0,6.229,4.166,16.615,13.501,16.615c6.355,0,22.012,0,31.435,0c4.45,0,7.534,0,7.534,0
		c9.423,0,25.073,0,31.429,0c9.342,0,13.513-10.387,13.513-16.615c0-6.228,0-182.826,0-207.236
		C239.066,132.453,206.836,111.667,206.836,94.524z M180.979,122.281c-2.085,2.847-4.415,6.437-6.947,10.579
		c-2.562,4.153-4.99,8.993-7.459,14.244c-0.941,2.684-1.906,5.496-2.713,8.313c-0.029,2.986-0.976,5.188-0.563,8.935
		c0.25,6.948,0.523,14.256,0.801,21.82c0.5,15.133,0.593,31.284,0.721,47.422c-0.035,32.287-1.011,64.588-2.521,88.801
		c-0.662,12.107-1.748,22.191-2.26,29.256c-0.627,7.064-1.15,11.107-1.15,11.107s-0.528-4.043-1.156-11.107
		c-0.511-7.064-1.598-17.148-2.26-29.256c-1.51-24.213-2.487-56.514-2.521-88.801c0.116-16.139,0.209-32.289,0.72-47.422
		c0.279-7.563,0.552-14.872,0.802-21.82c-0.122-3.224,1.092-7.604,1.784-11.09c1.342-3.282,2.829-6.327,4.247-9.196
		c1.726-2.638,3.358-5.165,4.926-7.564c1.784-2.19,3.474-4.258,5.054-6.222c3.288-3.788,6.21-6.989,8.761-9.487
		c5.042-5.042,8.278-7.517,8.278-7.517S184.999,116.5,180.979,122.281z"/>
</g>
<g>
</g>
<g>
</g>
<g>
</g>
<g>
</g>
<g>
</g>
<g>
</g>
<g>
</g>
<g>
</g>
<g>
</g>
<g>
</g>
<g>
</g>
<g>
</g>
<g>
</g>
<g>
</g>
<g>
</g>
</svg>
