<?xml version="1.0" encoding="iso-8859-1"?>
<!-- Generator: Adobe Illustrator 16.0.0, SVG Export Plug-In . SVG Version: 6.00 Build 0)  -->
<!DOCTYPE svg PUBLIC "-//W3C//DTD SVG 1.1//EN" "http://www.w3.org/Graphics/SVG/1.1/DTD/svg11.dtd">
<svg version="1.1" id="Capa_1" xmlns="http://www.w3.org/2000/svg" xmlns:xlink="http://www.w3.org/1999/xlink" x="0px" y="0px"
	 width="34.234px" height="34.234px" viewBox="0 0 34.234 34.234" style="enable-background:new 0 0 34.234 34.234;"
	 xml:space="preserve">
<g>
	<path d="M19.952,31.964c-0.397,0.067-0.016,0.364-1.564,0.831c-1.548,0.467-3.205-0.239-2.991,0.064
		c0.214,0.303,0.53,0.662,0.254,0.67c-0.276,0.006-1.371,0.032-1.693,0c-0.323-0.034-1.086-0.819-1.553-0.777
		c-0.174,0.017-0.127,0.658-0.127,0.658h-0.637c0,0-0.089-0.979-0.297-1.104S8.517,30.63,8.79,30.269
		c0.1-0.131,0.803-0.643,1.302-1.295c0.344-0.448-0.642-0.66-0.106-1.039c0.87-0.614,2.17-2.012,2.61-2.524
		c0.506-0.591,0.377-1.716,0.891-2.674c0.616-1.146,1.04-2.06,0.955-3.48c-0.102-1.7,1.188-2.949,1.231-3.787
		c0.022-0.446-0.554-1.72-0.77-1.81c-0.104-0.043-0.57,0.032-1.023-0.005c-0.49-0.04-0.969-0.192-1.07-0.228
		c-0.193-0.069-1.72,0.948-1.784,1.14c-0.064,0.192,0,2.439,0.021,2.61c0.021,0.17-0.658,0.959-0.701,1.124
		c-0.042,0.165-0.021,0.457-0.159,0.627c-0.138,0.17-0.266-0.52-0.266-0.52s-1.655,0.509-1.846,0.339s1.157-0.446,1.061-0.594
		c-0.095-0.147-0.997-0.201-1.125-0.224c-0.128-0.021-0.182-0.245-0.171-0.394c0.011-0.147,0.542,0,1.147-0.17
		c0.281-0.079,1.029-0.267,1.104-0.467c0.075-0.201-0.318-2.473-0.255-2.737c0.064-0.265,2.122-1.974,1.995-2.079
		c-0.127-0.106-0.453-0.639-0.151-0.95c0.399-0.411,1.584-1.13,1.892-0.978c0.31,0.153,0.651,0.162,0.87,0.039
		c0.273-0.154,0.547-0.531,0.561-0.656c0.023-0.225-0.171-1.146-0.366-1.295s-0.238-0.917-0.152-1.157
		c0.085-0.241,0.131-0.518,0.371-0.997c0.276-0.553,0.87-0.859,1.509-0.771c-0.185-0.188-0.362-0.501-0.756-0.875
		c-0.661-0.63-1.588-1.363-1.703-1.482c-0.186-0.194,0.004-1.005-0.005-1.148c-0.01-0.144-0.732-0.727-0.493-0.745
		c0.238-0.02,0.566,0.354,0.731,0.332c0.165-0.022,0.343-0.201,0.343-0.201s-0.089-1.318,0.023-1.189
		c0.113,0.129,0.455,0.959,0.53,1.159c0.075,0.199,0.579,0.195,0.656,0.293c0.077,0.098-0.677,0.096-0.523,0.271
		c0.154,0.175,0.922-0.097,1.063,0.066c0.142,0.163-0.793,0.239-0.872,0.429c-0.079,0.19-0.683,0.519-0.557,0.567
		c0.126,0.05,2.08,0.79,2.716,1.649c0.336,0.454,0.375,2.993,0.521,3.332c0.146,0.339,1.124,1.536,1.375,2.07
		c0.289,0.614,0.253,1.344,0.238,2.019c-0.016,0.675-0.56,5.529-0.155,6.645c0.438,1.214,3.304,4.672,3.792,6.158
		c0.217,0.659,0.312,1.37,0.955,2.291c0.33,0.474,0.742,0.635,1.125,1.082c0.55,0.646,1.029,1.518,1.026,1.677
		c-0.008,0.488-0.198,0.765-0.688,1.188s-1.511,0.64-1.838,0.628c-0.327-0.014-0.284,0.581-0.582,0.814
		c-0.297,0.233-1.444,0.073-1.4,0.254c0.044,0.183,0.255,0.997,0.233,1.295s-0.693,0.382-0.85,0.318
		c-0.155-0.062-0.847-0.298-0.869-0.688c-0.022-0.392-0.063-1.096-0.063-1.096S20.348,31.896,19.952,31.964z"/>
</g>
<g>
</g>
<g>
</g>
<g>
</g>
<g>
</g>
<g>
</g>
<g>
</g>
<g>
</g>
<g>
</g>
<g>
</g>
<g>
</g>
<g>
</g>
<g>
</g>
<g>
</g>
<g>
</g>
<g>
</g>
</svg>
