<?xml version="1.0" encoding="iso-8859-1"?>
<!-- Generator: Adobe Illustrator 16.0.0, SVG Export Plug-In . SVG Version: 6.00 Build 0)  -->
<!DOCTYPE svg PUBLIC "-//W3C//DTD SVG 1.1//EN" "http://www.w3.org/Graphics/SVG/1.1/DTD/svg11.dtd">
<svg version="1.1" id="Capa_1" xmlns="http://www.w3.org/2000/svg" xmlns:xlink="http://www.w3.org/1999/xlink" x="0px" y="0px"
	 width="584.628px" height="584.628px" viewBox="0 0 584.628 584.628" style="enable-background:new 0 0 584.628 584.628;"
	 xml:space="preserve">
<g>
	<g>
		<path d="M282.974,229.659c2.026,0,4.052-0.006,6.083,0.006c0.379,0,0.612-0.098,0.477-0.508c-0.281-0.826-0.587-1.646-0.899-2.46
			c-0.123-0.318-0.367-0.41-0.71-0.41c-3.256,0.012-6.512,0.012-9.768,0c-0.398,0-0.636,0.141-0.765,0.49
			c-0.275,0.759-0.563,1.518-0.802,2.289c-0.171,0.563-0.128,0.594,0.459,0.594C279.021,229.659,280.998,229.659,282.974,229.659z"
			/>
		<path d="M412.394,125.411l2.203-2.509l3.305,0.496c2.191,0.331,44.033,6.714,77.547,19.792
			c-14.278-8.28-48.581-25.937-99.493-37.913c0,0-47.289,13.507-86.562,17.057c-0.122-1.059-0.184-2.087-0.171-3.066
			c0.012-1.083,0.128-2.105,0.287-3.097c2.467-14.951,21.316-19.7,35.16-26.035c13.653-6.249,23.892-20.691,22.503-35.826
			c-1.433-15.588-25.925-15.722-24.48,0c1.053,11.512-11.597,15.441-20.392,18.8c-9.241,3.525-17.442,7.663-24.792,14.376
			c-8.2,7.491-12.056,18.403-12.576,29.395c-0.049,1.022-0.073,2.038-0.061,3.054c0.012,1.028,0.049,2.05,0.116,3.072
			c-40.698-1.836-96.329-17.729-96.329-17.729c-50.918,11.983-85.221,29.633-99.493,37.914
			c33.52-13.079,75.355-19.462,77.546-19.792l3.305-0.496l2.203,2.509c33.611,38.293,83.336,50.912,83.832,51.035l12.381,3.054
			l-10.123,7.748c-13.984,10.698-22.001,26.922-22.001,44.505c0,30.875,25.123,55.998,55.998,55.998
			c30.875,0,55.998-25.123,55.998-55.998c0-17.583-8.018-33.801-22.001-44.505l-10.147-7.766l12.411-3.042
			C329.063,176.323,378.69,163.813,412.394,125.411z M342.938,231.079c0,27.919-22.711,50.625-50.625,50.625
			c-27.913,0-50.63-22.711-50.63-50.625c0-27.914,22.711-50.625,50.63-50.625C320.232,180.454,342.938,203.159,342.938,231.079z"/>
		<path d="M297.76,235.038c1.664,0.024,3.329,0.012,4.994,0.012c1.664,0,3.329-0.006,4.993,0.006c0.331,0,0.515-0.104,0.668-0.398
			c0.495-0.967,0.813-1.977,0.942-3.066c0.201-1.763-0.159-3.384-0.985-4.933c-0.147-0.269-0.325-0.373-0.631-0.373
			c-3.329,0.006-6.658,0-9.987,0.019c-0.196,0-0.483,0.159-0.575,0.33c-1.47,2.693-1.47,5.41-0.013,8.109
			C297.252,234.91,297.558,235.032,297.76,235.038z"/>
		<path d="M277.503,234.861c0.061,0.11,0.275,0.184,0.416,0.184c3.409,0.012,6.818,0.012,10.221,0c0.141,0,0.355-0.074,0.416-0.184
			c0.557-0.955,0.887-1.983,1.01-3.134c-4.394,0-8.715,0-13.079,0C276.616,232.872,276.946,233.906,277.503,234.861z"/>
		<path d="M247.796,231.079c0,24.541,19.97,44.504,44.511,44.504c24.541,0,44.504-19.969,44.504-44.504
			s-19.964-44.505-44.504-44.505C267.766,186.574,247.796,206.538,247.796,231.079z M270.067,237.058c-0.146,0-0.3-0.122-0.428-0.22
			c-1.977-1.518-3.954-3.036-5.924-4.565c-0.3-0.239-0.508-0.245-0.813-0.006c-1.922,1.505-3.856,2.999-5.808,4.474
			c-0.257,0.189-0.618,0.306-0.942,0.318c-0.838,0.043-1.683,0.012-2.681,0.012c2.791-2.166,5.459-4.241,8.195-6.371
			c-2.754-2.142-5.453-4.235-8.256-6.414c1.138,0,2.16-0.012,3.176,0.012c0.141,0,0.288,0.147,0.416,0.245
			c1.989,1.53,3.978,3.06,5.955,4.608c0.288,0.226,0.483,0.232,0.777,0.006c1.952-1.524,3.917-3.029,5.888-4.529
			c0.189-0.147,0.477-0.239,0.716-0.245c0.906-0.031,1.818-0.012,2.729-0.012c0.012,0.031,0.024,0.067,0.037,0.098
			c-2.699,2.057-5.398,4.119-8.17,6.23c2.754,2.117,5.459,4.198,8.286,6.371C272.081,237.064,271.071,237.076,270.067,237.058z
			 M290.906,231.323c0.789,0.312,0.71,0.845,0.588,1.505c-0.264,1.408-0.723,2.718-1.634,3.844
			c-0.227,0.281-0.478,0.404-0.851,0.404c-1.995-0.019-3.99-0.006-5.985-0.006c-2.013,0-4.027,0.013-6.04-0.012
			c-0.245-0.006-0.545-0.146-0.71-0.324c-1.016-1.12-1.463-2.509-1.689-3.966c-0.165-1.077-0.128-1.083-1.218-1.083
			c-0.783,0-0.783,0-0.783-0.777c0-1.23,0-1.242,1.261-1.236c0.41,0,0.594-0.067,0.655-0.557c0.171-1.353,0.52-2.668,1.292-3.825
			c0.184-0.275,0.373-0.557,0.612-0.783c0.135-0.128,0.373-0.214,0.569-0.214c4.027-0.012,8.048-0.019,12.075,0.006
			c0.257,0,0.575,0.172,0.747,0.368c0.93,1.04,1.401,2.313,1.676,3.666c0.019,0.098,0.031,0.196,0.056,0.294
			c0.184,0.857,0.184,0.857-0.557,1.297C290.587,230.142,290.508,231.164,290.906,231.323z M312.938,224.365
			c0.532,0,1.077,0.055,1.597-0.012c1.102-0.147,1.959,0.245,2.804,0.937c1.615,1.328,3.305,2.564,4.951,3.862
			c0.3,0.232,0.489,0.208,0.776-0.019c1.94-1.512,3.893-3.011,5.852-4.492c0.208-0.153,0.501-0.257,0.759-0.269
			c0.894-0.031,1.793-0.012,2.754,0.085c-2.699,2.062-5.404,4.119-8.171,6.236c2.761,2.118,5.46,4.198,8.281,6.371
			c-1.157,0-2.167,0.012-3.171-0.012c-0.146,0-0.3-0.128-0.428-0.227c-1.971-1.524-3.947-3.048-5.906-4.584
			c-0.275-0.214-0.446-0.232-0.729-0.006c-1.958,1.542-3.929,3.066-5.911,4.578c-0.19,0.147-0.478,0.232-0.717,0.245
			c-0.911,0.03-1.817,0.012-2.729,0.012c-0.006-0.037-0.018-0.074-0.024-0.11c2.675-2.069,5.355-4.137,8.104-6.261
			c-2.748-2.111-5.429-4.168-8.109-6.224C312.925,224.438,312.931,224.402,312.938,224.365z M294.455,227.541
			c0.281-1.052,0.74-2.032,1.487-2.839c0.165-0.178,0.477-0.318,0.722-0.325c4.058-0.018,8.115-0.018,12.173,0
			c0.257,0,0.575,0.166,0.753,0.361c1.053,1.181,1.529,2.631,1.738,4.162c0.244,1.775,0.189,3.556-0.404,5.251
			c-0.306,0.875-0.851,1.671-1.31,2.491c-0.184,0.318-0.483,0.441-0.882,0.435c-1.995-0.024-3.99-0.012-5.985-0.012
			c-1.977,0-3.959-0.012-5.937,0.012c-0.434,0.006-0.709-0.153-0.967-0.471c-0.991-1.23-1.469-2.662-1.677-4.192
			C293.941,230.772,294.026,229.139,294.455,227.541z"/>
		<circle cx="455.943" cy="282.787" r="15.747"/>
		<path d="M371.328,302.45c-18.36,0-33.299,14.934-33.299,33.293c0,18.36,14.938,33.299,33.299,33.299s33.299-14.938,33.299-33.299
			S389.688,302.45,371.328,302.45z"/>
		<circle cx="507.431" cy="321.067" r="11.714"/>
		<path d="M236.144,306.961c-1.958-2.02-4.131-3.807-6.457-5.397c-3.556-2.442-7.448-4.407-11.659-5.644v1.273v3.25v23.66h28.183
			C244.308,317.598,240.777,311.747,236.144,306.961z"/>
		<path d="M499.934,223.055c-8.678,0-15.746,7.062-15.746,15.741c0,8.684,7.062,15.747,15.746,15.747
			c8.685,0,15.741-7.062,15.741-15.747C515.675,230.124,508.618,223.055,499.934,223.055z"/>
		<circle cx="101.755" cy="335.75" r="8.133"/>
		<circle cx="70.243" cy="300.584" r="8.134"/>
		<circle cx="462.663" cy="355.095" r="11.72"/>
		<path d="M194.761,295.927c-13.458,3.953-24.229,14.719-28.183,28.183h28.183V295.927z"/>
		<path d="M194.761,375.572V347.39h-28.183C170.531,360.854,181.303,371.619,194.761,375.572z"/>
		<path d="M218.035,375.572c13.464-3.953,24.229-14.719,28.183-28.183h-28.183V375.572z"/>
		<path d="M217.19,330.229c-2.907,0-5.275-2.369-5.275-5.27v-27.026v-3.286v-0.019c-0.019,0-0.037,0-0.055-0.006
			c-2.65-0.349-5.306-0.355-7.962-0.196c-1.01,0.062-2.013,0.067-3.023,0.202v30.331c0,2.907-2.362,5.27-5.27,5.27h-30.331
			c-0.251,1.836-0.374,3.684-0.374,5.514c0,1.842,0.123,3.69,0.374,5.521h30.331c2.907,0,5.27,2.368,5.27,5.27v30.33
			c3.678,0.49,7.368,0.49,11.034,0v-30.33c0-2.907,2.369-5.27,5.275-5.27h30.331c0.245-1.842,0.373-3.69,0.373-5.521
			s-0.128-3.678-0.373-5.514H217.19L217.19,330.229z"/>
		<path d="M126.92,205.503c-7.889,0-15.135,2.772-20.845,7.375c-0.777,0.625-1.518,1.292-2.234,1.983
			c-0.741,0.709-1.438,1.456-2.111,2.233c-5.037,5.833-8.103,13.415-8.103,21.708c0,18.36,14.939,33.299,33.299,33.299
			c8.972,0,17.105-3.58,23.097-9.37c0.734-0.71,1.432-1.457,2.099-2.228c0.624-0.722,1.206-1.475,1.763-2.246
			c3.965-5.483,6.334-12.191,6.334-19.455C160.219,220.442,145.28,205.503,126.92,205.503z"/>
		<path d="M411.959,223.055c-8.679,0-15.747,7.062-15.747,15.741c0,8.684,7.062,15.747,15.747,15.747s15.74-7.062,15.74-15.747
			C427.699,230.124,420.644,223.055,411.959,223.055z"/>
		<path d="M455.949,210.558c8.679,0,15.741-7.062,15.741-15.747c0-8.678-7.062-15.741-15.741-15.741
			c-8.678,0-15.746,7.062-15.746,15.741C440.203,203.496,447.265,210.558,455.949,210.558z"/>
		<path d="M515.044,159.444c-1.347-0.838-2.767-1.658-4.223-2.46c-1.469-0.814-2.993-1.61-4.565-2.387
			c-34.052-16.873-89.267-25.147-89.267-25.147c-35.367,40.294-86.971,52.938-86.971,52.938
			c14.834,11.353,24.406,29.242,24.406,49.364c0,34.309-27.81,62.118-62.118,62.118c-34.309,0-62.118-27.81-62.118-62.118
			c0-20.123,9.566-38.012,24.407-49.364c0,0-51.604-12.644-86.971-52.938c0,0-55.208,8.274-89.267,25.147
			c-1.573,0.777-3.09,1.573-4.565,2.393c-1.45,0.802-2.876,1.622-4.217,2.46c0,0-0.955,1.964-2.595,5.514
			c-15.012,32.497-89.75,203.257-60.086,321.319c10.227,40.691,27.589,55.777,46.781,55.777c42.57,0,94.156-74.156,96.935-107.485
			c0,0,38.954-20.82,141.702-20.82s141.703,20.82,141.703,20.82c2.778,33.323,54.363,107.485,96.935,107.485
			c19.198,0,36.555-15.073,46.781-55.777c29.669-118.062-45.074-288.822-60.087-321.319
			C515.999,161.409,515.044,159.444,515.044,159.444z M70.243,314.837c-7.858,0-14.253-6.395-14.253-14.253
			s6.395-14.254,14.253-14.254c7.858,0,14.253,6.396,14.253,14.254S78.101,314.837,70.243,314.837z M101.755,350.003
			c-7.858,0-14.253-6.396-14.253-14.254c0-7.857,6.389-14.247,14.253-14.247s14.253,6.39,14.253,14.247
			C116.008,343.607,109.613,350.003,101.755,350.003z M155.029,266.391c-7.154,7.289-17.105,11.83-28.109,11.83
			c-21.738,0-39.419-17.687-39.419-39.418c0-10.202,3.929-19.48,10.312-26.488c0.692-0.759,1.414-1.499,2.161-2.203
			c0.734-0.691,1.481-1.365,2.264-1.995c6.763-5.447,15.343-8.727,24.682-8.727c21.738,0,39.419,17.681,39.419,39.413
			c0,8.623-2.815,16.579-7.528,23.072c-0.557,0.765-1.114,1.524-1.72,2.246C156.431,264.904,155.746,265.663,155.029,266.391z
			 M253.831,341.27l-0.71,3.647l-0.483,2.473h-0.196c-4.278,17.025-17.381,30.135-34.407,34.406v0.19l-2.405,0.471
			c-0.025,0.006-0.043,0.013-0.067,0.019l-3.647,0.704v-0.178c-1.836,0.214-3.678,0.361-5.514,0.361s-3.678-0.147-5.521-0.361v0.178
			l-3.647-0.704c-0.024-0.006-0.043-0.013-0.067-0.019l-2.405-0.465v-0.196c-17.02-4.271-30.128-17.374-34.4-34.406h-0.189
			l-0.484-2.473l-0.709-3.647h0.177c-0.214-1.836-0.355-3.678-0.355-5.521c0-1.836,0.141-3.678,0.355-5.514h-0.177l0.709-3.647
			l0.484-2.473h0.189c4.235-16.86,17.13-29.866,33.911-34.272c0.165-0.043,0.324-0.092,0.49-0.135v-0.196l2.405-0.465
			c0.024-0.006,0.043-0.013,0.067-0.019l1.598-0.312l2.05-0.398v0.178c1.157-0.135,2.313-0.208,3.477-0.257
			c2.521-0.11,5.049-0.037,7.558,0.257v-0.171l3.647,0.704c0.024,0.006,0.043,0.012,0.067,0.019l2.405,0.471v0.189
			c8.525,2.143,16.132,6.396,22.087,12.369c1.261,1.267,2.387,2.656,3.5,4.058c1.01,1.272,1.916,2.619,2.797,3.99
			c2.705,4.241,4.749,8.936,6.016,13.99h0.196l0.483,2.473l0.71,3.647h-0.177c0.214,1.842,0.361,3.685,0.361,5.514
			c0,1.836-0.141,3.679-0.361,5.521H253.831L253.831,341.27z M371.328,375.168c-21.738,0-39.419-17.687-39.419-39.419
			c0-10.422,4.095-19.884,10.716-26.934c1.72-1.836,3.617-3.501,5.655-4.976c5.729-4.144,12.589-6.787,20.043-7.351
			c0.991-0.073,1.989-0.153,2.999-0.153c1.529,0,3.041,0.11,4.528,0.282c19.608,2.252,34.891,18.929,34.891,39.138
			C410.747,357.481,393.066,375.168,371.328,375.168z M411.959,260.669c-12.057,0-21.867-9.811-21.867-21.867
			c0-12.057,9.811-21.861,21.867-21.861s21.86,9.81,21.86,21.861C433.819,250.858,424.016,260.669,411.959,260.669z
			 M455.949,172.951c12.057,0,21.86,9.811,21.86,21.861c0,12.062-9.81,21.867-21.86,21.867c-12.057,0-21.866-9.811-21.866-21.867
			C434.083,182.755,443.887,172.951,455.949,172.951z M434.083,282.787c0-12.057,9.81-21.861,21.866-21.861
			s21.86,9.811,21.86,21.861c0,12.063-9.81,21.867-21.86,21.867C443.887,304.653,434.083,294.85,434.083,282.787z M462.663,372.935
			c-9.835,0-17.834-8.005-17.834-17.84c0-9.829,7.999-17.834,17.834-17.834s17.834,8.005,17.834,17.834
			C480.497,364.93,472.498,372.935,462.663,372.935z M507.431,338.901c-9.835,0-17.834-8.005-17.834-17.834
			c0-9.828,7.999-17.834,17.834-17.834s17.834,8.006,17.834,17.834C525.265,330.896,517.266,338.901,507.431,338.901z
			 M499.934,260.669c-12.057,0-21.866-9.811-21.866-21.867c0-12.057,9.81-21.861,21.866-21.861s21.861,9.81,21.861,21.861
			C521.795,250.858,511.99,260.669,499.934,260.669z"/>
	</g>
</g>
<g>
</g>
<g>
</g>
<g>
</g>
<g>
</g>
<g>
</g>
<g>
</g>
<g>
</g>
<g>
</g>
<g>
</g>
<g>
</g>
<g>
</g>
<g>
</g>
<g>
</g>
<g>
</g>
<g>
</g>
</svg>
