<?xml version="1.0" encoding="iso-8859-1"?>
<!-- Generator: Adobe Illustrator 19.0.0, SVG Export Plug-In . SVG Version: 6.00 Build 0)  -->
<svg version="1.1" id="Capa_1" xmlns="http://www.w3.org/2000/svg" xmlns:xlink="http://www.w3.org/1999/xlink" x="0px" y="0px"
	 viewBox="0 0 60 60" style="enable-background:new 0 0 60 60;" xml:space="preserve">
<g>
	<g>
		<g>
			<path d="M56,48h-5H37v-1h13c0.007-0.001,0.014-0.001,0.02,0c0.552,0,1-0.447,1-1c0-0.219-0.07-0.421-0.189-0.585L40.745,23.643
				C36.268,31.506,29.876,39.705,19.32,47H35v1H10c-0.351,0-0.677,0.185-0.857,0.485L6.434,53h44.769
				c0.385-0.978,0.641-1.992,0.745-3H56c0.552,0,1-0.447,1-1S56.552,48,56,48z"/>
			<path d="M9,43h6.986L30.223,8.168C30.552,7.363,31.208,6.76,32,6.479V5c0-0.45-0.301-0.845-0.735-0.964
				c-0.434-0.121-0.895,0.066-1.125,0.453l-22,37c-0.184,0.309-0.188,0.692-0.01,1.005S8.641,43,9,43z"/>
			<path d="M17.012,46.13c11.516-7.66,18.145-16.428,22.69-24.739l-3.758-8.112C35.97,13.189,36,13.099,36,13V1c0-0.553-0.448-1-1-1
				c-0.552,0-1,0.447-1,1v8.083l-0.093-0.2c-0.167-0.36-0.506-0.603-0.93-0.58c-0.397,0.01-0.752,0.253-0.903,0.622l-15,36.697
				C17.007,45.785,16.989,45.96,17.012,46.13z"/>
			<path d="M3.143,58.485c-0.186,0.309-0.19,0.693-0.013,1.008C3.307,59.807,3.64,60,4,60h38c3.479,0,6.417-2.151,8.191-5H5.234
				L3.143,58.485z"/>
		</g>
	</g>
</g>
<g>
</g>
<g>
</g>
<g>
</g>
<g>
</g>
<g>
</g>
<g>
</g>
<g>
</g>
<g>
</g>
<g>
</g>
<g>
</g>
<g>
</g>
<g>
</g>
<g>
</g>
<g>
</g>
<g>
</g>
</svg>
