<?xml version="1.0" encoding="UTF-8" standalone="no"?>
<!DOCTYPE svg PUBLIC "-//W3C//DTD SVG 1.1//EN" "http://www.w3.org/Graphics/SVG/1.1/DTD/svg11.dtd">
<svg width="100%" height="100%" viewBox="0 0 1426 473" version="1.1" xmlns="http://www.w3.org/2000/svg" xmlns:xlink="http://www.w3.org/1999/xlink" xml:space="preserve" style="fill-rule:evenodd;clip-rule:evenodd;stroke-linejoin:round;stroke-miterlimit:1.41421;">
    <g transform="matrix(1,0,0,1,-5899.52,-12435.4)">
        <g transform="matrix(1,0,0,1,800.52,64.7185)">
            <path d="M6498.54,12645C6493.16,12650.9 6484.44,12652.2 6477.53,12648.3C6475.33,12647 6472.94,12645.9 6470.35,12645C6463.08,12642.4 6456.2,12641.2 6449.71,12641.2C6445.91,12641.2 6442,12641.6 6437.97,12642.5C6433.94,12643.4 6430.14,12644.8 6426.56,12646.7C6422.98,12648.6 6420.07,12651.1 6417.83,12654.2C6415.6,12657.4 6414.48,12661.2 6414.48,12665.7C6414.48,12672.8 6417.16,12678.3 6422.53,12682.1C6427.9,12685.9 6434.67,12689.1 6442.84,12691.8C6451,12694.5 6459.78,12697.2 6469.18,12699.9C6478.57,12702.6 6487.36,12706.4 6495.52,12711.3C6503.69,12716.2 6510.45,12722.8 6515.82,12731.1C6521.19,12739.4 6523.88,12750.4 6523.88,12764.3C6523.88,12777.5 6521.42,12789 6516.49,12798.9C6511.57,12808.7 6504.92,12816.9 6496.53,12823.4C6488.14,12829.9 6478.41,12834.7 6467.33,12837.8C6456.26,12840.9 6444.57,12842.5 6432.26,12842.5C6416.83,12842.5 6402.51,12840.2 6389.31,12835.5C6381.91,12832.8 6374.78,12829.3 6367.94,12824.8C6363.78,12822.1 6361.02,12817.7 6360.4,12812.7C6359.77,12807.8 6361.34,12802.8 6364.69,12799.1C6368.88,12794.5 6373.58,12789.4 6377.75,12784.8C6383.64,12778.3 6393.49,12777.3 6400.51,12782.6C6403.41,12784.8 6406.56,12786.7 6409.95,12788.3C6418.11,12792.2 6426.56,12794.2 6435.28,12794.2C6439.53,12794.2 6443.84,12793.7 6448.2,12792.7C6452.57,12791.7 6456.48,12790.2 6459.95,12788.1C6463.42,12786.1 6466.21,12783.6 6468.34,12780.4C6470.46,12777.3 6471.53,12773.6 6471.53,12769.3C6471.53,12762.2 6468.79,12756.5 6463.31,12752.4C6457.82,12748.3 6450.94,12744.7 6442.67,12741.8C6434.39,12738.9 6425.44,12736 6415.82,12733.1C6406.2,12730.2 6397.25,12726.3 6388.98,12721.4C6380.7,12716.4 6373.82,12710 6368.34,12701.9C6362.86,12693.8 6360.11,12683.2 6360.11,12670C6360.11,12657.3 6362.63,12646.1 6367.66,12636.5C6372.7,12626.8 6379.41,12618.8 6387.8,12612.3C6396.19,12605.8 6405.86,12600.9 6416.83,12597.7C6427.79,12594.5 6439.09,12592.8 6450.72,12592.8C6464.14,12592.8 6477.12,12594.7 6489.65,12598.5C6495.38,12600.3 6500.86,12602.6 6506.07,12605.4C6510.69,12607.9 6513.91,12612.3 6514.79,12617.5C6515.67,12622.7 6514.11,12628 6510.57,12631.8C6506.64,12636.2 6502.34,12640.9 6498.54,12645ZM5283.98,12405.6C5283.98,12410.1 5282.18,12414.4 5278.99,12417.6C5275.8,12420.8 5271.47,12422.6 5266.96,12422.6C5256.98,12422.6 5244.42,12422.6 5234.45,12422.6C5225.05,12422.6 5217.43,12430.2 5217.43,12439.6C5217.43,12473.3 5217.43,12548.2 5217.43,12581.9C5217.43,12591.3 5225.05,12598.9 5234.45,12598.9C5242.22,12598.9 5251.41,12598.9 5259.18,12598.9C5268.58,12598.9 5276.19,12606.5 5276.19,12615.9C5276.19,12620.5 5276.19,12625.5 5276.19,12630.2C5276.19,12634.7 5274.4,12639 5271.21,12642.2C5268.02,12645.4 5263.69,12647.2 5259.18,12647.2C5239.17,12647.2 5206.17,12647.2 5186.16,12647.2C5181.65,12647.2 5177.32,12649 5174.13,12652.2C5170.94,12655.4 5169.15,12659.7 5169.15,12664.2C5169.15,12668.8 5169.15,12673.9 5169.15,12678.5C5169.15,12683 5170.94,12687.3 5174.13,12690.5C5177.32,12693.7 5181.65,12695.5 5186.16,12695.5C5204.33,12695.5 5232.96,12695.5 5251.13,12695.5C5255.64,12695.5 5259.97,12697.3 5263.16,12700.5C5266.35,12703.7 5268.14,12708 5268.14,12712.5C5268.14,12717.2 5268.14,12722.2 5268.14,12726.8C5268.14,12731.3 5266.35,12735.7 5263.16,12738.9C5259.97,12742.1 5255.64,12743.8 5251.13,12743.8C5232.96,12743.8 5204.33,12743.8 5186.16,12743.8C5181.65,12743.8 5177.32,12745.6 5174.13,12748.8C5170.94,12752 5169.15,12756.3 5169.15,12760.9C5169.15,12777.5 5169.15,12802.8 5169.15,12819.5C5169.15,12828.8 5161.53,12836.5 5152.13,12836.5C5146.26,12836.5 5139.68,12836.5 5133.81,12836.5C5124.41,12836.5 5116.8,12828.8 5116.8,12819.5C5116.8,12775.7 5116.8,12659.6 5116.8,12615.9C5116.8,12606.5 5124.41,12598.9 5133.81,12598.9C5138.73,12598.9 5144.11,12598.9 5149.03,12598.9C5158.42,12598.9 5166.04,12591.3 5166.04,12581.9C5166.04,12548.2 5166.04,12473.3 5166.04,12439.6C5166.04,12430.2 5158.42,12422.6 5149.03,12422.6C5139.05,12422.6 5126.49,12422.6 5116.51,12422.6C5112,12422.6 5107.67,12420.8 5104.48,12417.6C5101.29,12414.4 5099.5,12410.1 5099.5,12405.6C5099.5,12401.8 5099.5,12397.9 5099.5,12394.1C5099.5,12384.7 5107.12,12377.1 5116.51,12377.1C5151.64,12377.1 5231.83,12377.1 5266.96,12377.1C5276.36,12377.1 5283.98,12384.7 5283.98,12394.1C5283.98,12397.9 5283.98,12401.8 5283.98,12405.6ZM5328.77,12598.9C5332.19,12598.9 5335.27,12596.8 5336.52,12593.6C5337.76,12590.4 5336.93,12586.8 5334.42,12584.5C5333.96,12584 5333.51,12583.6 5333.06,12583.2C5333.06,12583.2 5333.06,12583.2 5333.06,12583.2C5321.86,12572.5 5313.13,12559.6 5306.87,12544.5C5306.87,12544.5 5306.87,12544.5 5306.87,12544.5C5300.61,12529.3 5297.48,12512.4 5297.48,12493.7C5297.48,12493.7 5297.48,12493.7 5297.48,12493.7C5297.48,12475.1 5300.61,12458.2 5306.87,12443C5306.87,12443 5306.87,12443 5306.87,12443C5313.13,12427.9 5321.86,12415 5333.06,12404.3C5333.06,12404.3 5333.06,12404.3 5333.06,12404.3C5344.26,12393.7 5357.55,12385.5 5372.92,12379.8C5372.92,12379.8 5372.92,12379.8 5372.92,12379.8C5388.29,12374.1 5405.09,12371.2 5423.32,12371.2C5423.32,12371.2 5423.32,12371.2 5423.32,12371.2C5441.55,12371.2 5458.35,12374.1 5473.72,12379.8C5473.72,12379.8 5473.72,12379.8 5473.72,12379.8C5489.1,12385.5 5502.38,12393.7 5513.58,12404.3C5513.58,12404.3 5513.58,12404.3 5513.58,12404.3C5524.78,12415 5533.52,12427.9 5539.77,12443C5539.77,12443 5539.77,12443 5539.77,12443C5546.03,12458.2 5549.16,12475.1 5549.16,12493.7C5549.16,12493.7 5549.16,12493.7 5549.16,12493.7C5549.16,12512.4 5546.03,12529.3 5539.77,12544.5C5539.77,12544.5 5539.77,12544.5 5539.77,12544.5C5533.52,12559.6 5524.78,12572.5 5513.58,12583.2C5513.58,12583.2 5513.58,12583.2 5513.58,12583.2C5502.38,12593.8 5489.1,12602 5473.72,12607.7C5473.72,12607.7 5473.72,12607.7 5473.72,12607.7C5472.27,12608.3 5470.8,12608.8 5469.31,12609.3C5468.32,12609.6 5467.6,12610.5 5467.46,12611.5C5467.32,12612.5 5467.78,12613.6 5468.65,12614.1C5468.65,12614.1 5468.65,12614.1 5468.65,12614.1C5476.82,12619.6 5483.3,12627 5488.11,12636.3C5492.92,12645.6 5495.33,12657.2 5495.33,12671C5495.33,12687.8 5490.97,12702.1 5482.24,12713.8C5477.01,12720.9 5470.33,12726.3 5462.2,12730.3C5457.89,12732.4 5454.65,12736.2 5453.28,12740.7C5451.91,12745.3 5452.53,12750.3 5455,12754.4C5464.45,12770.1 5478.25,12793.1 5488.86,12810.7C5492.03,12815.9 5492.12,12822.5 5489.1,12827.8C5486.08,12833.2 5480.42,12836.5 5474.28,12836.5C5466.24,12836.5 5458.09,12836.5 5451.94,12836.5C5445.61,12836.5 5439.8,12832.9 5436.86,12827.3C5427.25,12809 5405.71,12767.8 5396.4,12750C5393.68,12744.8 5388.29,12741.5 5382.41,12741.5C5382.41,12741.5 5382.41,12741.5 5382.41,12741.5C5373.42,12741.5 5366.13,12748.8 5366.13,12757.8C5366.13,12775 5366.13,12802 5366.13,12819.5C5366.13,12824 5364.34,12828.3 5361.15,12831.5C5357.96,12834.7 5353.63,12836.5 5349.11,12836.5C5343.24,12836.5 5336.67,12836.5 5330.79,12836.5C5321.4,12836.5 5313.78,12828.8 5313.78,12819.5C5313.78,12775 5313.78,12655.9 5313.78,12613.9C5313.78,12605.6 5320.49,12598.9 5328.77,12598.9C5328.77,12598.9 5328.77,12598.9 5328.77,12598.9ZM6014.8,12628.6C6014.8,12625.4 6013.5,12622.2 6011.19,12619.9C6008.87,12617.6 6005.73,12616.3 6002.45,12616.3L6002.45,12616.3C5984.22,12616.3 5967.42,12613.4 5952.05,12607.7C5952.05,12607.7 5952.05,12607.7 5952.05,12607.7C5936.67,12602 5923.39,12593.8 5912.19,12583.2C5912.19,12583.2 5912.19,12583.2 5912.19,12583.2C5900.99,12572.5 5892.26,12559.6 5886,12544.5C5886,12544.5 5886,12544.5 5886,12544.5C5879.74,12529.3 5876.61,12512.4 5876.61,12493.7C5876.61,12493.7 5876.61,12493.7 5876.61,12493.7C5876.61,12475.1 5879.74,12458.2 5886,12443C5886,12443 5886,12443 5886,12443C5892.26,12427.9 5900.99,12415 5912.19,12404.3C5912.19,12404.3 5912.19,12404.3 5912.19,12404.3C5923.39,12393.7 5936.67,12385.5 5952.05,12379.8C5952.05,12379.8 5952.05,12379.8 5952.05,12379.8C5967.42,12374.1 5984.22,12371.2 6002.45,12371.2C6002.45,12371.2 6002.45,12371.2 6002.45,12371.2C6009.04,12371.2 6015.9,12371.8 6023.04,12373C6023.04,12373 6023.04,12373 6023.04,12373C6030.18,12374.2 6037.2,12376.1 6044.12,12378.8C6044.12,12378.8 6044.12,12378.8 6044.12,12378.8C6051.04,12381.4 6057.68,12384.9 6064.05,12389.3C6064.05,12389.3 6064.05,12389.3 6064.05,12389.3C6064.6,12389.7 6065.15,12390.1 6065.69,12390.5C6069.97,12393.6 6072.58,12398.5 6072.74,12403.8C6072.89,12409 6070.59,12414.1 6066.5,12417.4C6062.08,12421.1 6057.29,12425 6053.11,12428.4C6047.13,12433.3 6038.61,12433.5 6032.36,12429C6029.5,12426.9 6026.39,12425.1 6023.04,12423.6C6023.04,12423.6 6023.04,12423.6 6023.04,12423.6C6015.68,12420.3 6007.17,12418.6 5997.51,12418.6C5997.51,12418.6 5997.51,12418.6 5997.51,12418.6C5987.85,12418.6 5978.9,12420.5 5970.66,12424.2C5970.66,12424.2 5970.66,12424.2 5970.66,12424.2C5962.42,12428 5955.29,12433.2 5949.25,12439.9C5949.25,12439.9 5949.25,12439.9 5949.25,12439.9C5943.21,12446.6 5938.49,12454.5 5935.08,12463.8C5935.08,12463.8 5935.08,12463.8 5935.08,12463.8C5931.68,12473 5929.98,12483 5929.98,12493.7C5929.98,12493.7 5929.98,12493.7 5929.98,12493.7C5929.98,12504.7 5931.68,12514.8 5935.08,12523.9C5935.08,12523.9 5935.08,12523.9 5935.08,12523.9C5938.49,12533 5943.15,12540.9 5949.08,12547.6C5949.08,12547.6 5949.08,12547.6 5949.08,12547.6C5955.01,12554.3 5961.98,12559.5 5970,12563.3C5970,12563.3 5970,12563.3 5970,12563.3C5978.02,12567 5986.64,12568.9 5995.86,12568.9C5995.86,12568.9 5995.86,12568.9 5995.86,12568.9C6006.4,12568.9 6015.74,12566.7 6023.86,12562.3C6023.86,12562.3 6023.86,12562.3 6023.86,12562.3C6027.92,12560.1 6031.62,12557.4 6034.96,12554.4C6040.98,12548.9 6050.06,12548.4 6056.6,12553.3C6061.45,12556.9 6067,12561 6072.02,12564.8C6076.11,12567.8 6078.61,12572.5 6078.84,12577.6C6079.06,12582.7 6076.98,12587.7 6073.18,12591.1C6070.49,12593.5 6067.68,12595.7 6064.75,12597.8C6064.53,12597.9 6064.43,12598.2 6064.51,12598.4C6064.59,12598.7 6064.82,12598.9 6065.09,12598.9C6065.09,12598.9 6065.09,12598.9 6065.09,12598.9C6066.23,12598.9 6067.15,12599.8 6067.15,12600.9C6067.15,12620.2 6067.15,12768.6 6067.15,12819.5C6067.15,12828.8 6059.54,12836.5 6050.14,12836.5C6036.91,12836.5 6019.04,12836.5 6008.22,12836.5C6002.3,12836.5 5996.81,12833.4 5993.72,12828.3C5973.61,12795.5 5899.25,12674.3 5895.18,12667.6C5895.07,12667.4 5894.88,12667.3 5894.67,12667.3C5894.67,12667.3 5894.67,12667.3 5894.67,12667.3C5894.48,12667.3 5894.33,12667.5 5894.33,12667.7C5894.33,12674.3 5894.33,12777.9 5894.33,12819.5C5894.33,12824 5892.54,12828.3 5889.35,12831.5C5886.16,12834.7 5881.83,12836.5 5877.32,12836.5C5871.44,12836.5 5864.87,12836.5 5859,12836.5C5849.6,12836.5 5841.98,12828.8 5841.98,12819.5C5841.98,12777.5 5841.98,12669.4 5841.98,12627.4C5841.98,12622.9 5840.19,12618.5 5837,12615.3C5833.81,12612.2 5829.48,12610.4 5824.97,12610.4C5820.44,12610.4 5815.54,12610.4 5811.01,12610.4C5801.61,12610.4 5793.99,12618 5793.99,12627.4C5793.99,12628.3 5793.99,12629.2 5793.99,12630.2C5793.99,12639.6 5786.38,12647.2 5776.98,12647.2C5756.52,12647.2 5722.4,12647.2 5701.94,12647.2C5692.55,12647.2 5684.93,12654.8 5684.93,12664.2C5684.93,12667.6 5684.93,12671.1 5684.93,12674.5C5684.93,12683.9 5692.55,12691.5 5701.94,12691.5C5721.04,12691.5 5751.84,12691.5 5770.94,12691.5C5775.45,12691.5 5779.78,12693.3 5782.97,12696.5C5786.16,12699.7 5787.95,12704 5787.95,12708.5C5787.95,12713.1 5787.95,12718.2 5787.95,12722.8C5787.95,12727.3 5786.16,12731.6 5782.97,12734.8C5779.78,12738 5775.45,12739.8 5770.94,12739.8C5751.84,12739.8 5721.04,12739.8 5701.94,12739.8C5697.43,12739.8 5693.1,12741.6 5689.91,12744.8C5686.72,12748 5684.93,12752.3 5684.93,12756.8C5684.93,12761.5 5684.93,12766.5 5684.93,12771.1C5684.93,12775.6 5686.72,12780 5689.91,12783.2C5693.1,12786.3 5697.43,12788.1 5701.94,12788.1C5723.72,12788.1 5761.24,12788.1 5783.02,12788.1C5787.53,12788.1 5791.86,12789.9 5795.05,12793.1C5798.24,12796.3 5800.03,12800.6 5800.03,12805.2C5800.03,12809.8 5800.03,12814.8 5800.03,12819.5C5800.03,12824 5798.24,12828.3 5795.05,12831.5C5791.86,12834.7 5787.53,12836.5 5783.02,12836.5C5750.9,12836.5 5681.71,12836.5 5649.59,12836.5C5640.2,12836.5 5632.58,12828.8 5632.58,12819.5C5632.58,12777.5 5632.58,12669.4 5632.58,12627.4C5632.58,12618 5624.96,12610.4 5615.57,12610.4C5611.45,12610.4 5607.05,12610.4 5602.93,12610.4C5593.53,12610.4 5585.91,12618 5585.91,12627.4C5585.91,12669.4 5585.91,12777.5 5585.91,12819.5C5585.91,12828.8 5578.3,12836.5 5568.9,12836.5C5563.03,12836.5 5556.45,12836.5 5550.58,12836.5C5541.18,12836.5 5533.56,12828.8 5533.56,12819.5C5533.56,12775.7 5533.56,12659.6 5533.56,12615.9C5533.56,12606.5 5541.18,12598.9 5550.58,12598.9C5555.89,12598.9 5561.75,12598.9 5567.07,12598.9C5571.58,12598.9 5575.91,12597.1 5579.1,12593.9C5582.29,12590.7 5584.08,12586.4 5584.08,12581.9C5584.08,12540.6 5584.08,12435.4 5584.08,12394.1C5584.08,12389.6 5585.87,12385.3 5589.07,12382.1C5592.26,12378.9 5596.58,12377.1 5601.1,12377.1L5670.72,12377.1C5682.8,12377.1 5694.22,12378.2 5704.98,12380.4C5704.98,12380.4 5704.98,12380.4 5704.98,12380.4C5715.74,12382.6 5725.13,12386.4 5733.15,12391.8C5733.15,12391.8 5733.15,12391.8 5733.15,12391.8C5741.16,12397.2 5747.53,12404.4 5752.25,12413.5C5752.25,12413.5 5752.25,12413.5 5752.25,12413.5C5756.97,12422.6 5759.34,12434.1 5759.34,12448C5759.34,12448 5759.34,12448 5759.34,12448C5759.34,12461.6 5757.14,12473 5752.75,12482.2C5752.75,12482.2 5752.75,12482.2 5752.75,12482.2C5748.35,12491.4 5742.31,12498.8 5734.63,12504.3C5734.63,12504.3 5734.63,12504.3 5734.63,12504.3C5726.94,12509.8 5717.83,12513.7 5707.29,12516C5707.29,12516 5707.29,12516 5707.29,12516C5696.74,12518.3 5685.32,12519.4 5673.03,12519.4L5652.49,12519.4C5647.97,12519.4 5643.65,12521.2 5640.45,12524.4C5637.26,12527.6 5635.47,12531.9 5635.47,12536.5C5635.47,12549.9 5635.47,12568.5 5635.47,12581.9C5635.47,12586.4 5637.26,12590.7 5640.45,12593.9C5643.65,12597.1 5647.97,12598.9 5652.49,12598.9C5682.39,12598.9 5744.04,12598.9 5773.94,12598.9C5778.46,12598.9 5782.78,12597.1 5785.98,12593.9C5789.17,12590.7 5790.96,12586.4 5790.96,12581.9C5790.96,12540.6 5790.96,12435.4 5790.96,12394.1C5790.96,12389.6 5792.75,12385.3 5795.94,12382.1C5799.13,12378.9 5803.46,12377.1 5807.97,12377.1C5813.56,12377.1 5819.75,12377.1 5825.34,12377.1C5829.85,12377.1 5834.18,12378.9 5837.37,12382.1C5840.56,12385.3 5842.35,12389.6 5842.35,12394.1C5842.35,12435.4 5842.35,12540.6 5842.35,12581.9C5842.35,12586.4 5844.14,12590.7 5847.33,12593.9C5850.52,12597.1 5854.85,12598.9 5859.36,12598.9C5873.22,12598.9 5892.28,12598.9 5903.59,12598.9C5909.51,12598.9 5915.01,12602 5918.1,12607C5937.87,12639.3 6009.98,12757.2 6013.96,12763.7C6014.07,12763.9 6014.26,12764 6014.46,12764C6014.46,12764 6014.46,12764 6014.46,12764C6014.65,12764 6014.8,12763.8 6014.8,12763.6C6014.8,12757.3 6014.8,12663.6 6014.8,12628.6ZM6201.05,12836.5L6132.49,12836.5C6123.1,12836.5 6115.48,12828.8 6115.48,12819.5C6115.48,12775.7 6115.48,12659.6 6115.48,12615.9C6115.48,12606.5 6123.1,12598.9 6132.49,12598.9L6194,12598.9C6213.02,12598.9 6231.09,12601 6248.2,12605.2C6265.31,12609.5 6280.25,12616.4 6293,12625.9C6305.75,12635.4 6315.87,12647.8 6323.37,12663C6330.86,12678.2 6334.61,12696.6 6334.61,12718.3C6334.61,12737.6 6330.98,12754.5 6323.7,12769.2C6316.43,12783.8 6306.65,12796.1 6294.34,12806.1C6282.04,12816.1 6267.83,12823.6 6251.72,12828.7C6235.61,12833.9 6218.73,12836.5 6201.05,12836.5ZM6167.83,12771.1C6167.83,12780.5 6175.45,12788.1 6184.84,12788.1L6195.01,12788.1C6207.09,12788.1 6218.33,12786.9 6228.74,12784.5C6239.14,12782 6248.14,12777.9 6255.75,12772.2C6263.36,12766.5 6269.34,12759 6273.7,12749.7C6278.07,12740.4 6280.25,12729.1 6280.25,12715.7C6280.25,12704 6278.07,12693.9 6273.7,12685.3C6269.34,12676.7 6263.47,12669.6 6256.09,12664C6248.7,12658.4 6240.03,12654.2 6230.08,12651.4C6220.12,12648.6 6209.66,12647.2 6198.7,12647.2L6184.84,12647.2C6180.33,12647.2 6176,12649 6172.81,12652.2C6169.62,12655.4 6167.83,12659.7 6167.83,12664.2C6167.83,12691.3 6167.83,12744 6167.83,12771.1ZM5366.13,12680.2C5366.13,12684.7 5367.92,12689 5371.11,12692.2C5374.3,12695.4 5378.63,12697.2 5383.15,12697.2L5397,12697.2C5401.7,12697.2 5406.68,12697 5411.94,12696.7C5417.19,12696.4 5421.95,12695.4 5426.2,12693.7C5430.45,12692 5433.97,12689.4 5436.77,12685.8C5439.57,12682.2 5440.96,12677.2 5440.96,12670.7C5440.96,12664.6 5439.73,12659.8 5437.27,12656.3C5434.81,12652.7 5431.68,12649.9 5427.88,12648C5424.07,12646.1 5419.71,12644.8 5414.79,12644.2C5414.79,12644.2 5414.79,12644.2 5414.79,12644.2C5409.87,12643.5 5405.06,12643.2 5400.36,12643.2L5383.15,12643.2C5373.75,12643.2 5366.13,12650.8 5366.13,12660.2C5366.13,12666.6 5366.13,12673.8 5366.13,12680.2ZM5350.85,12493.7C5350.85,12493.7 5350.85,12493.7 5350.85,12493.7C5350.85,12504.7 5352.55,12514.8 5355.95,12523.9C5355.95,12523.9 5355.95,12523.9 5355.95,12523.9C5359.36,12533 5364.25,12540.9 5370.61,12547.6C5370.61,12547.6 5370.61,12547.6 5370.61,12547.6C5376.98,12554.3 5384.61,12559.5 5393.51,12563.3C5393.51,12563.3 5393.51,12563.3 5393.51,12563.3C5402.4,12567 5412.34,12568.9 5423.32,12568.9C5423.32,12568.9 5423.32,12568.9 5423.32,12568.9C5434.3,12568.9 5444.24,12567 5453.14,12563.3C5453.14,12563.3 5453.14,12563.3 5453.14,12563.3C5462.03,12559.5 5469.66,12554.3 5476.03,12547.6C5476.03,12547.6 5476.03,12547.6 5476.03,12547.6C5482.4,12540.9 5487.28,12533 5490.69,12523.9C5490.69,12523.9 5490.69,12523.9 5490.69,12523.9C5494.09,12514.8 5495.8,12504.7 5495.8,12493.7C5495.8,12493.7 5495.8,12493.7 5495.8,12493.7C5495.8,12483 5494.09,12473 5490.69,12463.8C5490.69,12463.8 5490.69,12463.8 5490.69,12463.8C5487.28,12454.5 5482.4,12446.6 5476.03,12439.9C5476.03,12439.9 5476.03,12439.9 5476.03,12439.9C5469.66,12433.2 5462.03,12428 5453.14,12424.2C5453.14,12424.2 5453.14,12424.2 5453.14,12424.2C5444.24,12420.5 5434.3,12418.6 5423.32,12418.6C5423.32,12418.6 5423.32,12418.6 5423.32,12418.6C5412.34,12418.6 5402.4,12420.5 5393.51,12424.2C5393.51,12424.2 5393.51,12424.2 5393.51,12424.2C5384.61,12428 5376.98,12433.2 5370.61,12439.9C5370.61,12439.9 5370.61,12439.9 5370.61,12439.9C5364.25,12446.6 5359.36,12454.5 5355.95,12463.8C5355.95,12463.8 5355.95,12463.8 5355.95,12463.8C5352.55,12473 5350.85,12483 5350.85,12493.7ZM5635.47,12458.9C5635.47,12468.3 5643.09,12476 5652.49,12476L5669.73,12476C5674.34,12476 5678.79,12475.5 5683.07,12474.6C5683.07,12474.6 5683.07,12474.6 5683.07,12474.6C5687.36,12473.8 5691.2,12472.3 5694.6,12470.2C5694.6,12470.2 5694.6,12470.2 5694.6,12470.2C5698.01,12468.1 5700.75,12465.2 5702.84,12461.6C5702.84,12461.6 5702.84,12461.6 5702.84,12461.6C5704.93,12458 5705.97,12453.4 5705.97,12448C5705.97,12448 5705.97,12448 5705.97,12448C5705.97,12442 5704.6,12437.2 5701.85,12433.6C5701.85,12433.6 5701.85,12433.6 5701.85,12433.6C5699.11,12430 5695.59,12427.2 5691.31,12425.2C5691.31,12425.2 5691.31,12425.2 5691.31,12425.2C5687.03,12423.2 5682.25,12422 5676.98,12421.4C5676.98,12421.4 5676.98,12421.4 5676.98,12421.4C5671.71,12420.9 5666.66,12420.6 5661.82,12420.6L5652.49,12420.6C5647.97,12420.6 5643.65,12422.4 5640.45,12425.6C5637.26,12428.8 5635.47,12433.1 5635.47,12437.6C5635.47,12444.4 5635.47,12452.2 5635.47,12458.9Z" style="fill:white;stroke:white;stroke-width:1px;"/>
        </g>
    </g>
</svg>
