<?xml version="1.0" encoding="UTF-8" standalone="no"?>
<!DOCTYPE svg PUBLIC "-//W3C//DTD SVG 1.1//EN" "http://www.w3.org/Graphics/SVG/1.1/DTD/svg11.dtd">
<svg width="100%" height="100%" viewBox="0 0 1031 421" version="1.1" xmlns="http://www.w3.org/2000/svg" xmlns:xlink="http://www.w3.org/1999/xlink" xml:space="preserve" xmlns:serif="http://www.serif.com/" style="fill-rule:evenodd;clip-rule:evenodd;stroke-miterlimit:10;">
    <g transform="matrix(1,0,0,1,227.277,282.424)">
        <path d="M0,85.122C4.774,85.821 9.263,86.17 13.464,86.17C22.624,86.17 29.192,84.758 33.169,81.933C37.144,79.108 39.133,74.332 39.133,67.602L39.133,65.793C39.133,59.51 37.097,54.892 33.025,51.939C28.951,48.988 22.303,47.512 13.076,47.512L0,47.512L0,85.122ZM0,29.041L11.936,29.041C19.448,29.041 24.811,27.965 28.026,25.813C31.241,23.662 32.849,19.93 32.849,14.613L32.849,12.81C32.849,3.572 26.165,-1.047 12.796,-1.047C9.04,-1.047 4.774,-0.826 0,-0.382L0,29.041ZM-25.613,100.928L-25.613,-16.416C-16.267,-18.928 -3.877,-20.186 11.555,-20.186C19.482,-20.186 26.199,-19.691 31.705,-18.707C37.209,-17.72 42.039,-16.019 46.192,-13.603C50.345,-11.186 53.427,-7.832 55.442,-3.538C57.455,0.756 58.462,6.082 58.462,12.44L58.462,14.635C58.462,25.065 54.775,32.475 47.404,36.863C53.786,38.765 58.526,41.98 61.624,46.513C64.721,51.044 66.27,57.428 66.27,65.667L66.27,67.852C66.27,80.592 61.733,90.019 52.663,96.134C43.59,102.25 30.079,105.308 12.128,105.308C-3.684,105.308 -16.264,103.847 -25.613,100.928" style="fill:rgb(62,168,54);fill-rule:nonzero;"/>
    </g>
    <g transform="matrix(1,0,0,1,332.775,348.409)">
        <path d="M0,-14.664L34.087,-14.664C33.896,-27.613 28.31,-34.088 17.329,-34.088C11.869,-34.088 7.727,-32.5 4.903,-29.326C2.078,-26.151 0.443,-21.265 0,-14.664M-25.994,-5.999L-25.994,-8.855C-25.994,-23.962 -22.361,-35.261 -15.092,-42.752C-7.824,-50.241 2.792,-53.987 16.758,-53.987C30.976,-53.987 41.688,-50.241 48.893,-42.752C56.096,-35.261 59.7,-23.613 59.7,-7.809L59.7,1.332L1.252,1.332C2.205,8.188 4.728,12.918 8.822,15.52C12.917,18.123 19.66,19.424 29.055,19.424C38.767,19.424 48.384,18.535 57.905,16.758L60.476,35.229C57.367,36.182 52.149,37.103 44.825,37.99C37.5,38.878 31.08,39.323 25.563,39.323C8.44,39.323 -4.434,35.738 -13.058,28.565C-21.682,21.392 -25.994,9.871 -25.994,-5.999" style="fill:rgb(62,168,54);fill-rule:nonzero;"/>
    </g>
    <g transform="matrix(1,0,0,1,407.427,385.849)">
        <path d="M0,-122.065L7.808,-122.065C9.144,-106.195 11.261,-91.087 14.157,-76.743C17.052,-62.396 20.108,-50.606 23.322,-41.371C26.535,-32.134 29.463,-24.66 32.105,-18.947C34.748,-13.234 36.96,-9.362 38.742,-7.332C40.524,-9.362 42.735,-13.234 45.377,-18.947C48.018,-24.66 50.962,-32.149 54.208,-41.418C57.455,-50.685 60.525,-62.492 63.422,-76.837C66.317,-91.182 68.465,-106.259 69.867,-122.065L77.695,-122.065C80.219,-106.396 82.642,-91.338 84.969,-76.893C87.296,-62.447 90.042,-50.606 93.211,-41.371C96.378,-32.134 99.292,-24.644 101.952,-18.9C104.612,-13.154 106.8,-9.297 108.511,-7.332C110.284,-9.362 112.484,-13.234 115.114,-18.947C117.743,-24.66 120.673,-32.149 123.904,-41.418C127.136,-50.685 130.191,-62.492 133.075,-76.837C135.958,-91.182 138.096,-106.259 139.489,-122.065L147.298,-122.065C146.244,-108.417 144.515,-95.214 142.112,-82.456C139.71,-69.697 137.166,-58.874 134.479,-49.988C131.792,-41.099 128.946,-32.975 125.944,-25.613C122.94,-18.248 120.332,-12.599 118.12,-8.664C115.906,-4.727 114.042,-1.839 112.524,0L104.567,0C102.862,-1.904 100.729,-5.458 98.173,-10.664C95.614,-15.87 92.756,-22.584 89.599,-30.804C86.44,-39.026 83.408,-49.341 80.504,-61.752C77.599,-74.163 75.377,-87.097 73.841,-100.554C72.244,-87.096 69.962,-74.162 66.994,-61.751C64.024,-49.34 60.961,-39.024 57.801,-30.803C54.642,-22.582 51.752,-15.87 49.135,-10.664C46.519,-5.458 44.348,-1.904 42.625,0L34.773,0C32.75,-2.475 30.235,-6.696 27.231,-12.664C24.226,-18.628 20.859,-26.548 17.128,-36.419C13.397,-46.289 9.935,-58.826 6.742,-74.029C3.548,-89.231 1.3,-105.243 0,-122.065" style="fill:rgb(62,168,54);fill-rule:nonzero;"/>
    </g>
    <g transform="matrix(1,0,0,1,573.006,339.29)">
        <path d="M0,2.951C0,15.329 2.494,24.962 7.486,31.848C12.476,38.737 19.899,42.18 29.754,42.18C39.609,42.18 47.031,38.737 52.022,31.848C57.012,24.962 59.509,15.329 59.509,2.951L59.509,-0.096C59.509,-12.536 57.029,-22.169 52.07,-28.993C47.109,-35.817 39.672,-39.23 29.754,-39.23C19.836,-39.23 12.396,-35.817 7.437,-28.993C2.479,-22.169 0,-12.536 0,-0.096L0,2.951ZM-7.809,2.951L-7.809,-0.096C-7.809,-14.25 -4.654,-25.327 1.654,-33.325C7.962,-41.324 17.328,-45.322 29.754,-45.322C42.052,-45.322 51.387,-41.324 57.76,-33.325C64.13,-25.327 67.316,-14.25 67.316,-0.096L67.316,2.951C67.316,17.107 64.13,28.199 57.76,36.228C51.387,44.26 42.052,48.273 29.754,48.273C17.328,48.273 7.962,44.26 1.654,36.228C-4.654,28.199 -7.809,17.107 -7.809,2.951" style="fill:rgb(62,168,54);fill-rule:nonzero;"/>
    </g>
    <g transform="matrix(1,0,0,1,662.508,294.252)">
        <path d="M0,91.597L0,6.189C7.807,2.064 17.328,0 28.564,0C34.277,0 39.799,0.643 45.131,1.928L43.607,7.711C39.609,6.634 34.879,6.094 29.421,6.094C20.598,6.094 13.234,7.425 7.331,10.088L7.331,91.597L0,91.597Z" style="fill:rgb(62,168,54);fill-rule:nonzero;"/>
    </g>
    <g transform="matrix(1,0,0,1,720.494,259.499)">
        <path d="M0,126.35L0,0L7.332,0L7.332,75.696C10.188,74.934 13.646,73.475 17.709,71.316C21.771,69.159 26.104,66.476 30.707,63.27C35.309,60.066 39.672,56.115 43.799,51.416C47.924,46.719 51.035,41.864 53.129,36.848L61.127,36.848C59.73,40.847 57.666,44.784 54.939,48.655C52.209,52.528 49.287,55.955 46.18,58.938C43.068,61.922 39.656,64.762 35.943,67.459C32.23,70.159 28.803,72.411 25.66,74.22C22.518,76.029 19.455,77.633 16.473,79.028C20.471,81.061 24.564,83.489 28.754,86.312C32.943,89.137 37.307,92.518 41.846,96.453C46.385,100.389 50.512,104.974 54.225,110.211C57.938,115.448 60.682,120.828 62.461,126.35L54.652,126.35C52.559,120.765 49.369,115.305 45.084,109.973C40.799,104.641 36.277,100.135 31.516,96.453C26.756,92.772 22.279,89.692 18.09,87.217C13.9,84.741 10.314,83.028 7.332,82.075L7.332,126.35L0,126.35Z" style="fill:rgb(62,168,54);fill-rule:nonzero;"/>
    </g>
    <g transform="matrix(1,0,0,1,801.998,282.446)">
        <path d="M0,86.455L0,13.52L7.332,13.52L7.332,86.455C7.332,90.201 7.935,92.946 9.141,94.691C10.346,96.437 12.346,97.309 15.14,97.309C17.487,97.309 20.248,96.897 23.424,96.071L24.756,101.214C21.2,102.675 17.551,103.403 13.807,103.403C9.236,103.403 5.792,102.118 3.476,99.547C1.158,96.976 0,92.613 0,86.455M-0.285,-16.948L7.809,-16.948L7.809,-2.951L-0.285,-2.951L-0.285,-16.948Z" style="fill:rgb(62,168,54);fill-rule:nonzero;"/>
    </g>
    <g transform="matrix(1,0,0,1,839.514,294.252)">
        <path d="M0,91.597L0,8.194C4.374,6.021 9.985,4.114 16.834,2.469C23.681,0.823 30.147,0 36.235,0C46.596,0 54.255,2.731 59.213,8.189C64.17,13.649 66.65,21.202 66.65,30.85L66.65,91.597L59.318,91.597L59.318,31.287C59.318,23.4 57.427,17.228 53.644,12.774C49.858,8.322 43.929,6.094 35.853,6.094C31.146,6.094 25.9,6.762 20.112,8.098C14.325,9.434 10.066,10.77 7.332,12.106L7.332,91.597L0,91.597Z" style="fill:rgb(62,168,54);fill-rule:nonzero;"/>
    </g>
    <g transform="matrix(1,0,0,1,934.443,385.571)">
        <path d="M0,-56.382C0,-47.807 2.248,-41.139 6.745,-36.378C11.243,-31.617 17.957,-29.238 26.89,-29.238C35.795,-29.238 42.489,-31.617 46.974,-36.378C51.458,-41.139 53.701,-47.807 53.701,-56.382L53.701,-58.557C53.701,-67.131 51.458,-73.766 46.974,-78.464C42.489,-83.161 35.795,-85.511 26.89,-85.511C17.957,-85.511 11.243,-83.161 6.745,-78.464C2.248,-73.766 0,-67.131 0,-58.557L0,-56.382ZM-9.104,31.426L-8.248,25.625C-3.234,26.697 1.464,27.502 5.844,28.039C10.224,28.575 13.651,28.89 16.127,28.987C18.603,29.081 21.808,29.128 25.744,29.128C44.509,29.128 53.892,25.188 53.892,17.311C53.892,14.808 52.922,12.73 50.984,11.075C49.046,9.416 46.487,8.264 43.308,7.62C40.127,6.972 36.651,6.266 32.879,5.5C29.106,4.731 25.366,3.971 21.655,3.218C17.945,2.464 14.521,1.544 11.378,0.463C8.236,-0.62 5.696,-2.278 3.761,-4.508C1.824,-6.738 0.857,-9.447 0.857,-12.634C0.857,-19.159 4.317,-23.509 11.241,-25.685C-1.458,-30.18 -7.808,-40.374 -7.808,-56.269L-7.808,-58.454C-7.808,-68.965 -4.894,-77.118 0.937,-82.913C6.768,-88.706 15.419,-91.604 26.89,-91.604C38.083,-91.604 46.703,-88.785 52.746,-83.147C54.588,-88.594 58.937,-91.319 65.793,-91.319C69.412,-91.319 72.901,-90.588 76.268,-89.129L74.934,-83.997C71.633,-84.816 68.808,-85.225 66.46,-85.225C63.604,-85.225 61.523,-84.499 60.224,-83.05C58.922,-81.599 58.176,-79.267 57.986,-76.053C60.461,-70.905 61.699,-65.026 61.699,-58.417L61.699,-56.225C61.699,-45.801 58.806,-37.697 53.02,-31.915C47.234,-26.131 38.683,-23.207 27.365,-23.145L24.98,-23.145C20.209,-23.145 16.297,-22.244 13.244,-20.445C10.191,-18.646 8.664,-16.044 8.664,-12.64C8.664,-10.197 9.639,-8.19 11.59,-6.616C13.538,-5.042 16.088,-3.94 19.236,-3.309C22.385,-2.678 25.83,-1.989 29.571,-1.239C33.313,-0.489 37.069,0.262 40.843,1.016C44.614,1.77 48.062,2.717 51.184,3.857C54.307,4.996 56.84,6.704 58.783,8.983C60.727,11.259 61.699,14.06 61.699,17.386C61.699,23.17 58.758,27.589 52.877,30.642C46.996,33.694 38.333,35.222 26.89,35.222C13.494,35.222 1.495,33.956 -9.104,31.426" style="fill:rgb(62,168,54);fill-rule:nonzero;"/>
    </g>
    <g transform="matrix(1,0,0,1,-467,-178.431)">
        <path d="M1489.23,549.522L1497.04,549.522L1497.04,563.899L1489.23,563.899L1489.23,549.522ZM1489.23,441.167L1497.04,441.167L1497.04,534.573L1489.23,534.573L1489.23,441.167Z" style="fill:rgb(62,168,54);fill-rule:nonzero;"/>
    </g>
    <g transform="matrix(1,0,0,1,154.808,267.058)">
        <path d="M0,78.399L0,-0.001C0,-3.398 -1.812,-6.537 -4.753,-8.235L-72.65,-47.435C-75.592,-49.133 -79.216,-49.133 -82.158,-47.435L-150.054,-8.235C-152.996,-6.537 -154.808,-3.398 -154.808,-0.001L-154.808,78.399C-154.808,81.795 -152.996,84.935 -150.054,86.633L-82.158,125.834C-79.216,127.532 -75.592,127.532 -72.65,125.834L-4.753,86.633C-1.812,84.935 0,81.795 0,78.399" style="fill:rgb(241,145,7);fill-rule:nonzero;"/>
    </g>
    <g transform="matrix(1,0,0,1,246.808,119.057)">
        <path d="M0,78.4L0,0C0,-3.397 -1.812,-6.536 -4.753,-8.234L-72.65,-47.434C-75.592,-49.132 -79.216,-49.132 -82.158,-47.434L-150.054,-8.234C-152.996,-6.536 -154.808,-3.397 -154.808,0L-154.808,78.4C-154.808,81.797 -152.996,84.936 -150.054,86.634L-82.158,125.834C-79.216,127.532 -75.592,127.532 -72.65,125.834L-4.753,86.634C-1.812,84.936 0,81.797 0,78.4Z" style="fill:none;stroke:rgb(241,145,7);stroke-width:14px;"/>
    </g>
</svg>
