<?xml version="1.0" encoding="UTF-8" standalone="no"?>
<!DOCTYPE svg PUBLIC "-//W3C//DTD SVG 1.1//EN" "http://www.w3.org/Graphics/SVG/1.1/DTD/svg11.dtd">
<svg width="100%" height="100%" viewBox="0 0 331 53" version="1.1" xmlns="http://www.w3.org/2000/svg" xmlns:xlink="http://www.w3.org/1999/xlink" xml:space="preserve" style="fill-rule:evenodd;clip-rule:evenodd;stroke-linejoin:round;stroke-miterlimit:1.41421;">
    <g transform="matrix(1,0,0,1,-2149.7,-117.72)">
        <g id="Page-4" transform="matrix(1.94405,0,0,0.307851,2149.7,117.72)">
            <rect x="0" y="0" width="170.079" height="170.079" style="fill:none;"/>
            <clipPath id="_clip1">
                <rect x="0" y="0" width="170.079" height="170.079"/>
            </clipPath>
            <g clip-path="url(#_clip1)">
                <g transform="matrix(0.279956,0,0,1.7679,61.232,-59.1082)">
                    <g id="Capa-1">
                        <g>
                            <path d="M86.83,88.97C86.469,80.286 85.045,71.753 80.525,64.037C78.748,61.004 76.327,58.051 72.979,55.312C63.166,47.289 48.341,44.441 38.629,44.441C29.217,44.441 28.116,46.908 27.755,47.717C27.508,48.273 27.082,49.725 28.452,51.251C30.52,53.552 30.993,57.853 31.54,62.833C32.501,71.565 33.695,82.431 43.994,90.851C53.621,98.725 67.631,101.528 77.531,101.528C79.486,101.528 81.195,101.428 82.663,101.229L82.663,121.365C82.663,123.715 84.586,125.637 86.935,125.637C89.285,125.637 91.208,123.715 91.208,121.365L91.208,113.412C93.801,112.584 97.069,112.387 100.724,112.169C109.523,111.643 120.475,110.987 129.774,100.827C141.735,87.754 144.276,64.119 141.641,58.135C140.732,56.07 139.281,55.76 138.498,55.76C137.733,55.76 136.995,56.042 136.306,56.596C133.894,58.531 129.574,58.764 124.572,59.035C115.8,59.506 104.883,60.095 95.901,69.91C93.434,72.607 91.387,75.699 89.714,78.966C88.278,81.905 87.584,85.022 87.249,88.981C87.145,88.973 87.041,88.969 86.935,88.969C86.9,88.969 86.865,88.97 86.83,88.97ZM91.208,93.873L92.513,93.511C92.772,92.434 93.198,91.42 93.761,90.5L92.921,89.016L94.343,87.595L95.764,86.173L97.248,87.013C98.168,86.45 99.181,86.025 100.259,85.765L100.715,84.123L104.735,84.123L105.191,85.765C106.269,86.025 107.282,86.45 108.202,87.013L109.686,86.173L112.529,89.016L111.689,90.5C112.252,91.42 112.677,92.434 112.937,93.511L114.58,93.967L114.58,97.987L112.937,98.443C112.678,99.521 112.252,100.534 111.689,101.454L112.529,102.938L111.107,104.36L109.686,105.781L108.202,104.941C107.282,105.505 106.269,105.929 105.191,106.189L104.735,107.832L102.725,107.832L100.715,107.832L100.259,106.189C99.181,105.93 98.168,105.504 97.248,104.941L95.764,105.781L94.343,104.36L92.921,102.938L93.761,101.454C93.198,100.534 92.773,99.521 92.513,98.443L91.208,98.081L91.208,93.873ZM102.725,89.054C106.548,89.054 109.648,92.154 109.648,95.977C109.648,99.801 106.548,102.9 102.725,102.9C98.902,102.9 95.802,99.801 95.802,95.977C95.802,92.154 98.902,89.054 102.725,89.054ZM130.128,84.665L117.479,84.665C116.377,84.665 115.431,84.27 114.64,83.479C113.85,82.689 113.454,81.743 113.454,80.641L113.454,80.066L112.305,80.066C110.4,80.066 108.774,79.392 107.426,78.045C106.079,76.697 105.405,75.07 105.405,73.167C105.405,71.262 106.079,69.636 107.426,68.288C108.774,66.941 110.4,66.267 112.305,66.267L133.002,66.267C133.314,66.267 133.584,66.381 133.811,66.608C134.039,66.835 134.152,67.106 134.152,67.417L134.152,80.641C134.152,81.743 133.757,82.689 132.967,83.479C132.176,84.27 131.23,84.665 130.128,84.665ZM113.454,69.717L112.304,69.717C111.345,69.717 110.531,70.051 109.86,70.723C109.19,71.394 108.855,72.209 108.855,73.167C108.855,74.124 109.19,74.94 109.86,75.61C110.531,76.281 111.345,76.616 112.304,76.616L113.454,76.616L113.454,69.717ZM67.991,72.468C75.028,72.468 80.732,76.946 80.732,82.471C80.732,85.093 79.453,87.474 77.356,89.259C77.436,90.999 77.8,93.337 79.071,94.535C76.635,94.535 74.148,92.937 72.674,91.781C71.225,92.234 69.645,92.484 67.991,92.484C60.966,92.484 55.263,87.997 55.263,82.471C55.263,76.946 60.966,72.468 67.991,72.468ZM47.663,51.426C53.526,51.426 58.278,55.976 58.278,61.593C58.278,68.264 53.647,69.963 53.647,73.845C53.647,74.665 53.113,75.437 52.267,76.056L52.267,80.296C52.267,81.725 51.098,82.895 49.668,82.895L49.628,82.895C49.253,83.596 48.513,84.073 47.663,84.073C46.812,84.073 46.073,83.596 45.697,82.895L45.657,82.895C44.227,82.895 43.058,81.725 43.058,80.296L43.058,76.058C42.212,75.441 41.673,74.67 41.673,73.845C41.673,69.963 37.047,68.264 37.047,61.597C37.047,55.976 41.799,51.426 47.663,51.426ZM42.121,67.887C43.18,69.442 44.377,71.196 44.448,73.612C44.812,74.016 46.107,74.674 47.658,74.674C49.214,74.674 50.509,74.016 50.872,73.607C50.948,71.196 52.145,69.438 53.203,67.887C54.386,66.157 55.503,64.52 55.503,61.593C55.503,57.518 51.984,54.201 47.663,54.201C43.34,54.201 39.826,57.518 39.826,61.593C39.826,64.52 40.943,66.157 42.121,67.887" style="fill:none;stroke:white;stroke-width:11.94px;"/>
                            <path d="M86.83,88.97C86.469,80.286 85.045,71.753 80.525,64.037C78.748,61.004 76.327,58.051 72.979,55.312C63.166,47.289 48.341,44.441 38.629,44.441C29.217,44.441 28.116,46.908 27.755,47.717C27.508,48.273 27.082,49.725 28.452,51.251C30.52,53.552 30.993,57.853 31.54,62.833C32.501,71.565 33.695,82.431 43.994,90.851C53.621,98.725 67.631,101.528 77.531,101.528C79.486,101.528 81.195,101.428 82.663,101.229L82.663,121.365C82.663,123.715 84.586,125.637 86.935,125.637C89.285,125.637 91.208,123.715 91.208,121.365L91.208,113.412C93.801,112.584 97.069,112.387 100.724,112.169C109.523,111.643 120.475,110.987 129.774,100.827C141.735,87.754 144.276,64.119 141.641,58.135C140.732,56.07 139.281,55.76 138.498,55.76C137.733,55.76 136.995,56.042 136.306,56.596C133.894,58.531 129.574,58.764 124.572,59.035C115.8,59.506 104.883,60.095 95.901,69.91C93.434,72.607 91.387,75.699 89.714,78.966C88.278,81.905 87.584,85.022 87.249,88.981C87.145,88.973 87.041,88.969 86.935,88.969C86.9,88.969 86.865,88.97 86.83,88.97ZM91.208,93.873L92.513,93.511C92.772,92.434 93.198,91.42 93.761,90.5L92.921,89.016L94.343,87.595L95.764,86.173L97.248,87.013C98.168,86.45 99.181,86.025 100.259,85.765L100.715,84.123L104.735,84.123L105.191,85.765C106.269,86.025 107.282,86.45 108.202,87.013L109.686,86.173L112.529,89.016L111.689,90.5C112.252,91.42 112.677,92.434 112.937,93.511L114.58,93.967L114.58,97.987L112.937,98.443C112.678,99.521 112.252,100.534 111.689,101.454L112.529,102.938L111.107,104.36L109.686,105.781L108.202,104.941C107.282,105.505 106.269,105.929 105.191,106.189L104.735,107.832L102.725,107.832L100.715,107.832L100.259,106.189C99.181,105.93 98.168,105.504 97.248,104.941L95.764,105.781L94.343,104.36L92.921,102.938L93.761,101.454C93.198,100.534 92.773,99.521 92.513,98.443L91.208,98.081L91.208,93.873ZM102.725,89.054C106.548,89.054 109.648,92.154 109.648,95.977C109.648,99.801 106.548,102.9 102.725,102.9C98.902,102.9 95.802,99.801 95.802,95.977C95.802,92.154 98.902,89.054 102.725,89.054ZM130.128,84.665L117.479,84.665C116.377,84.665 115.431,84.27 114.64,83.479C113.85,82.689 113.454,81.743 113.454,80.641L113.454,80.066L112.305,80.066C110.4,80.066 108.774,79.392 107.426,78.045C106.079,76.697 105.405,75.07 105.405,73.167C105.405,71.262 106.079,69.636 107.426,68.288C108.774,66.941 110.4,66.267 112.305,66.267L133.002,66.267C133.314,66.267 133.584,66.381 133.811,66.608C134.039,66.835 134.152,67.106 134.152,67.417L134.152,80.641C134.152,81.743 133.757,82.689 132.967,83.479C132.176,84.27 131.23,84.665 130.128,84.665ZM113.454,69.717L112.304,69.717C111.345,69.717 110.531,70.051 109.86,70.723C109.19,71.394 108.855,72.209 108.855,73.167C108.855,74.124 109.19,74.94 109.86,75.61C110.531,76.281 111.345,76.616 112.304,76.616L113.454,76.616L113.454,69.717ZM67.991,72.468C75.028,72.468 80.732,76.946 80.732,82.471C80.732,85.093 79.453,87.474 77.356,89.259C77.436,90.999 77.8,93.337 79.071,94.535C76.635,94.535 74.148,92.937 72.674,91.781C71.225,92.234 69.645,92.484 67.991,92.484C60.966,92.484 55.263,87.997 55.263,82.471C55.263,76.946 60.966,72.468 67.991,72.468ZM47.663,51.426C53.526,51.426 58.278,55.976 58.278,61.593C58.278,68.264 53.647,69.963 53.647,73.845C53.647,74.665 53.113,75.437 52.267,76.056L52.267,80.296C52.267,81.725 51.098,82.895 49.668,82.895L49.628,82.895C49.253,83.596 48.513,84.073 47.663,84.073C46.812,84.073 46.073,83.596 45.697,82.895L45.657,82.895C44.227,82.895 43.058,81.725 43.058,80.296L43.058,76.058C42.212,75.441 41.673,74.67 41.673,73.845C41.673,69.963 37.047,68.264 37.047,61.597C37.047,55.976 41.799,51.426 47.663,51.426ZM42.121,67.887C43.18,69.442 44.377,71.196 44.448,73.612C44.812,74.016 46.107,74.674 47.658,74.674C49.214,74.674 50.509,74.016 50.872,73.607C50.948,71.196 52.145,69.438 53.203,67.887C54.386,66.157 55.503,64.52 55.503,61.593C55.503,57.518 51.984,54.201 47.663,54.201C43.34,54.201 39.826,57.518 39.826,61.593C39.826,64.52 40.943,66.157 42.121,67.887" style="fill:rgb(0,136,150);fill-rule:nonzero;"/>
                        </g>
                    </g>
                </g>
            </g>
        </g>
    </g>
</svg>
