<?xml version="1.0" encoding="UTF-8" standalone="no"?>
<!DOCTYPE svg PUBLIC "-//W3C//DTD SVG 1.1//EN" "http://www.w3.org/Graphics/SVG/1.1/DTD/svg11.dtd">
<svg width="100%" height="100%" viewBox="0 0 567 82" version="1.1" xmlns="http://www.w3.org/2000/svg" xmlns:xlink="http://www.w3.org/1999/xlink" xml:space="preserve" style="fill-rule:evenodd;clip-rule:evenodd;stroke-linejoin:round;stroke-miterlimit:1.41421;">
    <g transform="matrix(1,0,0,1,-42.5199,-44.4413)">
        <path d="M101.857,88.97C101.496,80.286 100.072,71.753 95.552,64.037C93.775,61.004 91.354,58.051 88.006,55.312C78.193,47.289 63.368,44.441 53.656,44.441C44.244,44.441 43.143,46.908 42.782,47.717C42.535,48.273 42.109,49.725 43.48,51.251C45.547,53.552 46.02,57.853 46.568,62.833C47.528,71.565 48.723,82.431 59.021,90.851C68.648,98.725 82.658,101.528 92.558,101.528C94.513,101.528 96.222,101.428 97.69,101.229L97.69,121.365C97.69,123.715 99.613,125.637 101.962,125.637C104.312,125.637 106.235,123.715 106.235,121.365L106.235,113.412C108.828,112.584 112.096,112.387 115.751,112.169C124.55,111.643 135.502,110.987 144.801,100.827C156.762,87.754 159.303,64.119 156.668,58.135C155.759,56.07 154.309,55.76 153.525,55.76C152.76,55.76 152.022,56.042 151.333,56.596C148.921,58.531 144.601,58.764 139.599,59.035C130.827,59.506 119.91,60.095 110.929,69.91C108.461,72.607 106.414,75.699 104.741,78.966C103.306,81.905 102.611,85.022 102.276,88.981C102.172,88.973 102.068,88.969 101.962,88.969C101.927,88.969 101.892,88.97 101.857,88.97ZM106.235,93.873L107.54,93.511C107.799,92.434 108.225,91.42 108.788,90.5L107.948,89.016L109.37,87.595L110.791,86.173L112.275,87.013C113.195,86.45 114.208,86.025 115.287,85.765L115.742,84.123L119.762,84.123L120.218,85.765C121.296,86.025 122.309,86.45 123.229,87.013L124.713,86.173L127.556,89.016L126.716,90.5C127.279,91.42 127.705,92.434 127.964,93.511L129.606,93.967L129.606,97.987L127.964,98.443C127.705,99.521 127.279,100.534 126.716,101.454L127.556,102.938L126.134,104.36L124.713,105.781L123.229,104.941C122.309,105.505 121.296,105.929 120.218,106.189L119.762,107.832L117.752,107.832L115.742,107.832L115.287,106.189C114.208,105.93 113.195,105.504 112.275,104.941L110.791,105.781L109.37,104.36L107.948,102.938L108.788,101.454C108.225,100.534 107.8,99.521 107.54,98.443L106.235,98.081L106.235,93.873ZM117.752,89.054C121.575,89.054 124.675,92.154 124.675,95.977C124.675,99.801 121.575,102.9 117.752,102.9C113.929,102.9 110.829,99.801 110.829,95.977C110.829,92.154 113.929,89.054 117.752,89.054ZM145.155,84.665L132.506,84.665C131.404,84.665 130.458,84.27 129.667,83.479C128.877,82.689 128.481,81.743 128.481,80.641L128.481,80.066L127.332,80.066C125.427,80.066 123.801,79.392 122.453,78.045C121.106,76.697 120.432,75.07 120.432,73.167C120.432,71.262 121.106,69.636 122.453,68.288C123.801,66.941 125.427,66.267 127.332,66.267L148.029,66.267C148.342,66.267 148.611,66.381 148.838,66.608C149.066,66.835 149.179,67.106 149.179,67.417L149.179,80.641C149.179,81.743 148.784,82.689 147.994,83.479C147.203,84.27 146.257,84.665 145.155,84.665ZM128.481,69.717L127.331,69.717C126.372,69.717 125.558,70.051 124.887,70.723C124.217,71.394 123.882,72.209 123.882,73.167C123.882,74.124 124.217,74.94 124.887,75.61C125.558,76.281 126.372,76.616 127.331,76.616L128.481,76.616L128.481,69.717ZM83.018,72.468C90.056,72.468 95.759,76.946 95.759,82.471C95.759,85.093 94.48,87.474 92.383,89.259C92.463,90.999 92.827,93.337 94.098,94.535C91.662,94.535 89.175,92.937 87.701,91.781C86.252,92.234 84.672,92.484 83.018,92.484C75.993,92.484 70.29,87.997 70.29,82.471C70.29,76.946 75.993,72.468 83.018,72.468ZM62.69,51.426C68.553,51.426 73.305,55.976 73.305,61.593C73.305,68.264 68.674,69.963 68.674,73.845C68.674,74.665 68.14,75.437 67.294,76.056L67.294,80.296C67.294,81.725 66.125,82.895 64.695,82.895L64.655,82.895C64.28,83.596 63.54,84.073 62.69,84.073C61.839,84.073 61.1,83.596 60.724,82.895L60.684,82.895C59.254,82.895 58.085,81.725 58.085,80.296L58.085,76.058C57.239,75.441 56.7,74.67 56.7,73.845C56.7,69.963 52.074,68.264 52.074,61.597C52.074,55.976 56.826,51.426 62.69,51.426ZM57.148,67.887C58.207,69.442 59.404,71.196 59.475,73.612C59.839,74.016 61.134,74.674 62.685,74.674C64.241,74.674 65.536,74.016 65.899,73.607C65.975,71.196 67.172,69.438 68.23,67.887C69.413,66.157 70.53,64.52 70.53,61.593C70.53,57.518 67.011,54.201 62.69,54.201C58.367,54.201 54.853,57.518 54.853,61.593C54.853,64.52 55.97,66.157 57.148,67.887" style="fill:rgb(0,136,150);fill-rule:nonzero;"/>
        <path d="M218.355,87.687C218.355,90.617 217.867,93.273 216.89,95.657C215.914,98.041 214.549,100.08 212.798,101.774C211.046,103.468 208.949,104.775 206.508,105.694C204.067,106.613 201.382,107.073 198.452,107.073C195.638,107.073 193.053,106.57 190.699,105.565C188.343,104.56 186.305,103.152 184.581,101.343C182.858,99.534 181.523,97.351 180.575,94.795C179.627,92.239 179.153,89.439 179.153,86.395L179.153,67.44C179.153,64.454 179.656,61.682 180.661,59.126C181.666,56.57 183.045,54.388 184.796,52.578C186.548,50.769 188.63,49.347 191.043,48.314C193.456,47.28 196.069,46.762 198.884,46.762C200.779,46.762 202.502,46.95 204.053,47.323C205.604,47.696 207.011,48.17 208.274,48.744C209.538,49.319 210.644,49.965 211.592,50.683C212.539,51.401 213.329,52.076 213.961,52.708C215.167,53.914 215.167,55.12 213.961,56.326L211.979,58.308C211.405,58.882 210.859,59.184 210.342,59.212C209.825,59.241 209.222,58.94 208.533,58.308C207.786,57.618 206.652,56.814 205.13,55.896C203.607,54.976 201.525,54.517 198.884,54.517C197.045,54.517 195.423,54.847 194.015,55.507C192.608,56.168 191.402,57.087 190.397,58.265C189.392,59.442 188.63,60.821 188.114,62.4C187.597,63.98 187.338,65.66 187.338,67.44L187.338,86.395C187.338,90.244 188.286,93.359 190.182,95.743C192.077,98.127 194.834,99.319 198.452,99.319C202.358,99.319 205.288,98.242 207.241,96.088C209.193,93.934 210.17,91.134 210.17,87.687L210.17,86.998C210.17,86.539 210.112,86.223 209.998,86.05C209.883,85.878 209.682,85.735 209.394,85.62L194.489,77.176C193.857,76.774 193.441,76.257 193.24,75.625C193.039,74.994 193.139,74.333 193.541,73.644L194.834,71.404C195.179,70.714 195.681,70.269 196.342,70.068C197.002,69.867 197.648,69.968 198.28,70.37L216.545,80.881C217.292,81.34 217.78,81.786 218.01,82.216C218.24,82.647 218.355,83.265 218.355,84.069L218.355,87.687ZM224.3,106.211C223.496,106.211 222.864,105.981 222.404,105.522C221.945,105.062 221.715,104.431 221.715,103.626L221.715,81.656C221.715,77.464 222.921,74.046 225.333,71.404C227.746,68.761 231.106,67.44 235.414,67.44L238.516,67.44C239.32,67.44 239.952,67.67 240.411,68.13C240.871,68.589 241.1,69.221 241.1,70.025L241.1,72.179C241.1,72.983 240.871,73.615 240.411,74.075C239.952,74.534 239.32,74.764 238.516,74.764L235.931,74.764C233.748,74.764 232.126,75.439 231.063,76.788C230.001,78.138 229.469,79.905 229.469,82.087L229.469,103.626C229.469,104.431 229.239,105.062 228.78,105.522C228.321,105.981 227.688,106.211 226.885,106.211L224.3,106.211ZM260.83,99.749C262.611,99.749 264.262,99.405 265.784,98.716C267.306,98.026 268.628,97.107 269.748,95.958C270.867,94.809 271.744,93.446 272.375,91.866C273.007,90.286 273.323,88.606 273.323,86.826C273.323,85.045 273.007,83.365 272.375,81.786C271.744,80.206 270.867,78.842 269.748,77.693C268.628,76.544 267.306,75.625 265.784,74.936C264.262,74.247 262.611,73.902 260.83,73.902C259.05,73.902 257.398,74.247 255.876,74.936C254.354,75.625 253.033,76.544 251.913,77.693C250.793,78.842 249.917,80.206 249.285,81.786C248.653,83.365 248.337,85.045 248.337,86.826C248.337,88.606 248.653,90.286 249.285,91.866C249.917,93.446 250.793,94.809 251.913,95.958C253.033,97.107 254.354,98.026 255.876,98.716C257.398,99.405 259.05,99.749 260.83,99.749ZM260.83,107.073C258.016,107.073 255.388,106.542 252.947,105.479C250.506,104.416 248.366,102.966 246.528,101.128C244.69,99.29 243.24,97.15 242.177,94.709C241.115,92.268 240.583,89.64 240.583,86.826C240.583,84.011 241.115,81.384 242.177,78.942C243.24,76.501 244.69,74.362 246.528,72.524C248.366,70.685 250.506,69.235 252.947,68.173C255.388,67.11 258.016,66.579 260.83,66.579C263.645,66.579 266.273,67.11 268.714,68.173C271.155,69.235 273.294,70.685 275.132,72.524C276.97,74.362 278.421,76.501 279.483,78.942C280.546,81.384 281.077,84.011 281.077,86.826C281.077,89.64 280.546,92.268 279.483,94.709C278.421,97.15 276.97,99.29 275.132,101.128C273.294,102.966 271.155,104.416 268.714,105.479C266.273,106.542 263.645,107.073 260.83,107.073ZM328.808,70.025C328.808,69.221 329.038,68.589 329.497,68.13C329.957,67.67 330.589,67.44 331.393,67.44L333.978,67.44C334.782,67.44 335.414,67.67 335.873,68.13C336.333,68.589 336.562,69.221 336.562,70.025L336.562,92.426C336.562,94.494 336.204,96.432 335.485,98.242C334.768,100.051 333.763,101.602 332.47,102.894C331.178,104.187 329.613,105.206 327.775,105.953C325.936,106.699 323.897,107.073 321.657,107.073C319.36,107.073 317.364,106.699 315.669,105.953C313.975,105.206 312.582,104.287 311.491,103.196C310.974,102.679 310.428,102.679 309.854,103.196C308.705,104.172 307.283,105.062 305.589,105.867C303.895,106.671 301.956,107.073 299.773,107.073C297.533,107.073 295.494,106.699 293.656,105.953C291.818,105.206 290.253,104.187 288.961,102.894C287.668,101.602 286.663,100.051 285.945,98.242C285.227,96.432 284.868,94.494 284.868,92.426L284.868,70.025C284.868,69.221 285.098,68.589 285.557,68.13C286.017,67.67 286.649,67.44 287.453,67.44L290.037,67.44C290.842,67.44 291.474,67.67 291.933,68.13C292.393,68.589 292.622,69.221 292.622,70.025L292.622,92.426C292.622,93.345 292.766,94.235 293.053,95.097C293.341,95.958 293.771,96.734 294.345,97.423C294.92,98.112 295.666,98.672 296.586,99.103C297.505,99.534 298.567,99.749 299.773,99.749C300.98,99.749 302.028,99.534 302.918,99.103C303.809,98.672 304.541,98.112 305.115,97.423C305.689,96.734 306.12,95.958 306.407,95.097C306.695,94.235 306.838,93.345 306.838,92.426L306.838,70.025C306.838,69.221 307.068,68.589 307.528,68.13C307.987,67.67 308.619,67.44 309.423,67.44L312.008,67.44C312.812,67.44 313.444,67.67 313.903,68.13C314.363,68.589 314.592,69.221 314.592,70.025L314.592,92.426C314.592,93.345 314.722,94.235 314.98,95.097C315.238,95.958 315.655,96.734 316.229,97.423C316.804,98.112 317.536,98.672 318.426,99.103C319.317,99.534 320.393,99.749 321.657,99.749C322.921,99.749 323.998,99.534 324.888,99.103C325.778,98.672 326.511,98.112 327.085,97.423C327.66,96.734 328.09,95.958 328.378,95.097C328.665,94.235 328.808,93.345 328.808,92.426L328.808,70.025Z" style="fill:rgb(254,148,0);"/>
        <path d="M415.359,50.209C415.359,49.405 415.589,48.773 416.048,48.314C416.508,47.854 417.139,47.624 417.944,47.624L420.959,47.624C421.763,47.624 422.395,47.854 422.855,48.314C423.314,48.773 423.544,49.405 423.544,50.209L423.544,87.257C423.544,90.186 423.085,92.871 422.165,95.312C421.246,97.753 419.939,99.836 418.245,101.559C416.551,103.282 414.512,104.632 412.128,105.608C409.744,106.584 407.088,107.073 404.158,107.073C402.378,107.073 400.798,106.915 399.42,106.599C398.041,106.283 396.792,105.838 395.672,105.263C394.552,104.689 393.532,104.014 392.613,103.239C391.695,102.463 390.833,101.645 390.029,100.783C389.167,99.922 388.363,99.922 387.616,100.783C385.951,102.794 383.997,104.344 381.758,105.436C379.517,106.527 376.789,107.073 373.573,107.073C370.643,107.073 367.987,106.584 365.603,105.608C363.219,104.632 361.18,103.282 359.486,101.559C357.791,99.836 356.485,97.753 355.566,95.312C354.647,92.871 354.187,90.186 354.187,87.257L354.187,50.209C354.187,49.405 354.417,48.773 354.876,48.314C355.336,47.854 355.968,47.624 356.772,47.624L359.787,47.624C360.592,47.624 361.223,47.854 361.683,48.314C362.142,48.773 362.372,49.405 362.372,50.209L362.372,87.257C362.372,88.98 362.587,90.574 363.018,92.038C363.449,93.503 364.124,94.781 365.043,95.872C365.962,96.964 367.125,97.811 368.532,98.414C369.94,99.017 371.62,99.319 373.573,99.319C377.421,99.319 380.25,98.17 382.059,95.872C383.869,93.575 384.773,90.703 384.773,87.257L384.773,50.209C384.773,49.405 385.003,48.773 385.462,48.314C385.922,47.854 386.554,47.624 387.358,47.624L390.373,47.624C391.177,47.624 391.809,47.854 392.269,48.314C392.728,48.773 392.958,49.405 392.958,50.209L392.958,87.257C392.958,88.98 393.173,90.574 393.604,92.038C394.035,93.503 394.71,94.781 395.629,95.872C396.548,96.964 397.711,97.811 399.118,98.414C400.525,99.017 402.206,99.319 404.158,99.319C408.007,99.319 410.836,98.17 412.645,95.872C414.454,93.575 415.359,90.703 415.359,87.257L415.359,50.209ZM448.012,99.749C449.793,99.749 451.444,99.405 452.966,98.716C454.489,98.026 455.81,97.107 456.93,95.958C458.05,94.809 458.926,93.446 459.557,91.866C460.189,90.286 460.505,88.606 460.505,86.826C460.505,85.045 460.189,83.365 459.557,81.786C458.926,80.206 458.05,78.842 456.93,77.693C455.81,76.544 454.489,75.625 452.966,74.936C451.444,74.247 449.793,73.902 448.012,73.902C446.232,73.902 444.58,74.247 443.059,74.936C441.536,75.625 440.215,76.544 439.095,77.693C437.975,78.842 437.099,80.206 436.467,81.786C435.836,83.365 435.52,85.045 435.52,86.826C435.52,88.606 435.836,90.286 436.467,91.866C437.099,93.446 437.975,94.809 439.095,95.958C440.215,97.107 441.536,98.026 443.059,98.716C444.58,99.405 446.232,99.749 448.012,99.749ZM448.012,107.073C445.198,107.073 442.57,106.542 440.129,105.479C437.688,104.416 435.548,102.966 433.71,101.128C431.872,99.29 430.422,97.15 429.359,94.709C428.297,92.268 427.765,89.64 427.765,86.826C427.765,84.011 428.297,81.384 429.359,78.942C430.422,76.501 431.872,74.362 433.71,72.524C435.548,70.685 437.688,69.235 440.129,68.173C442.57,67.11 445.198,66.579 448.012,66.579C450.827,66.579 453.455,67.11 455.896,68.173C458.337,69.235 460.477,70.685 462.315,72.524C464.153,74.362 465.603,76.501 466.665,78.942C467.728,81.384 468.259,84.011 468.259,86.826C468.259,89.64 467.728,92.268 466.665,94.709C465.603,97.15 464.153,99.29 462.315,101.128C460.477,102.966 458.337,104.416 455.896,105.479C453.455,106.542 450.827,107.073 448.012,107.073ZM474.635,106.211C473.831,106.211 473.199,105.981 472.739,105.522C472.28,105.062 472.05,104.431 472.05,103.626L472.05,81.656C472.05,77.464 473.257,74.046 475.669,71.404C478.081,68.761 481.442,67.44 485.749,67.44L488.851,67.44C489.655,67.44 490.287,67.67 490.746,68.13C491.206,68.589 491.436,69.221 491.436,70.025L491.436,72.179C491.436,72.983 491.206,73.615 490.746,74.075C490.287,74.534 489.655,74.764 488.851,74.764L486.266,74.764C484.084,74.764 482.461,75.439 481.398,76.788C480.336,78.138 479.804,79.905 479.804,82.087L479.804,103.626C479.804,104.431 479.575,105.062 479.115,105.522C478.656,105.981 478.024,106.211 477.22,106.211L474.635,106.211ZM518.575,106.211C517.139,106.211 516.076,105.436 515.387,103.885L507.375,86.912C507.202,86.51 506.93,86.28 506.556,86.223C506.183,86.165 505.824,86.309 505.479,86.654L502.378,89.841C502.033,90.186 501.76,90.545 501.559,90.918C501.358,91.292 501.258,91.765 501.258,92.34L501.258,103.626C501.258,104.431 501.028,105.062 500.568,105.522C500.109,105.981 499.477,106.211 498.673,106.211L496.088,106.211C495.284,106.211 494.652,105.981 494.193,105.522C493.733,105.062 493.504,104.431 493.504,103.626L493.504,50.209C493.504,49.405 493.733,48.773 494.193,48.314C494.652,47.854 495.284,47.624 496.088,47.624L498.673,47.624C499.477,47.624 500.109,47.854 500.568,48.314C501.028,48.773 501.258,49.405 501.258,50.209L501.258,78.986C501.258,79.445 501.387,79.747 501.645,79.89C501.904,80.034 502.205,79.933 502.55,79.589L513.147,68.819C513.607,68.359 514.066,68.015 514.526,67.785C514.985,67.555 515.617,67.44 516.421,67.44L520.987,67.44C521.964,67.44 522.553,67.757 522.754,68.388C522.955,69.02 522.768,69.623 522.194,70.197L513.923,78.382C512.889,79.359 512.63,80.421 513.147,81.57L523.572,103.11C523.974,103.971 524.003,104.704 523.658,105.307C523.314,105.91 522.711,106.211 521.849,106.211L518.575,106.211ZM529.69,61.409C528.885,61.409 528.254,61.18 527.794,60.72C527.334,60.261 527.105,59.629 527.105,58.825L527.105,54.517C527.105,53.713 527.334,53.081 527.794,52.621C528.254,52.162 528.885,51.932 529.69,51.932L532.274,51.932C533.078,51.932 533.71,52.162 534.17,52.621C534.629,53.081 534.859,53.713 534.859,54.517L534.859,58.825C534.859,59.629 534.629,60.261 534.17,60.72C533.71,61.18 533.078,61.409 532.274,61.409L529.69,61.409ZM529.69,106.211C528.885,106.211 528.254,105.981 527.794,105.522C527.334,105.062 527.105,104.431 527.105,103.626L527.105,70.025C527.105,69.221 527.334,68.589 527.794,68.13C528.254,67.67 528.885,67.44 529.69,67.44L532.274,67.44C533.078,67.44 533.71,67.67 534.17,68.13C534.629,68.589 534.859,69.221 534.859,70.025L534.859,103.626C534.859,104.431 534.629,105.062 534.17,105.522C533.71,105.981 533.078,106.211 532.274,106.211L529.69,106.211ZM567.943,106.211C567.139,106.211 566.507,105.981 566.048,105.522C565.588,105.062 565.359,104.431 565.359,103.626L565.359,82.087C565.359,79.905 564.684,77.995 563.334,76.358C561.984,74.721 559.931,73.902 557.174,73.902C554.417,73.902 552.363,74.721 551.013,76.358C549.664,77.995 548.989,79.905 548.989,82.087L548.989,103.626C548.989,104.431 548.759,105.062 548.3,105.522C547.84,105.981 547.208,106.211 546.404,106.211L543.819,106.211C543.015,106.211 542.383,105.981 541.924,105.522C541.464,105.062 541.235,104.431 541.235,103.626L541.235,82.087C541.235,80.019 541.622,78.038 542.397,76.142C543.173,74.247 544.25,72.595 545.629,71.188C547.007,69.781 548.673,68.661 550.626,67.828C552.579,66.995 554.761,66.579 557.174,66.579C559.586,66.579 561.769,66.995 563.721,67.828C565.675,68.661 567.34,69.781 568.719,71.188C570.097,72.595 571.174,74.247 571.95,76.142C572.725,78.038 573.113,80.019 573.113,82.087L573.113,103.626C573.113,104.431 572.883,105.062 572.424,105.522C571.964,105.981 571.332,106.211 570.528,106.211L567.943,106.211ZM593.705,88.549C594.681,88.549 595.614,88.362 596.504,87.989C597.395,87.615 598.17,87.099 598.831,86.438C599.491,85.777 600.023,85.002 600.425,84.112C600.827,83.222 601.028,82.259 601.028,81.226C601.028,80.192 600.827,79.23 600.425,78.339C600.023,77.449 599.491,76.673 598.831,76.013C598.17,75.352 597.395,74.835 596.504,74.462C595.614,74.089 594.681,73.902 593.705,73.902C592.728,73.902 591.795,74.089 590.905,74.462C590.014,74.835 589.239,75.352 588.578,76.013C587.917,76.673 587.386,77.449 586.984,78.339C586.582,79.23 586.381,80.192 586.381,81.226C586.381,82.259 586.582,83.222 586.984,84.112C587.386,85.002 587.917,85.777 588.578,86.438C589.239,87.099 590.014,87.615 590.905,87.989C591.795,88.362 592.728,88.549 593.705,88.549ZM597.582,120.944C596.605,119.68 596.835,118.503 598.271,117.412C599.018,116.894 599.649,116.249 600.166,115.473C600.683,114.698 600.942,113.649 600.942,112.328C600.942,110.49 600.238,109.011 598.831,107.891C597.424,106.771 595.629,106.211 593.446,106.211L578.627,106.211C577.823,106.211 577.191,105.981 576.732,105.522C576.272,105.062 576.042,104.431 576.042,103.626L576.042,101.473C576.042,100.209 576.53,98.916 577.507,97.595L581.556,91.995C581.843,91.536 581.944,91.076 581.858,90.617C581.772,90.157 581.614,89.784 581.384,89.497C580.522,88.348 579.847,87.056 579.359,85.62C578.871,84.184 578.627,82.719 578.627,81.226C578.627,79.215 579.043,77.32 579.876,75.539C580.709,73.759 581.815,72.208 583.193,70.887C584.572,69.566 586.166,68.518 587.975,67.742C589.784,66.967 591.694,66.579 593.705,66.579C594.279,66.579 594.868,66.608 595.471,66.665C596.074,66.722 596.777,66.895 597.582,67.182C598.386,67.411 598.96,67.44 599.305,67.268C599.649,67.096 599.965,66.809 600.252,66.407L603.009,62.702C603.469,62.07 604.029,61.711 604.689,61.625C605.35,61.539 605.996,61.725 606.628,62.185L608.351,63.391C608.983,63.85 609.342,64.411 609.428,65.071C609.514,65.732 609.328,66.378 608.868,67.01L606.111,70.714C605.824,71.174 605.767,71.662 605.939,72.179C606.111,72.696 606.341,73.184 606.628,73.644C608.064,75.998 608.782,78.526 608.782,81.226C608.782,83.236 608.366,85.131 607.533,86.912C606.7,88.693 605.594,90.229 604.216,91.521C602.837,92.814 601.243,93.833 599.434,94.58C597.625,95.327 595.715,95.7 593.705,95.7C592.9,95.7 592.154,95.643 591.464,95.528C590.775,95.413 590.172,95.298 589.655,95.183C589.196,95.068 588.765,95.054 588.363,95.14C587.961,95.226 587.616,95.499 587.329,95.958L585.95,97.854C585.433,98.658 585.692,99.06 586.726,99.06L593.36,99.06C595.427,99.06 597.395,99.376 599.262,100.008C601.128,100.639 602.765,101.53 604.173,102.679C605.58,103.827 606.686,105.22 607.49,106.857C608.294,108.494 608.696,110.318 608.696,112.328C608.696,115.258 608.078,117.613 606.843,119.393C605.608,121.174 604.273,122.552 602.837,123.529C602.205,123.931 601.573,124.06 600.942,123.916C600.31,123.773 599.764,123.443 599.305,122.926L597.582,120.944Z" style="fill:rgb(0,136,150);"/>
    </g>
</svg>
