<?xml version="1.0" encoding="UTF-8" standalone="no"?>
<!DOCTYPE svg PUBLIC "-//W3C//DTD SVG 1.1//EN" "http://www.w3.org/Graphics/SVG/1.1/DTD/svg11.dtd">
<svg width="100%" height="100%" viewBox="0 0 2481 1749" version="1.1" xmlns="http://www.w3.org/2000/svg" xmlns:xlink="http://www.w3.org/1999/xlink" xml:space="preserve" style="fill-rule:evenodd;clip-rule:evenodd;stroke-linejoin:round;stroke-miterlimit:1.41421;">
    <g id="Warstwa.-1" transform="matrix(4.16667,0,0,4.16667,0,0)">
        <rect x="297.64" y="0" width="297.64" height="419.53" style="fill:rgb(0,43,84);"/>
        <path d="M146.356,221.222C145.891,221.222 145.427,221.112 145.002,220.893L120.032,207.986C119.146,207.528 118.551,206.652 118.452,205.658L114.313,163.86C114.168,162.398 115.122,161.053 116.549,160.705L145.658,153.616C145.889,153.56 146.123,153.533 146.356,153.533C147.01,153.533 147.653,153.75 148.178,154.162C148.889,154.722 149.304,155.576 149.304,156.481L149.304,160.259L175.55,164.038C177.111,164.263 178.219,165.677 178.063,167.246L174.259,205.658C174.161,206.652 173.566,207.528 172.679,207.986L147.71,220.893C147.285,221.112 146.821,221.222 146.356,221.222" style="fill:rgb(0,43,84);fill-rule:nonzero;"/>
        <path d="M82.057,247.229L74.083,236.315L74.083,247.229L69.22,247.229L69.22,228.371L74.225,228.371L81.859,238.747L81.859,228.371L86.75,228.371L86.75,247.229L82.057,247.229Z" style="fill:rgb(231,54,75);fill-rule:nonzero;"/>
        <path d="M89.18,237.815C89.18,231.821 93.76,228.06 99.387,228.06C103.6,228.06 106.144,230.294 107.445,232.64L103.373,234.761C102.667,233.517 101.225,232.358 99.387,232.358C96.305,232.358 94.128,234.733 94.128,237.815C94.128,240.897 96.305,243.272 99.387,243.272C100.772,243.272 102.186,242.707 102.865,242.141L102.865,240.67L98.623,240.67L98.623,236.401L107.728,236.401L107.728,243.894C105.692,246.128 102.95,247.57 99.387,247.57C93.76,247.57 89.18,243.809 89.18,237.815" style="fill:rgb(231,54,75);fill-rule:nonzero;"/>
        <path d="M121.637,234.647C121.637,233.346 120.676,232.611 119.375,232.611L115.445,232.611L115.445,236.655L119.375,236.655C120.676,236.655 121.637,235.919 121.637,234.647M110.581,247.229L110.581,228.371L120.025,228.371C124.266,228.371 126.585,231.226 126.585,234.647C126.585,238.04 124.266,240.896 120.025,240.896L115.445,240.896L115.445,247.229L110.581,247.229Z" style="fill:rgb(0,43,84);fill-rule:nonzero;"/>
        <path d="M143.01,237.815C143.01,234.733 141.003,232.358 137.892,232.358C134.754,232.358 132.746,234.733 132.746,237.815C132.746,240.869 134.754,243.272 137.892,243.272C141.003,243.272 143.01,240.869 143.01,237.815M127.799,237.815C127.799,232.075 132.124,228.06 137.892,228.06C143.66,228.06 147.958,232.075 147.958,237.815C147.958,243.554 143.66,247.57 137.892,247.57C132.124,247.57 127.799,243.554 127.799,237.815" style="fill:rgb(0,43,84);fill-rule:nonzero;"/>
        <path d="M150.415,247.229L150.415,228.371L155.278,228.371L155.278,242.988L162.856,242.988L162.856,247.229L150.415,247.229Z" style="fill:rgb(0,43,84);fill-rule:nonzero;"/>
        <path d="M173.513,233.178L171.11,240.275L175.916,240.275L173.513,233.178ZM178.179,247.23L177.245,244.516L169.809,244.516L168.876,247.23L163.363,247.23L170.46,228.371L176.567,228.371L183.692,247.23L178.179,247.23Z" style="fill:rgb(0,43,84);fill-rule:nonzero;"/>
        <path d="M197.913,247.229L189.939,236.315L189.939,247.229L185.076,247.229L185.076,228.371L190.081,228.371L197.715,238.747L197.715,228.371L202.606,228.371L202.606,247.229L197.913,247.229Z" style="fill:rgb(0,43,84);fill-rule:nonzero;"/>
        <path d="M219.144,237.786C219.144,234.874 217.391,232.611 213.941,232.611L210.859,232.611L210.859,242.988L213.913,242.988C217.221,242.988 219.144,240.585 219.144,237.786M205.996,247.229L205.996,228.371L213.913,228.371C219.851,228.371 224.12,231.933 224.12,237.786C224.12,243.639 219.851,247.229 213.941,247.229L205.996,247.229Z" style="fill:rgb(0,43,84);fill-rule:nonzero;"/>
        <path d="M146.356,218.274L121.386,205.367L117.247,163.57L146.356,156.481L146.356,218.274Z" style="fill:rgb(231,54,75);fill-rule:nonzero;"/>
        <path d="M146.356,218.274L171.326,205.367L175.13,166.956L146.356,162.812L146.356,218.274Z" style="fill:rgb(183,7,54);fill-rule:nonzero;"/>
        <path d="M146.356,191.904L141.69,191.904L146.356,181L151.022,191.904L146.356,191.904ZM162.6,204.922L146.356,169.652L130.112,204.922L136.12,204.922L139.405,197.245L153.307,197.245L156.592,204.922L162.6,204.922Z" style="fill:white;fill-rule:nonzero;"/>
        <path d="M146.356,169.652L146.356,181.001L151.022,191.904L146.356,191.904L146.356,197.245L153.307,197.245L156.592,204.922L162.6,204.922L146.356,169.652Z" style="fill:rgb(248,191,174);fill-rule:nonzero;"/>
        <path d="M146.356,156.481L117.247,163.57L121.386,205.367L120.833,166.429L146.356,156.481Z" style="fill:rgb(183,7,54);fill-rule:nonzero;"/>
        <g transform="matrix(1,0,0,1,10.7785,0.2865)">
            <path d="M90.748,254.942L90.051,256.999L91.444,256.999L90.748,254.942ZM92.1,259.014L91.83,258.228L89.675,258.228L89.404,259.014L87.806,259.014L89.863,253.549L91.633,253.549L93.698,259.014L92.1,259.014Z" style="fill:rgb(0,43,84);fill-rule:nonzero;"/>
        </g>
        <g transform="matrix(1,0,0,1,10.7785,0.2865)">
            <path d="M97.818,259.015L95.507,255.852L95.507,259.015L94.098,259.015L94.098,253.55L95.548,253.55L97.76,256.557L97.76,253.55L99.178,253.55L99.178,259.015L97.818,259.015Z" style="fill:rgb(0,43,84);fill-rule:nonzero;"/>
        </g>
        <g transform="matrix(1,0,0,1,10.7785,0.2865)">
            <path d="M99.88,256.286C99.88,254.549 101.208,253.459 102.838,253.459C104.059,253.459 104.797,254.106 105.173,254.787L103.993,255.401C103.789,255.041 103.371,254.705 102.838,254.705C101.945,254.705 101.314,255.393 101.314,256.286C101.314,257.18 101.945,257.868 102.838,257.868C103.24,257.868 103.65,257.704 103.846,257.54L103.846,257.114L102.617,257.114L102.617,255.877L105.255,255.877L105.255,258.048C104.666,258.695 103.871,259.113 102.838,259.113C101.208,259.113 99.88,258.023 99.88,256.286" style="fill:rgb(0,43,84);fill-rule:nonzero;"/>
        </g>
        <g transform="matrix(1,0,0,1,10.7785,0.2865)">
            <path d="M106.081,256.803L106.081,253.55L107.515,253.55L107.515,256.753C107.515,257.401 107.9,257.868 108.67,257.868C109.424,257.868 109.817,257.401 109.817,256.753L109.817,253.55L111.243,253.55L111.243,256.794C111.243,258.155 110.415,259.114 108.67,259.114C106.909,259.114 106.081,258.147 106.081,256.803" style="fill:rgb(0,43,84);fill-rule:nonzero;"/>
        </g>
        <g transform="matrix(1,0,0,1,10.7785,0.2865)">
            <path d="M112.224,259.015L112.224,253.55L113.633,253.55L113.633,257.786L115.829,257.786L115.829,259.015L112.224,259.015Z" style="fill:rgb(0,43,84);fill-rule:nonzero;"/>
        </g>
        <g transform="matrix(1,0,0,1,10.7785,0.2865)">
            <path d="M118.917,254.942L118.22,256.999L119.613,256.999L118.917,254.942ZM120.269,259.014L119.999,258.228L117.844,258.228L117.573,259.014L115.975,259.014L118.032,253.549L119.802,253.549L121.867,259.014L120.269,259.014Z" style="fill:rgb(0,43,84);fill-rule:nonzero;"/>
        </g>
        <g transform="matrix(1,0,0,1,10.7785,0.2865)">
            <path d="M125.47,255.36C125.47,254.991 125.159,254.778 124.79,254.778L123.676,254.778L123.676,255.95L124.79,255.95C125.159,255.95 125.47,255.745 125.47,255.36M125.315,259.014L124.397,257.179L123.676,257.179L123.676,259.014L122.266,259.014L122.266,253.549L125.003,253.549C126.216,253.549 126.904,254.352 126.904,255.368C126.904,256.319 126.323,256.827 125.814,257.007L126.928,259.014L125.315,259.014Z" style="fill:rgb(0,43,84);fill-rule:nonzero;"/>
        </g>
        <g transform="matrix(1,0,0,1,10.7785,0.2865)">
            <path d="M129.499,256.286C129.499,254.599 130.777,253.459 132.457,253.459C133.776,253.459 134.481,254.205 134.842,254.926L133.629,255.5C133.449,255.065 132.981,254.705 132.457,254.705C131.564,254.705 130.933,255.393 130.933,256.286C130.933,257.18 131.564,257.868 132.457,257.868C132.981,257.868 133.449,257.507 133.629,257.073L134.842,257.646C134.489,258.351 133.776,259.113 132.457,259.113C130.777,259.113 129.499,257.966 129.499,256.286" style="fill:rgb(0,43,84);fill-rule:nonzero;"/>
        </g>
        <g transform="matrix(1,0,0,1,10.7785,0.2865)">
            <path d="M139.576,256.286C139.576,255.393 138.994,254.705 138.093,254.705C137.183,254.705 136.601,255.393 136.601,256.286C136.601,257.171 137.183,257.868 138.093,257.868C138.994,257.868 139.576,257.171 139.576,256.286M135.167,256.286C135.167,254.623 136.421,253.459 138.093,253.459C139.764,253.459 141.01,254.623 141.01,256.286C141.01,257.949 139.764,259.113 138.093,259.113C136.421,259.113 135.167,257.949 135.167,256.286" style="fill:rgb(0,43,84);fill-rule:nonzero;"/>
        </g>
        <g transform="matrix(1,0,0,1,10.7785,0.2865)">
            <path d="M145.44,259.015L143.129,255.852L143.129,259.015L141.72,259.015L141.72,253.55L143.17,253.55L145.382,256.557L145.382,253.55L146.8,253.55L146.8,259.015L145.44,259.015Z" style="fill:rgb(0,43,84);fill-rule:nonzero;"/>
        </g>
        <g transform="matrix(1,0,0,1,10.7785,0.2865)">
            <path d="M147.782,259.015L147.782,253.55L151.789,253.55L151.789,254.779L149.191,254.779L149.191,255.631L151.731,255.631L151.731,256.861L149.191,256.861L149.191,259.015L147.782,259.015Z" style="fill:rgb(0,43,84);fill-rule:nonzero;"/>
        </g>
        <g transform="matrix(1,0,0,1,10.7785,0.2865)">
            <path d="M152.549,259.015L152.549,253.55L156.556,253.55L156.556,254.779L153.958,254.779L153.958,255.631L156.498,255.631L156.498,256.861L153.958,256.861L153.958,257.786L156.556,257.786L156.556,259.015L152.549,259.015Z" style="fill:rgb(0,43,84);fill-rule:nonzero;"/>
        </g>
        <g transform="matrix(1,0,0,1,10.7785,0.2865)">
            <path d="M160.577,255.36C160.577,254.991 160.266,254.778 159.897,254.778L158.783,254.778L158.783,255.95L159.897,255.95C160.266,255.95 160.577,255.745 160.577,255.36M160.421,259.014L159.504,257.179L158.783,257.179L158.783,259.014L157.373,259.014L157.373,253.549L160.11,253.549C161.323,253.549 162.011,254.352 162.011,255.368C162.011,256.319 161.43,256.827 160.921,257.007L162.035,259.014L160.421,259.014Z" style="fill:rgb(0,43,84);fill-rule:nonzero;"/>
        </g>
        <g transform="matrix(1,0,0,1,10.7785,0.2865)">
            <path d="M162.787,259.015L162.787,253.55L166.794,253.55L166.794,254.779L164.196,254.779L164.196,255.631L166.736,255.631L166.736,256.861L164.196,256.861L164.196,257.786L166.794,257.786L166.794,259.015L162.787,259.015Z" style="fill:rgb(0,43,84);fill-rule:nonzero;"/>
        </g>
        <g transform="matrix(1,0,0,1,10.7785,0.2865)">
            <path d="M171.332,259.015L169.021,255.852L169.021,259.015L167.612,259.015L167.612,253.55L169.062,253.55L171.274,256.557L171.274,253.55L172.692,253.55L172.692,259.015L171.332,259.015Z" style="fill:rgb(0,43,84);fill-rule:nonzero;"/>
        </g>
        <g transform="matrix(1,0,0,1,10.7785,0.2865)">
            <path d="M173.394,256.286C173.394,254.599 174.672,253.459 176.352,253.459C177.671,253.459 178.376,254.205 178.737,254.926L177.524,255.5C177.344,255.065 176.876,254.705 176.352,254.705C175.459,254.705 174.828,255.393 174.828,256.286C174.828,257.18 175.459,257.868 176.352,257.868C176.876,257.868 177.344,257.507 177.524,257.073L178.737,257.646C178.384,258.351 177.671,259.113 176.352,259.113C174.672,259.113 173.394,257.966 173.394,256.286" style="fill:rgb(0,43,84);fill-rule:nonzero;"/>
        </g>
        <g transform="matrix(1,0,0,1,10.7785,0.2865)">
            <path d="M179.342,259.015L179.342,253.55L183.349,253.55L183.349,254.779L180.751,254.779L180.751,255.631L183.291,255.631L183.291,256.861L180.751,256.861L180.751,257.786L183.349,257.786L183.349,259.015L179.342,259.015Z" style="fill:rgb(0,43,84);fill-rule:nonzero;"/>
        </g>
        <path d="M446.146,221.222C445.681,221.222 445.217,221.112 444.792,220.893L419.822,207.986C418.935,207.528 418.341,206.652 418.242,205.658L414.103,163.86C413.958,162.398 414.912,161.053 416.339,160.705L445.448,153.616C445.679,153.56 445.913,153.533 446.146,153.533C446.8,153.533 447.443,153.75 447.968,154.162C448.679,154.722 449.094,155.576 449.094,156.481L449.094,160.259L475.34,164.038C476.901,164.263 478.009,165.677 477.853,167.246L474.049,205.658C473.951,206.652 473.356,207.528 472.469,207.986L447.5,220.893C447.075,221.112 446.611,221.222 446.146,221.222" style="fill:white;fill-rule:nonzero;"/>
        <path d="M381.847,247.229L373.873,236.315L373.873,247.229L369.01,247.229L369.01,228.371L374.015,228.371L381.649,238.747L381.649,228.371L386.54,228.371L386.54,247.229L381.847,247.229Z" style="fill:rgb(231,54,75);fill-rule:nonzero;"/>
        <path d="M388.97,237.815C388.97,231.821 393.55,228.06 399.177,228.06C403.39,228.06 405.934,230.294 407.235,232.64L403.163,234.761C402.457,233.517 401.015,232.358 399.177,232.358C396.095,232.358 393.918,234.733 393.918,237.815C393.918,240.897 396.095,243.272 399.177,243.272C400.562,243.272 401.976,242.707 402.655,242.141L402.655,240.67L398.413,240.67L398.413,236.401L407.518,236.401L407.518,243.894C405.482,246.128 402.74,247.57 399.177,247.57C393.55,247.57 388.97,243.809 388.97,237.815" style="fill:rgb(231,54,75);fill-rule:nonzero;"/>
        <path d="M421.426,234.647C421.426,233.346 420.465,232.611 419.164,232.611L415.234,232.611L415.234,236.655L419.164,236.655C420.465,236.655 421.426,235.919 421.426,234.647M410.37,247.229L410.37,228.371L419.814,228.371C424.055,228.371 426.374,231.226 426.374,234.647C426.374,238.04 424.055,240.896 419.814,240.896L415.234,240.896L415.234,247.229L410.37,247.229Z" style="fill:white;fill-rule:nonzero;"/>
        <path d="M442.8,237.815C442.8,234.733 440.793,232.358 437.682,232.358C434.544,232.358 432.536,234.733 432.536,237.815C432.536,240.869 434.544,243.272 437.682,243.272C440.793,243.272 442.8,240.869 442.8,237.815M427.589,237.815C427.589,232.075 431.914,228.06 437.682,228.06C443.45,228.06 447.748,232.075 447.748,237.815C447.748,243.554 443.45,247.57 437.682,247.57C431.914,247.57 427.589,243.554 427.589,237.815" style="fill:white;fill-rule:nonzero;"/>
        <path d="M450.205,247.229L450.205,228.371L455.068,228.371L455.068,242.988L462.646,242.988L462.646,247.229L450.205,247.229Z" style="fill:white;fill-rule:nonzero;"/>
        <path d="M473.303,233.178L470.9,240.275L475.706,240.275L473.303,233.178ZM477.969,247.23L477.035,244.516L469.599,244.516L468.666,247.23L463.153,247.23L470.25,228.371L476.357,228.371L483.482,247.23L477.969,247.23Z" style="fill:white;fill-rule:nonzero;"/>
        <path d="M497.703,247.229L489.729,236.315L489.729,247.229L484.866,247.229L484.866,228.371L489.871,228.371L497.505,238.747L497.505,228.371L502.396,228.371L502.396,247.229L497.703,247.229Z" style="fill:white;fill-rule:nonzero;"/>
        <path d="M518.934,237.786C518.934,234.874 517.181,232.611 513.731,232.611L510.649,232.611L510.649,242.988L513.703,242.988C517.011,242.988 518.934,240.585 518.934,237.786M505.786,247.229L505.786,228.371L513.703,228.371C519.641,228.371 523.91,231.933 523.91,237.786C523.91,243.639 519.641,247.229 513.731,247.229L505.786,247.229Z" style="fill:white;fill-rule:nonzero;"/>
        <path d="M446.146,218.274L421.176,205.367L417.037,163.57L446.146,156.481L446.146,218.274Z" style="fill:rgb(231,54,75);fill-rule:nonzero;"/>
        <path d="M446.146,218.274L471.116,205.367L474.92,166.956L446.146,162.812L446.146,218.274Z" style="fill:rgb(183,7,54);fill-rule:nonzero;"/>
        <path d="M446.146,191.904L441.48,191.904L446.146,181L450.812,191.904L446.146,191.904ZM462.39,204.922L446.146,169.652L429.902,204.922L435.91,204.922L439.195,197.245L453.097,197.245L456.382,204.922L462.39,204.922Z" style="fill:white;fill-rule:nonzero;"/>
        <path d="M446.146,169.652L446.146,181.001L450.812,191.904L446.146,191.904L446.146,197.245L453.097,197.245L456.382,204.922L462.39,204.922L446.146,169.652Z" style="fill:rgb(248,191,174);fill-rule:nonzero;"/>
        <path d="M446.146,156.481L417.037,163.57L421.176,205.367L420.623,166.429L446.146,156.481Z" style="fill:rgb(183,7,54);fill-rule:nonzero;"/>
        <g transform="matrix(1,0,0,1,11.092,0)">
            <path d="M390.539,254.942L389.842,256.999L391.235,256.999L390.539,254.942ZM391.891,259.014L391.621,258.228L389.466,258.228L389.195,259.014L387.597,259.014L389.654,253.549L391.424,253.549L393.489,259.014L391.891,259.014Z" style="fill:white;fill-rule:nonzero;"/>
        </g>
        <g transform="matrix(1,0,0,1,11.092,0)">
            <path d="M397.608,259.015L395.297,255.852L395.297,259.015L393.888,259.015L393.888,253.55L395.338,253.55L397.55,256.557L397.55,253.55L398.968,253.55L398.968,259.015L397.608,259.015Z" style="fill:white;fill-rule:nonzero;"/>
        </g>
        <g transform="matrix(1,0,0,1,11.092,0)">
            <path d="M399.67,256.286C399.67,254.549 400.998,253.459 402.628,253.459C403.849,253.459 404.587,254.106 404.963,254.787L403.783,255.401C403.579,255.041 403.161,254.705 402.628,254.705C401.735,254.705 401.104,255.393 401.104,256.286C401.104,257.18 401.735,257.868 402.628,257.868C403.03,257.868 403.44,257.704 403.636,257.54L403.636,257.114L402.407,257.114L402.407,255.877L405.045,255.877L405.045,258.048C404.456,258.695 403.661,259.113 402.628,259.113C400.998,259.113 399.67,258.023 399.67,256.286" style="fill:white;fill-rule:nonzero;"/>
        </g>
        <g transform="matrix(1,0,0,1,11.092,0)">
            <path d="M405.871,256.803L405.871,253.55L407.305,253.55L407.305,256.753C407.305,257.401 407.69,257.868 408.46,257.868C409.214,257.868 409.607,257.401 409.607,256.753L409.607,253.55L411.033,253.55L411.033,256.794C411.033,258.155 410.205,259.114 408.46,259.114C406.699,259.114 405.871,258.147 405.871,256.803" style="fill:white;fill-rule:nonzero;"/>
        </g>
        <g transform="matrix(1,0,0,1,11.092,0)">
            <path d="M412.015,259.015L412.015,253.55L413.424,253.55L413.424,257.786L415.62,257.786L415.62,259.015L412.015,259.015Z" style="fill:white;fill-rule:nonzero;"/>
        </g>
        <g transform="matrix(1,0,0,1,11.092,0)">
            <path d="M418.708,254.942L418.011,256.999L419.404,256.999L418.708,254.942ZM420.06,259.014L419.79,258.228L417.635,258.228L417.364,259.014L415.766,259.014L417.823,253.549L419.593,253.549L421.658,259.014L420.06,259.014Z" style="fill:white;fill-rule:nonzero;"/>
        </g>
        <g transform="matrix(1,0,0,1,11.092,0)">
            <path d="M425.26,255.36C425.26,254.991 424.949,254.778 424.58,254.778L423.466,254.778L423.466,255.95L424.58,255.95C424.949,255.95 425.26,255.745 425.26,255.36M425.105,259.014L424.187,257.179L423.466,257.179L423.466,259.014L422.056,259.014L422.056,253.549L424.793,253.549C426.006,253.549 426.694,254.352 426.694,255.368C426.694,256.319 426.113,256.827 425.604,257.007L426.718,259.014L425.105,259.014Z" style="fill:white;fill-rule:nonzero;"/>
        </g>
        <g transform="matrix(1,0,0,1,11.092,0)">
            <path d="M429.289,256.286C429.289,254.599 430.567,253.459 432.247,253.459C433.566,253.459 434.271,254.205 434.632,254.926L433.419,255.5C433.239,255.065 432.771,254.705 432.247,254.705C431.354,254.705 430.723,255.393 430.723,256.286C430.723,257.18 431.354,257.868 432.247,257.868C432.771,257.868 433.239,257.507 433.419,257.073L434.632,257.646C434.279,258.351 433.566,259.113 432.247,259.113C430.567,259.113 429.289,257.966 429.289,256.286" style="fill:white;fill-rule:nonzero;"/>
        </g>
        <g transform="matrix(1,0,0,1,11.092,0)">
            <path d="M439.366,256.286C439.366,255.393 438.784,254.705 437.883,254.705C436.973,254.705 436.391,255.393 436.391,256.286C436.391,257.171 436.973,257.868 437.883,257.868C438.784,257.868 439.366,257.171 439.366,256.286M434.957,256.286C434.957,254.623 436.211,253.459 437.883,253.459C439.554,253.459 440.8,254.623 440.8,256.286C440.8,257.949 439.554,259.113 437.883,259.113C436.211,259.113 434.957,257.949 434.957,256.286" style="fill:white;fill-rule:nonzero;"/>
        </g>
        <g transform="matrix(1,0,0,1,11.092,0)">
            <path d="M445.23,259.015L442.919,255.852L442.919,259.015L441.51,259.015L441.51,253.55L442.96,253.55L445.172,256.557L445.172,253.55L446.59,253.55L446.59,259.015L445.23,259.015Z" style="fill:white;fill-rule:nonzero;"/>
        </g>
        <g transform="matrix(1,0,0,1,11.092,0)">
            <path d="M447.572,259.015L447.572,253.55L451.579,253.55L451.579,254.779L448.981,254.779L448.981,255.631L451.521,255.631L451.521,256.861L448.981,256.861L448.981,259.015L447.572,259.015Z" style="fill:white;fill-rule:nonzero;"/>
        </g>
        <g transform="matrix(1,0,0,1,11.092,0)">
            <path d="M452.339,259.015L452.339,253.55L456.346,253.55L456.346,254.779L453.748,254.779L453.748,255.631L456.288,255.631L456.288,256.861L453.748,256.861L453.748,257.786L456.346,257.786L456.346,259.015L452.339,259.015Z" style="fill:white;fill-rule:nonzero;"/>
        </g>
        <g transform="matrix(1,0,0,1,11.092,0)">
            <path d="M460.367,255.36C460.367,254.991 460.056,254.778 459.687,254.778L458.573,254.778L458.573,255.95L459.687,255.95C460.056,255.95 460.367,255.745 460.367,255.36M460.211,259.014L459.294,257.179L458.573,257.179L458.573,259.014L457.163,259.014L457.163,253.549L459.9,253.549C461.113,253.549 461.801,254.352 461.801,255.368C461.801,256.319 461.22,256.827 460.711,257.007L461.825,259.014L460.211,259.014Z" style="fill:white;fill-rule:nonzero;"/>
        </g>
        <g transform="matrix(1,0,0,1,11.092,0)">
            <path d="M462.578,259.015L462.578,253.55L466.585,253.55L466.585,254.779L463.987,254.779L463.987,255.631L466.527,255.631L466.527,256.861L463.987,256.861L463.987,257.786L466.585,257.786L466.585,259.015L462.578,259.015Z" style="fill:white;fill-rule:nonzero;"/>
        </g>
        <g transform="matrix(1,0,0,1,11.092,0)">
            <path d="M471.123,259.015L468.812,255.852L468.812,259.015L467.403,259.015L467.403,253.55L468.853,253.55L471.065,256.557L471.065,253.55L472.483,253.55L472.483,259.015L471.123,259.015Z" style="fill:white;fill-rule:nonzero;"/>
        </g>
        <g transform="matrix(1,0,0,1,11.092,0)">
            <path d="M473.185,256.286C473.185,254.599 474.463,253.459 476.143,253.459C477.462,253.459 478.167,254.205 478.528,254.926L477.315,255.5C477.135,255.065 476.667,254.705 476.143,254.705C475.25,254.705 474.619,255.393 474.619,256.286C474.619,257.18 475.25,257.868 476.143,257.868C476.667,257.868 477.135,257.507 477.315,257.073L478.528,257.646C478.175,258.351 477.462,259.113 476.143,259.113C474.463,259.113 473.185,257.966 473.185,256.286" style="fill:white;fill-rule:nonzero;"/>
        </g>
        <g transform="matrix(1,0,0,1,11.092,0)">
            <path d="M479.132,259.015L479.132,253.55L483.139,253.55L483.139,254.779L480.541,254.779L480.541,255.631L483.081,255.631L483.081,256.861L480.541,256.861L480.541,257.786L483.139,257.786L483.139,259.015L479.132,259.015Z" style="fill:white;fill-rule:nonzero;"/>
        </g>
    </g>
</svg>
