<?xml version="1.0" encoding="UTF-8" standalone="no"?>
<!DOCTYPE svg PUBLIC "-//W3C//DTD SVG 1.1//EN" "http://www.w3.org/Graphics/SVG/1.1/DTD/svg11.dtd">
<svg width="100%" height="100%" viewBox="0 0 629 432" version="1.1" xmlns="http://www.w3.org/2000/svg" xmlns:xlink="http://www.w3.org/1999/xlink" xml:space="preserve" style="fill-rule:evenodd;clip-rule:evenodd;stroke-linejoin:round;stroke-miterlimit:1.41421;">
    <g transform="matrix(1,0,0,1,-8.64937,-4.8042)">
        <g transform="matrix(1,0,0,1,-288.417,-639.721)">
            <g transform="matrix(4.0098,0,0,4.0098,23.0079,32.3882)">
                <path d="M74.299,227.501C74.365,227.51 74.382,227.51 74.446,227.526C74.565,227.558 74.678,227.615 74.775,227.693C74.813,227.724 74.849,227.759 74.882,227.796C74.898,227.814 74.913,227.834 74.928,227.854L80.986,236.088L80.986,228.371L80.99,228.29C80.994,228.264 80.996,228.237 81.001,228.211C81.011,228.158 81.026,228.106 81.045,228.056C81.133,227.828 81.316,227.645 81.544,227.557C81.619,227.528 81.698,227.509 81.778,227.502C81.805,227.499 81.832,227.499 81.859,227.498L86.75,227.498C86.777,227.499 86.804,227.499 86.831,227.502C86.884,227.507 86.937,227.517 86.989,227.531C87.118,227.568 87.239,227.635 87.338,227.726C87.437,227.817 87.515,227.93 87.564,228.056C87.593,228.131 87.612,228.21 87.619,228.29C87.622,228.317 87.622,228.344 87.623,228.371L87.623,247.229C87.622,247.256 87.622,247.283 87.619,247.31C87.614,247.363 87.604,247.416 87.59,247.468C87.553,247.597 87.486,247.718 87.395,247.817C87.304,247.916 87.191,247.994 87.065,248.043C86.99,248.072 86.911,248.091 86.831,248.098C86.804,248.101 86.777,248.101 86.75,248.102L82.057,248.102C81.991,248.099 81.974,248.1 81.909,248.089C81.761,248.064 81.622,248 81.506,247.906C81.467,247.874 81.431,247.84 81.399,247.802C81.382,247.783 81.368,247.763 81.352,247.744L74.956,238.989L74.956,247.229L74.952,247.31C74.948,247.336 74.946,247.363 74.941,247.389C74.926,247.469 74.9,247.546 74.864,247.618C74.756,247.836 74.556,248.002 74.322,248.069C74.27,248.083 74.217,248.093 74.164,248.098C74.137,248.101 74.11,248.101 74.083,248.102L69.22,248.102C69.193,248.101 69.166,248.101 69.139,248.098C69.059,248.091 68.98,248.072 68.905,248.043C68.779,247.994 68.666,247.916 68.575,247.817C68.484,247.718 68.417,247.597 68.38,247.468C68.366,247.416 68.356,247.363 68.351,247.31C68.348,247.283 68.348,247.256 68.347,247.229L68.347,228.371C68.348,228.344 68.348,228.317 68.351,228.29C68.358,228.21 68.377,228.131 68.406,228.056C68.455,227.93 68.533,227.817 68.632,227.726C68.731,227.635 68.852,227.568 68.981,227.531C69.033,227.517 69.086,227.507 69.139,227.502C69.166,227.499 69.193,227.499 69.22,227.498L74.225,227.498C74.25,227.499 74.274,227.5 74.299,227.501ZM74.276,235.464C74.343,235.482 74.36,235.484 74.424,235.512C74.52,235.552 74.609,235.611 74.685,235.683C74.735,235.731 74.744,235.746 74.788,235.8L82.5,246.356L85.877,246.356L85.877,229.244L82.732,229.244L82.732,238.747C82.729,238.819 82.73,238.837 82.717,238.908C82.697,239.014 82.657,239.117 82.6,239.209C82.528,239.323 82.43,239.421 82.315,239.491C82.199,239.562 82.068,239.605 81.933,239.617C81.852,239.624 81.771,239.619 81.691,239.604C81.612,239.588 81.534,239.561 81.462,239.524C81.366,239.475 81.279,239.408 81.207,239.327C81.189,239.307 81.173,239.285 81.156,239.264L73.784,229.244L70.093,229.244L70.093,246.356L73.21,246.356L73.21,236.315C73.211,236.289 73.211,236.263 73.214,236.237C73.221,236.159 73.238,236.082 73.266,236.009C73.293,235.935 73.331,235.866 73.376,235.802C73.5,235.633 73.683,235.511 73.888,235.464C73.964,235.447 74.042,235.44 74.121,235.443C74.147,235.444 74.173,235.448 74.199,235.45C74.224,235.454 74.25,235.459 74.276,235.464Z" style="fill:white;fill-rule:nonzero;"/>
            </g>
        </g>
        <g transform="matrix(1,0,0,1,-288.417,-639.721)">
            <g transform="matrix(4.0098,0,0,4.0098,23.0079,32.3882)">
                <path d="M107.888,235.543C107.915,235.549 107.941,235.554 107.967,235.561C108.019,235.576 108.069,235.596 108.117,235.62C108.335,235.728 108.501,235.928 108.568,236.162C108.582,236.214 108.592,236.267 108.597,236.32C108.6,236.347 108.6,236.374 108.601,236.401L108.601,243.894C108.6,243.921 108.6,243.948 108.597,243.975C108.587,244.082 108.557,244.188 108.509,244.284C108.485,244.333 108.456,244.379 108.423,244.422C108.393,244.462 108.357,244.5 108.322,244.538C108.254,244.612 108.185,244.685 108.115,244.758C107.766,245.12 107.396,245.463 107.007,245.782C106.498,246.2 105.956,246.576 105.385,246.903C104.824,247.225 104.237,247.498 103.63,247.72C102.522,248.124 101.354,248.352 100.177,248.42C98.998,248.489 97.808,248.405 96.653,248.153C95.919,247.993 95.199,247.764 94.508,247.465C93.735,247.13 93,246.707 92.326,246.2C91.915,245.891 91.528,245.55 91.169,245.182C90.717,244.718 90.312,244.21 89.96,243.667C89.514,242.979 89.156,242.236 88.891,241.46C88.635,240.71 88.466,239.93 88.379,239.142C88.331,238.702 88.308,238.26 88.307,237.818L89.18,237.815L88.307,237.812C88.307,237.738 88.308,237.664 88.309,237.59C88.317,237.222 88.339,236.854 88.379,236.488C88.454,235.813 88.588,235.144 88.786,234.494C89.046,233.643 89.416,232.826 89.889,232.073C90.383,231.288 90.988,230.576 91.68,229.959C92.306,229.401 93.002,228.923 93.744,228.531C94.402,228.184 95.097,227.904 95.81,227.693C96.902,227.37 98.038,227.207 99.176,227.189C100.013,227.176 100.851,227.242 101.672,227.409C102.682,227.613 103.662,227.97 104.558,228.48C105.025,228.746 105.469,229.053 105.883,229.396C106.313,229.753 106.712,230.148 107.074,230.574C107.355,230.905 107.614,231.254 107.85,231.619C107.964,231.795 108.071,231.975 108.175,232.157L108.207,232.214C108.219,232.239 108.233,232.263 108.244,232.288C108.266,232.338 108.283,232.39 108.295,232.443C108.333,232.604 108.323,232.774 108.269,232.929C108.232,233.032 108.176,233.129 108.105,233.212C108.051,233.274 107.988,233.328 107.919,233.373C107.896,233.388 107.872,233.4 107.848,233.414L103.79,235.528L107.728,235.528L107.809,235.532C107.835,235.536 107.862,235.539 107.888,235.543ZM99.326,228.933C99.023,228.935 98.72,228.948 98.419,228.973C97.855,229.021 97.295,229.112 96.746,229.248C96.111,229.405 95.492,229.623 94.901,229.903C94.204,230.235 93.548,230.655 92.961,231.158C92.625,231.446 92.313,231.76 92.028,232.098C91.636,232.563 91.297,233.072 91.019,233.613C90.764,234.109 90.56,234.631 90.408,235.168C90.164,236.028 90.053,236.922 90.053,237.815C90.053,238.727 90.169,239.64 90.424,240.517C90.584,241.069 90.8,241.606 91.069,242.114C91.354,242.65 91.699,243.153 92.096,243.612C92.526,244.108 93.015,244.551 93.549,244.932C94.05,245.29 94.588,245.593 95.151,245.841C96.003,246.216 96.908,246.463 97.829,246.591C98.447,246.677 99.072,246.709 99.696,246.693C100.607,246.67 101.516,246.541 102.391,246.289C102.861,246.153 103.32,245.982 103.764,245.777C104.236,245.559 104.69,245.303 105.121,245.012C105.516,244.747 105.891,244.453 106.245,244.137C106.44,243.962 106.629,243.781 106.812,243.594L106.855,243.549L106.855,237.274L99.496,237.274L99.496,239.797L102.865,239.797C102.892,239.798 102.919,239.798 102.946,239.801C102.999,239.806 103.052,239.816 103.104,239.83C103.233,239.867 103.354,239.934 103.453,240.025C103.552,240.116 103.63,240.229 103.679,240.355C103.708,240.43 103.727,240.509 103.734,240.589C103.737,240.616 103.737,240.643 103.738,240.67L103.738,242.141C103.737,242.167 103.737,242.192 103.734,242.218C103.73,242.269 103.721,242.32 103.707,242.37C103.674,242.494 103.612,242.61 103.528,242.708C103.472,242.774 103.405,242.829 103.336,242.882C103.276,242.929 103.215,242.974 103.152,243.017C102.919,243.179 102.67,243.318 102.414,243.441C102.112,243.586 101.799,243.708 101.479,243.809C101.137,243.917 100.786,244.001 100.431,244.058C100.086,244.114 99.737,244.145 99.387,244.145C98.723,244.145 98.059,244.047 97.426,243.843C96.945,243.688 96.483,243.472 96.057,243.199C95.597,242.905 95.179,242.546 94.818,242.136C94.305,241.552 93.91,240.869 93.648,240.138C93.401,239.446 93.273,238.713 93.257,237.978C93.243,237.34 93.311,236.7 93.469,236.081C93.687,235.226 94.077,234.414 94.628,233.722C94.928,233.344 95.275,233.003 95.659,232.709C96.058,232.405 96.496,232.152 96.959,231.959C97.574,231.702 98.231,231.552 98.896,231.503C99.195,231.481 99.496,231.478 99.795,231.501C100.219,231.534 100.638,231.62 101.04,231.756C101.759,231.998 102.421,232.396 102.983,232.904C103.226,233.124 103.449,233.363 103.652,233.619L103.659,233.628L106.205,232.302C106.176,232.26 106.146,232.219 106.116,232.177C105.985,231.999 105.848,231.825 105.703,231.658C105.404,231.311 105.075,230.99 104.72,230.7C104.38,230.424 104.017,230.177 103.635,229.964C103.268,229.759 102.885,229.586 102.49,229.443C102.061,229.289 101.618,229.172 101.17,229.089C100.597,228.984 100.015,228.937 99.433,228.933C99.397,228.933 99.361,228.933 99.326,228.933ZM99.356,233.231C99.08,233.233 98.804,233.257 98.531,233.306C98.074,233.389 97.63,233.542 97.224,233.767C96.926,233.931 96.649,234.133 96.401,234.366C96.107,234.643 95.854,234.963 95.649,235.312C95.469,235.621 95.326,235.951 95.222,236.293C95.068,236.796 94.998,237.321 95.001,237.846C95.004,238.341 95.072,238.836 95.213,239.31C95.311,239.636 95.443,239.951 95.609,240.248C95.79,240.571 96.013,240.871 96.271,241.136C96.453,241.323 96.653,241.492 96.867,241.641C97.233,241.896 97.64,242.089 98.067,242.214C98.378,242.306 98.7,242.362 99.023,242.386C99.308,242.407 99.594,242.403 99.878,242.372C100.278,242.329 100.674,242.239 101.055,242.111C101.38,242.002 101.697,241.865 101.992,241.689L101.992,241.543L98.623,241.543L98.542,241.539C98.516,241.535 98.489,241.533 98.463,241.528C98.41,241.518 98.358,241.503 98.308,241.484C98.08,241.396 97.897,241.213 97.809,240.985C97.78,240.91 97.761,240.831 97.754,240.751C97.751,240.724 97.751,240.697 97.75,240.67L97.75,236.401C97.751,236.374 97.751,236.347 97.754,236.32C97.761,236.24 97.78,236.161 97.809,236.086C97.858,235.96 97.936,235.847 98.035,235.756C98.134,235.665 98.255,235.598 98.384,235.561C98.436,235.547 98.489,235.537 98.542,235.532C98.569,235.529 98.596,235.529 98.623,235.528L102.958,235.528L102.947,235.523L102.88,235.481C102.859,235.465 102.837,235.451 102.817,235.434C102.777,235.4 102.739,235.364 102.705,235.323C102.689,235.303 102.673,235.283 102.658,235.261C102.621,235.209 102.591,235.152 102.559,235.098C102.534,235.058 102.51,235.019 102.484,234.98C101.979,234.219 101.215,233.616 100.331,233.363C100.144,233.309 99.952,233.272 99.758,233.251C99.669,233.241 99.579,233.235 99.49,233.232C99.445,233.231 99.401,233.231 99.356,233.231Z" style="fill:white;fill-rule:nonzero;"/>
            </g>
        </g>
        <g transform="matrix(1,0,0,1,-288.417,-639.721)">
            <g transform="matrix(4.0098,0,0,4.0098,23.0079,32.3882)">
                <path d="M120.079,227.498C120.344,227.5 120.609,227.511 120.873,227.534C121.451,227.585 122.025,227.689 122.58,227.857C123.169,228.035 123.736,228.285 124.259,228.607C124.878,228.989 125.433,229.471 125.893,230.034C126.199,230.409 126.463,230.818 126.681,231.249C126.886,231.657 127.05,232.086 127.173,232.526C127.366,233.215 127.458,233.931 127.458,234.647C127.458,235.287 127.384,235.928 127.228,236.549C127.039,237.307 126.727,238.036 126.296,238.689C125.95,239.215 125.527,239.69 125.044,240.095C124.612,240.457 124.133,240.763 123.624,241.006C122.933,241.337 122.19,241.553 121.432,241.667C120.984,241.734 120.532,241.765 120.079,241.769L120.026,241.769L116.318,241.769L116.318,247.229C116.317,247.256 116.317,247.283 116.314,247.31C116.309,247.363 116.299,247.416 116.285,247.468C116.248,247.597 116.181,247.718 116.09,247.817C115.999,247.916 115.886,247.994 115.76,248.043C115.685,248.072 115.606,248.091 115.526,248.098C115.499,248.101 115.472,248.101 115.445,248.102L110.581,248.102C110.554,248.101 110.527,248.101 110.5,248.098C110.447,248.093 110.394,248.083 110.342,248.069C110.213,248.032 110.092,247.965 109.993,247.874C109.894,247.783 109.816,247.67 109.767,247.544C109.738,247.469 109.719,247.39 109.712,247.31C109.709,247.283 109.709,247.256 109.708,247.229L109.708,228.371C109.709,228.344 109.709,228.317 109.712,228.29C109.719,228.21 109.738,228.131 109.767,228.056C109.816,227.93 109.894,227.817 109.993,227.726C110.092,227.635 110.213,227.568 110.342,227.531C110.394,227.517 110.447,227.507 110.5,227.502C110.527,227.499 110.554,227.499 110.581,227.498C113.747,227.498 116.913,227.49 120.079,227.498ZM111.454,229.244L111.454,246.356L114.572,246.356L114.572,240.896L114.576,240.815C114.58,240.789 114.582,240.762 114.587,240.736C114.602,240.656 114.628,240.579 114.664,240.507C114.772,240.289 114.972,240.123 115.206,240.056C115.258,240.042 115.311,240.032 115.364,240.027C115.391,240.024 115.418,240.024 115.445,240.023C117.002,240.023 118.558,240.035 120.115,240.023C120.332,240.02 120.548,240.01 120.764,239.99C121.195,239.95 121.624,239.872 122.04,239.749C122.475,239.621 122.897,239.441 123.287,239.208C123.736,238.94 124.142,238.601 124.482,238.203C124.631,238.028 124.767,237.843 124.89,237.649C124.985,237.498 125.072,237.342 125.15,237.182C125.588,236.291 125.756,235.283 125.703,234.295C125.68,233.878 125.618,233.463 125.51,233.06C125.38,232.574 125.185,232.105 124.922,231.676C124.692,231.301 124.412,230.957 124.089,230.658C123.786,230.378 123.446,230.139 123.083,229.944C122.513,229.638 121.889,229.443 121.252,229.339C120.861,229.276 120.466,229.247 120.07,229.244C117.198,229.236 114.326,229.244 111.454,229.244ZM119.413,231.738C119.737,231.743 120.06,231.78 120.373,231.864C120.608,231.927 120.837,232.015 121.051,232.13C121.32,232.274 121.567,232.46 121.775,232.683C121.894,232.81 122,232.948 122.091,233.096C122.204,233.279 122.294,233.475 122.361,233.679C122.426,233.876 122.468,234.081 122.491,234.287C122.502,234.393 122.508,234.5 122.51,234.607L122.51,234.642L121.637,234.647L122.51,234.652C122.509,234.756 122.505,234.86 122.495,234.964C122.475,235.169 122.434,235.373 122.372,235.569C122.307,235.773 122.218,235.969 122.108,236.151C122.018,236.299 121.914,236.437 121.797,236.564C121.698,236.672 121.59,236.772 121.475,236.862C121.102,237.155 120.657,237.347 120.193,237.445C119.925,237.502 119.651,237.527 119.377,237.528L115.445,237.528C115.418,237.527 115.391,237.527 115.364,237.524C115.311,237.519 115.258,237.509 115.206,237.495C115.077,237.458 114.956,237.391 114.857,237.3C114.758,237.209 114.68,237.096 114.631,236.97C114.602,236.895 114.583,236.816 114.576,236.736C114.573,236.709 114.573,236.682 114.572,236.655L114.572,232.611C114.573,232.584 114.573,232.557 114.576,232.53C114.581,232.477 114.591,232.424 114.605,232.372C114.642,232.243 114.709,232.122 114.8,232.023C114.891,231.924 115.004,231.846 115.13,231.797C115.205,231.768 115.284,231.749 115.364,231.742C115.391,231.739 115.418,231.739 115.445,231.738C116.768,231.738 118.09,231.732 119.413,231.738ZM116.318,233.484L116.318,235.782C117.352,235.782 118.386,235.796 119.42,235.782C119.471,235.781 119.522,235.778 119.573,235.774C119.748,235.76 119.923,235.725 120.087,235.662C120.202,235.617 120.312,235.558 120.408,235.48C120.464,235.435 120.515,235.383 120.559,235.326C120.585,235.294 120.608,235.259 120.628,235.223C120.738,235.031 120.771,234.805 120.763,234.587C120.755,234.371 120.704,234.151 120.578,233.972C120.542,233.92 120.5,233.872 120.454,233.829C120.259,233.647 119.996,233.553 119.736,233.511C119.689,233.504 119.641,233.498 119.594,233.494C119.536,233.488 119.478,233.486 119.42,233.484C118.386,233.471 117.352,233.484 116.318,233.484Z" style="fill:white;fill-rule:nonzero;"/>
            </g>
        </g>
        <g transform="matrix(1,0,0,1,-288.417,-639.721)">
            <g transform="matrix(4.0098,0,0,4.0098,23.0079,32.3882)">
                <path d="M137.964,227.187C138.227,227.189 138.489,227.198 138.751,227.215C139.284,227.25 139.814,227.319 140.338,227.423C140.998,227.554 141.646,227.741 142.273,227.986C142.921,228.239 143.545,228.554 144.132,228.929C144.815,229.366 145.447,229.884 146.008,230.471C146.628,231.122 147.159,231.857 147.583,232.65C148.052,233.527 148.389,234.473 148.592,235.447C148.764,236.272 148.84,237.117 148.83,237.959C148.823,238.592 148.766,239.224 148.656,239.847C148.528,240.574 148.327,241.289 148.052,241.974C147.81,242.577 147.51,243.157 147.157,243.703C146.82,244.222 146.435,244.71 146.008,245.158C145.328,245.871 144.543,246.48 143.689,246.968C142.925,247.404 142.107,247.743 141.262,247.984C140.029,248.335 138.74,248.478 137.46,248.436C136.557,248.406 135.656,248.282 134.781,248.055C133.737,247.784 132.73,247.367 131.809,246.804C131.097,246.368 130.437,245.847 129.852,245.251C129.237,244.625 128.705,243.917 128.275,243.152C127.71,242.148 127.322,241.048 127.114,239.916C127.03,239.458 126.975,238.996 126.947,238.531C126.933,238.294 126.927,238.056 126.926,237.818L127.799,237.815L126.926,237.812C126.926,237.741 126.927,237.67 126.928,237.598C126.936,237.197 126.962,236.796 127.01,236.398C127.102,235.633 127.273,234.878 127.524,234.149C127.794,233.368 128.158,232.618 128.609,231.925C128.947,231.406 129.334,230.918 129.763,230.47C130.206,230.007 130.694,229.587 131.217,229.216C132.071,228.611 133.016,228.138 134.008,227.804C134.806,227.536 135.634,227.358 136.472,227.265C136.919,227.215 137.369,227.191 137.82,227.187C137.868,227.187 137.916,227.187 137.964,227.187ZM137.829,228.933C137.34,228.937 136.852,228.97 136.367,229.037C135.424,229.169 134.497,229.43 133.632,229.829C132.931,230.152 132.271,230.566 131.68,231.063C131.018,231.619 130.444,232.278 129.987,233.012C129.524,233.754 129.182,234.569 128.966,235.415C128.781,236.139 128.687,236.884 128.674,237.629C128.658,238.518 128.754,239.409 128.98,240.269C129.115,240.785 129.297,241.288 129.525,241.771C129.776,242.301 130.082,242.805 130.44,243.271C130.74,243.662 131.075,244.026 131.44,244.358C131.996,244.862 132.62,245.29 133.287,245.633C133.833,245.913 134.407,246.137 134.998,246.305C135.917,246.567 136.874,246.692 137.829,246.697C138.459,246.7 139.089,246.652 139.709,246.548C140.495,246.415 141.266,246.19 141.995,245.869C142.718,245.551 143.399,245.137 144.01,244.635C144.676,244.088 145.256,243.436 145.72,242.709C146.22,241.927 146.584,241.061 146.807,240.16C146.987,239.434 147.076,238.687 147.084,237.939C147.095,237.052 146.994,236.163 146.764,235.305C146.636,234.826 146.468,234.357 146.26,233.907C146.013,233.374 145.711,232.867 145.358,232.399C144.784,231.638 144.078,230.981 143.282,230.459C142.609,230.017 141.875,229.671 141.109,229.424C140.463,229.215 139.794,229.075 139.119,229C138.774,228.962 138.427,228.941 138.08,228.934C137.996,228.933 137.913,228.933 137.829,228.933ZM137.934,231.485C138.165,231.487 138.397,231.5 138.627,231.525C139.031,231.57 139.43,231.652 139.816,231.776C140.247,231.913 140.662,232.102 141.048,232.338C141.394,232.549 141.716,232.799 142.008,233.08C142.281,233.344 142.527,233.635 142.742,233.947C143.088,234.448 143.355,235.001 143.542,235.581C143.701,236.072 143.802,236.581 143.85,237.095C143.872,237.333 143.882,237.572 143.883,237.811L143.01,237.815L143.883,237.819C143.882,237.898 143.882,237.898 143.881,237.976C143.878,238.108 143.872,238.241 143.863,238.373C143.842,238.659 143.805,238.944 143.751,239.225C143.603,239.989 143.329,240.729 142.923,241.393C142.655,241.832 142.33,242.236 141.956,242.589C141.579,242.945 141.153,243.248 140.693,243.487C140.216,243.734 139.705,243.911 139.179,244.018C138.715,244.113 138.24,244.152 137.767,244.144C136.974,244.13 136.182,243.976 135.452,243.665C134.777,243.378 134.162,242.959 133.648,242.436C133.252,242.033 132.917,241.571 132.652,241.073C132.428,240.652 132.254,240.207 132.128,239.748C131.933,239.041 131.854,238.305 131.877,237.573C131.909,236.535 132.151,235.5 132.634,234.578C132.88,234.11 133.186,233.674 133.548,233.288C133.901,232.911 134.307,232.583 134.751,232.317C135.309,231.983 135.924,231.749 136.56,231.618C136.944,231.539 137.334,231.498 137.725,231.487C137.795,231.486 137.864,231.485 137.934,231.485ZM137.86,233.231C137.638,233.233 137.416,233.248 137.196,233.279C136.823,233.331 136.456,233.43 136.109,233.579C135.849,233.691 135.601,233.831 135.371,233.997C135.194,234.126 135.027,234.27 134.874,234.427C134.749,234.555 134.633,234.692 134.527,234.835C134.444,234.947 134.367,235.062 134.296,235.181C133.803,236.008 133.6,236.983 133.62,237.94C133.63,238.413 133.696,238.885 133.826,239.34C133.991,239.915 134.261,240.461 134.638,240.926C134.867,241.21 135.136,241.462 135.435,241.671C135.735,241.88 136.064,242.045 136.409,242.163C136.866,242.319 137.348,242.393 137.829,242.399C138.401,242.406 138.975,242.317 139.509,242.109C139.782,242.003 140.043,241.866 140.285,241.701C140.473,241.573 140.65,241.427 140.812,241.267C141.114,240.971 141.366,240.627 141.564,240.253C141.727,239.947 141.853,239.621 141.945,239.286C142.109,238.687 142.164,238.059 142.126,237.44C142.098,237.001 142.022,236.563 141.889,236.143C141.718,235.602 141.452,235.09 141.089,234.653C140.846,234.361 140.562,234.104 140.245,233.895C139.948,233.7 139.624,233.547 139.285,233.439C139.018,233.354 138.743,233.296 138.465,233.264C138.326,233.247 138.187,233.238 138.047,233.233C137.985,233.232 137.923,233.231 137.86,233.231Z" style="fill:white;fill-rule:nonzero;"/>
            </g>
        </g>
        <g transform="matrix(1,0,0,1,-288.417,-639.721)">
            <g transform="matrix(4.0098,0,0,4.0098,23.0079,32.3882)">
                <path d="M155.359,227.502C155.385,227.506 155.412,227.508 155.438,227.513C155.491,227.523 155.543,227.538 155.593,227.557C155.821,227.645 156.004,227.828 156.092,228.056C156.121,228.131 156.14,228.21 156.147,228.29C156.15,228.317 156.15,228.344 156.151,228.371L156.151,242.115L162.856,242.115L162.937,242.119C162.963,242.123 162.99,242.125 163.016,242.13C163.069,242.14 163.121,242.155 163.171,242.174C163.399,242.262 163.582,242.445 163.67,242.673C163.699,242.748 163.718,242.827 163.725,242.907C163.728,242.934 163.728,242.961 163.729,242.988L163.729,247.229C163.728,247.256 163.728,247.283 163.725,247.31C163.72,247.363 163.71,247.416 163.696,247.468C163.659,247.597 163.592,247.718 163.501,247.817C163.41,247.916 163.297,247.994 163.171,248.043C163.096,248.072 163.017,248.091 162.937,248.098C162.91,248.101 162.883,248.101 162.856,248.102L150.415,248.102C150.388,248.101 150.361,248.101 150.334,248.098C150.281,248.093 150.228,248.083 150.176,248.069C150.047,248.032 149.926,247.965 149.827,247.874C149.728,247.783 149.65,247.67 149.601,247.544C149.572,247.469 149.553,247.39 149.546,247.31C149.543,247.283 149.543,247.256 149.542,247.229L149.542,228.371C149.543,228.344 149.543,228.317 149.546,228.29C149.553,228.21 149.572,228.131 149.601,228.056C149.65,227.93 149.728,227.817 149.827,227.726C149.926,227.635 150.047,227.568 150.176,227.531C150.228,227.517 150.281,227.507 150.334,227.502C150.361,227.499 150.388,227.499 150.415,227.498L155.278,227.498C155.305,227.499 155.332,227.501 155.359,227.502ZM151.288,229.244L151.288,246.356L161.983,246.356L161.983,243.861L155.278,243.861C155.251,243.86 155.224,243.86 155.197,243.857C155.117,243.85 155.038,243.831 154.963,243.802C154.837,243.753 154.724,243.675 154.633,243.576C154.542,243.477 154.475,243.356 154.438,243.227C154.424,243.175 154.414,243.122 154.409,243.069C154.406,243.042 154.406,243.015 154.405,242.988L154.405,229.244C153.366,229.244 152.327,229.244 151.288,229.244Z" style="fill:white;fill-rule:nonzero;"/>
            </g>
        </g>
        <g transform="matrix(1,0,0,1,-288.417,-639.721)">
            <g transform="matrix(4.0098,0,0,4.0098,23.0079,32.3882)">
                <path d="M176.648,227.502C176.719,227.512 176.738,227.512 176.807,227.532C176.99,227.584 177.153,227.697 177.267,227.849C177.299,227.893 177.328,227.939 177.351,227.988C177.363,228.012 177.373,228.038 177.384,228.063L184.509,246.922C184.517,246.947 184.526,246.972 184.533,246.998C184.562,247.101 184.571,247.209 184.561,247.316C184.553,247.396 184.534,247.475 184.504,247.55C184.415,247.775 184.232,247.957 184.006,248.044C183.931,248.073 183.852,248.092 183.772,248.099C183.746,248.102 183.719,248.102 183.692,248.103L178.179,248.103C178.151,248.102 178.124,248.102 178.096,248.099C178.041,248.094 177.986,248.083 177.933,248.067C177.746,248.012 177.58,247.894 177.467,247.735C177.435,247.69 177.407,247.642 177.384,247.591C177.373,247.566 177.364,247.54 177.354,247.514L176.622,245.389L170.432,245.389L169.701,247.514C169.691,247.54 169.682,247.566 169.671,247.591C169.648,247.642 169.62,247.69 169.588,247.735C169.475,247.894 169.309,248.012 169.122,248.067C169.069,248.083 169.014,248.094 168.959,248.099C168.931,248.102 168.904,248.102 168.876,248.103L163.363,248.103C163.336,248.102 163.309,248.102 163.283,248.099C163.203,248.092 163.124,248.073 163.049,248.045C162.823,247.957 162.64,247.776 162.551,247.55C162.522,247.476 162.502,247.397 162.494,247.317C162.484,247.21 162.493,247.102 162.521,246.999C162.528,246.973 162.538,246.948 162.546,246.923L169.643,228.064C169.654,228.039 169.663,228.013 169.675,227.989C169.699,227.94 169.727,227.894 169.76,227.85C169.873,227.697 170.036,227.584 170.219,227.532C170.271,227.517 170.325,227.507 170.379,227.502C170.406,227.499 170.433,227.499 170.46,227.498L176.567,227.498C176.594,227.499 176.621,227.501 176.648,227.502ZM171.064,229.244L164.624,246.357L168.253,246.357L168.984,244.232L169.014,244.155C169.048,244.089 169.054,244.071 169.097,244.011C169.21,243.852 169.376,243.734 169.563,243.679C169.616,243.663 169.671,243.652 169.726,243.647C169.754,243.644 169.781,243.644 169.809,243.643L177.245,243.643C177.273,243.644 177.3,243.644 177.328,243.647C177.383,243.652 177.438,243.663 177.491,243.679C177.678,243.734 177.844,243.852 177.957,244.011C177.989,244.056 178.017,244.104 178.04,244.155C178.051,244.18 178.06,244.206 178.07,244.232L178.802,246.357L182.429,246.357L175.964,229.244C174.331,229.244 172.697,229.244 171.064,229.244ZM173.596,232.309C173.624,232.313 173.652,232.316 173.679,232.321C173.734,232.332 173.787,232.348 173.839,232.368C174.021,232.441 174.175,232.576 174.271,232.746C174.308,232.811 174.313,232.829 174.34,232.898L176.743,239.995C176.75,240.022 176.759,240.048 176.766,240.075C176.785,240.155 176.792,240.239 176.788,240.321C176.783,240.404 176.767,240.486 176.74,240.564C176.657,240.8 176.472,240.993 176.239,241.086C176.162,241.116 176.081,241.136 175.999,241.144C175.971,241.147 175.944,241.147 175.916,241.148L171.11,241.148C171.082,241.147 171.055,241.147 171.027,241.144C170.945,241.136 170.864,241.116 170.787,241.086C170.71,241.055 170.637,241.013 170.572,240.962C170.375,240.808 170.252,240.571 170.238,240.321C170.234,240.239 170.241,240.155 170.26,240.075C170.267,240.048 170.276,240.022 170.283,239.995L172.686,232.898C172.696,232.872 172.705,232.846 172.717,232.82C172.74,232.769 172.767,232.721 172.799,232.675C172.912,232.515 173.078,232.396 173.266,232.341C173.319,232.325 173.374,232.314 173.43,232.309C173.457,232.306 173.485,232.306 173.513,232.305C173.541,232.306 173.569,232.308 173.596,232.309ZM172.327,239.402L174.699,239.402L173.513,235.9C173.118,237.067 172.722,238.235 172.327,239.402Z" style="fill:white;fill-rule:nonzero;"/>
            </g>
        </g>
        <g transform="matrix(1,0,0,1,-288.417,-639.721)">
            <g transform="matrix(4.0098,0,0,4.0098,23.0079,32.3882)">
                <path d="M190.155,227.501C190.18,227.504 190.204,227.507 190.229,227.511C190.278,227.519 190.326,227.532 190.373,227.548C190.489,227.59 190.597,227.656 190.686,227.742C190.734,227.788 190.743,227.802 190.784,227.854L196.842,236.088L196.842,228.371L196.846,228.29C196.85,228.264 196.852,228.237 196.857,228.211C196.867,228.158 196.882,228.106 196.901,228.056C196.989,227.828 197.172,227.645 197.4,227.557C197.475,227.528 197.554,227.509 197.634,227.502C197.661,227.499 197.688,227.499 197.715,227.498L202.606,227.498C202.633,227.499 202.66,227.499 202.687,227.502C202.74,227.507 202.793,227.517 202.845,227.531C202.974,227.568 203.095,227.635 203.194,227.726C203.293,227.817 203.371,227.93 203.42,228.056C203.449,228.131 203.468,228.21 203.475,228.29C203.478,228.317 203.478,228.344 203.479,228.371L203.479,247.229C203.478,247.256 203.478,247.283 203.475,247.31C203.47,247.363 203.46,247.416 203.446,247.468C203.409,247.597 203.342,247.718 203.251,247.817C203.16,247.916 203.047,247.994 202.921,248.043C202.846,248.072 202.767,248.091 202.687,248.098C202.66,248.101 202.633,248.101 202.606,248.102L197.913,248.102C197.888,248.101 197.863,248.101 197.839,248.099C197.789,248.094 197.74,248.086 197.692,248.073C197.547,248.035 197.413,247.96 197.306,247.856C197.258,247.81 197.25,247.796 197.208,247.744L190.812,238.989L190.812,247.229L190.808,247.31C190.804,247.336 190.802,247.363 190.797,247.389C190.782,247.469 190.756,247.546 190.72,247.618C190.612,247.836 190.412,248.002 190.178,248.069C190.126,248.083 190.073,248.093 190.02,248.098C189.993,248.101 189.966,248.101 189.939,248.102L185.076,248.102C185.049,248.101 185.022,248.101 184.995,248.098C184.942,248.093 184.889,248.083 184.837,248.069C184.708,248.032 184.587,247.965 184.488,247.874C184.389,247.783 184.311,247.67 184.262,247.544C184.233,247.469 184.214,247.39 184.207,247.31C184.204,247.283 184.204,247.256 184.203,247.229L184.203,228.371C184.204,228.344 184.204,228.317 184.207,228.29C184.212,228.237 184.222,228.184 184.236,228.132C184.273,228.003 184.34,227.882 184.431,227.783C184.522,227.684 184.635,227.606 184.761,227.557C184.836,227.528 184.915,227.509 184.995,227.502C185.022,227.499 185.049,227.499 185.076,227.498L190.081,227.498C190.106,227.499 190.13,227.5 190.155,227.501ZM190.132,235.464C190.199,235.482 190.216,235.484 190.28,235.512C190.376,235.552 190.465,235.611 190.541,235.683C190.591,235.731 190.6,235.746 190.644,235.8L198.356,246.356L201.733,246.356L201.733,229.244L198.588,229.244L198.588,238.747C198.587,238.774 198.587,238.801 198.584,238.828C198.574,238.936 198.544,239.041 198.495,239.138C198.459,239.21 198.413,239.278 198.358,239.337C198.266,239.437 198.152,239.515 198.025,239.563C197.899,239.611 197.762,239.629 197.627,239.615C197.547,239.607 197.467,239.588 197.392,239.558C197.291,239.518 197.199,239.459 197.12,239.385C197.067,239.336 197.057,239.32 197.012,239.264L189.64,229.244L185.949,229.244L185.949,246.356L189.066,246.356L189.066,236.315C189.067,236.289 189.067,236.263 189.07,236.237C189.077,236.159 189.094,236.082 189.122,236.009C189.195,235.812 189.34,235.646 189.525,235.547C189.593,235.51 189.667,235.482 189.744,235.464C189.82,235.447 189.898,235.44 189.977,235.443C190.003,235.444 190.029,235.448 190.055,235.45C190.08,235.454 190.106,235.459 190.132,235.464Z" style="fill:white;fill-rule:nonzero;"/>
            </g>
        </g>
        <g transform="matrix(1,0,0,1,-288.417,-639.721)">
            <g transform="matrix(4.0098,0,0,4.0098,23.0079,32.3882)">
                <path d="M213.987,227.498C214.205,227.5 214.424,227.505 214.643,227.515C215.092,227.537 215.541,227.578 215.987,227.642C217.245,227.822 218.482,228.18 219.622,228.747C220.418,229.143 221.164,229.64 221.826,230.234C222.529,230.864 223.135,231.602 223.614,232.416C224.089,233.221 224.439,234.097 224.664,235.004C224.861,235.795 224.964,236.607 224.988,237.421C225.019,238.523 224.911,239.632 224.631,240.699C224.47,241.313 224.253,241.912 223.977,242.484C223.665,243.133 223.278,243.745 222.825,244.304C222.495,244.711 222.131,245.089 221.738,245.434C221.036,246.05 220.245,246.559 219.401,246.957C218.703,247.286 217.97,247.539 217.221,247.722C216.501,247.898 215.765,248.009 215.026,248.063C214.689,248.087 214.352,248.099 214.014,248.102L213.942,248.102L205.996,248.102L205.915,248.098C205.889,248.094 205.862,248.092 205.836,248.087C205.756,248.072 205.679,248.046 205.607,248.01C205.389,247.902 205.223,247.702 205.156,247.468C205.142,247.416 205.132,247.363 205.127,247.31C205.124,247.283 205.124,247.256 205.123,247.229L205.123,228.371C205.124,228.344 205.124,228.317 205.127,228.29C205.134,228.21 205.153,228.131 205.182,228.056C205.231,227.93 205.309,227.817 205.408,227.726C205.507,227.635 205.628,227.568 205.757,227.531C205.809,227.517 205.862,227.507 205.915,227.502C205.942,227.499 205.969,227.499 205.996,227.498C208.66,227.498 211.323,227.492 213.987,227.498ZM206.869,229.244L206.869,246.356C209.248,246.356 211.627,246.362 214.006,246.356C214.262,246.354 214.518,246.346 214.773,246.33C215.263,246.299 215.75,246.241 216.232,246.15C217.467,245.918 218.67,245.475 219.723,244.78C219.996,244.6 220.259,244.403 220.508,244.189C220.818,243.924 221.108,243.634 221.371,243.322C221.748,242.877 222.071,242.388 222.335,241.868C222.595,241.355 222.797,240.813 222.943,240.257C223.18,239.35 223.27,238.407 223.243,237.471C223.223,236.782 223.137,236.095 222.97,235.426C222.789,234.699 222.513,233.995 222.136,233.347C221.778,232.728 221.33,232.163 220.811,231.672C220.307,231.196 219.739,230.79 219.13,230.459C218.063,229.878 216.88,229.527 215.679,229.362C215.115,229.284 214.547,229.248 213.978,229.244C211.609,229.238 209.239,229.244 206.869,229.244ZM213.986,231.738C214.191,231.74 214.395,231.748 214.599,231.764C215.039,231.799 215.476,231.871 215.901,231.988C216.346,232.111 216.778,232.282 217.182,232.506C217.641,232.76 218.061,233.08 218.424,233.458C218.68,233.724 218.907,234.018 219.102,234.332C219.361,234.748 219.562,235.198 219.708,235.665C219.854,236.133 219.945,236.618 219.988,237.106C220.007,237.331 220.016,237.556 220.017,237.782L219.144,237.786L220.017,237.791C220.016,237.863 220.016,237.863 220.015,237.936C220.009,238.158 219.995,238.381 219.968,238.602C219.913,239.061 219.81,239.514 219.658,239.95C219.496,240.415 219.279,240.86 219.008,241.271C218.621,241.858 218.125,242.372 217.549,242.776C217.072,243.112 216.543,243.371 215.988,243.549C215.55,243.689 215.097,243.78 214.64,243.825C214.399,243.849 214.157,243.86 213.914,243.861L210.859,243.861C210.832,243.86 210.805,243.86 210.778,243.857C210.698,243.85 210.619,243.831 210.544,243.802C210.418,243.753 210.305,243.675 210.214,243.576C210.123,243.477 210.056,243.356 210.019,243.227C210.005,243.175 209.995,243.122 209.99,243.069C209.987,243.042 209.987,243.015 209.986,242.988L209.986,232.611C209.987,232.584 209.987,232.557 209.99,232.53C209.995,232.477 210.005,232.424 210.019,232.372C210.056,232.243 210.123,232.122 210.214,232.023C210.305,231.924 210.418,231.846 210.544,231.797C210.619,231.768 210.698,231.749 210.778,231.742C210.805,231.739 210.832,231.739 210.859,231.738C211.901,231.738 212.944,231.736 213.986,231.738ZM211.732,233.484L211.732,242.115C212.481,242.115 213.231,242.121 213.98,242.115C214.432,242.108 214.884,242.052 215.319,241.928C215.64,241.836 215.951,241.707 216.242,241.541C216.564,241.356 216.86,241.126 217.116,240.857C217.422,240.535 217.671,240.161 217.856,239.758C218.001,239.441 218.107,239.108 218.176,238.766C218.252,238.385 218.28,237.996 218.269,237.607C218.263,237.396 218.246,237.185 218.217,236.976C218.158,236.556 218.049,236.143 217.881,235.753C217.74,235.426 217.553,235.118 217.325,234.845C217.182,234.674 217.022,234.517 216.849,234.377C216.734,234.285 216.614,234.2 216.489,234.122C216.044,233.848 215.544,233.673 215.032,233.579C214.684,233.514 214.33,233.487 213.977,233.484C213.229,233.482 212.48,233.484 211.732,233.484Z" style="fill:white;fill-rule:nonzero;"/>
            </g>
        </g>
        <g transform="matrix(1,0,0,1,-288.417,-639.721)">
            <g transform="matrix(4.0098,0,0,4.0098,65.6227,33.5168)">
                <path d="M91.677,252.677C91.716,252.68 91.726,252.68 91.764,252.686C91.808,252.693 91.851,252.703 91.893,252.716C92.076,252.773 92.237,252.89 92.347,253.047C92.372,253.083 92.395,253.121 92.414,253.16C92.432,253.195 92.435,253.204 92.45,253.24L94.515,258.705C94.528,258.743 94.531,258.752 94.542,258.79C94.564,258.876 94.574,258.965 94.57,259.054C94.559,259.292 94.449,259.519 94.268,259.675C94.201,259.733 94.125,259.781 94.043,259.816C93.962,259.851 93.875,259.873 93.787,259.882C93.747,259.886 93.737,259.886 93.698,259.887L92.1,259.887C92.06,259.886 92.05,259.886 92.01,259.882C91.965,259.878 91.921,259.869 91.877,259.858C91.687,259.808 91.518,259.693 91.4,259.536C91.364,259.488 91.333,259.436 91.308,259.381C91.291,259.345 91.288,259.335 91.274,259.298L91.207,259.101L90.297,259.101L90.229,259.299C90.215,259.336 90.212,259.346 90.195,259.382C90.176,259.423 90.154,259.462 90.129,259.5C90.02,259.663 89.857,259.786 89.67,259.845C89.613,259.864 89.554,259.876 89.494,259.882C89.454,259.886 89.444,259.886 89.404,259.887L87.806,259.887C87.767,259.886 87.757,259.886 87.717,259.882C87.629,259.873 87.542,259.851 87.461,259.816C87.242,259.722 87.068,259.538 86.986,259.314C86.956,259.231 86.938,259.143 86.934,259.055C86.93,258.966 86.939,258.877 86.962,258.791C86.972,258.753 86.976,258.744 86.989,258.707L89.046,253.242C89.061,253.205 89.064,253.196 89.081,253.161C89.101,253.121 89.123,253.083 89.149,253.047C89.259,252.891 89.42,252.773 89.603,252.716C89.659,252.698 89.717,252.686 89.775,252.681C89.814,252.677 89.824,252.677 89.863,252.676C90.468,252.676 91.073,252.662 91.677,252.677Z" style="fill:white;fill-rule:nonzero;"/>
            </g>
        </g>
        <g transform="matrix(1,0,0,1,-288.417,-639.721)">
            <g transform="matrix(4.0098,0,0,4.0098,65.6227,33.5168)">
                <path d="M95.591,252.678C95.629,252.681 95.639,252.681 95.677,252.687C95.719,252.693 95.761,252.702 95.802,252.715C95.926,252.753 96.041,252.818 96.136,252.905C96.179,252.944 96.216,252.987 96.251,253.033L96.887,253.897L96.887,253.55L96.888,253.507C96.891,253.469 96.891,253.46 96.897,253.422C96.905,253.365 96.919,253.31 96.938,253.256C96.982,253.135 97.052,253.024 97.143,252.933C97.234,252.842 97.345,252.772 97.466,252.728C97.533,252.704 97.603,252.688 97.674,252.681C97.712,252.678 97.722,252.678 97.76,252.677L99.178,252.677C99.216,252.678 99.226,252.678 99.264,252.681C99.335,252.688 99.405,252.704 99.472,252.728C99.593,252.772 99.704,252.842 99.795,252.933C99.886,253.024 99.956,253.135 100,253.256C100.024,253.323 100.04,253.393 100.047,253.464C100.05,253.502 100.05,253.512 100.051,253.55L100.051,259.015C100.05,259.053 100.05,259.063 100.047,259.101C100.04,259.172 100.024,259.242 100,259.309C99.956,259.43 99.886,259.541 99.795,259.632C99.704,259.723 99.593,259.793 99.472,259.837C99.405,259.861 99.335,259.877 99.264,259.884C99.226,259.887 99.216,259.887 99.178,259.888L97.818,259.888C97.78,259.887 97.77,259.887 97.732,259.884C97.689,259.879 97.646,259.872 97.604,259.861C97.465,259.826 97.334,259.756 97.228,259.658C97.185,259.619 97.149,259.576 97.113,259.53L96.38,258.526L96.38,259.015L96.379,259.058C96.376,259.096 96.376,259.105 96.37,259.143C96.36,259.214 96.341,259.283 96.313,259.349C96.264,259.468 96.189,259.575 96.093,259.662C95.998,259.748 95.883,259.813 95.76,259.85C95.706,259.867 95.649,259.878 95.593,259.884C95.555,259.887 95.545,259.887 95.507,259.888L94.098,259.888C94.06,259.887 94.05,259.887 94.012,259.884C93.941,259.877 93.871,259.861 93.804,259.837C93.683,259.793 93.572,259.723 93.481,259.632C93.39,259.541 93.32,259.43 93.276,259.309C93.252,259.242 93.236,259.172 93.229,259.101C93.226,259.063 93.226,259.053 93.225,259.015L93.225,253.55C93.226,253.512 93.226,253.502 93.229,253.464C93.236,253.393 93.252,253.323 93.276,253.256C93.32,253.135 93.39,253.024 93.481,252.933C93.572,252.842 93.683,252.772 93.804,252.728C93.871,252.704 93.941,252.688 94.012,252.681C94.05,252.678 94.06,252.678 94.098,252.677C94.596,252.677 95.093,252.666 95.591,252.678ZM98.279,257.259C98.232,257.292 98.184,257.322 98.132,257.347C98.01,257.404 97.875,257.433 97.741,257.429L98.261,258.142L98.305,258.142L98.305,257.238C98.296,257.245 98.288,257.252 98.279,257.259ZM94.971,254.423L94.971,255.164L94.989,255.15C95.036,255.116 95.084,255.086 95.136,255.062C95.214,255.025 95.297,255 95.382,254.988C95.425,254.982 95.468,254.98 95.511,254.979L95.516,254.979L95.107,254.423C95.061,254.423 95.016,254.423 94.971,254.423Z" style="fill:white;fill-rule:nonzero;"/>
            </g>
        </g>
        <g transform="matrix(1,0,0,1,-288.417,-639.721)">
            <g transform="matrix(4.0098,0,0,4.0098,65.6227,33.5168)">
                <path d="M102.874,252.586C103.169,252.59 103.464,252.622 103.751,252.691C103.985,252.747 104.214,252.827 104.431,252.931C104.676,253.048 104.907,253.195 105.116,253.369C105.296,253.517 105.459,253.685 105.605,253.867C105.699,253.985 105.786,254.11 105.864,254.239C105.918,254.329 105.972,254.42 106.004,254.52C106.058,254.687 106.06,254.869 106.009,255.037C105.993,255.092 105.971,255.147 105.943,255.198C105.925,255.232 105.919,255.24 105.898,255.273L105.892,255.281L105.917,255.308L105.945,255.343C105.972,255.379 105.997,255.414 106.018,255.453C106.061,255.531 106.092,255.615 106.11,255.701C106.119,255.745 106.125,255.789 106.127,255.833C106.127,255.848 106.127,255.862 106.128,255.877L106.128,258.048C106.127,258.091 106.125,258.134 106.118,258.177C106.103,258.277 106.071,258.375 106.023,258.463C105.995,258.514 105.963,258.562 105.926,258.607C105.896,258.642 105.864,258.676 105.831,258.71C105.738,258.808 105.64,258.902 105.538,258.992C105.195,259.29 104.804,259.533 104.382,259.7C103.983,259.858 103.56,259.949 103.132,259.977C102.724,260.003 102.313,259.975 101.914,259.888C101.397,259.775 100.902,259.562 100.474,259.251C100.327,259.146 100.189,259.029 100.061,258.902C99.898,258.742 99.752,258.565 99.624,258.377C99.458,258.132 99.325,257.866 99.225,257.588C99.128,257.313 99.064,257.028 99.032,256.739C99.015,256.59 99.008,256.441 99.007,256.291L99.88,256.286L99.007,256.281C99.007,256.232 99.007,256.232 99.008,256.184C99.012,256.05 99.021,255.917 99.038,255.784C99.073,255.496 99.141,255.212 99.242,254.94C99.339,254.678 99.467,254.427 99.624,254.195C99.879,253.819 100.207,253.496 100.585,253.243C100.873,253.051 101.188,252.9 101.517,252.792C101.794,252.702 102.08,252.642 102.37,252.611C102.494,252.598 102.619,252.59 102.744,252.587C102.787,252.586 102.83,252.586 102.874,252.586Z" style="fill:white;fill-rule:nonzero;"/>
            </g>
        </g>
        <g transform="matrix(1,0,0,1,-288.417,-639.721)">
            <g transform="matrix(4.0098,0,0,4.0098,65.6227,33.5168)">
                <path d="M111.329,252.681C111.366,252.686 111.376,252.686 111.413,252.694C111.469,252.705 111.524,252.722 111.577,252.744C111.803,252.837 111.982,253.026 112.065,253.256C112.089,253.323 112.105,253.393 112.112,253.464C112.115,253.502 112.115,253.512 112.116,253.55C112.116,254.645 112.121,255.739 112.116,256.834C112.113,257.007 112.102,257.179 112.077,257.35C112.03,257.675 111.939,257.993 111.796,258.289C111.699,258.492 111.577,258.683 111.435,258.857C111.332,258.981 111.219,259.097 111.097,259.202C111.004,259.281 110.906,259.355 110.804,259.422C110.724,259.475 110.641,259.524 110.555,259.569C110.006,259.858 109.383,259.975 108.766,259.986C108.638,259.988 108.51,259.986 108.382,259.979C107.84,259.95 107.297,259.834 106.811,259.587C106.725,259.543 106.641,259.495 106.559,259.443C106.456,259.378 106.356,259.305 106.262,259.227C106.035,259.039 105.839,258.816 105.683,258.567C105.536,258.334 105.424,258.08 105.346,257.815C105.251,257.488 105.21,257.148 105.208,256.807L106.081,256.803L105.208,256.803L105.208,253.55C105.209,253.512 105.209,253.502 105.212,253.464C105.219,253.393 105.235,253.323 105.259,253.256C105.303,253.135 105.373,253.024 105.464,252.933C105.555,252.842 105.666,252.772 105.787,252.728C105.854,252.704 105.924,252.688 105.995,252.681C106.033,252.678 106.043,252.678 106.081,252.677L107.515,252.677C107.553,252.678 107.563,252.678 107.601,252.681C107.672,252.688 107.742,252.704 107.809,252.728C107.93,252.772 108.041,252.842 108.132,252.933C108.223,253.024 108.293,253.135 108.337,253.256C108.361,253.323 108.377,253.393 108.384,253.464C108.387,253.502 108.387,253.512 108.388,253.55C108.388,254.627 108.358,255.704 108.388,256.78C108.389,256.803 108.391,256.826 108.395,256.848C108.397,256.862 108.4,256.876 108.404,256.889C108.406,256.897 108.408,256.905 108.411,256.912C108.413,256.917 108.415,256.923 108.418,256.928C108.421,256.933 108.424,256.939 108.429,256.944C108.438,256.954 108.452,256.96 108.464,256.965C108.471,256.967 108.477,256.97 108.484,256.972C108.496,256.976 108.508,256.979 108.52,256.981C108.541,256.986 108.562,256.989 108.584,256.991C108.618,256.995 108.653,256.996 108.688,256.995C108.741,256.994 108.795,256.989 108.846,256.973C108.865,256.967 108.888,256.959 108.902,256.944C108.914,256.93 108.921,256.91 108.926,256.893C108.939,256.852 108.943,256.809 108.944,256.767C108.954,255.694 108.944,254.622 108.944,253.55C108.945,253.512 108.945,253.502 108.948,253.464C108.955,253.393 108.971,253.323 108.995,253.256C109.039,253.135 109.109,253.024 109.2,252.933C109.291,252.842 109.402,252.772 109.523,252.728C109.59,252.704 109.66,252.688 109.731,252.681C109.769,252.678 109.779,252.678 109.817,252.677L111.243,252.677L111.286,252.678C111.3,252.679 111.314,252.68 111.329,252.681Z" style="fill:white;fill-rule:nonzero;"/>
            </g>
        </g>
        <g transform="matrix(1,0,0,1,-288.417,-639.721)">
            <g transform="matrix(4.0098,0,0,4.0098,65.6227,33.5168)">
                <path d="M113.676,252.678C113.714,252.681 113.723,252.681 113.761,252.687C113.818,252.695 113.873,252.709 113.927,252.728C114.048,252.772 114.159,252.842 114.25,252.933C114.341,253.024 114.411,253.135 114.455,253.256C114.479,253.323 114.495,253.393 114.502,253.464C114.505,253.502 114.505,253.512 114.506,253.55L114.506,256.913L115.829,256.913L115.872,256.914C115.91,256.917 115.919,256.917 115.957,256.923C116.014,256.931 116.069,256.945 116.123,256.964C116.244,257.008 116.355,257.078 116.446,257.169C116.537,257.26 116.607,257.371 116.651,257.492C116.675,257.559 116.691,257.629 116.698,257.7C116.701,257.738 116.701,257.748 116.702,257.786L116.702,259.015C116.701,259.053 116.701,259.063 116.698,259.101C116.691,259.172 116.675,259.242 116.651,259.309C116.607,259.43 116.537,259.541 116.446,259.632C116.355,259.723 116.244,259.793 116.123,259.837C116.056,259.861 115.986,259.877 115.915,259.884C115.877,259.887 115.867,259.887 115.829,259.888L112.224,259.888C112.186,259.887 112.176,259.887 112.138,259.884C112.067,259.877 111.997,259.861 111.93,259.837C111.809,259.793 111.698,259.723 111.607,259.632C111.516,259.541 111.446,259.43 111.402,259.309C111.378,259.242 111.362,259.172 111.355,259.101C111.352,259.063 111.352,259.053 111.351,259.015L111.351,253.55C111.352,253.512 111.352,253.502 111.355,253.464C111.362,253.393 111.378,253.323 111.402,253.256C111.446,253.135 111.516,253.024 111.607,252.933C111.698,252.842 111.809,252.772 111.93,252.728C111.997,252.704 112.067,252.688 112.138,252.681C112.176,252.678 112.186,252.678 112.224,252.677C112.708,252.677 113.192,252.666 113.676,252.678Z" style="fill:white;fill-rule:nonzero;"/>
            </g>
        </g>
        <g transform="matrix(1,0,0,1,-288.417,-639.721)">
            <g transform="matrix(4.0098,0,0,4.0098,65.6227,33.5168)">
                <path d="M119.846,252.677C119.885,252.68 119.895,252.68 119.933,252.686C119.977,252.693 120.02,252.703 120.062,252.716C120.245,252.773 120.406,252.89 120.516,253.047C120.541,253.083 120.564,253.121 120.583,253.16C120.601,253.195 120.604,253.204 120.619,253.24L122.684,258.705C122.697,258.743 122.7,258.752 122.711,258.79C122.733,258.876 122.743,258.965 122.739,259.054C122.728,259.292 122.618,259.519 122.437,259.675C122.37,259.733 122.294,259.781 122.212,259.816C122.131,259.851 122.044,259.873 121.956,259.882C121.916,259.886 121.906,259.886 121.867,259.887L120.269,259.887C120.229,259.886 120.219,259.886 120.179,259.882C120.119,259.876 120.06,259.864 120.003,259.845C119.816,259.785 119.652,259.662 119.543,259.499C119.518,259.462 119.496,259.422 119.477,259.381C119.46,259.345 119.457,259.335 119.443,259.298L119.376,259.101L118.466,259.101L118.398,259.299C118.384,259.336 118.381,259.346 118.364,259.382C118.345,259.423 118.323,259.462 118.298,259.5C118.189,259.663 118.026,259.786 117.839,259.845C117.782,259.864 117.723,259.876 117.663,259.882C117.623,259.886 117.613,259.886 117.573,259.887L115.975,259.887C115.936,259.886 115.926,259.886 115.886,259.882C115.798,259.873 115.711,259.851 115.63,259.816C115.411,259.722 115.237,259.538 115.155,259.314C115.125,259.231 115.107,259.143 115.103,259.055C115.099,258.966 115.108,258.877 115.131,258.791C115.141,258.753 115.145,258.744 115.158,258.707L117.215,253.242C117.23,253.205 117.233,253.196 117.25,253.161C117.276,253.108 117.308,253.058 117.344,253.012C117.462,252.861 117.629,252.752 117.814,252.704C117.857,252.693 117.9,252.685 117.944,252.681C117.983,252.677 117.993,252.677 118.032,252.676C118.637,252.676 119.242,252.662 119.846,252.677Z" style="fill:white;fill-rule:nonzero;"/>
            </g>
        </g>
        <g transform="matrix(1,0,0,1,-288.417,-639.721)">
            <g transform="matrix(4.0098,0,0,4.0098,65.6227,33.5168)">
                <path d="M125.04,252.676C125.306,252.68 125.571,252.711 125.828,252.779C126.029,252.833 126.225,252.908 126.409,253.005C126.628,253.12 126.83,253.267 127.006,253.441C127.319,253.749 127.544,254.138 127.665,254.56C127.749,254.851 127.784,255.156 127.776,255.459C127.765,255.828 127.687,256.196 127.532,256.531C127.439,256.732 127.32,256.92 127.177,257.089C127.115,257.162 127.049,257.231 126.98,257.297L126.975,257.301L127.691,258.59L127.711,258.629C127.729,258.668 127.746,258.707 127.76,258.749C127.786,258.831 127.8,258.917 127.801,259.003C127.802,259.09 127.79,259.176 127.766,259.259C127.729,259.384 127.665,259.499 127.578,259.596C127.492,259.693 127.384,259.769 127.264,259.819C127.185,259.853 127.1,259.874 127.014,259.883C126.976,259.886 126.966,259.886 126.928,259.887L125.315,259.887C125.278,259.886 125.268,259.886 125.231,259.883C125.189,259.879 125.148,259.872 125.107,259.862C124.93,259.818 124.768,259.718 124.65,259.579C124.614,259.537 124.582,259.49 124.554,259.442C124.536,259.41 124.504,259.345 124.493,259.321L124.482,259.348C124.467,259.383 124.464,259.392 124.446,259.425C124.419,259.476 124.387,259.524 124.351,259.568C124.233,259.712 124.069,259.815 123.888,259.861C123.847,259.871 123.804,259.878 123.762,259.883C123.724,259.886 123.714,259.886 123.676,259.887L122.266,259.887C122.228,259.886 122.218,259.886 122.18,259.883C122.109,259.876 122.039,259.86 121.972,259.836C121.851,259.792 121.74,259.722 121.649,259.631C121.558,259.54 121.488,259.429 121.444,259.308C121.42,259.241 121.404,259.171 121.397,259.1C121.394,259.062 121.394,259.052 121.393,259.014L121.393,253.549C121.394,253.511 121.394,253.501 121.397,253.463C121.404,253.392 121.42,253.322 121.444,253.255C121.488,253.134 121.558,253.023 121.649,252.932C121.74,252.841 121.851,252.771 121.972,252.727C122.039,252.703 122.109,252.687 122.18,252.68C122.218,252.677 122.228,252.677 122.266,252.676C123.191,252.676 124.116,252.671 125.04,252.676ZM125.47,255.36L126.031,255.367L126.031,255.353L126.031,255.353C125.844,255.355 125.657,255.358 125.47,255.36Z" style="fill:white;fill-rule:nonzero;"/>
            </g>
        </g>
        <g transform="matrix(1,0,0,1,-288.417,-639.721)">
            <g transform="matrix(4.0098,0,0,4.0098,65.6227,33.5168)">
                <path d="M132.496,252.586C132.609,252.588 132.722,252.593 132.834,252.603C133.059,252.624 133.282,252.664 133.5,252.725C133.723,252.788 133.94,252.874 134.145,252.983C134.363,253.097 134.566,253.237 134.752,253.398C134.963,253.581 135.151,253.79 135.313,254.017C135.392,254.129 135.464,254.244 135.531,254.363C135.555,254.406 135.578,254.449 135.601,254.492C135.627,254.544 135.652,254.596 135.671,254.651C135.721,254.803 135.728,254.969 135.692,255.125C135.675,255.195 135.65,255.264 135.617,255.329C135.576,255.406 135.524,255.477 135.463,255.539C135.412,255.591 135.354,255.636 135.292,255.674C135.259,255.694 135.25,255.698 135.215,255.715L134.008,256.286L135.215,256.857L135.254,256.876C135.288,256.896 135.296,256.9 135.329,256.921C135.401,256.97 135.466,257.03 135.521,257.097C135.576,257.165 135.62,257.241 135.653,257.323C135.739,257.54 135.734,257.788 135.639,258.002C135.614,258.057 135.585,258.111 135.556,258.164C135.5,258.267 135.439,258.367 135.374,258.464C135.115,258.849 134.784,259.186 134.395,259.439C134.051,259.663 133.667,259.818 133.266,259.903C132.969,259.967 132.664,259.991 132.36,259.985C131.935,259.976 131.512,259.906 131.109,259.771C130.835,259.679 130.571,259.556 130.325,259.404C130.03,259.223 129.761,258.998 129.53,258.739C129.328,258.512 129.156,258.259 129.019,257.987C128.893,257.737 128.797,257.472 128.732,257.2C128.683,256.997 128.652,256.79 128.637,256.582C128.63,256.485 128.627,256.388 128.626,256.291L129.499,256.286L128.626,256.281C128.626,256.234 128.626,256.234 128.627,256.187C128.631,256.056 128.64,255.925 128.655,255.796C128.688,255.528 128.748,255.263 128.837,255.009C128.929,254.747 129.051,254.496 129.201,254.263C129.454,253.869 129.787,253.529 130.174,253.264C130.462,253.066 130.779,252.911 131.11,252.8C131.391,252.706 131.683,252.644 131.977,252.612C132.104,252.598 132.232,252.591 132.36,252.587C132.405,252.586 132.45,252.586 132.496,252.586ZM132.447,255.578C132.388,255.579 132.33,255.585 132.273,255.6C132.179,255.624 132.091,255.67 132.019,255.736C131.999,255.754 131.981,255.774 131.964,255.795C131.838,255.949 131.795,256.157 131.808,256.352C131.812,256.418 131.824,256.483 131.843,256.546C131.876,256.654 131.932,256.754 132.014,256.832C132.11,256.924 132.237,256.976 132.369,256.99C132.42,256.996 132.473,256.999 132.524,256.987C132.611,256.967 132.691,256.913 132.751,256.847C132.783,256.812 132.808,256.774 132.826,256.731L132.844,256.691C132.871,256.639 132.901,256.589 132.936,256.542C132.99,256.472 133.054,256.411 133.126,256.36C133.162,256.334 133.2,256.313 133.238,256.292L133.251,256.286L133.238,256.281L133.2,256.26C133.162,256.237 133.125,256.214 133.09,256.187C133.01,256.123 132.94,256.046 132.886,255.959C132.871,255.934 132.857,255.908 132.844,255.882C132.832,255.858 132.823,255.832 132.81,255.808C132.804,255.797 132.797,255.785 132.79,255.774C132.721,255.674 132.609,255.594 132.487,255.58C132.473,255.578 132.46,255.578 132.447,255.578Z" style="fill:white;fill-rule:nonzero;"/>
            </g>
        </g>
        <g transform="matrix(1,0,0,1,-288.417,-639.721)">
            <g transform="matrix(4.0098,0,0,4.0098,65.6227,33.5168)">
                <path d="M138.142,252.586C138.396,252.591 138.649,252.614 138.9,252.662C139.38,252.754 139.843,252.935 140.254,253.201C140.493,253.356 140.713,253.539 140.909,253.746C141.115,253.966 141.293,254.212 141.437,254.477C141.599,254.775 141.717,255.096 141.791,255.427C141.857,255.725 141.886,256.03 141.883,256.335C141.877,256.794 141.795,257.252 141.629,257.68C141.465,258.103 141.22,258.495 140.909,258.826C140.547,259.21 140.099,259.508 139.609,259.703C139.158,259.883 138.675,259.974 138.19,259.985C137.825,259.993 137.458,259.956 137.103,259.871C136.703,259.774 136.317,259.615 135.968,259.396C135.714,259.236 135.48,259.045 135.273,258.827C135.076,258.619 134.905,258.386 134.765,258.137C134.56,257.772 134.421,257.372 134.351,256.96C134.313,256.739 134.295,256.515 134.294,256.291L135.167,256.286L134.294,256.281C134.294,256.234 134.294,256.234 134.295,256.188C134.3,256.042 134.31,255.898 134.329,255.754C134.364,255.489 134.427,255.228 134.517,254.978C134.61,254.719 134.733,254.471 134.883,254.241C135.121,253.876 135.427,253.556 135.781,253.302C136.089,253.08 136.431,252.909 136.791,252.79C137.058,252.702 137.334,252.643 137.613,252.612C137.74,252.598 137.868,252.591 137.996,252.587C138.044,252.586 138.093,252.586 138.142,252.586ZM138.082,255.578C137.955,255.58 137.827,255.608 137.723,255.684C137.615,255.763 137.546,255.884 137.51,256.011C137.493,256.071 137.483,256.132 137.478,256.193C137.474,256.232 137.473,256.271 137.474,256.309C137.475,256.339 137.477,256.369 137.48,256.399C137.497,256.562 137.554,256.729 137.675,256.845C137.698,256.868 137.724,256.889 137.752,256.906C137.85,256.969 137.967,256.994 138.082,256.995C138.204,256.997 138.328,256.972 138.431,256.904C138.598,256.793 138.677,256.591 138.697,256.399C138.7,256.369 138.702,256.339 138.703,256.309C138.704,256.267 138.702,256.224 138.698,256.182C138.693,256.121 138.682,256.061 138.664,256.002C138.633,255.899 138.582,255.8 138.504,255.724C138.442,255.665 138.365,255.624 138.282,255.601C138.231,255.587 138.178,255.581 138.124,255.578C138.11,255.578 138.096,255.578 138.082,255.578ZM139.576,256.286L140.137,256.289L140.137,256.286L140.137,256.283C139.95,256.284 139.763,256.285 139.576,256.286Z" style="fill:white;fill-rule:nonzero;"/>
            </g>
        </g>
        <g transform="matrix(1,0,0,1,-288.417,-639.721)">
            <g transform="matrix(4.0098,0,0,4.0098,65.6227,33.5168)">
                <path d="M143.213,252.678C143.251,252.681 143.261,252.681 143.299,252.687C143.341,252.693 143.383,252.702 143.424,252.715C143.548,252.753 143.663,252.818 143.758,252.905C143.801,252.944 143.838,252.987 143.873,253.033L144.509,253.897L144.509,253.55L144.51,253.507C144.513,253.469 144.513,253.46 144.519,253.422C144.527,253.365 144.541,253.31 144.56,253.256C144.604,253.135 144.674,253.024 144.765,252.933C144.856,252.842 144.967,252.772 145.088,252.728C145.155,252.704 145.225,252.688 145.296,252.681C145.334,252.678 145.344,252.678 145.382,252.677L146.8,252.677C146.838,252.678 146.848,252.678 146.886,252.681C146.957,252.688 147.027,252.704 147.094,252.728C147.215,252.772 147.326,252.842 147.417,252.933C147.508,253.024 147.578,253.135 147.622,253.256C147.646,253.323 147.662,253.393 147.669,253.464C147.672,253.502 147.672,253.512 147.673,253.55L147.673,259.015C147.672,259.053 147.672,259.063 147.669,259.101C147.662,259.172 147.646,259.242 147.622,259.309C147.578,259.43 147.508,259.541 147.417,259.632C147.326,259.723 147.215,259.793 147.094,259.837C147.027,259.861 146.957,259.877 146.886,259.884C146.848,259.887 146.838,259.887 146.8,259.888L145.44,259.888C145.382,259.886 145.325,259.882 145.268,259.871C145.127,259.843 144.994,259.779 144.883,259.687C144.849,259.659 144.818,259.629 144.79,259.597C144.764,259.568 144.759,259.56 144.735,259.53L144.002,258.526L144.002,259.015L144.001,259.058C143.998,259.096 143.998,259.105 143.992,259.143C143.984,259.2 143.97,259.255 143.951,259.309C143.907,259.43 143.837,259.541 143.746,259.632C143.655,259.723 143.544,259.793 143.423,259.837C143.356,259.861 143.286,259.877 143.215,259.884C143.177,259.887 143.167,259.887 143.129,259.888L141.72,259.888C141.682,259.887 141.672,259.887 141.634,259.884C141.563,259.877 141.493,259.861 141.426,259.837C141.305,259.793 141.194,259.723 141.103,259.632C141.012,259.541 140.942,259.43 140.898,259.309C140.874,259.242 140.858,259.172 140.851,259.101C140.848,259.063 140.848,259.053 140.847,259.015L140.847,253.55C140.848,253.512 140.848,253.502 140.851,253.464C140.858,253.393 140.874,253.323 140.898,253.256C140.942,253.135 141.012,253.024 141.103,252.933C141.194,252.842 141.305,252.772 141.426,252.728C141.493,252.704 141.563,252.688 141.634,252.681C141.672,252.678 141.682,252.678 141.72,252.677C142.218,252.677 142.715,252.666 143.213,252.678ZM145.901,257.259C145.854,257.292 145.806,257.322 145.754,257.347C145.632,257.404 145.497,257.433 145.363,257.429L145.883,258.142L145.927,258.142L145.927,257.238C145.918,257.245 145.91,257.252 145.901,257.259ZM142.593,254.423L142.593,255.164L142.611,255.15C142.646,255.125 142.682,255.101 142.72,255.081C142.796,255.041 142.878,255.012 142.962,254.995C143.019,254.984 143.075,254.98 143.133,254.979L143.138,254.979L142.729,254.423C142.683,254.423 142.638,254.423 142.593,254.423Z" style="fill:white;fill-rule:nonzero;"/>
            </g>
        </g>
        <g transform="matrix(1,0,0,1,-288.417,-639.721)">
            <g transform="matrix(4.0098,0,0,4.0098,65.6227,33.5168)">
                <path d="M151.832,252.678C151.87,252.681 151.879,252.681 151.917,252.687C151.974,252.695 152.029,252.709 152.083,252.728C152.204,252.772 152.315,252.842 152.406,252.933C152.497,253.024 152.567,253.135 152.611,253.256C152.635,253.323 152.651,253.393 152.658,253.464C152.661,253.502 152.661,253.512 152.662,253.55L152.662,254.779C152.66,254.836 152.656,254.893 152.645,254.949C152.628,255.033 152.599,255.115 152.559,255.19C152.542,255.222 152.538,255.228 152.519,255.257L152.52,255.258C152.543,255.31 152.564,255.363 152.578,255.419C152.588,255.46 152.595,255.503 152.6,255.545C152.603,255.583 152.603,255.593 152.604,255.631L152.604,256.861C152.603,256.899 152.603,256.909 152.6,256.947C152.593,257.018 152.577,257.088 152.553,257.155C152.509,257.276 152.439,257.387 152.348,257.478C152.257,257.569 152.146,257.639 152.025,257.683C151.958,257.707 151.888,257.723 151.817,257.73C151.779,257.733 151.769,257.733 151.731,257.734L150.064,257.734L150.064,259.015L150.063,259.058C150.06,259.096 150.06,259.105 150.054,259.143C150.046,259.2 150.032,259.255 150.013,259.309C149.969,259.43 149.899,259.541 149.808,259.632C149.717,259.723 149.606,259.793 149.485,259.837C149.418,259.861 149.348,259.877 149.277,259.884C149.239,259.887 149.229,259.887 149.191,259.888L147.782,259.888C147.744,259.887 147.734,259.887 147.696,259.884C147.625,259.877 147.555,259.861 147.488,259.837C147.367,259.793 147.256,259.723 147.165,259.632C147.074,259.541 147.004,259.43 146.96,259.309C146.936,259.242 146.92,259.172 146.913,259.101C146.91,259.063 146.91,259.053 146.909,259.015L146.909,253.55C146.91,253.512 146.91,253.502 146.913,253.464C146.92,253.393 146.936,253.323 146.96,253.256C147.004,253.135 147.074,253.024 147.165,252.933C147.256,252.842 147.367,252.772 147.488,252.728C147.555,252.704 147.625,252.688 147.696,252.681C147.734,252.678 147.744,252.678 147.782,252.677C149.132,252.677 150.482,252.645 151.832,252.678Z" style="fill:white;fill-rule:nonzero;"/>
            </g>
        </g>
        <g transform="matrix(1,0,0,1,-288.417,-639.721)">
            <g transform="matrix(4.0098,0,0,4.0098,65.6227,33.5168)">
                <path d="M156.599,252.678C156.637,252.681 156.646,252.681 156.684,252.687C156.741,252.695 156.796,252.709 156.85,252.728C156.971,252.772 157.082,252.842 157.173,252.933C157.264,253.024 157.334,253.135 157.378,253.256C157.402,253.323 157.418,253.393 157.425,253.464C157.428,253.502 157.428,253.512 157.429,253.55L157.429,254.779C157.427,254.836 157.423,254.893 157.412,254.949C157.395,255.033 157.366,255.115 157.326,255.19C157.309,255.222 157.305,255.228 157.286,255.257L157.287,255.258C157.31,255.31 157.331,255.363 157.345,255.419C157.355,255.46 157.362,255.503 157.367,255.545C157.37,255.583 157.37,255.593 157.371,255.631L157.371,256.861C157.369,256.918 157.365,256.975 157.354,257.031C157.343,257.087 157.326,257.142 157.304,257.195C157.29,257.23 157.285,257.238 157.268,257.272L157.265,257.277L157.282,257.301L157.305,257.337C157.323,257.37 157.329,257.378 157.345,257.413C157.376,257.477 157.398,257.546 157.412,257.616C157.423,257.672 157.427,257.729 157.429,257.786L157.429,259.015C157.428,259.053 157.428,259.063 157.425,259.101C157.418,259.172 157.402,259.242 157.378,259.309C157.334,259.43 157.264,259.541 157.173,259.632C157.082,259.723 156.971,259.793 156.85,259.837C156.783,259.861 156.713,259.877 156.642,259.884C156.604,259.887 156.594,259.887 156.556,259.888L152.549,259.888C152.511,259.887 152.501,259.887 152.463,259.884C152.392,259.877 152.322,259.861 152.255,259.837C152.134,259.793 152.023,259.723 151.932,259.632C151.841,259.541 151.771,259.43 151.727,259.309C151.703,259.242 151.687,259.172 151.68,259.101C151.677,259.063 151.677,259.053 151.676,259.015L151.676,253.55C151.677,253.512 151.677,253.502 151.68,253.464C151.687,253.393 151.703,253.323 151.727,253.256C151.771,253.135 151.841,253.024 151.932,252.933C152.023,252.842 152.134,252.772 152.255,252.728C152.322,252.704 152.392,252.688 152.463,252.681C152.501,252.678 152.511,252.678 152.549,252.677C153.899,252.677 155.249,252.645 156.599,252.678Z" style="fill:white;fill-rule:nonzero;"/>
            </g>
        </g>
        <g transform="matrix(1,0,0,1,-288.417,-639.721)">
            <g transform="matrix(4.0098,0,0,4.0098,65.6227,33.5168)">
                <path d="M160.147,252.676C160.413,252.68 160.678,252.711 160.935,252.779C161.147,252.836 161.353,252.916 161.546,253.021C161.753,253.134 161.945,253.275 162.113,253.441C162.426,253.749 162.651,254.138 162.772,254.56C162.856,254.851 162.891,255.156 162.883,255.459C162.872,255.828 162.794,256.196 162.639,256.531C162.546,256.732 162.427,256.92 162.284,257.089C162.222,257.162 162.156,257.231 162.087,257.297L162.082,257.301L162.798,258.59L162.818,258.629C162.834,258.663 162.839,258.672 162.852,258.708C162.883,258.789 162.901,258.874 162.906,258.96C162.914,259.09 162.893,259.22 162.844,259.341C162.796,259.461 162.72,259.57 162.625,259.657C162.561,259.716 162.489,259.765 162.411,259.802C162.333,259.839 162.249,259.864 162.164,259.877C162.121,259.884 162.078,259.886 162.035,259.887L160.421,259.887C160.384,259.886 160.374,259.886 160.337,259.883C160.295,259.879 160.254,259.872 160.213,259.862C160.036,259.818 159.874,259.718 159.756,259.579C159.719,259.536 159.687,259.49 159.66,259.441C159.642,259.41 159.611,259.346 159.599,259.322L159.589,259.348C159.574,259.383 159.571,259.392 159.553,259.425C159.526,259.476 159.494,259.524 159.458,259.568C159.34,259.712 159.176,259.815 158.995,259.861C158.954,259.871 158.911,259.878 158.869,259.883C158.831,259.886 158.821,259.886 158.783,259.887L157.373,259.887C157.335,259.886 157.325,259.886 157.287,259.883C157.216,259.876 157.146,259.86 157.079,259.836C156.958,259.792 156.847,259.722 156.756,259.631C156.665,259.54 156.595,259.429 156.551,259.308C156.527,259.241 156.511,259.171 156.504,259.1C156.501,259.062 156.501,259.052 156.5,259.014L156.5,253.549C156.501,253.511 156.501,253.501 156.504,253.463C156.511,253.392 156.527,253.322 156.551,253.255C156.595,253.134 156.665,253.023 156.756,252.932C156.847,252.841 156.958,252.771 157.079,252.727C157.146,252.703 157.216,252.687 157.287,252.68C157.325,252.677 157.335,252.677 157.373,252.676C158.298,252.676 159.223,252.671 160.147,252.676ZM160.577,255.36L161.138,255.367L161.138,255.353L161.138,255.352C160.951,255.355 160.764,255.357 160.577,255.36Z" style="fill:white;fill-rule:nonzero;"/>
            </g>
        </g>
        <g transform="matrix(1,0,0,1,-288.417,-639.721)">
            <g transform="matrix(4.0098,0,0,4.0098,65.6227,33.5168)">
                <path d="M166.837,252.678C166.875,252.681 166.884,252.681 166.922,252.687C166.979,252.695 167.034,252.709 167.088,252.728C167.209,252.772 167.32,252.842 167.411,252.933C167.502,253.024 167.572,253.135 167.616,253.256C167.64,253.323 167.656,253.393 167.663,253.464C167.666,253.502 167.666,253.512 167.667,253.55L167.667,254.779C167.665,254.836 167.661,254.893 167.65,254.949C167.633,255.033 167.604,255.115 167.564,255.19C167.547,255.222 167.543,255.228 167.524,255.257L167.525,255.258C167.548,255.31 167.569,255.363 167.583,255.419C167.593,255.46 167.6,255.503 167.605,255.545C167.608,255.583 167.608,255.593 167.609,255.631L167.609,256.861C167.608,256.899 167.608,256.909 167.605,256.947C167.599,257.003 167.588,257.06 167.571,257.114C167.555,257.169 167.532,257.221 167.506,257.272L167.503,257.277L167.52,257.301L167.543,257.337C167.561,257.37 167.567,257.378 167.583,257.413C167.614,257.477 167.636,257.546 167.65,257.616C167.661,257.672 167.665,257.729 167.667,257.786L167.667,259.015C167.666,259.053 167.666,259.063 167.663,259.101C167.656,259.172 167.64,259.242 167.616,259.309C167.572,259.43 167.502,259.541 167.411,259.632C167.32,259.723 167.209,259.793 167.088,259.837C167.021,259.861 166.951,259.877 166.88,259.884C166.842,259.887 166.832,259.887 166.794,259.888L162.787,259.888C162.749,259.887 162.739,259.887 162.701,259.884C162.63,259.877 162.56,259.861 162.493,259.837C162.372,259.793 162.261,259.723 162.17,259.632C162.079,259.541 162.009,259.43 161.965,259.309C161.941,259.242 161.925,259.172 161.918,259.101C161.915,259.063 161.915,259.053 161.914,259.015L161.914,253.55C161.915,253.512 161.915,253.502 161.918,253.464C161.925,253.393 161.941,253.323 161.965,253.256C162.009,253.135 162.079,253.024 162.17,252.933C162.261,252.842 162.372,252.772 162.493,252.728C162.56,252.704 162.63,252.688 162.701,252.681C162.739,252.678 162.749,252.678 162.787,252.677C164.137,252.677 165.487,252.645 166.837,252.678Z" style="fill:white;fill-rule:nonzero;"/>
            </g>
        </g>
        <g transform="matrix(1,0,0,1,-288.417,-639.721)">
            <g transform="matrix(4.0098,0,0,4.0098,65.6227,33.5168)">
                <path d="M169.105,252.678C169.143,252.681 169.153,252.681 169.191,252.687C169.233,252.693 169.275,252.702 169.316,252.715C169.44,252.753 169.555,252.818 169.65,252.905C169.693,252.944 169.73,252.987 169.765,253.033L170.401,253.897L170.401,253.55L170.402,253.507C170.405,253.469 170.405,253.46 170.411,253.422C170.419,253.365 170.433,253.31 170.452,253.256C170.496,253.135 170.566,253.024 170.657,252.933C170.748,252.842 170.859,252.772 170.98,252.728C171.047,252.704 171.117,252.688 171.188,252.681C171.226,252.678 171.236,252.678 171.274,252.677L172.692,252.677C172.73,252.678 172.74,252.678 172.778,252.681C172.849,252.688 172.919,252.704 172.986,252.728C173.107,252.772 173.218,252.842 173.309,252.933C173.4,253.024 173.47,253.135 173.514,253.256C173.538,253.323 173.554,253.393 173.561,253.464C173.564,253.502 173.564,253.512 173.565,253.55L173.565,259.015C173.564,259.053 173.564,259.063 173.561,259.101C173.554,259.172 173.538,259.242 173.514,259.309C173.47,259.43 173.4,259.541 173.309,259.632C173.218,259.723 173.107,259.793 172.986,259.837C172.919,259.861 172.849,259.877 172.778,259.884C172.74,259.887 172.73,259.887 172.692,259.888L171.332,259.888C171.274,259.886 171.217,259.882 171.16,259.871C171.019,259.843 170.886,259.779 170.775,259.687C170.741,259.659 170.71,259.629 170.682,259.597C170.656,259.568 170.651,259.56 170.627,259.53L169.894,258.526L169.894,259.015L169.893,259.058C169.89,259.096 169.89,259.105 169.884,259.143C169.876,259.2 169.862,259.255 169.843,259.309C169.799,259.43 169.729,259.541 169.638,259.632C169.547,259.723 169.436,259.793 169.315,259.837C169.248,259.861 169.178,259.877 169.107,259.884C169.069,259.887 169.059,259.887 169.021,259.888L167.612,259.888C167.574,259.887 167.564,259.887 167.526,259.884C167.455,259.877 167.385,259.861 167.318,259.837C167.197,259.793 167.086,259.723 166.995,259.632C166.904,259.541 166.834,259.43 166.79,259.309C166.766,259.242 166.75,259.172 166.743,259.101C166.74,259.063 166.74,259.053 166.739,259.015L166.739,253.55C166.74,253.512 166.74,253.502 166.743,253.464C166.75,253.393 166.766,253.323 166.79,253.256C166.834,253.135 166.904,253.024 166.995,252.933C167.086,252.842 167.197,252.772 167.318,252.728C167.385,252.704 167.455,252.688 167.526,252.681C167.564,252.678 167.574,252.678 167.612,252.677C168.11,252.677 168.607,252.666 169.105,252.678ZM171.793,257.259C171.746,257.292 171.698,257.322 171.646,257.347C171.524,257.404 171.389,257.433 171.255,257.429L171.775,258.142L171.819,258.142L171.819,257.238C171.81,257.245 171.802,257.252 171.793,257.259ZM168.485,254.423L168.485,255.164L168.503,255.15C168.538,255.125 168.574,255.101 168.612,255.081C168.688,255.041 168.77,255.012 168.854,254.995C168.911,254.984 168.967,254.98 169.025,254.979L169.03,254.979L168.621,254.423C168.575,254.423 168.53,254.423 168.485,254.423Z" style="fill:white;fill-rule:nonzero;"/>
            </g>
        </g>
        <g transform="matrix(1,0,0,1,-288.417,-639.721)">
            <g transform="matrix(4.0098,0,0,4.0098,65.6227,33.5168)">
                <path d="M176.391,252.586C176.491,252.588 176.592,252.592 176.693,252.6C176.918,252.618 177.143,252.656 177.362,252.716C177.597,252.78 177.825,252.869 178.04,252.983C178.258,253.097 178.461,253.237 178.647,253.398C178.858,253.58 179.046,253.79 179.208,254.017C179.287,254.129 179.359,254.244 179.426,254.363C179.45,254.406 179.473,254.449 179.496,254.492C179.522,254.544 179.547,254.596 179.566,254.651C179.616,254.803 179.623,254.969 179.587,255.125C179.57,255.195 179.545,255.264 179.512,255.329C179.471,255.406 179.419,255.477 179.358,255.539C179.307,255.591 179.249,255.636 179.187,255.674C179.154,255.694 179.145,255.698 179.11,255.715L177.903,256.286L179.11,256.857L179.149,256.876C179.183,256.896 179.191,256.9 179.224,256.921C179.296,256.97 179.361,257.03 179.416,257.097C179.471,257.165 179.515,257.241 179.548,257.323C179.634,257.54 179.629,257.788 179.534,258.002C179.509,258.057 179.48,258.111 179.451,258.164C179.395,258.267 179.334,258.367 179.269,258.464C179.01,258.849 178.679,259.186 178.29,259.439C177.946,259.663 177.562,259.818 177.161,259.903C176.864,259.967 176.559,259.991 176.255,259.985C175.83,259.976 175.407,259.906 175.004,259.771C174.73,259.679 174.466,259.556 174.22,259.404C173.925,259.222 173.655,258.998 173.425,258.739C173.223,258.512 173.051,258.259 172.914,257.987C172.788,257.737 172.692,257.472 172.627,257.2C172.578,256.997 172.547,256.79 172.532,256.582C172.525,256.485 172.522,256.388 172.521,256.291L173.394,256.286L172.521,256.281C172.521,256.234 172.521,256.234 172.522,256.187C172.526,256.056 172.535,255.925 172.551,255.795C172.583,255.528 172.643,255.263 172.732,255.009C172.824,254.747 172.946,254.496 173.096,254.263C173.333,253.894 173.64,253.572 173.995,253.316C174.303,253.093 174.645,252.92 175.005,252.8C175.286,252.706 175.578,252.644 175.872,252.612C175.999,252.598 176.127,252.591 176.255,252.587C176.3,252.586 176.345,252.586 176.391,252.586ZM176.342,255.578C176.283,255.579 176.225,255.585 176.168,255.6C176.074,255.624 175.986,255.67 175.914,255.736C175.744,255.894 175.686,256.138 175.704,256.363C175.709,256.425 175.72,256.487 175.738,256.547C175.771,256.654 175.827,256.754 175.909,256.832C176.006,256.924 176.132,256.976 176.264,256.99C176.315,256.996 176.368,256.999 176.419,256.987C176.506,256.967 176.586,256.913 176.646,256.847C176.678,256.812 176.703,256.774 176.721,256.731L176.739,256.691C176.759,256.652 176.78,256.614 176.805,256.577C176.855,256.505 176.916,256.44 176.985,256.386C177.032,256.35 177.081,256.32 177.133,256.292L177.146,256.286L177.133,256.281L177.094,256.26C177.057,256.237 177.02,256.214 176.985,256.187C176.904,256.123 176.835,256.046 176.781,255.958C176.766,255.933 176.752,255.908 176.739,255.881C176.727,255.857 176.718,255.832 176.705,255.808C176.699,255.797 176.692,255.785 176.685,255.774C176.616,255.674 176.504,255.594 176.382,255.58C176.368,255.578 176.355,255.578 176.342,255.578Z" style="fill:white;fill-rule:nonzero;"/>
            </g>
        </g>
        <g transform="matrix(1,0,0,1,-288.417,-639.721)">
            <g transform="matrix(4.0098,0,0,4.0098,65.6227,33.5168)">
                <path d="M183.392,252.678C183.43,252.681 183.439,252.681 183.477,252.687C183.534,252.695 183.589,252.709 183.643,252.728C183.764,252.772 183.875,252.842 183.966,252.933C184.057,253.024 184.127,253.135 184.171,253.256C184.195,253.323 184.211,253.393 184.218,253.464C184.221,253.502 184.221,253.512 184.222,253.55L184.222,254.779C184.22,254.836 184.216,254.893 184.205,254.949C184.188,255.033 184.159,255.115 184.119,255.19C184.102,255.222 184.098,255.228 184.079,255.257L184.08,255.258C184.103,255.31 184.124,255.363 184.138,255.419C184.148,255.46 184.155,255.503 184.16,255.545C184.163,255.583 184.163,255.593 184.164,255.631L184.164,256.861C184.162,256.918 184.158,256.975 184.147,257.031C184.136,257.087 184.119,257.142 184.097,257.195C184.083,257.23 184.078,257.238 184.061,257.272L184.058,257.277L184.075,257.301L184.098,257.337C184.126,257.387 184.151,257.438 184.171,257.492C184.195,257.559 184.211,257.629 184.218,257.7C184.221,257.738 184.221,257.748 184.222,257.786L184.222,259.015C184.221,259.053 184.221,259.063 184.218,259.101C184.211,259.172 184.195,259.242 184.171,259.309C184.127,259.43 184.057,259.541 183.966,259.632C183.875,259.723 183.764,259.793 183.643,259.837C183.576,259.861 183.506,259.877 183.435,259.884C183.397,259.887 183.387,259.887 183.349,259.888L179.342,259.888C179.304,259.887 179.294,259.887 179.256,259.884C179.185,259.877 179.115,259.861 179.048,259.837C178.927,259.793 178.816,259.723 178.725,259.632C178.634,259.541 178.564,259.43 178.52,259.309C178.496,259.242 178.48,259.172 178.473,259.101C178.47,259.063 178.47,259.053 178.469,259.015L178.469,253.55C178.47,253.512 178.47,253.502 178.473,253.464C178.48,253.393 178.496,253.323 178.52,253.256C178.564,253.135 178.634,253.024 178.725,252.933C178.816,252.842 178.927,252.772 179.048,252.728C179.115,252.704 179.185,252.688 179.256,252.681C179.294,252.678 179.304,252.678 179.342,252.677C180.692,252.677 182.042,252.645 183.392,252.678Z" style="fill:white;fill-rule:nonzero;"/>
            </g>
        </g>
        <g transform="matrix(1,0,0,1,-288.417,-639.721)">
            <g transform="matrix(4.0098,0,0,4.0098,23.0079,32.3882)">
                <path d="M146.396,152.66C146.501,152.662 146.607,152.667 146.712,152.677C146.935,152.698 147.156,152.738 147.372,152.797C147.859,152.932 148.321,153.163 148.718,153.476C149.016,153.711 149.279,153.99 149.495,154.302C149.679,154.567 149.828,154.854 149.94,155.156C150.046,155.442 150.117,155.741 150.152,156.045C150.168,156.189 150.176,156.333 150.177,156.478L150.177,159.503C158.692,160.729 167.215,161.902 175.722,163.181C175.769,163.189 175.768,163.189 175.815,163.197C175.939,163.22 176.061,163.248 176.182,163.282C176.447,163.358 176.704,163.463 176.947,163.594C177.407,163.843 177.815,164.188 178.138,164.6C178.47,165.024 178.711,165.517 178.84,166.04C178.91,166.324 178.947,166.616 178.95,166.908C178.952,167.034 178.946,167.159 178.936,167.285C177.742,180.113 176.397,192.926 175.127,205.747C175.117,205.846 175.104,205.945 175.086,206.043C175.055,206.219 175.011,206.393 174.955,206.563C174.751,207.18 174.389,207.742 173.911,208.181C173.75,208.329 173.576,208.463 173.393,208.581C173.308,208.635 173.221,208.685 173.133,208.733C164.823,213.108 156.449,217.358 148.107,221.67C148.04,221.705 147.971,221.738 147.902,221.768C147.762,221.83 147.618,221.884 147.472,221.928C147.219,222.005 146.958,222.056 146.695,222.08C146.584,222.09 146.473,222.094 146.363,222.095L146.356,221.222L146.349,222.095C146.296,222.094 146.296,222.094 146.243,222.093C146.149,222.09 146.055,222.084 145.961,222.074C145.773,222.055 145.587,222.021 145.404,221.974C145.238,221.932 145.075,221.878 144.916,221.813C144.827,221.777 144.74,221.737 144.654,221.695C136.275,217.456 127.97,213.072 119.628,208.76C119.558,208.723 119.488,208.685 119.42,208.644C119.25,208.542 119.087,208.426 118.934,208.298C118.436,207.881 118.049,207.338 117.817,206.731C117.739,206.527 117.678,206.317 117.636,206.102C117.617,206.004 117.602,205.904 117.59,205.805C116.089,191.849 114.745,177.877 113.44,163.902C113.429,163.77 113.424,163.638 113.426,163.506C113.43,163.233 113.464,162.96 113.527,162.695C113.636,162.23 113.834,161.787 114.105,161.394C114.401,160.967 114.784,160.602 115.225,160.327C115.457,160.182 115.705,160.062 115.962,159.971C116.073,159.931 116.185,159.898 116.299,159.868C126.003,157.442 135.736,155.134 145.455,152.767C145.603,152.732 145.753,152.704 145.904,152.687C146.035,152.671 146.167,152.663 146.3,152.661C146.348,152.66 146.348,152.66 146.396,152.66ZM146.325,154.406C146.253,154.408 146.18,154.412 146.109,154.42C146.036,154.429 145.965,154.442 145.894,154.457C136.153,156.74 126.438,159.133 116.732,161.559C116.526,161.613 116.329,161.695 116.149,161.808C115.909,161.957 115.701,162.156 115.54,162.388C115.393,162.601 115.285,162.842 115.226,163.094C115.176,163.309 115.161,163.53 115.179,163.75C116.482,177.709 117.825,191.665 119.324,205.604C119.345,205.777 119.385,205.945 119.447,206.108C119.573,206.437 119.784,206.733 120.055,206.959C120.163,207.05 120.28,207.128 120.404,207.195C128.711,211.573 137.051,215.892 145.43,220.131C145.561,220.195 145.697,220.247 145.839,220.284C146.157,220.365 146.493,220.37 146.813,220.298C146.976,220.261 147.132,220.204 147.282,220.131C155.661,215.893 163.998,211.569 172.308,207.195C172.432,207.127 172.549,207.049 172.657,206.959C172.928,206.733 173.138,206.437 173.264,206.108C173.326,205.946 173.366,205.777 173.387,205.605C174.752,192.791 176.002,179.965 177.197,167.134C177.202,167.065 177.205,166.996 177.205,166.928C177.203,166.77 177.183,166.612 177.145,166.459C177.075,166.175 176.944,165.907 176.763,165.676C176.583,165.446 176.354,165.254 176.095,165.118C175.955,165.045 175.806,164.987 175.653,164.948C175.577,164.928 175.5,164.913 175.423,164.902L149.18,161.123C149.082,161.09 148.976,161.075 148.886,161.025C148.701,160.924 148.56,160.761 148.486,160.564C148.45,160.467 148.449,160.361 148.431,160.259C148.431,158.99 148.44,157.72 148.431,156.451C148.429,156.372 148.424,156.293 148.414,156.215C148.394,156.06 148.356,155.907 148.302,155.761C148.242,155.597 148.16,155.441 148.061,155.297C147.943,155.127 147.8,154.976 147.638,154.848C147.434,154.687 147.199,154.566 146.95,154.492C146.785,154.443 146.614,154.416 146.442,154.408C146.403,154.406 146.364,154.406 146.325,154.406Z" style="fill:white;fill-rule:nonzero;"/>
            </g>
        </g>
        <g transform="matrix(1,0,0,1,-288.417,-639.721)">
            <g transform="matrix(4.0098,0,0,4.0098,23.0079,32.3882)">
                <path d="M146.356,221.222C145.891,221.222 145.427,221.112 145.002,220.893L120.032,207.986C119.146,207.528 118.551,206.652 118.452,205.658L114.313,163.86C114.168,162.398 115.122,161.053 116.549,160.705L145.658,153.616C145.889,153.56 146.123,153.533 146.356,153.533C147.01,153.533 147.653,153.75 148.178,154.162C148.889,154.722 149.304,155.576 149.304,156.481L149.304,160.259L175.55,164.038C177.111,164.263 178.219,165.677 178.063,167.246L174.259,205.658C174.161,206.652 173.566,207.528 172.679,207.986L147.71,220.893C147.285,221.112 146.821,221.222 146.356,221.222" style="fill:rgb(0,43,84);fill-rule:nonzero;"/>
            </g>
        </g>
        <g transform="matrix(1,0,0,1,-288.417,-639.721)">
            <g transform="matrix(4.0098,0,0,4.0098,23.0079,32.3882)">
                <path d="M82.057,247.229L74.083,236.315L74.083,247.229L69.22,247.229L69.22,228.371L74.225,228.371L81.859,238.747L81.859,228.371L86.75,228.371L86.75,247.229L82.057,247.229Z" style="fill:rgb(231,54,75);fill-rule:nonzero;"/>
            </g>
        </g>
        <g transform="matrix(1,0,0,1,-288.417,-639.721)">
            <g transform="matrix(4.0098,0,0,4.0098,23.0079,32.3882)">
                <path d="M89.18,237.815C89.18,231.821 93.76,228.06 99.387,228.06C103.6,228.06 106.144,230.294 107.445,232.64L103.373,234.761C102.667,233.517 101.225,232.358 99.387,232.358C96.305,232.358 94.128,234.733 94.128,237.815C94.128,240.897 96.305,243.272 99.387,243.272C100.772,243.272 102.186,242.707 102.865,242.141L102.865,240.67L98.623,240.67L98.623,236.401L107.728,236.401L107.728,243.894C105.692,246.128 102.95,247.57 99.387,247.57C93.76,247.57 89.18,243.809 89.18,237.815" style="fill:rgb(231,54,75);fill-rule:nonzero;"/>
            </g>
        </g>
        <g transform="matrix(1,0,0,1,-288.417,-639.721)">
            <g transform="matrix(4.0098,0,0,4.0098,23.0079,32.3882)">
                <path d="M121.637,234.647C121.637,233.346 120.676,232.611 119.375,232.611L115.445,232.611L115.445,236.655L119.375,236.655C120.676,236.655 121.637,235.919 121.637,234.647M110.581,247.229L110.581,228.371L120.025,228.371C124.266,228.371 126.585,231.226 126.585,234.647C126.585,238.04 124.266,240.896 120.025,240.896L115.445,240.896L115.445,247.229L110.581,247.229Z" style="fill:rgb(0,43,84);fill-rule:nonzero;"/>
            </g>
        </g>
        <g transform="matrix(1,0,0,1,-288.417,-639.721)">
            <g transform="matrix(4.0098,0,0,4.0098,23.0079,32.3882)">
                <path d="M143.01,237.815C143.01,234.733 141.003,232.358 137.892,232.358C134.754,232.358 132.746,234.733 132.746,237.815C132.746,240.869 134.754,243.272 137.892,243.272C141.003,243.272 143.01,240.869 143.01,237.815M127.799,237.815C127.799,232.075 132.124,228.06 137.892,228.06C143.66,228.06 147.958,232.075 147.958,237.815C147.958,243.554 143.66,247.57 137.892,247.57C132.124,247.57 127.799,243.554 127.799,237.815" style="fill:rgb(0,43,84);fill-rule:nonzero;"/>
            </g>
        </g>
        <g transform="matrix(1,0,0,1,-288.417,-639.721)">
            <g transform="matrix(4.0098,0,0,4.0098,23.0079,32.3882)">
                <path d="M150.415,247.229L150.415,228.371L155.278,228.371L155.278,242.988L162.856,242.988L162.856,247.229L150.415,247.229Z" style="fill:rgb(0,43,84);fill-rule:nonzero;"/>
            </g>
        </g>
        <g transform="matrix(1,0,0,1,-288.417,-639.721)">
            <g transform="matrix(4.0098,0,0,4.0098,23.0079,32.3882)">
                <path d="M173.513,233.178L171.11,240.275L175.916,240.275L173.513,233.178ZM178.179,247.23L177.245,244.516L169.809,244.516L168.876,247.23L163.363,247.23L170.46,228.371L176.567,228.371L183.692,247.23L178.179,247.23Z" style="fill:rgb(0,43,84);fill-rule:nonzero;"/>
            </g>
        </g>
        <g transform="matrix(1,0,0,1,-288.417,-639.721)">
            <g transform="matrix(4.0098,0,0,4.0098,23.0079,32.3882)">
                <path d="M197.913,247.229L189.939,236.315L189.939,247.229L185.076,247.229L185.076,228.371L190.081,228.371L197.715,238.747L197.715,228.371L202.606,228.371L202.606,247.229L197.913,247.229Z" style="fill:rgb(0,43,84);fill-rule:nonzero;"/>
            </g>
        </g>
        <g transform="matrix(1,0,0,1,-288.417,-639.721)">
            <g transform="matrix(4.0098,0,0,4.0098,23.0079,32.3882)">
                <path d="M219.144,237.786C219.144,234.874 217.391,232.611 213.941,232.611L210.859,232.611L210.859,242.988L213.913,242.988C217.221,242.988 219.144,240.585 219.144,237.786M205.996,247.229L205.996,228.371L213.913,228.371C219.851,228.371 224.12,231.933 224.12,237.786C224.12,243.639 219.851,247.229 213.941,247.229L205.996,247.229Z" style="fill:rgb(0,43,84);fill-rule:nonzero;"/>
            </g>
        </g>
        <g transform="matrix(1,0,0,1,-288.417,-639.721)">
            <g transform="matrix(4.0098,0,0,4.0098,23.0079,32.3882)">
                <path d="M146.356,218.274L121.386,205.367L117.247,163.57L146.356,156.481L146.356,218.274Z" style="fill:rgb(231,54,75);fill-rule:nonzero;"/>
            </g>
        </g>
        <g transform="matrix(1,0,0,1,-288.417,-639.721)">
            <g transform="matrix(4.0098,0,0,4.0098,23.0079,32.3882)">
                <path d="M146.356,218.274L171.326,205.367L175.13,166.956L146.356,162.812L146.356,218.274Z" style="fill:rgb(183,7,54);fill-rule:nonzero;"/>
            </g>
        </g>
        <g transform="matrix(1,0,0,1,-288.417,-639.721)">
            <g transform="matrix(4.0098,0,0,4.0098,23.0079,32.3882)">
                <path d="M146.356,191.904L141.69,191.904L146.356,181L151.022,191.904L146.356,191.904ZM162.6,204.922L146.356,169.652L130.112,204.922L136.12,204.922L139.405,197.245L153.307,197.245L156.592,204.922L162.6,204.922Z" style="fill:white;fill-rule:nonzero;"/>
            </g>
        </g>
        <g transform="matrix(1,0,0,1,-288.417,-639.721)">
            <g transform="matrix(4.0098,0,0,4.0098,23.0079,32.3882)">
                <path d="M146.356,169.652L146.356,181.001L151.022,191.904L146.356,191.904L146.356,197.245L153.307,197.245L156.592,204.922L162.6,204.922L146.356,169.652Z" style="fill:rgb(248,191,174);fill-rule:nonzero;"/>
            </g>
        </g>
        <g transform="matrix(1,0,0,1,-288.417,-639.721)">
            <g transform="matrix(4.0098,0,0,4.0098,23.0079,32.3882)">
                <path d="M146.356,156.481L117.247,163.57L121.386,205.367L120.833,166.429L146.356,156.481Z" style="fill:rgb(183,7,54);fill-rule:nonzero;"/>
            </g>
        </g>
        <g transform="matrix(1,0,0,1,-288.417,-639.721)">
            <g transform="matrix(4.0098,0,0,4.0098,66.2276,33.537)">
                <path d="M90.748,254.942L90.051,256.999L91.444,256.999L90.748,254.942ZM92.1,259.014L91.83,258.228L89.675,258.228L89.404,259.014L87.806,259.014L89.863,253.549L91.633,253.549L93.698,259.014L92.1,259.014Z" style="fill:rgb(0,43,84);fill-rule:nonzero;"/>
            </g>
        </g>
        <g transform="matrix(1,0,0,1,-288.417,-639.721)">
            <g transform="matrix(4.0098,0,0,4.0098,66.2276,33.537)">
                <path d="M97.818,259.015L95.507,255.852L95.507,259.015L94.098,259.015L94.098,253.55L95.548,253.55L97.76,256.557L97.76,253.55L99.178,253.55L99.178,259.015L97.818,259.015Z" style="fill:rgb(0,43,84);fill-rule:nonzero;"/>
            </g>
        </g>
        <g transform="matrix(1,0,0,1,-288.417,-639.721)">
            <g transform="matrix(4.0098,0,0,4.0098,66.2276,33.537)">
                <path d="M99.88,256.286C99.88,254.549 101.208,253.459 102.838,253.459C104.059,253.459 104.797,254.106 105.173,254.787L103.993,255.401C103.789,255.041 103.371,254.705 102.838,254.705C101.945,254.705 101.314,255.393 101.314,256.286C101.314,257.18 101.945,257.868 102.838,257.868C103.24,257.868 103.65,257.704 103.846,257.54L103.846,257.114L102.617,257.114L102.617,255.877L105.255,255.877L105.255,258.048C104.666,258.695 103.871,259.113 102.838,259.113C101.208,259.113 99.88,258.023 99.88,256.286" style="fill:rgb(0,43,84);fill-rule:nonzero;"/>
            </g>
        </g>
        <g transform="matrix(1,0,0,1,-288.417,-639.721)">
            <g transform="matrix(4.0098,0,0,4.0098,66.2276,33.537)">
                <path d="M106.081,256.803L106.081,253.55L107.515,253.55L107.515,256.753C107.515,257.401 107.9,257.868 108.67,257.868C109.424,257.868 109.817,257.401 109.817,256.753L109.817,253.55L111.243,253.55L111.243,256.794C111.243,258.155 110.415,259.114 108.67,259.114C106.909,259.114 106.081,258.147 106.081,256.803" style="fill:rgb(0,43,84);fill-rule:nonzero;"/>
            </g>
        </g>
        <g transform="matrix(1,0,0,1,-288.417,-639.721)">
            <g transform="matrix(4.0098,0,0,4.0098,66.2276,33.537)">
                <path d="M112.224,259.015L112.224,253.55L113.633,253.55L113.633,257.786L115.829,257.786L115.829,259.015L112.224,259.015Z" style="fill:rgb(0,43,84);fill-rule:nonzero;"/>
            </g>
        </g>
        <g transform="matrix(1,0,0,1,-288.417,-639.721)">
            <g transform="matrix(4.0098,0,0,4.0098,66.2276,33.537)">
                <path d="M118.917,254.942L118.22,256.999L119.613,256.999L118.917,254.942ZM120.269,259.014L119.999,258.228L117.844,258.228L117.573,259.014L115.975,259.014L118.032,253.549L119.802,253.549L121.867,259.014L120.269,259.014Z" style="fill:rgb(0,43,84);fill-rule:nonzero;"/>
            </g>
        </g>
        <g transform="matrix(1,0,0,1,-288.417,-639.721)">
            <g transform="matrix(4.0098,0,0,4.0098,66.2276,33.537)">
                <path d="M125.47,255.36C125.47,254.991 125.159,254.778 124.79,254.778L123.676,254.778L123.676,255.95L124.79,255.95C125.159,255.95 125.47,255.745 125.47,255.36M125.315,259.014L124.397,257.179L123.676,257.179L123.676,259.014L122.266,259.014L122.266,253.549L125.003,253.549C126.216,253.549 126.904,254.352 126.904,255.368C126.904,256.319 126.323,256.827 125.814,257.007L126.928,259.014L125.315,259.014Z" style="fill:rgb(0,43,84);fill-rule:nonzero;"/>
            </g>
        </g>
        <g transform="matrix(1,0,0,1,-288.417,-639.721)">
            <g transform="matrix(4.0098,0,0,4.0098,66.2276,33.537)">
                <path d="M129.499,256.286C129.499,254.599 130.777,253.459 132.457,253.459C133.776,253.459 134.481,254.205 134.842,254.926L133.629,255.5C133.449,255.065 132.981,254.705 132.457,254.705C131.564,254.705 130.933,255.393 130.933,256.286C130.933,257.18 131.564,257.868 132.457,257.868C132.981,257.868 133.449,257.507 133.629,257.073L134.842,257.646C134.489,258.351 133.776,259.113 132.457,259.113C130.777,259.113 129.499,257.966 129.499,256.286" style="fill:rgb(0,43,84);fill-rule:nonzero;"/>
            </g>
        </g>
        <g transform="matrix(1,0,0,1,-288.417,-639.721)">
            <g transform="matrix(4.0098,0,0,4.0098,66.2276,33.537)">
                <path d="M139.576,256.286C139.576,255.393 138.994,254.705 138.093,254.705C137.183,254.705 136.601,255.393 136.601,256.286C136.601,257.171 137.183,257.868 138.093,257.868C138.994,257.868 139.576,257.171 139.576,256.286M135.167,256.286C135.167,254.623 136.421,253.459 138.093,253.459C139.764,253.459 141.01,254.623 141.01,256.286C141.01,257.949 139.764,259.113 138.093,259.113C136.421,259.113 135.167,257.949 135.167,256.286" style="fill:rgb(0,43,84);fill-rule:nonzero;"/>
            </g>
        </g>
        <g transform="matrix(1,0,0,1,-288.417,-639.721)">
            <g transform="matrix(4.0098,0,0,4.0098,66.2276,33.537)">
                <path d="M145.44,259.015L143.129,255.852L143.129,259.015L141.72,259.015L141.72,253.55L143.17,253.55L145.382,256.557L145.382,253.55L146.8,253.55L146.8,259.015L145.44,259.015Z" style="fill:rgb(0,43,84);fill-rule:nonzero;"/>
            </g>
        </g>
        <g transform="matrix(1,0,0,1,-288.417,-639.721)">
            <g transform="matrix(4.0098,0,0,4.0098,66.2276,33.537)">
                <path d="M147.782,259.015L147.782,253.55L151.789,253.55L151.789,254.779L149.191,254.779L149.191,255.631L151.731,255.631L151.731,256.861L149.191,256.861L149.191,259.015L147.782,259.015Z" style="fill:rgb(0,43,84);fill-rule:nonzero;"/>
            </g>
        </g>
        <g transform="matrix(1,0,0,1,-288.417,-639.721)">
            <g transform="matrix(4.0098,0,0,4.0098,66.2276,33.537)">
                <path d="M152.549,259.015L152.549,253.55L156.556,253.55L156.556,254.779L153.958,254.779L153.958,255.631L156.498,255.631L156.498,256.861L153.958,256.861L153.958,257.786L156.556,257.786L156.556,259.015L152.549,259.015Z" style="fill:rgb(0,43,84);fill-rule:nonzero;"/>
            </g>
        </g>
        <g transform="matrix(1,0,0,1,-288.417,-639.721)">
            <g transform="matrix(4.0098,0,0,4.0098,66.2276,33.537)">
                <path d="M160.577,255.36C160.577,254.991 160.266,254.778 159.897,254.778L158.783,254.778L158.783,255.95L159.897,255.95C160.266,255.95 160.577,255.745 160.577,255.36M160.421,259.014L159.504,257.179L158.783,257.179L158.783,259.014L157.373,259.014L157.373,253.549L160.11,253.549C161.323,253.549 162.011,254.352 162.011,255.368C162.011,256.319 161.43,256.827 160.921,257.007L162.035,259.014L160.421,259.014Z" style="fill:rgb(0,43,84);fill-rule:nonzero;"/>
            </g>
        </g>
        <g transform="matrix(1,0,0,1,-288.417,-639.721)">
            <g transform="matrix(4.0098,0,0,4.0098,66.2276,33.537)">
                <path d="M162.787,259.015L162.787,253.55L166.794,253.55L166.794,254.779L164.196,254.779L164.196,255.631L166.736,255.631L166.736,256.861L164.196,256.861L164.196,257.786L166.794,257.786L166.794,259.015L162.787,259.015Z" style="fill:rgb(0,43,84);fill-rule:nonzero;"/>
            </g>
        </g>
        <g transform="matrix(1,0,0,1,-288.417,-639.721)">
            <g transform="matrix(4.0098,0,0,4.0098,66.2276,33.537)">
                <path d="M171.332,259.015L169.021,255.852L169.021,259.015L167.612,259.015L167.612,253.55L169.062,253.55L171.274,256.557L171.274,253.55L172.692,253.55L172.692,259.015L171.332,259.015Z" style="fill:rgb(0,43,84);fill-rule:nonzero;"/>
            </g>
        </g>
        <g transform="matrix(1,0,0,1,-288.417,-639.721)">
            <g transform="matrix(4.0098,0,0,4.0098,66.2276,33.537)">
                <path d="M173.394,256.286C173.394,254.599 174.672,253.459 176.352,253.459C177.671,253.459 178.376,254.205 178.737,254.926L177.524,255.5C177.344,255.065 176.876,254.705 176.352,254.705C175.459,254.705 174.828,255.393 174.828,256.286C174.828,257.18 175.459,257.868 176.352,257.868C176.876,257.868 177.344,257.507 177.524,257.073L178.737,257.646C178.384,258.351 177.671,259.113 176.352,259.113C174.672,259.113 173.394,257.966 173.394,256.286" style="fill:rgb(0,43,84);fill-rule:nonzero;"/>
            </g>
        </g>
        <g transform="matrix(1,0,0,1,-288.417,-639.721)">
            <g transform="matrix(4.0098,0,0,4.0098,66.2276,33.537)">
                <path d="M179.342,259.015L179.342,253.55L183.349,253.55L183.349,254.779L180.751,254.779L180.751,255.631L183.291,255.631L183.291,256.861L180.751,256.861L180.751,257.786L183.349,257.786L183.349,259.015L179.342,259.015Z" style="fill:rgb(0,43,84);fill-rule:nonzero;"/>
            </g>
        </g>
    </g>
</svg>
