<?xml version="1.0" encoding="UTF-8" standalone="no"?>
<!DOCTYPE svg PUBLIC "-//W3C//DTD SVG 1.1//EN" "http://www.w3.org/Graphics/SVG/1.1/DTD/svg11.dtd">
<svg width="100%" height="100%" viewBox="0 0 130 130" version="1.1" xmlns="http://www.w3.org/2000/svg" xmlns:xlink="http://www.w3.org/1999/xlink" xml:space="preserve" xmlns:serif="http://www.serif.com/" style="fill-rule:evenodd;clip-rule:evenodd;stroke-linejoin:round;stroke-miterlimit:1.41421;">
    <g transform="matrix(1,0,0,1,-381.779,0)">
        <path d="M501.764,0L391.343,0C386.066,0 381.779,4.182 381.779,9.339L381.779,120.225C381.779,125.386 386.066,129.575 391.343,129.575L501.764,129.575C507.049,129.575 511.356,125.386 511.356,120.225L511.356,9.339C511.356,4.182 507.049,0 501.764,0" style="fill:rgb(0,96,135);fill-rule:nonzero;"/>
    </g>
    <g transform="matrix(1,0,0,1,-381.779,0)">
        <path d="M410.603,17.839C416.749,17.839 421.741,22.832 421.741,28.979C421.741,35.13 416.749,40.125 410.603,40.125C404.445,40.125 399.459,35.13 399.459,28.979C399.459,22.832 404.445,17.839 410.603,17.839ZM400.99,48.578L420.209,48.578L420.209,110.415L400.99,110.415L400.99,48.578Z" style="fill:white;fill-rule:nonzero;"/>
    </g>
    <g transform="matrix(1,0,0,1,-381.779,0)">
        <path d="M432.263,48.578L450.699,48.578L450.699,57.026L450.955,57.026C453.52,52.166 459.789,47.039 469.139,47.039C488.6,47.039 492.193,59.846 492.193,76.496L492.193,110.415L472.988,110.415L472.988,80.344C472.988,73.169 472.856,63.946 463.001,63.946C452.999,63.946 451.468,71.758 451.468,79.824L451.468,110.415L432.263,110.415L432.263,48.578" style="fill:white;fill-rule:nonzero;"/>
    </g>
</svg>
