<?xml version="1.0" encoding="UTF-8" standalone="no"?>
<!DOCTYPE svg PUBLIC "-//W3C//DTD SVG 1.1//EN" "http://www.w3.org/Graphics/SVG/1.1/DTD/svg11.dtd">
<svg width="100%" height="100%" viewBox="0 0 800 800" version="1.1" xmlns="http://www.w3.org/2000/svg" xmlns:xlink="http://www.w3.org/1999/xlink" xml:space="preserve" style="fill-rule:evenodd;clip-rule:evenodd;stroke-linejoin:round;stroke-miterlimit:1.41421;">
    <g transform="matrix(1,0,0,1,0,100)">
        <g transform="matrix(2.74726,0,0,2.74726,-703.284,-523.486)">
            <g>
                <g>
                    <g>
                        <g>
                            <path d="M379.128,238.913C383.715,249.978 398.834,260.834 412.894,263.163C426.971,265.494 434.881,258.059 430.57,246.553C426.259,235.048 411.136,224.19 396.784,222.3C382.449,220.41 374.542,227.849 379.128,238.913Z" style="fill:rgb(204,51,51);fill-rule:nonzero;"/>
                            <path d="M397.812,224.906C410.295,226.576 423.517,236.068 427.288,246.065C431.058,256.061 424.141,262.561 411.867,260.555C399.603,258.551 386.387,249.061 382.408,239.4C378.429,229.738 385.34,223.236 397.812,224.906M396.785,222.298C382.449,220.41 374.542,227.848 379.129,238.912C383.716,249.977 398.835,260.833 412.895,263.162C426.972,265.493 434.882,258.058 430.571,246.552C426.26,235.047 411.137,224.189 396.785,222.298Z" style="fill:rgb(204,51,51);fill-rule:nonzero;"/>
                        </g>
                        <path d="M394.305,216.009C414.13,218.519 435.029,233.549 440.896,249.515C446.763,265.479 435.836,275.745 416.535,272.398C397.242,269.051 376.348,254.021 369.957,238.894C363.567,223.766 374.489,213.5 394.305,216.009M389.166,202.972C359.966,199.581 344.017,214.563 353.555,236.438C363.094,258.314 393.597,280.25 421.676,285.435C449.769,290.622 465.718,275.641 457.301,251.971C448.883,228.301 418.379,206.364 389.166,202.972Z" style="fill:rgb(204,51,51);fill-rule:nonzero;"/>
                        <path d="M377.81,174.167C426.169,178.685 476.224,214.575 489.39,254.171C502.556,293.766 476.363,318.402 431,309.088C385.652,299.777 335.604,263.888 319.441,229.089C303.278,194.289 329.464,169.65 377.81,174.167M372.67,161.13C314.541,156.286 283.354,185.625 303.019,226.666C322.685,267.708 382.286,310.444 436.141,322.127C490.014,333.814 521.203,304.477 505.814,256.595C490.423,208.714 430.818,165.976 372.67,161.13Z" style="fill:rgb(204,51,51);fill-rule:nonzero;"/>
                    </g>
                    <g>
                        <g>
                            <path d="M361.201,270.624C358.028,265.547 351.337,264 346.26,267.177L318.497,284.53C313.417,287.703 311.874,294.393 315.048,299.471C315.569,300.304 316.185,301.04 316.871,301.677C303.101,326.544 290.897,366.82 296.795,428.714C297.34,434.427 302.224,438.681 307.879,438.525C308.124,438.517 308.369,438.504 308.617,438.48C314.58,437.912 318.952,432.619 318.383,426.658C308.145,319.191 355.802,286.839 357.753,285.568C362.832,282.392 364.376,275.702 361.201,270.624Z" style="fill:white;fill-rule:nonzero;"/>
                            <path d="M395.29,420.791C361.82,346.965 387.206,312.41 388.349,310.916L388.365,310.898C392.135,306.246 391.422,299.418 386.773,295.646C385.711,294.786 384.525,294.186 383.3,293.787C383.183,293.75 383.075,293.684 382.958,293.65C382.546,293.531 382.122,293.485 381.7,293.416C381.432,293.373 381.169,293.291 380.897,293.267C380.608,293.243 380.319,293.277 380.032,293.274C379.628,293.272 379.22,293.242 378.815,293.285C378.653,293.302 378.497,293.358 378.331,293.383C377.808,293.461 377.284,293.543 376.776,293.697C376.762,293.702 376.747,293.711 376.733,293.716C375.417,294.121 374.169,294.776 373.069,295.68C372.51,296.137 371.989,296.657 371.518,297.24L355.65,316.803C351.879,321.455 352.591,328.283 357.242,332.057C357.48,332.25 357.744,332.391 357.994,332.561C354.465,354.549 356.09,386.85 375.54,429.749C377.399,433.847 381.487,436.231 385.72,436.114C387.12,436.075 388.536,435.762 389.89,435.147C395.345,432.672 397.763,426.246 395.29,420.791Z" style="fill:white;fill-rule:nonzero;"/>
                            <path d="M406.771,255.678C406.968,255.392 407.162,255.107 407.326,254.803C407.496,254.5 407.631,254.186 407.767,253.867C407.906,253.544 408.042,253.224 408.148,252.892C408.253,252.562 408.328,252.228 408.402,251.889C408.476,251.552 408.545,251.219 408.586,250.874C408.631,250.526 408.641,250.178 408.648,249.824C408.654,249.483 408.66,249.14 408.634,248.796C408.609,248.448 408.556,248.106 408.491,247.759C408.43,247.405 408.366,247.057 408.272,246.71C408.18,246.381 408.059,246.059 407.934,245.735C407.801,245.383 407.659,245.037 407.487,244.696C407.421,244.569 407.387,244.434 407.321,244.309C407.206,244.106 407.053,243.942 406.928,243.75C406.805,243.56 406.721,243.358 406.588,243.175C406.504,243.062 406.399,242.979 406.317,242.869C406.071,242.562 405.809,242.286 405.54,242.011C405.3,241.769 405.063,241.53 404.81,241.315C404.531,241.079 404.234,240.873 403.933,240.668C403.65,240.473 403.365,240.281 403.062,240.116C402.753,239.946 402.437,239.807 402.117,239.669C401.797,239.534 401.482,239.399 401.152,239.294C400.816,239.186 400.478,239.11 400.136,239.036C399.802,238.965 399.474,238.894 399.138,238.853C398.784,238.809 398.429,238.801 398.068,238.792C397.736,238.784 397.398,238.78 397.058,238.803C396.706,238.828 396.361,238.887 396.009,238.948C395.661,239.008 395.318,239.072 394.968,239.167C394.638,239.259 394.314,239.38 393.989,239.505C393.637,239.64 393.292,239.781 392.952,239.955C392.825,240.018 392.69,240.052 392.565,240.121L358.25,259.26C353.021,262.177 351.146,268.781 354.062,274.011C354.962,275.622 356.225,276.893 357.672,277.827C355.128,281.592 352.605,285.632 350.159,289.961C333.652,319.239 317.948,367.446 336.88,430.86C338.334,435.727 342.897,438.811 347.753,438.592C348.62,438.553 349.501,438.406 350.372,438.147C356.109,436.434 359.373,430.395 357.659,424.655C325.824,318.02 401.066,260.703 404.262,258.333C404.377,258.249 404.461,258.144 404.567,258.056C404.876,257.815 405.151,257.554 405.426,257.284C405.668,257.045 405.908,256.808 406.125,256.553C406.36,256.273 406.567,255.98 406.771,255.678Z" style="fill:white;fill-rule:nonzero;"/>
                        </g>
                        <g>
                            <path d="M324.866,429.635C309.206,321.1 354.783,281.356 355.216,281.041C355.32,280.967 355.403,280.872 355.499,280.792C355.644,280.673 355.787,280.557 355.915,280.427C356.043,280.298 356.153,280.159 356.264,280.021C356.374,279.884 356.485,279.75 356.58,279.605C356.681,279.453 356.763,279.294 356.848,279.134C356.924,278.984 357.003,278.838 357.066,278.683C357.136,278.514 357.186,278.344 357.239,278.169C357.285,278.011 357.334,277.852 357.367,277.688C357.4,277.513 357.419,277.338 357.435,277.162C357.455,276.993 357.47,276.824 357.47,276.653C357.471,276.478 357.455,276.305 357.438,276.131C357.422,275.956 357.408,275.785 357.373,275.611C357.341,275.438 357.29,275.271 357.241,275.101C357.189,274.929 357.14,274.759 357.071,274.591C357.004,274.425 356.919,274.27 356.835,274.11C356.773,273.995 356.732,273.873 356.662,273.759C356.63,273.707 356.587,273.667 356.552,273.617C356.521,273.571 356.505,273.52 356.472,273.476C356.4,273.375 356.31,273.297 356.232,273.204C356.108,273.054 355.99,272.906 355.855,272.772C355.729,272.649 355.594,272.542 355.459,272.432C355.319,272.319 355.181,272.206 355.034,272.109C354.883,272.012 354.728,271.93 354.569,271.848C354.418,271.768 354.268,271.689 354.109,271.623C353.944,271.557 353.778,271.507 353.606,271.457C353.445,271.408 353.282,271.358 353.116,271.326C352.943,271.291 352.771,271.274 352.597,271.258C352.425,271.24 352.254,271.223 352.081,271.223C351.907,271.221 351.735,271.239 351.56,271.254C351.386,271.27 351.212,271.285 351.04,271.318C350.865,271.351 350.695,271.404 350.522,271.456C350.405,271.489 350.286,271.505 350.172,271.547C350.122,271.567 350.074,271.6 350.026,271.62C349.852,271.689 349.688,271.78 349.52,271.869C349.413,271.928 349.296,271.966 349.189,272.033L321.423,289.385C318.884,290.971 318.111,294.316 319.697,296.855C320.755,298.546 322.591,299.454 324.45,299.403C324.492,299.402 324.536,299.384 324.578,299.382C310.199,322.709 295.293,367.439 301.522,432.814" style="fill:rgb(102,153,204);fill-rule:nonzero;"/>
                            <path d="M404.083,428.035C368.761,350.119 384.427,307.488 384.628,307.146C384.659,307.095 384.677,307.041 384.704,306.988C385.058,306.363 385.274,305.693 385.36,305.008C385.362,304.99 385.368,304.975 385.37,304.959L385.37,304.957C385.577,303.174 384.907,301.33 383.411,300.117C383.317,300.04 383.206,299.988 383.106,299.919C383.008,299.847 382.924,299.764 382.817,299.698C382.766,299.666 382.706,299.649 382.655,299.62C382.395,299.475 382.13,299.361 381.86,299.263C381.794,299.236 381.727,299.204 381.661,299.182C381.659,299.182 381.659,299.181 381.657,299.181C381.37,299.09 381.081,299.03 380.788,298.986C380.735,298.977 380.681,298.963 380.628,298.958L380.626,298.958C380.458,298.937 380.288,298.935 380.118,298.931C380.116,298.931 380.114,298.931 380.112,298.931C379.995,298.93 379.88,298.933 379.762,298.935C378.266,299 376.801,299.659 375.785,300.915L359.917,320.478C358.03,322.804 358.388,326.218 360.713,328.105C361.708,328.91 362.902,329.296 364.092,329.302C359.798,350.214 359.12,385.724 379.494,430.657" style="fill:rgb(102,153,204);fill-rule:nonzero;"/>
                            <path d="M360.659,429.498C347.6,382.803 346.673,339.564 365.913,300.76C380.308,271.73 398.847,256.248 399.024,256.1C399.606,255.626 400.059,255.055 400.387,254.431C400.651,254.234 400.811,254.117 400.826,254.106C400.885,254.065 400.928,254.012 400.984,253.968C401.138,253.852 401.277,253.725 401.414,253.594C401.537,253.476 401.662,253.359 401.773,253.23C401.892,253.093 401.998,252.949 402.101,252.8C402.203,252.658 402.302,252.517 402.386,252.367C402.474,252.217 402.546,252.059 402.616,251.901C402.688,251.742 402.759,251.585 402.813,251.42C402.87,251.254 402.911,251.086 402.95,250.915C402.989,250.75 403.026,250.586 403.05,250.418C403.075,250.24 403.085,250.063 403.091,249.882C403.099,249.714 403.103,249.549 403.093,249.38C403.085,249.202 403.058,249.026 403.031,248.848C403.006,248.675 402.976,248.504 402.933,248.336C402.888,248.165 402.829,247.999 402.769,247.831C402.705,247.658 402.638,247.489 402.558,247.32C402.527,247.255 402.511,247.185 402.476,247.121C402.421,247.017 402.343,246.933 402.283,246.834C402.224,246.74 402.185,246.64 402.121,246.549C402.082,246.491 402.029,246.449 401.988,246.395C401.869,246.239 401.74,246.098 401.609,245.959C401.492,245.834 401.373,245.712 401.246,245.601C401.109,245.483 400.967,245.377 400.82,245.273C400.677,245.172 400.535,245.074 400.382,244.989C400.23,244.901 400.073,244.828 399.915,244.757C399.759,244.687 399.603,244.618 399.44,244.564C399.27,244.505 399.096,244.464 398.92,244.422C398.76,244.385 398.602,244.349 398.44,244.325C398.254,244.3 398.073,244.291 397.885,244.284C397.725,244.278 397.563,244.272 397.401,244.282C397.219,244.291 397.038,244.317 396.856,244.346C396.686,244.371 396.518,244.4 396.35,244.443C396.182,244.486 396.016,244.546 395.848,244.606C395.674,244.67 395.5,244.738 395.33,244.82C395.266,244.85 395.199,244.866 395.137,244.9L360.495,263.437C357.856,264.849 356.859,268.135 358.272,270.776C359.274,272.648 361.219,273.693 363.207,273.637C364.021,273.615 364.843,273.408 365.611,272.997L367.81,271.82C363.214,277.596 358.476,284.308 353.985,291.959C337.503,320.035 317.694,368.308 335.004,430.209" style="fill:rgb(102,153,204);fill-rule:nonzero;"/>
                        </g>
                    </g>
                </g>
            </g>
        </g>
    </g>
</svg>
