<?xml version="1.0" encoding="UTF-8" standalone="no"?><!DOCTYPE svg PUBLIC "-//W3C//DTD SVG 1.1//EN" "http://www.w3.org/Graphics/SVG/1.1/DTD/svg11.dtd"><svg width="100%" height="100%" viewBox="0 0 500 500" version="1.1" xmlns="http://www.w3.org/2000/svg" xmlns:xlink="http://www.w3.org/1999/xlink" xml:space="preserve" style="fill-rule:evenodd;clip-rule:evenodd;stroke-linejoin:round;stroke-miterlimit:1.41421;"><path d="M388.112,444.724l0,-126.899l42.117,0l0,169.016l-380.149,0l0,-169.016l42.117,0l0,126.899l295.915,0Z" style="fill-rule:nonzero;"/><path d="M138.69,305.792l206.758,43.211l8.751,-41.57l-206.757,-43.212l-8.752,41.571Zm27.349,-98.456l191.442,89.157l17.503,-38.288l-191.442,-89.705l-17.503,38.836Zm53.057,-94.08l162.452,135.103l26.802,-32.272l-162.452,-135.103l-26.802,32.272Zm105.019,-100.097l-33.912,25.161l125.805,169.563l33.912,-25.161l-125.805,-169.563Zm-189.801,388.901l211.134,0l0,-42.118l-211.134,0l0,42.118Z" style="fill-rule:nonzero;"/></svg>