<?xml version="1.0" encoding="UTF-8" standalone="no"?>
<!DOCTYPE svg PUBLIC "-//W3C//DTD SVG 1.1//EN" "http://www.w3.org/Graphics/SVG/1.1/DTD/svg11.dtd">
<svg width="100%" height="100%" viewBox="0 0 321 321" version="1.1" xmlns="http://www.w3.org/2000/svg" xmlns:xlink="http://www.w3.org/1999/xlink" xml:space="preserve" style="fill-rule:evenodd;clip-rule:evenodd;stroke-linejoin:round;stroke-miterlimit:1.41421;">
    <g transform="matrix(4.16667,0,0,4.16667,0,0)">
        <path d="M38.2,77C17.692,76.858 -0.137,59.832 0,38.201C0.133,17.387 17.423,-0.138 38.816,0.005C59.608,0.143 77.15,17.408 76.964,38.561C77.136,59.521 59.508,77.147 38.2,77ZM38.2,77C17.692,76.858 -0.137,59.832 0,38.201C0.133,17.387 17.423,-0.138 38.816,0.005C59.608,0.143 77.15,17.408 76.964,38.561C77.136,59.521 59.508,77.147 38.2,77Z" style="fill:white;fill-rule:nonzero;"/>
        <path d="M38.275,72.015C20.446,71.892 4.945,57.09 5.065,38.284C5.181,20.188 20.212,4.953 38.811,5.077C56.887,5.198 72.137,20.208 71.976,38.597C72.126,56.819 56.801,72.144 38.275,72.015ZM38.275,72.015C20.446,71.892 4.945,57.09 5.065,38.284C5.181,20.188 20.212,4.953 38.811,5.077C56.887,5.198 72.137,20.208 71.976,38.597C72.126,56.819 56.801,72.144 38.275,72.015Z" style="fill:rgb(88,134,59);fill-rule:nonzero;"/>
        <path d="M50.861,38.574C50.941,37.105 49.594,35.821 48.075,35.813C46.532,35.805 45.258,37.016 45.236,38.512C45.213,40.014 46.464,41.253 48.01,41.259C49.383,41.491 50.773,40.167 50.861,38.574Z" style="fill:white;fill-rule:nonzero;"/>
        <path d="M26.426,54.014C25.036,53.973 24.512,53.631 24.376,52.284C24.199,50.551 24.249,48.796 24.139,47.054C23.934,43.812 23.574,40.619 20.417,38.565C22.044,37.36 23.218,35.942 23.591,34.031C23.847,32.716 24.036,31.378 24.127,30.041C24.218,28.696 24.056,27.331 24.174,25.99C24.362,23.85 24.496,22.97 27.08,23.049C27.463,23.061 27.848,23 28.271,22.97L28.271,18.725C27.248,18.725 26.342,18.684 25.44,18.732C22.269,18.9 20.349,20.403 19.825,23.495C19.464,25.634 19.52,27.841 19.362,30.015C19.28,31.137 19.249,32.278 19.002,33.366C18.555,35.334 17.712,35.947 15.713,36.045C15.468,36.057 15.227,36.127 14.921,36.181L14.921,40.91C18.566,41.09 19.058,42.387 19.348,46.185C19.453,47.565 19.301,48.964 19.389,50.347C19.472,51.648 19.61,52.964 19.912,54.228C20.742,57.699 24.125,58.866 28.231,58.171L28.231,54.017C27.572,54.017 26.999,54.032 26.426,54.014Z" style="fill:white;fill-rule:nonzero;"/>
        <path d="M29.087,35.813C27.507,35.802 26.27,36.965 26.232,38.498C26.195,40.002 27.447,41.252 28.995,41.259C30.612,41.266 31.804,40.142 31.823,38.593C31.842,37.057 30.627,35.824 29.087,35.813Z" style="fill:white;fill-rule:nonzero;"/>
        <path d="M38.495,35.813C36.896,35.825 35.796,36.96 35.805,38.588C35.814,40.211 36.911,41.265 38.581,41.259C40.221,41.252 41.261,40.179 41.252,38.503C41.243,36.87 40.146,35.8 38.495,35.813Z" style="fill:white;fill-rule:nonzero;"/>
        <path d="M58.193,33.745C57.914,32.701 57.777,31.606 57.708,30.525C57.579,28.527 57.599,26.52 57.466,24.522C57.147,19.763 53.712,18.11 48.739,18.935L48.739,23.061C49.52,23.061 50.13,23.049 50.739,23.064C51.804,23.09 52.607,23.494 52.721,24.663C52.826,25.746 52.822,26.84 52.923,27.923C53.126,30.09 53.25,32.275 53.632,34.413C53.947,36.178 55.163,37.484 56.677,38.564C54.03,40.336 53.252,42.875 53.125,45.716C53.037,47.682 52.994,49.65 52.897,51.615C52.809,53.404 52.172,53.985 50.371,54.028C49.872,54.04 49.375,54.088 48.814,54.123L48.814,58.347C49.86,58.347 50.838,58.395 51.809,58.338C54.824,58.16 56.651,56.702 57.239,53.779C57.56,52.189 57.572,50.534 57.684,48.906C57.786,47.419 57.774,45.922 57.924,44.44C58.157,42.119 59.212,41.17 61.527,41.026C61.732,41.012 61.932,40.93 62.171,40.872L62.171,36.145C61.782,36.102 61.501,36.054 61.218,36.041C59.488,35.962 58.632,35.386 58.193,33.745Z" style="fill:white;fill-rule:nonzero;"/>
    </g>
</svg>
