<?xml version="1.0" standalone="no"?>
<!DOCTYPE svg PUBLIC "-//W3C//DTD SVG 20010904//EN"
 "http://www.w3.org/TR/2001/REC-SVG-20010904/DTD/svg10.dtd">
<svg version="1.0" xmlns="http://www.w3.org/2000/svg"
 width="1560.000000pt" height="1560.000000pt" viewBox="0 0 1560.000000 1560.000000"
 preserveAspectRatio="xMidYMid meet">
<metadata>
Created by potrace 1.11, written by Peter Selinger 2001-2013
</metadata>
<g transform="translate(0.000000,1560.000000) scale(0.100000,-0.100000)"
fill="#000000" stroke="none">
<path d="M5517 15254 c-1 -1 -87 -4 -192 -8 -104 -4 -208 -8 -230 -10 -22 -3
-71 -7 -110 -11 -150 -13 -456 -56 -560 -79 -208 -46 -346 -82 -500 -133 -902
-294 -1481 -841 -1665 -1570 -11 -46 -23 -104 -26 -130 -3 -26 -7 -50 -9 -53
-7 -11 -19 -198 -19 -300 0 -420 127 -887 372 -1360 93 -179 318 -561 342
-580 4 -3 31 -41 60 -85 29 -44 65 -96 80 -115 15 -19 55 -73 90 -120 340
-451 821 -962 1281 -1361 11 -10 19 -23 17 -28 -1 -6 -68 -51 -148 -100 -80
-50 -150 -94 -155 -99 -6 -5 -15 -11 -21 -13 -9 -4 -99 -60 -387 -241 -67 -42
-147 -92 -177 -109 -30 -18 -56 -36 -58 -41 -2 -4 -8 -8 -13 -8 -25 0 -211
-134 -261 -189 -118 -127 -171 -304 -144 -483 12 -87 73 -218 128 -278 52 -56
51 -51 7 -131 -286 -520 -595 -1325 -750 -1959 -10 -41 -25 -102 -34 -135 -8
-33 -29 -123 -45 -200 -17 -77 -37 -171 -46 -210 -8 -38 -17 -83 -20 -100 -5
-35 -26 -153 -54 -310 -10 -60 -22 -135 -25 -165 -3 -30 -14 -113 -25 -185
-17 -122 -25 -188 -35 -295 -2 -25 -7 -65 -10 -90 -3 -25 -7 -72 -10 -105 -3
-33 -7 -80 -10 -104 -6 -63 -13 -160 -21 -296 -4 -66 -8 -140 -10 -165 -22
-327 -22 -1157 1 -1525 2 -33 6 -124 9 -202 4 -78 8 -161 11 -185 2 -24 7 -81
10 -128 3 -47 8 -107 10 -135 2 -27 7 -79 10 -115 15 -186 28 -240 81 -340 36
-68 90 -131 152 -178 21 -15 39 -30 42 -33 12 -15 114 -60 167 -75 59 -15 191
-20 252 -9 190 34 373 186 437 365 19 52 20 53 104 64 19 2 70 10 114 16 73
11 122 17 154 19 9 1 11 12 7 44 -9 60 -13 91 -25 187 -15 117 -20 161 -25
190 -2 14 -7 48 -10 75 -3 28 -7 68 -10 90 -2 22 -7 72 -11 110 -9 102 -12
134 -18 190 -9 76 -22 235 -31 370 -3 39 -7 102 -10 140 -32 439 -37 1344 -10
1652 2 22 6 94 10 160 4 65 8 132 10 148 11 123 17 187 21 230 6 67 14 144 19
175 2 14 7 50 10 80 3 30 8 66 10 80 2 14 7 50 10 80 3 30 9 69 11 85 3 17 7
41 9 55 9 61 17 113 37 220 11 63 21 124 23 135 15 112 138 644 188 815 14 47
37 125 51 175 44 149 146 444 186 535 96 224 336 624 537 898 55 76 173 222
201 252 13 13 13 13 4 -5 -273 -554 -431 -945 -615 -1530 -41 -129 -117 -419
-162 -615 -38 -165 -108 -550 -130 -710 -3 -25 -8 -56 -10 -70 -10 -68 -15
-110 -20 -160 -3 -30 -8 -71 -10 -90 -11 -97 -16 -141 -21 -200 -2 -36 -6 -87
-9 -115 -16 -203 -20 -378 -19 -865 0 -498 6 -779 19 -895 2 -22 7 -80 11
-130 9 -126 11 -144 18 -200 3 -27 8 -75 11 -105 3 -30 8 -66 10 -80 2 -14 7
-46 10 -72 38 -330 128 -785 237 -1201 37 -142 44 -158 62 -156 49 3 76 -2 76
-15 0 -7 10 -38 22 -67 129 -314 488 -452 793 -305 149 72 255 200 305 366 9
32 22 56 31 56 8 1 39 2 70 3 l56 1 -34 128 c-42 156 -122 468 -127 496 -2 12
-14 62 -25 111 -46 198 -60 262 -66 295 -3 19 -15 80 -26 135 -11 55 -23 111
-25 125 -3 14 -11 59 -19 100 -8 41 -17 93 -20 115 -3 22 -7 51 -10 65 -5 22
-18 110 -40 255 -4 22 -8 51 -10 65 -2 14 -7 51 -10 83 -4 32 -8 66 -10 76 -2
10 -6 42 -10 72 -3 30 -8 70 -10 89 -9 70 -15 126 -20 185 -2 33 -7 85 -10
115 -40 421 -49 1044 -20 1450 7 97 16 207 20 250 22 215 34 304 51 389 8 42
18 90 21 106 10 58 142 567 148 573 2 2 23 -15 47 -37 23 -23 47 -41 52 -41 7
0 1 -96 -9 -150 -2 -9 -6 -43 -10 -75 -4 -33 -8 -71 -10 -85 -4 -23 -12 -104
-21 -210 -22 -266 -22 -856 1 -1050 2 -19 6 -66 10 -105 14 -168 24 -266 36
-350 5 -38 12 -88 15 -110 61 -464 204 -1078 381 -1635 55 -174 185 -550 213
-615 4 -11 46 -117 93 -235 47 -118 97 -242 112 -275 37 -83 48 -109 85 -195
47 -110 97 -206 122 -237 129 -154 280 -226 473 -226 217 1 428 139 516 338
15 33 26 45 42 46 12 0 31 2 42 4 11 2 47 7 80 10 33 3 74 7 90 10 17 2 59 6
95 9 69 6 110 13 116 19 2 2 -35 91 -82 198 -47 107 -119 277 -160 379 -42
102 -79 194 -84 205 -26 60 -136 354 -194 515 -110 310 -296 902 -320 1015 -1
6 -5 16 -9 23 -5 6 -6 12 -3 12 2 0 0 15 -5 33 -9 26 -35 130 -55 209 -2 10
-6 26 -9 35 -14 56 -39 160 -56 238 -51 235 -61 282 -64 305 -2 14 -8 45 -14
70 -9 41 -63 358 -75 440 -9 64 -26 195 -31 235 -3 22 -7 60 -10 85 -3 25 -8
65 -10 90 -3 25 -7 68 -10 95 -34 342 -46 753 -31 1078 7 158 16 202 70 360
68 200 191 461 281 596 97 143 115 176 137 248 12 40 26 73 30 73 4 0 74 -32
155 -71 189 -91 441 -202 646 -285 89 -36 171 -69 182 -74 11 -5 72 -27 135
-50 63 -23 125 -45 137 -50 44 -18 331 -112 490 -161 229 -70 574 -156 818
-205 51 -10 315 -54 360 -59 28 -4 59 -8 70 -10 11 -1 56 -6 100 -10 44 -4 89
-9 100 -11 45 -8 270 -18 430 -17 222 0 439 14 586 38 13 2 47 6 74 10 28 3
70 11 95 16 25 6 56 13 70 15 77 14 273 68 375 104 835 293 1370 916 1510
1760 27 159 33 264 30 515 -2 149 -6 281 -8 295 -5 24 -11 69 -23 168 -4 40
-56 307 -68 352 -3 8 -9 37 -16 64 -34 152 -127 433 -212 646 -92 232 -233
514 -362 729 -31 51 -56 95 -56 97 0 2 -16 26 -35 53 -19 26 -35 51 -35 54 0
20 -354 508 -448 618 -11 13 -49 58 -83 99 -309 372 -746 795 -1184 1146 -346
276 -874 634 -1215 822 -25 14 -49 28 -55 32 -33 25 -538 283 -665 340 -52 23
-120 54 -150 67 -106 48 -135 61 -186 81 -27 12 -90 37 -140 57 -204 83 -573
211 -794 275 -41 12 -95 28 -120 36 -214 63 -663 162 -910 199 -25 4 -52 8
-60 10 -27 4 -104 15 -145 20 -22 3 -51 7 -65 10 -14 2 -59 7 -100 11 -41 3
-83 8 -92 9 -10 2 -59 7 -110 11 -51 3 -109 8 -128 10 -86 7 -597 23 -603 18z
m763 -708 c58 -4 123 -9 145 -11 22 -2 76 -7 120 -11 44 -4 89 -8 100 -10 119
-14 187 -22 227 -29 36 -6 74 -13 118 -20 146 -23 286 -53 530 -111 292 -70
656 -189 995 -326 288 -116 737 -332 938 -452 43 -25 80 -46 82 -46 15 0 540
-331 590 -372 6 -5 71 -53 146 -107 117 -85 374 -283 389 -300 3 -3 32 -28 65
-56 154 -128 354 -315 519 -485 51 -52 115 -120 142 -150 28 -30 61 -66 73
-80 127 -139 322 -390 467 -600 161 -233 345 -564 443 -795 23 -55 46 -109 52
-120 62 -138 167 -490 204 -690 10 -49 19 -98 21 -108 21 -112 37 -297 37
-442 1 -111 -9 -293 -17 -315 -2 -8 -7 -37 -10 -65 -19 -169 -97 -412 -189
-589 -47 -90 -147 -244 -198 -302 -42 -49 -216 -222 -249 -249 -183 -146 -381
-255 -619 -342 -102 -37 -366 -107 -441 -117 -25 -3 -55 -8 -67 -10 -19 -4
-50 -9 -148 -21 -177 -23 -631 -23 -810 0 -72 9 -123 15 -165 20 -25 3 -63 8
-85 11 -22 4 -51 8 -65 9 -52 6 -301 56 -426 85 -410 96 -961 275 -1279 415
-16 7 -55 23 -85 35 -330 134 -815 378 -1188 597 l-143 84 23 32 c116 166 322
428 478 607 120 138 127 145 142 133 48 -39 510 -277 648 -333 25 -10 83 -35
130 -55 47 -20 96 -40 110 -45 14 -4 84 -29 155 -55 136 -48 438 -137 515
-151 25 -4 47 -8 50 -9 3 -1 32 -7 65 -14 33 -7 79 -17 102 -22 23 -5 70 -12
105 -15 35 -3 66 -8 69 -10 28 -17 429 -24 584 -11 365 32 695 171 908 382
395 393 426 1016 87 1720 -38 77 -93 180 -124 229 -31 48 -56 92 -56 96 0 5
-3 10 -7 12 -5 2 -21 23 -38 48 -31 48 -179 244 -205 272 -8 9 -35 41 -60 71
-67 81 -350 361 -465 459 -192 164 -604 462 -657 476 -10 2 -18 8 -18 13 0 5
-4 9 -9 9 -5 0 -48 24 -97 53 -247 148 -637 324 -949 429 -237 80 -592 163
-780 183 -33 4 -70 8 -81 10 -132 20 -563 27 -714 11 -63 -6 -179 -25 -265
-42 -11 -2 -29 -6 -40 -8 -39 -7 -170 -47 -240 -73 -357 -132 -630 -389 -730
-686 -57 -171 -69 -415 -30 -622 13 -67 68 -243 100 -322 38 -91 130 -274 170
-338 14 -22 28 -47 32 -55 43 -90 308 -435 444 -577 l59 -61 -32 -20 c-18 -11
-60 -34 -93 -52 -64 -35 -91 -50 -170 -95 -27 -15 -70 -39 -95 -53 -156 -87
-255 -193 -300 -323 l-13 -37 -71 -1 c-40 -1 -95 -7 -123 -14 l-52 -14 -73 66
c-105 94 -459 450 -558 561 -47 52 -93 104 -103 115 -10 11 -44 51 -75 90 -31
38 -65 79 -75 90 -70 77 -342 458 -425 595 -131 217 -262 471 -324 630 -65
165 -139 423 -154 540 -2 19 -7 46 -10 60 -9 47 -18 195 -18 290 1 150 14 270
40 375 9 33 17 67 19 76 10 49 63 186 101 264 58 117 69 135 135 230 246 351
651 622 1176 788 120 38 386 102 468 113 28 3 53 8 56 10 3 1 30 6 60 9 30 3
61 8 69 10 8 2 51 7 94 11 44 3 89 8 100 10 12 2 89 7 171 10 83 4 151 8 152
9 6 4 394 -3 493 -9z m1021 -2250 c35 -4 80 -9 99 -11 19 -2 53 -7 75 -11 22
-3 49 -8 60 -9 71 -7 229 -46 390 -96 879 -275 1698 -958 1963 -1639 74 -191
100 -325 97 -494 -5 -230 -69 -385 -221 -533 -331 -322 -953 -357 -1689 -95
-191 69 -545 231 -545 250 0 4 15 20 33 36 30 26 176 158 201 181 6 6 25 21
43 33 l31 22 117 -45 c124 -48 290 -97 390 -114 33 -6 69 -13 80 -15 94 -18
292 -24 385 -11 292 38 496 174 569 380 63 180 39 396 -70 623 -42 86 -129
233 -149 252 -3 3 -27 32 -52 65 -175 228 -500 485 -817 645 -215 108 -470
196 -651 225 -25 4 -54 9 -65 11 -43 8 -173 18 -245 18 -288 2 -499 -66 -644
-208 -113 -110 -157 -219 -157 -386 0 -174 68 -358 209 -568 35 -52 62 -95 60
-96 -14 -10 -173 -99 -190 -106 -13 -6 -30 -14 -38 -20 -8 -5 -38 -23 -67 -39
l-51 -29 -48 60 c-150 191 -265 392 -328 570 -28 81 -29 83 -51 193 -13 67
-15 274 -3 320 3 11 11 40 18 65 19 70 74 171 130 238 47 57 168 162 186 162
4 0 15 7 25 16 45 41 283 125 394 140 28 3 53 8 56 10 4 2 44 7 90 10 46 4 85
7 86 9 6 4 234 -3 294 -9z m-1067 -4281 c18 -14 18 -16 -17 -52 -35 -37 -95
-109 -129 -154 -33 -43 -18 -9 35 79 28 48 58 100 66 115 16 31 19 32 45 12z"/>
</g>
</svg>
