<?xml version="1.0" encoding="UTF-8" standalone="no"?>
<!DOCTYPE svg PUBLIC "-//W3C//DTD SVG 1.1//EN" "http://www.w3.org/Graphics/SVG/1.1/DTD/svg11.dtd">
<svg width="100%" height="100%" viewBox="0 0 49 39" version="1.1" xmlns="http://www.w3.org/2000/svg" xmlns:xlink="http://www.w3.org/1999/xlink" xml:space="preserve" xmlns:serif="http://www.serif.com/" style="fill-rule:evenodd;clip-rule:evenodd;stroke-linejoin:round;stroke-miterlimit:1.41421;">
    <g transform="matrix(0.116183,0,0,0.116183,26.4056,25.9252)">
        <path d="M0,85.122C4.774,85.821 9.263,86.17 13.464,86.17C22.624,86.17 29.192,84.758 33.169,81.933C37.144,79.108 39.133,74.332 39.133,67.602L39.133,65.793C39.133,59.51 37.097,54.892 33.025,51.939C28.951,48.988 22.303,47.512 13.076,47.512L0,47.512L0,85.122ZM0,29.041L11.936,29.041C19.448,29.041 24.811,27.965 28.026,25.813C31.241,23.662 32.849,19.93 32.849,14.613L32.849,12.81C32.849,3.572 26.165,-1.047 12.796,-1.047C9.04,-1.047 4.774,-0.826 0,-0.382L0,29.041ZM-25.613,100.928L-25.613,-16.416C-16.267,-18.928 -3.877,-20.186 11.555,-20.186C19.482,-20.186 26.199,-19.691 31.705,-18.707C37.209,-17.72 42.039,-16.019 46.192,-13.603C50.345,-11.186 53.427,-7.832 55.442,-3.538C57.455,0.756 58.462,6.082 58.462,12.44L58.462,14.635C58.462,25.065 54.775,32.475 47.404,36.863C53.786,38.765 58.526,41.98 61.624,46.513C64.721,51.044 66.27,57.428 66.27,65.667L66.27,67.852C66.27,80.592 61.733,90.019 52.663,96.134C43.59,102.25 30.079,105.308 12.128,105.308C-3.684,105.308 -16.264,103.847 -25.613,100.928" style="fill:rgb(62,168,54);fill-rule:nonzero;"/>
    </g>
    <g transform="matrix(0.116183,0,0,0.116183,38.6627,33.5914)">
        <path d="M0,-14.664L34.087,-14.664C33.896,-27.613 28.31,-34.088 17.329,-34.088C11.869,-34.088 7.727,-32.5 4.903,-29.326C2.078,-26.151 0.443,-21.265 0,-14.664M-25.994,-5.999L-25.994,-8.855C-25.994,-23.962 -22.361,-35.261 -15.092,-42.752C-7.824,-50.241 2.792,-53.987 16.758,-53.987C30.976,-53.987 41.688,-50.241 48.893,-42.752C56.096,-35.261 59.7,-23.613 59.7,-7.809L59.7,1.332L1.252,1.332C2.205,8.188 4.728,12.918 8.822,15.52C12.917,18.123 19.66,19.424 29.055,19.424C38.767,19.424 48.384,18.535 57.905,16.758L60.476,35.229C57.367,36.182 52.149,37.103 44.825,37.99C37.5,38.878 31.08,39.323 25.563,39.323C8.44,39.323 -4.434,35.738 -13.058,28.565C-21.682,21.392 -25.994,9.871 -25.994,-5.999" style="fill:rgb(62,168,54);fill-rule:nonzero;"/>
    </g>
    <g transform="matrix(0.116183,0,0,0.116183,17.986,24.1398)">
        <path d="M0,78.399L0,-0.001C0,-3.398 -1.812,-6.537 -4.753,-8.235L-72.65,-47.435C-75.592,-49.133 -79.216,-49.133 -82.158,-47.435L-150.054,-8.235C-152.996,-6.537 -154.808,-3.398 -154.808,-0.001L-154.808,78.399C-154.808,81.795 -152.996,84.935 -150.054,86.633L-82.158,125.834C-79.216,127.532 -75.592,127.532 -72.65,125.834L-4.753,86.633C-1.812,84.935 0,81.795 0,78.399" style="fill:rgb(241,145,7);fill-rule:nonzero;"/>
    </g>
    <g transform="matrix(0.116183,0,0,0.116183,28.6748,6.94469)">
        <path d="M-77.071,-59.773C-73.701,-59.691 -70.384,-58.805 -67.416,-57.189C-44.561,-44.25 -21.924,-30.928 0.821,-17.796C6.9,-14.218 10.887,-7.466 11.065,-0.343C11.284,25.919 11.068,52.183 11.068,78.446C11.009,85.506 7.157,92.33 1.077,96.045C-21.558,109.366 -44.412,122.311 -67.156,135.442C-73.298,138.919 -81.134,138.995 -87.392,135.589C-110.246,122.649 -132.882,109.328 -155.627,96.196C-161.748,92.595 -165.695,85.866 -165.873,78.743C-166.092,52.481 -165.876,26.217 -165.876,-0.046C-165.817,-7.1 -161.966,-13.929 -155.882,-17.646C-133.246,-30.963 -110.395,-43.911 -87.651,-57.042C-84.382,-58.893 -81.457,-59.808 -77.071,-59.773ZM-143.74,0.901L-143.74,77.499L-77.404,115.799L-11.068,77.5L-11.068,0.9L-77.404,-37.399C-99.516,-24.632 -121.628,-11.866 -143.74,0.901Z" style="fill:rgb(241,145,7);fill-rule:nonzero;"/>
    </g>
</svg>
