<svg width="141" height="141" viewBox="0 0 141 141" fill="none" xmlns="http://www.w3.org/2000/svg">
	<rect width="141" height="141" fill="black" />
	<rect x="18" y="18" width="106" height="27" rx="4" fill="white" />
	<rect x="53" y="34" width="35" height="89" rx="4" fill="white" />
	<rect x="53" y="69" width="58" height="20" rx="4" fill="white" />
	<path d="M70.5 95.9977C93.0263 95.7354 73.1887 72.3301 87.5283 52.5482C101.868 32.7662 118 31 118 31H23C23 31 37.3396 31.7065 52.5755 52.5482C67.8113 73.3898 47.868 96.2614 70.5 95.9977Z" fill="white" />
	<path d="M107.327 78.3296C107.161 60.6268 95.9464 76.2427 86.4122 64.9951C76.878 53.7476 76 41.0715 76 41.0715L76.1709 115.731C76.1709 115.731 76.4847 104.461 86.4751 92.4641C96.4654 80.4675 107.495 96.1156 107.327 78.3296Z" fill="white" />
</svg>
